M48
INCH,TZ
T1C0.030
T2C0.040
%
G90
G05
T1
X069300Y-014900
X069300Y-015900
X069300Y-016900
X069300Y-017900
X069300Y-018900
X069300Y-019900
X069300Y-020900
X069300Y-021900
X069300Y-024900
X069300Y-025900
X069300Y-026900
X069300Y-027900
X069300Y-028900
X069300Y-029900
X069300Y-030900
X069300Y-031900
X072300Y-014900
X072300Y-015900
X072300Y-016900
X072300Y-017900
X072300Y-018900
X072300Y-019900
X072300Y-020900
X072300Y-021900
X072300Y-024900
X072300Y-025900
X072300Y-026900
X072300Y-027900
X072300Y-028900
X072300Y-029900
X072300Y-030900
X072300Y-031900
T2
X066100Y-014900
X066100Y-015900
X066100Y-016900
X066100Y-017900
X066100Y-018900
X066100Y-019900
X066100Y-020900
X066100Y-021900
X066100Y-022900
X066100Y-023900
X066100Y-024900
X066100Y-025900
X066100Y-026900
X066100Y-027900
X066100Y-028900
X066100Y-029900
X066100Y-030900
X066100Y-031900
X067600Y-014900
X067600Y-015900
X067600Y-016900
X067600Y-017900
X067600Y-018900
X067600Y-019900
X067600Y-020900
X067600Y-021900
X067600Y-022900
X067600Y-023900
X067600Y-024900
X067600Y-025900
X067600Y-026900
X067600Y-027900
X067600Y-028900
X067600Y-029900
X067600Y-030900
X067600Y-031900
X075100Y-014900
X075100Y-015900
X075100Y-016900
X075100Y-017900
X075100Y-018900
X075100Y-019900
X075100Y-020900
X075100Y-021900
X075100Y-022900
X075100Y-023900
X075100Y-024900
X075100Y-025900
X075100Y-026900
X075100Y-027900
X075100Y-028900
X075100Y-029900
X075100Y-030900
X075100Y-031900
T0
M30
