G04 (created by PCBNEW (2013-01-23 BZR 3920)-testing) date Thu 24 Jan 2013 01:11:53 AM CET*
%MOIN*%
G04 Gerber Fmt 3.4, Leading zero omitted, Abs format*
%FSLAX34Y34*%
G01*
G70*
G90*
G04 APERTURE LIST*
%ADD10C,2.3622e-06*%
%ADD11C,0.015*%
%ADD12C,0.012*%
%ADD13O,0.08X0.05*%
%ADD14R,0.06X0.06*%
%ADD15C,0.06*%
G04 APERTURE END LIST*
G54D10*
G54D11*
X64950Y-33050D02*
X64950Y-13750D01*
X76250Y-33050D02*
X76250Y-13750D01*
X64950Y-33050D02*
X76250Y-33050D01*
X64950Y-13750D02*
X76250Y-13750D01*
G54D12*
X73369Y-14671D02*
X73321Y-14642D01*
X73250Y-14642D01*
X73178Y-14671D01*
X73130Y-14728D01*
X73107Y-14785D01*
X73083Y-14900D01*
X73083Y-14985D01*
X73107Y-15100D01*
X73130Y-15157D01*
X73178Y-15214D01*
X73250Y-15242D01*
X73297Y-15242D01*
X73369Y-15214D01*
X73392Y-15185D01*
X73392Y-14985D01*
X73297Y-14985D01*
X73607Y-15242D02*
X73607Y-14642D01*
X73892Y-15242D01*
X73892Y-14642D01*
X74130Y-15242D02*
X74130Y-14642D01*
X74250Y-14642D01*
X74321Y-14671D01*
X74369Y-14728D01*
X74392Y-14785D01*
X74416Y-14900D01*
X74416Y-14985D01*
X74392Y-15100D01*
X74369Y-15157D01*
X74321Y-15214D01*
X74250Y-15242D01*
X74130Y-15242D01*
X73550Y-23642D02*
X73950Y-23642D01*
X73692Y-24242D01*
X73864Y-24642D02*
X73750Y-24642D01*
X73692Y-24671D01*
X73664Y-24700D01*
X73607Y-24785D01*
X73578Y-24900D01*
X73578Y-25128D01*
X73607Y-25185D01*
X73635Y-25214D01*
X73692Y-25242D01*
X73807Y-25242D01*
X73864Y-25214D01*
X73892Y-25185D01*
X73921Y-25128D01*
X73921Y-24985D01*
X73892Y-24928D01*
X73864Y-24900D01*
X73807Y-24871D01*
X73692Y-24871D01*
X73635Y-24900D01*
X73607Y-24928D01*
X73578Y-24985D01*
X73892Y-25642D02*
X73607Y-25642D01*
X73578Y-25928D01*
X73607Y-25900D01*
X73664Y-25871D01*
X73807Y-25871D01*
X73864Y-25900D01*
X73892Y-25928D01*
X73921Y-25985D01*
X73921Y-26128D01*
X73892Y-26185D01*
X73864Y-26214D01*
X73807Y-26242D01*
X73664Y-26242D01*
X73607Y-26214D01*
X73578Y-26185D01*
X73864Y-26842D02*
X73864Y-27242D01*
X73721Y-26614D02*
X73578Y-27042D01*
X73950Y-27042D01*
X73550Y-27642D02*
X73921Y-27642D01*
X73721Y-27871D01*
X73807Y-27871D01*
X73864Y-27900D01*
X73892Y-27928D01*
X73921Y-27985D01*
X73921Y-28128D01*
X73892Y-28185D01*
X73864Y-28214D01*
X73807Y-28242D01*
X73635Y-28242D01*
X73578Y-28214D01*
X73550Y-28185D01*
X73578Y-28700D02*
X73607Y-28671D01*
X73664Y-28642D01*
X73807Y-28642D01*
X73864Y-28671D01*
X73892Y-28700D01*
X73921Y-28757D01*
X73921Y-28814D01*
X73892Y-28900D01*
X73550Y-29242D01*
X73921Y-29242D01*
X73721Y-30642D02*
X73778Y-30642D01*
X73835Y-30671D01*
X73864Y-30700D01*
X73892Y-30757D01*
X73921Y-30871D01*
X73921Y-31014D01*
X73892Y-31128D01*
X73864Y-31185D01*
X73835Y-31214D01*
X73778Y-31242D01*
X73721Y-31242D01*
X73664Y-31214D01*
X73635Y-31185D01*
X73607Y-31128D01*
X73578Y-31014D01*
X73578Y-30871D01*
X73607Y-30757D01*
X73635Y-30700D01*
X73664Y-30671D01*
X73721Y-30642D01*
X73921Y-30242D02*
X73578Y-30242D01*
X73750Y-30242D02*
X73750Y-29642D01*
X73692Y-29728D01*
X73635Y-29785D01*
X73578Y-29814D01*
X73369Y-31671D02*
X73321Y-31642D01*
X73250Y-31642D01*
X73178Y-31671D01*
X73130Y-31728D01*
X73107Y-31785D01*
X73083Y-31900D01*
X73083Y-31985D01*
X73107Y-32100D01*
X73130Y-32157D01*
X73178Y-32214D01*
X73250Y-32242D01*
X73297Y-32242D01*
X73369Y-32214D01*
X73392Y-32185D01*
X73392Y-31985D01*
X73297Y-31985D01*
X73607Y-32242D02*
X73607Y-31642D01*
X73892Y-32242D01*
X73892Y-31642D01*
X74130Y-32242D02*
X74130Y-31642D01*
X74250Y-31642D01*
X74321Y-31671D01*
X74369Y-31728D01*
X74392Y-31785D01*
X74416Y-31900D01*
X74416Y-31985D01*
X74392Y-32100D01*
X74369Y-32157D01*
X74321Y-32214D01*
X74250Y-32242D01*
X74130Y-32242D01*
X73692Y-22900D02*
X73635Y-22871D01*
X73607Y-22842D01*
X73578Y-22785D01*
X73578Y-22757D01*
X73607Y-22700D01*
X73635Y-22671D01*
X73692Y-22642D01*
X73807Y-22642D01*
X73864Y-22671D01*
X73892Y-22700D01*
X73921Y-22757D01*
X73921Y-22785D01*
X73892Y-22842D01*
X73864Y-22871D01*
X73807Y-22900D01*
X73692Y-22900D01*
X73635Y-22928D01*
X73607Y-22957D01*
X73578Y-23014D01*
X73578Y-23128D01*
X73607Y-23185D01*
X73635Y-23214D01*
X73692Y-23242D01*
X73807Y-23242D01*
X73864Y-23214D01*
X73892Y-23185D01*
X73921Y-23128D01*
X73921Y-23014D01*
X73892Y-22957D01*
X73864Y-22928D01*
X73807Y-22900D01*
X73635Y-22242D02*
X73750Y-22242D01*
X73807Y-22214D01*
X73835Y-22185D01*
X73892Y-22100D01*
X73921Y-21985D01*
X73921Y-21757D01*
X73892Y-21700D01*
X73864Y-21671D01*
X73807Y-21642D01*
X73692Y-21642D01*
X73635Y-21671D01*
X73607Y-21700D01*
X73578Y-21757D01*
X73578Y-21900D01*
X73607Y-21957D01*
X73635Y-21985D01*
X73692Y-22014D01*
X73807Y-22014D01*
X73864Y-21985D01*
X73892Y-21957D01*
X73921Y-21900D01*
X73635Y-21242D02*
X73292Y-21242D01*
X73464Y-21242D02*
X73464Y-20642D01*
X73407Y-20728D01*
X73350Y-20785D01*
X73292Y-20814D01*
X74007Y-20642D02*
X74064Y-20642D01*
X74121Y-20671D01*
X74150Y-20700D01*
X74178Y-20757D01*
X74207Y-20871D01*
X74207Y-21014D01*
X74178Y-21128D01*
X74150Y-21185D01*
X74121Y-21214D01*
X74064Y-21242D01*
X74007Y-21242D01*
X73950Y-21214D01*
X73921Y-21185D01*
X73892Y-21128D01*
X73864Y-21014D01*
X73864Y-20871D01*
X73892Y-20757D01*
X73921Y-20700D01*
X73950Y-20671D01*
X74007Y-20642D01*
X73635Y-20242D02*
X73292Y-20242D01*
X73464Y-20242D02*
X73464Y-19642D01*
X73407Y-19728D01*
X73350Y-19785D01*
X73292Y-19814D01*
X74207Y-20242D02*
X73864Y-20242D01*
X74035Y-20242D02*
X74035Y-19642D01*
X73978Y-19728D01*
X73921Y-19785D01*
X73864Y-19814D01*
X73635Y-19242D02*
X73292Y-19242D01*
X73464Y-19242D02*
X73464Y-18642D01*
X73407Y-18728D01*
X73350Y-18785D01*
X73292Y-18814D01*
X73864Y-18700D02*
X73892Y-18671D01*
X73950Y-18642D01*
X74092Y-18642D01*
X74150Y-18671D01*
X74178Y-18700D01*
X74207Y-18757D01*
X74207Y-18814D01*
X74178Y-18900D01*
X73835Y-19242D01*
X74207Y-19242D01*
X73635Y-18242D02*
X73292Y-18242D01*
X73464Y-18242D02*
X73464Y-17642D01*
X73407Y-17728D01*
X73350Y-17785D01*
X73292Y-17814D01*
X73835Y-17642D02*
X74207Y-17642D01*
X74007Y-17871D01*
X74092Y-17871D01*
X74150Y-17900D01*
X74178Y-17928D01*
X74207Y-17985D01*
X74207Y-18128D01*
X74178Y-18185D01*
X74150Y-18214D01*
X74092Y-18242D01*
X73921Y-18242D01*
X73864Y-18214D01*
X73835Y-18185D01*
X73635Y-17242D02*
X73292Y-17242D01*
X73464Y-17242D02*
X73464Y-16642D01*
X73407Y-16728D01*
X73350Y-16785D01*
X73292Y-16814D01*
X74150Y-16842D02*
X74150Y-17242D01*
X74007Y-16614D02*
X73864Y-17042D01*
X74235Y-17042D01*
X73635Y-16242D02*
X73292Y-16242D01*
X73464Y-16242D02*
X73464Y-15642D01*
X73407Y-15728D01*
X73350Y-15785D01*
X73292Y-15814D01*
X74178Y-15642D02*
X73892Y-15642D01*
X73864Y-15928D01*
X73892Y-15900D01*
X73950Y-15871D01*
X74092Y-15871D01*
X74150Y-15900D01*
X74178Y-15928D01*
X74207Y-15985D01*
X74207Y-16128D01*
X74178Y-16185D01*
X74150Y-16214D01*
X74092Y-16242D01*
X73950Y-16242D01*
X73892Y-16214D01*
X73864Y-16185D01*
X68807Y-23642D02*
X68807Y-23042D01*
X69035Y-23042D01*
X69092Y-23071D01*
X69121Y-23100D01*
X69150Y-23157D01*
X69150Y-23242D01*
X69121Y-23300D01*
X69092Y-23328D01*
X69035Y-23357D01*
X68807Y-23357D01*
X69407Y-23042D02*
X69407Y-23528D01*
X69435Y-23585D01*
X69464Y-23614D01*
X69521Y-23642D01*
X69635Y-23642D01*
X69692Y-23614D01*
X69721Y-23585D01*
X69750Y-23528D01*
X69750Y-23042D01*
X70321Y-23642D02*
X70035Y-23642D01*
X70035Y-23042D01*
X70807Y-23642D02*
X70521Y-23642D01*
X70521Y-23042D01*
X71007Y-23414D02*
X71464Y-23414D01*
X71750Y-23642D02*
X71750Y-23042D01*
X71892Y-23042D01*
X71978Y-23071D01*
X72035Y-23128D01*
X72064Y-23185D01*
X72092Y-23300D01*
X72092Y-23385D01*
X72064Y-23500D01*
X72035Y-23557D01*
X71978Y-23614D01*
X71892Y-23642D01*
X71750Y-23642D01*
X72350Y-23642D02*
X72350Y-23042D01*
X72692Y-23642D01*
X72692Y-23042D01*
G54D11*
X72800Y-24100D02*
X72800Y-32700D01*
X68800Y-32700D02*
X68800Y-24100D01*
X68800Y-32700D02*
X72800Y-32700D01*
X68800Y-24100D02*
X72800Y-24100D01*
X72800Y-14100D02*
X72800Y-22700D01*
X68800Y-22700D02*
X68800Y-14100D01*
X68800Y-22700D02*
X72800Y-22700D01*
X68800Y-14100D02*
X72800Y-14100D01*
G54D12*
X67100Y-23400D02*
X68100Y-23400D01*
X68100Y-23400D02*
X68100Y-32400D01*
X68100Y-32400D02*
X67100Y-32400D01*
X67100Y-23400D02*
X67100Y-32400D01*
X67100Y-31400D02*
X68100Y-31400D01*
X66600Y-23400D02*
X65600Y-23400D01*
X65600Y-23400D02*
X65600Y-14400D01*
X65600Y-14400D02*
X66600Y-14400D01*
X66600Y-23400D02*
X66600Y-14400D01*
X66600Y-15400D02*
X65600Y-15400D01*
X65600Y-23400D02*
X66600Y-23400D01*
X66600Y-23400D02*
X66600Y-32400D01*
X66600Y-32400D02*
X65600Y-32400D01*
X65600Y-23400D02*
X65600Y-32400D01*
X65600Y-31400D02*
X66600Y-31400D01*
X74600Y-23400D02*
X75600Y-23400D01*
X75600Y-23400D02*
X75600Y-32400D01*
X75600Y-32400D02*
X74600Y-32400D01*
X74600Y-23400D02*
X74600Y-32400D01*
X74600Y-31400D02*
X75600Y-31400D01*
X75600Y-23400D02*
X74600Y-23400D01*
X74600Y-23400D02*
X74600Y-14400D01*
X74600Y-14400D02*
X75600Y-14400D01*
X75600Y-23400D02*
X75600Y-14400D01*
X75600Y-15400D02*
X74600Y-15400D01*
X67100Y-14400D02*
X68100Y-14400D01*
X68100Y-14400D02*
X68100Y-23400D01*
X68100Y-23400D02*
X67100Y-23400D01*
X67100Y-14400D02*
X67100Y-23400D01*
X67100Y-22400D02*
X68100Y-22400D01*
%LPC*%
G54D13*
X72300Y-31900D03*
X72300Y-30900D03*
X72300Y-29900D03*
X72300Y-28900D03*
X72300Y-27900D03*
X72300Y-26900D03*
X72300Y-25900D03*
X72300Y-24900D03*
X69300Y-24900D03*
X69300Y-25900D03*
X69300Y-26900D03*
X69300Y-27900D03*
X69300Y-28900D03*
X69300Y-29900D03*
X69300Y-30900D03*
X69300Y-31900D03*
X72300Y-21900D03*
X72300Y-20900D03*
X72300Y-19900D03*
X72300Y-18900D03*
X72300Y-17900D03*
X72300Y-16900D03*
X72300Y-15900D03*
X72300Y-14900D03*
X69300Y-14900D03*
X69300Y-15900D03*
X69300Y-16900D03*
X69300Y-17900D03*
X69300Y-18900D03*
X69300Y-19900D03*
X69300Y-20900D03*
X69300Y-21900D03*
G54D14*
X67600Y-31900D03*
G54D15*
X67600Y-30900D03*
X67600Y-29900D03*
X67600Y-28900D03*
X67600Y-27900D03*
X67600Y-26900D03*
X67600Y-25900D03*
X67600Y-24900D03*
X67600Y-23900D03*
G54D14*
X66100Y-14900D03*
G54D15*
X66100Y-15900D03*
X66100Y-16900D03*
X66100Y-17900D03*
X66100Y-18900D03*
X66100Y-19900D03*
X66100Y-20900D03*
X66100Y-21900D03*
X66100Y-22900D03*
G54D14*
X66100Y-31900D03*
G54D15*
X66100Y-30900D03*
X66100Y-29900D03*
X66100Y-28900D03*
X66100Y-27900D03*
X66100Y-26900D03*
X66100Y-25900D03*
X66100Y-24900D03*
X66100Y-23900D03*
G54D14*
X75100Y-31900D03*
G54D15*
X75100Y-30900D03*
X75100Y-29900D03*
X75100Y-28900D03*
X75100Y-27900D03*
X75100Y-26900D03*
X75100Y-25900D03*
X75100Y-24900D03*
X75100Y-23900D03*
G54D14*
X75100Y-14900D03*
G54D15*
X75100Y-15900D03*
X75100Y-16900D03*
X75100Y-17900D03*
X75100Y-18900D03*
X75100Y-19900D03*
X75100Y-20900D03*
X75100Y-21900D03*
X75100Y-22900D03*
G54D14*
X67600Y-22900D03*
G54D15*
X67600Y-21900D03*
X67600Y-20900D03*
X67600Y-19900D03*
X67600Y-18900D03*
X67600Y-17900D03*
X67600Y-16900D03*
X67600Y-15900D03*
X67600Y-14900D03*
M02*
