G04 (created by PCBNEW (2013-01-23 BZR 3920)-testing) date Thu 24 Jan 2013 01:11:53 AM CET*
%MOIN*%
G04 Gerber Fmt 3.4, Leading zero omitted, Abs format*
%FSLAX34Y34*%
G01*
G70*
G90*
G04 APERTURE LIST*
%ADD10C,2.3622e-06*%
%ADD11C,0.015*%
%ADD12O,0.08X0.05*%
%ADD13R,0.06X0.06*%
%ADD14C,0.06*%
%ADD15C,0.012*%
%ADD16C,0.01*%
G04 APERTURE END LIST*
G54D10*
G54D11*
X64950Y-33050D02*
X64950Y-13750D01*
X76250Y-33050D02*
X76250Y-13750D01*
X64950Y-33050D02*
X76250Y-33050D01*
X64950Y-13750D02*
X76250Y-13750D01*
G54D12*
X72300Y-31900D03*
X72300Y-30900D03*
X72300Y-29900D03*
X72300Y-28900D03*
X72300Y-27900D03*
X72300Y-26900D03*
X72300Y-25900D03*
X72300Y-24900D03*
X69300Y-24900D03*
X69300Y-25900D03*
X69300Y-26900D03*
X69300Y-27900D03*
X69300Y-28900D03*
X69300Y-29900D03*
X69300Y-30900D03*
X69300Y-31900D03*
X72300Y-21900D03*
X72300Y-20900D03*
X72300Y-19900D03*
X72300Y-18900D03*
X72300Y-17900D03*
X72300Y-16900D03*
X72300Y-15900D03*
X72300Y-14900D03*
X69300Y-14900D03*
X69300Y-15900D03*
X69300Y-16900D03*
X69300Y-17900D03*
X69300Y-18900D03*
X69300Y-19900D03*
X69300Y-20900D03*
X69300Y-21900D03*
G54D13*
X67600Y-31900D03*
G54D14*
X67600Y-30900D03*
X67600Y-29900D03*
X67600Y-28900D03*
X67600Y-27900D03*
X67600Y-26900D03*
X67600Y-25900D03*
X67600Y-24900D03*
X67600Y-23900D03*
G54D13*
X66100Y-14900D03*
G54D14*
X66100Y-15900D03*
X66100Y-16900D03*
X66100Y-17900D03*
X66100Y-18900D03*
X66100Y-19900D03*
X66100Y-20900D03*
X66100Y-21900D03*
X66100Y-22900D03*
G54D13*
X66100Y-31900D03*
G54D14*
X66100Y-30900D03*
X66100Y-29900D03*
X66100Y-28900D03*
X66100Y-27900D03*
X66100Y-26900D03*
X66100Y-25900D03*
X66100Y-24900D03*
X66100Y-23900D03*
G54D13*
X75100Y-31900D03*
G54D14*
X75100Y-30900D03*
X75100Y-29900D03*
X75100Y-28900D03*
X75100Y-27900D03*
X75100Y-26900D03*
X75100Y-25900D03*
X75100Y-24900D03*
X75100Y-23900D03*
G54D13*
X75100Y-14900D03*
G54D14*
X75100Y-15900D03*
X75100Y-16900D03*
X75100Y-17900D03*
X75100Y-18900D03*
X75100Y-19900D03*
X75100Y-20900D03*
X75100Y-21900D03*
X75100Y-22900D03*
G54D13*
X67600Y-22900D03*
G54D14*
X67600Y-21900D03*
X67600Y-20900D03*
X67600Y-19900D03*
X67600Y-18900D03*
X67600Y-17900D03*
X67600Y-16900D03*
X67600Y-15900D03*
X67600Y-14900D03*
G54D15*
X66100Y-14900D02*
X66100Y-14400D01*
X74350Y-14150D02*
X75100Y-14900D01*
X66350Y-14150D02*
X74350Y-14150D01*
X66100Y-14400D02*
X66350Y-14150D01*
X66850Y-15650D02*
X66100Y-14900D01*
X66850Y-22600D02*
X66850Y-15650D01*
X67150Y-22900D02*
X66850Y-22600D01*
X67600Y-31900D02*
X67600Y-32000D01*
X74450Y-32550D02*
X75100Y-31900D01*
X68150Y-32550D02*
X74450Y-32550D01*
X67600Y-32000D02*
X68150Y-32550D01*
X67600Y-22900D02*
X67150Y-22900D01*
X67150Y-22900D02*
X66900Y-23150D01*
X66900Y-31200D02*
X67600Y-31900D01*
X66900Y-23150D02*
X66900Y-31200D01*
X66100Y-31900D02*
X67600Y-31900D01*
G54D10*
G36*
X75925Y-32725D02*
X75650Y-32725D01*
X75650Y-30791D01*
X75566Y-30588D01*
X75411Y-30434D01*
X75330Y-30400D01*
X75411Y-30366D01*
X75565Y-30211D01*
X75649Y-30009D01*
X75650Y-29791D01*
X75566Y-29588D01*
X75411Y-29434D01*
X75330Y-29400D01*
X75411Y-29366D01*
X75565Y-29211D01*
X75649Y-29009D01*
X75650Y-28791D01*
X75566Y-28588D01*
X75411Y-28434D01*
X75330Y-28400D01*
X75411Y-28366D01*
X75565Y-28211D01*
X75649Y-28009D01*
X75650Y-27791D01*
X75566Y-27588D01*
X75411Y-27434D01*
X75330Y-27400D01*
X75411Y-27366D01*
X75565Y-27211D01*
X75649Y-27009D01*
X75650Y-26791D01*
X75566Y-26588D01*
X75411Y-26434D01*
X75330Y-26400D01*
X75411Y-26366D01*
X75565Y-26211D01*
X75649Y-26009D01*
X75650Y-25791D01*
X75566Y-25588D01*
X75411Y-25434D01*
X75330Y-25400D01*
X75411Y-25366D01*
X75565Y-25211D01*
X75649Y-25009D01*
X75650Y-24791D01*
X75566Y-24588D01*
X75411Y-24434D01*
X75330Y-24400D01*
X75411Y-24366D01*
X75565Y-24211D01*
X75649Y-24009D01*
X75650Y-23791D01*
X75566Y-23588D01*
X75411Y-23434D01*
X75330Y-23400D01*
X75411Y-23366D01*
X75565Y-23211D01*
X75649Y-23009D01*
X75650Y-22791D01*
X75566Y-22588D01*
X75411Y-22434D01*
X75330Y-22400D01*
X75411Y-22366D01*
X75565Y-22211D01*
X75649Y-22009D01*
X75650Y-21791D01*
X75566Y-21588D01*
X75411Y-21434D01*
X75330Y-21400D01*
X75411Y-21366D01*
X75565Y-21211D01*
X75649Y-21009D01*
X75650Y-20791D01*
X75566Y-20588D01*
X75411Y-20434D01*
X75330Y-20400D01*
X75411Y-20366D01*
X75565Y-20211D01*
X75649Y-20009D01*
X75650Y-19791D01*
X75566Y-19588D01*
X75411Y-19434D01*
X75330Y-19400D01*
X75411Y-19366D01*
X75565Y-19211D01*
X75649Y-19009D01*
X75650Y-18791D01*
X75566Y-18588D01*
X75411Y-18434D01*
X75330Y-18400D01*
X75411Y-18366D01*
X75565Y-18211D01*
X75649Y-18009D01*
X75650Y-17791D01*
X75566Y-17588D01*
X75411Y-17434D01*
X75330Y-17400D01*
X75411Y-17366D01*
X75565Y-17211D01*
X75649Y-17009D01*
X75650Y-16791D01*
X75566Y-16588D01*
X75411Y-16434D01*
X75330Y-16400D01*
X75411Y-16366D01*
X75565Y-16211D01*
X75649Y-16009D01*
X75650Y-15791D01*
X75566Y-15588D01*
X75427Y-15449D01*
X75449Y-15449D01*
X75541Y-15411D01*
X75612Y-15341D01*
X75650Y-15249D01*
X75650Y-14550D01*
X75612Y-14458D01*
X75541Y-14388D01*
X75449Y-14350D01*
X75350Y-14349D01*
X75212Y-14350D01*
X75150Y-14412D01*
X75150Y-14850D01*
X75587Y-14850D01*
X75650Y-14787D01*
X75650Y-14550D01*
X75650Y-15249D01*
X75650Y-15012D01*
X75587Y-14950D01*
X75200Y-14950D01*
X75150Y-14950D01*
X75050Y-14950D01*
X75050Y-14850D01*
X75050Y-14412D01*
X74987Y-14350D01*
X74849Y-14349D01*
X74750Y-14350D01*
X74658Y-14388D01*
X74587Y-14458D01*
X74549Y-14550D01*
X74550Y-14787D01*
X74612Y-14850D01*
X75050Y-14850D01*
X75050Y-14950D01*
X75000Y-14950D01*
X74612Y-14950D01*
X74550Y-15012D01*
X74549Y-15249D01*
X74587Y-15341D01*
X74658Y-15411D01*
X74750Y-15449D01*
X74772Y-15449D01*
X74634Y-15588D01*
X74550Y-15790D01*
X74549Y-16008D01*
X74633Y-16211D01*
X74788Y-16365D01*
X74869Y-16399D01*
X74788Y-16433D01*
X74634Y-16588D01*
X74550Y-16790D01*
X74549Y-17008D01*
X74633Y-17211D01*
X74788Y-17365D01*
X74869Y-17399D01*
X74788Y-17433D01*
X74634Y-17588D01*
X74550Y-17790D01*
X74549Y-18008D01*
X74633Y-18211D01*
X74788Y-18365D01*
X74869Y-18399D01*
X74788Y-18433D01*
X74634Y-18588D01*
X74550Y-18790D01*
X74549Y-19008D01*
X74633Y-19211D01*
X74788Y-19365D01*
X74869Y-19399D01*
X74788Y-19433D01*
X74634Y-19588D01*
X74550Y-19790D01*
X74549Y-20008D01*
X74633Y-20211D01*
X74788Y-20365D01*
X74869Y-20399D01*
X74788Y-20433D01*
X74634Y-20588D01*
X74550Y-20790D01*
X74549Y-21008D01*
X74633Y-21211D01*
X74788Y-21365D01*
X74869Y-21399D01*
X74788Y-21433D01*
X74634Y-21588D01*
X74550Y-21790D01*
X74549Y-22008D01*
X74633Y-22211D01*
X74788Y-22365D01*
X74869Y-22399D01*
X74788Y-22433D01*
X74634Y-22588D01*
X74550Y-22790D01*
X74549Y-23008D01*
X74633Y-23211D01*
X74788Y-23365D01*
X74869Y-23399D01*
X74788Y-23433D01*
X74634Y-23588D01*
X74550Y-23790D01*
X74549Y-24008D01*
X74633Y-24211D01*
X74788Y-24365D01*
X74869Y-24399D01*
X74788Y-24433D01*
X74634Y-24588D01*
X74550Y-24790D01*
X74549Y-25008D01*
X74633Y-25211D01*
X74788Y-25365D01*
X74869Y-25399D01*
X74788Y-25433D01*
X74634Y-25588D01*
X74550Y-25790D01*
X74549Y-26008D01*
X74633Y-26211D01*
X74788Y-26365D01*
X74869Y-26399D01*
X74788Y-26433D01*
X74634Y-26588D01*
X74550Y-26790D01*
X74549Y-27008D01*
X74633Y-27211D01*
X74788Y-27365D01*
X74869Y-27399D01*
X74788Y-27433D01*
X74634Y-27588D01*
X74550Y-27790D01*
X74549Y-28008D01*
X74633Y-28211D01*
X74788Y-28365D01*
X74869Y-28399D01*
X74788Y-28433D01*
X74634Y-28588D01*
X74550Y-28790D01*
X74549Y-29008D01*
X74633Y-29211D01*
X74788Y-29365D01*
X74869Y-29399D01*
X74788Y-29433D01*
X74634Y-29588D01*
X74550Y-29790D01*
X74549Y-30008D01*
X74633Y-30211D01*
X74788Y-30365D01*
X74869Y-30399D01*
X74788Y-30433D01*
X74634Y-30588D01*
X74550Y-30790D01*
X74549Y-31008D01*
X74633Y-31211D01*
X74772Y-31350D01*
X74750Y-31350D01*
X74658Y-31388D01*
X74587Y-31458D01*
X74549Y-31550D01*
X74550Y-31787D01*
X74612Y-31850D01*
X75000Y-31850D01*
X75050Y-31850D01*
X75150Y-31850D01*
X75200Y-31850D01*
X75587Y-31850D01*
X75650Y-31787D01*
X75650Y-31550D01*
X75612Y-31458D01*
X75541Y-31388D01*
X75449Y-31350D01*
X75427Y-31350D01*
X75565Y-31211D01*
X75649Y-31009D01*
X75650Y-30791D01*
X75650Y-32725D01*
X75650Y-32725D01*
X75650Y-32249D01*
X75650Y-32012D01*
X75587Y-31950D01*
X75150Y-31950D01*
X75150Y-32387D01*
X75212Y-32450D01*
X75350Y-32450D01*
X75449Y-32449D01*
X75541Y-32411D01*
X75612Y-32341D01*
X75650Y-32249D01*
X75650Y-32725D01*
X75050Y-32725D01*
X75050Y-32387D01*
X75050Y-31950D01*
X74612Y-31950D01*
X74550Y-32012D01*
X74549Y-32249D01*
X74587Y-32341D01*
X74658Y-32411D01*
X74750Y-32449D01*
X74849Y-32450D01*
X74987Y-32450D01*
X75050Y-32387D01*
X75050Y-32725D01*
X72962Y-32725D01*
X72962Y-31900D01*
X72924Y-31708D01*
X72816Y-31546D01*
X72654Y-31438D01*
X72462Y-31400D01*
X72654Y-31361D01*
X72816Y-31253D01*
X72924Y-31091D01*
X72962Y-30900D01*
X72924Y-30708D01*
X72816Y-30546D01*
X72654Y-30438D01*
X72462Y-30400D01*
X72654Y-30361D01*
X72816Y-30253D01*
X72924Y-30091D01*
X72962Y-29900D01*
X72924Y-29708D01*
X72816Y-29546D01*
X72654Y-29438D01*
X72462Y-29400D01*
X72654Y-29361D01*
X72816Y-29253D01*
X72924Y-29091D01*
X72962Y-28900D01*
X72924Y-28708D01*
X72816Y-28546D01*
X72654Y-28438D01*
X72462Y-28400D01*
X72654Y-28361D01*
X72816Y-28253D01*
X72924Y-28091D01*
X72962Y-27900D01*
X72924Y-27708D01*
X72816Y-27546D01*
X72654Y-27438D01*
X72462Y-27400D01*
X72654Y-27361D01*
X72816Y-27253D01*
X72924Y-27091D01*
X72962Y-26900D01*
X72924Y-26708D01*
X72816Y-26546D01*
X72654Y-26438D01*
X72462Y-26400D01*
X72654Y-26361D01*
X72816Y-26253D01*
X72924Y-26091D01*
X72962Y-25900D01*
X72924Y-25708D01*
X72816Y-25546D01*
X72654Y-25438D01*
X72462Y-25400D01*
X72654Y-25361D01*
X72816Y-25253D01*
X72924Y-25091D01*
X72962Y-24900D01*
X72962Y-21900D01*
X72924Y-21708D01*
X72816Y-21546D01*
X72654Y-21438D01*
X72462Y-21400D01*
X72654Y-21361D01*
X72816Y-21253D01*
X72924Y-21091D01*
X72962Y-20900D01*
X72924Y-20708D01*
X72816Y-20546D01*
X72654Y-20438D01*
X72462Y-20400D01*
X72654Y-20361D01*
X72816Y-20253D01*
X72924Y-20091D01*
X72962Y-19900D01*
X72924Y-19708D01*
X72816Y-19546D01*
X72654Y-19438D01*
X72462Y-19400D01*
X72654Y-19361D01*
X72816Y-19253D01*
X72924Y-19091D01*
X72962Y-18900D01*
X72924Y-18708D01*
X72816Y-18546D01*
X72654Y-18438D01*
X72462Y-18400D01*
X72654Y-18361D01*
X72816Y-18253D01*
X72924Y-18091D01*
X72962Y-17900D01*
X72924Y-17708D01*
X72816Y-17546D01*
X72654Y-17438D01*
X72462Y-17400D01*
X72654Y-17361D01*
X72816Y-17253D01*
X72924Y-17091D01*
X72962Y-16900D01*
X72924Y-16708D01*
X72816Y-16546D01*
X72654Y-16438D01*
X72462Y-16400D01*
X72654Y-16361D01*
X72816Y-16253D01*
X72924Y-16091D01*
X72962Y-15900D01*
X72924Y-15708D01*
X72816Y-15546D01*
X72654Y-15438D01*
X72462Y-15400D01*
X72654Y-15361D01*
X72816Y-15253D01*
X72924Y-15091D01*
X72962Y-14900D01*
X72924Y-14708D01*
X72816Y-14546D01*
X72654Y-14438D01*
X72462Y-14400D01*
X72137Y-14400D01*
X71945Y-14438D01*
X71783Y-14546D01*
X71675Y-14708D01*
X71637Y-14900D01*
X71675Y-15091D01*
X71783Y-15253D01*
X71945Y-15361D01*
X72137Y-15400D01*
X71945Y-15438D01*
X71783Y-15546D01*
X71675Y-15708D01*
X71637Y-15900D01*
X71675Y-16091D01*
X71783Y-16253D01*
X71945Y-16361D01*
X72137Y-16400D01*
X71945Y-16438D01*
X71783Y-16546D01*
X71675Y-16708D01*
X71637Y-16900D01*
X71675Y-17091D01*
X71783Y-17253D01*
X71945Y-17361D01*
X72137Y-17400D01*
X71945Y-17438D01*
X71783Y-17546D01*
X71675Y-17708D01*
X71637Y-17900D01*
X71675Y-18091D01*
X71783Y-18253D01*
X71945Y-18361D01*
X72137Y-18400D01*
X71945Y-18438D01*
X71783Y-18546D01*
X71675Y-18708D01*
X71637Y-18900D01*
X71675Y-19091D01*
X71783Y-19253D01*
X71945Y-19361D01*
X72137Y-19400D01*
X71945Y-19438D01*
X71783Y-19546D01*
X71675Y-19708D01*
X71637Y-19900D01*
X71675Y-20091D01*
X71783Y-20253D01*
X71945Y-20361D01*
X72137Y-20400D01*
X71945Y-20438D01*
X71783Y-20546D01*
X71675Y-20708D01*
X71637Y-20900D01*
X71675Y-21091D01*
X71783Y-21253D01*
X71945Y-21361D01*
X72137Y-21400D01*
X71945Y-21438D01*
X71783Y-21546D01*
X71675Y-21708D01*
X71637Y-21900D01*
X71675Y-22091D01*
X71783Y-22253D01*
X71945Y-22361D01*
X72137Y-22400D01*
X72462Y-22400D01*
X72654Y-22361D01*
X72816Y-22253D01*
X72924Y-22091D01*
X72962Y-21900D01*
X72962Y-24900D01*
X72924Y-24708D01*
X72816Y-24546D01*
X72654Y-24438D01*
X72462Y-24400D01*
X72137Y-24400D01*
X71945Y-24438D01*
X71783Y-24546D01*
X71675Y-24708D01*
X71637Y-24900D01*
X71675Y-25091D01*
X71783Y-25253D01*
X71945Y-25361D01*
X72137Y-25400D01*
X71945Y-25438D01*
X71783Y-25546D01*
X71675Y-25708D01*
X71637Y-25900D01*
X71675Y-26091D01*
X71783Y-26253D01*
X71945Y-26361D01*
X72137Y-26400D01*
X71945Y-26438D01*
X71783Y-26546D01*
X71675Y-26708D01*
X71637Y-26900D01*
X71675Y-27091D01*
X71783Y-27253D01*
X71945Y-27361D01*
X72137Y-27400D01*
X71945Y-27438D01*
X71783Y-27546D01*
X71675Y-27708D01*
X71637Y-27900D01*
X71675Y-28091D01*
X71783Y-28253D01*
X71945Y-28361D01*
X72137Y-28400D01*
X71945Y-28438D01*
X71783Y-28546D01*
X71675Y-28708D01*
X71637Y-28900D01*
X71675Y-29091D01*
X71783Y-29253D01*
X71945Y-29361D01*
X72137Y-29400D01*
X71945Y-29438D01*
X71783Y-29546D01*
X71675Y-29708D01*
X71637Y-29900D01*
X71675Y-30091D01*
X71783Y-30253D01*
X71945Y-30361D01*
X72137Y-30400D01*
X71945Y-30438D01*
X71783Y-30546D01*
X71675Y-30708D01*
X71637Y-30900D01*
X71675Y-31091D01*
X71783Y-31253D01*
X71945Y-31361D01*
X72137Y-31400D01*
X71945Y-31438D01*
X71783Y-31546D01*
X71675Y-31708D01*
X71637Y-31900D01*
X71675Y-32091D01*
X71783Y-32253D01*
X71945Y-32361D01*
X72137Y-32400D01*
X72462Y-32400D01*
X72654Y-32361D01*
X72816Y-32253D01*
X72924Y-32091D01*
X72962Y-31900D01*
X72962Y-32725D01*
X69962Y-32725D01*
X69962Y-31900D01*
X69924Y-31708D01*
X69816Y-31546D01*
X69654Y-31438D01*
X69462Y-31400D01*
X69654Y-31361D01*
X69816Y-31253D01*
X69924Y-31091D01*
X69962Y-30900D01*
X69924Y-30708D01*
X69816Y-30546D01*
X69654Y-30438D01*
X69462Y-30400D01*
X69654Y-30361D01*
X69816Y-30253D01*
X69924Y-30091D01*
X69962Y-29900D01*
X69924Y-29708D01*
X69816Y-29546D01*
X69654Y-29438D01*
X69462Y-29400D01*
X69654Y-29361D01*
X69816Y-29253D01*
X69924Y-29091D01*
X69962Y-28900D01*
X69924Y-28708D01*
X69816Y-28546D01*
X69654Y-28438D01*
X69462Y-28400D01*
X69654Y-28361D01*
X69816Y-28253D01*
X69924Y-28091D01*
X69962Y-27900D01*
X69924Y-27708D01*
X69816Y-27546D01*
X69654Y-27438D01*
X69462Y-27400D01*
X69654Y-27361D01*
X69816Y-27253D01*
X69924Y-27091D01*
X69962Y-26900D01*
X69924Y-26708D01*
X69816Y-26546D01*
X69654Y-26438D01*
X69462Y-26400D01*
X69654Y-26361D01*
X69816Y-26253D01*
X69924Y-26091D01*
X69962Y-25900D01*
X69924Y-25708D01*
X69816Y-25546D01*
X69654Y-25438D01*
X69462Y-25400D01*
X69654Y-25361D01*
X69816Y-25253D01*
X69924Y-25091D01*
X69962Y-24900D01*
X69962Y-21900D01*
X69924Y-21708D01*
X69816Y-21546D01*
X69654Y-21438D01*
X69462Y-21400D01*
X69654Y-21361D01*
X69816Y-21253D01*
X69924Y-21091D01*
X69962Y-20900D01*
X69924Y-20708D01*
X69816Y-20546D01*
X69654Y-20438D01*
X69462Y-20400D01*
X69654Y-20361D01*
X69816Y-20253D01*
X69924Y-20091D01*
X69962Y-19900D01*
X69924Y-19708D01*
X69816Y-19546D01*
X69654Y-19438D01*
X69462Y-19400D01*
X69654Y-19361D01*
X69816Y-19253D01*
X69924Y-19091D01*
X69962Y-18900D01*
X69924Y-18708D01*
X69816Y-18546D01*
X69654Y-18438D01*
X69462Y-18400D01*
X69654Y-18361D01*
X69816Y-18253D01*
X69924Y-18091D01*
X69962Y-17900D01*
X69924Y-17708D01*
X69816Y-17546D01*
X69654Y-17438D01*
X69462Y-17400D01*
X69654Y-17361D01*
X69816Y-17253D01*
X69924Y-17091D01*
X69962Y-16900D01*
X69924Y-16708D01*
X69816Y-16546D01*
X69654Y-16438D01*
X69462Y-16400D01*
X69654Y-16361D01*
X69816Y-16253D01*
X69924Y-16091D01*
X69962Y-15900D01*
X69924Y-15708D01*
X69816Y-15546D01*
X69654Y-15438D01*
X69462Y-15400D01*
X69654Y-15361D01*
X69816Y-15253D01*
X69924Y-15091D01*
X69962Y-14900D01*
X69924Y-14708D01*
X69816Y-14546D01*
X69654Y-14438D01*
X69462Y-14400D01*
X69137Y-14400D01*
X68945Y-14438D01*
X68783Y-14546D01*
X68675Y-14708D01*
X68637Y-14900D01*
X68675Y-15091D01*
X68783Y-15253D01*
X68945Y-15361D01*
X69137Y-15400D01*
X68945Y-15438D01*
X68783Y-15546D01*
X68675Y-15708D01*
X68637Y-15900D01*
X68675Y-16091D01*
X68783Y-16253D01*
X68945Y-16361D01*
X69137Y-16400D01*
X68945Y-16438D01*
X68783Y-16546D01*
X68675Y-16708D01*
X68637Y-16900D01*
X68675Y-17091D01*
X68783Y-17253D01*
X68945Y-17361D01*
X69137Y-17400D01*
X68945Y-17438D01*
X68783Y-17546D01*
X68675Y-17708D01*
X68637Y-17900D01*
X68675Y-18091D01*
X68783Y-18253D01*
X68945Y-18361D01*
X69137Y-18400D01*
X68945Y-18438D01*
X68783Y-18546D01*
X68675Y-18708D01*
X68637Y-18900D01*
X68675Y-19091D01*
X68783Y-19253D01*
X68945Y-19361D01*
X69137Y-19400D01*
X68945Y-19438D01*
X68783Y-19546D01*
X68675Y-19708D01*
X68637Y-19900D01*
X68675Y-20091D01*
X68783Y-20253D01*
X68945Y-20361D01*
X69137Y-20400D01*
X68945Y-20438D01*
X68783Y-20546D01*
X68675Y-20708D01*
X68637Y-20900D01*
X68675Y-21091D01*
X68783Y-21253D01*
X68945Y-21361D01*
X69137Y-21400D01*
X68945Y-21438D01*
X68783Y-21546D01*
X68675Y-21708D01*
X68637Y-21900D01*
X68675Y-22091D01*
X68783Y-22253D01*
X68945Y-22361D01*
X69137Y-22400D01*
X69462Y-22400D01*
X69654Y-22361D01*
X69816Y-22253D01*
X69924Y-22091D01*
X69962Y-21900D01*
X69962Y-24900D01*
X69924Y-24708D01*
X69816Y-24546D01*
X69654Y-24438D01*
X69462Y-24400D01*
X69137Y-24400D01*
X68945Y-24438D01*
X68783Y-24546D01*
X68675Y-24708D01*
X68637Y-24900D01*
X68675Y-25091D01*
X68783Y-25253D01*
X68945Y-25361D01*
X69137Y-25400D01*
X68945Y-25438D01*
X68783Y-25546D01*
X68675Y-25708D01*
X68637Y-25900D01*
X68675Y-26091D01*
X68783Y-26253D01*
X68945Y-26361D01*
X69137Y-26400D01*
X68945Y-26438D01*
X68783Y-26546D01*
X68675Y-26708D01*
X68637Y-26900D01*
X68675Y-27091D01*
X68783Y-27253D01*
X68945Y-27361D01*
X69137Y-27400D01*
X68945Y-27438D01*
X68783Y-27546D01*
X68675Y-27708D01*
X68637Y-27900D01*
X68675Y-28091D01*
X68783Y-28253D01*
X68945Y-28361D01*
X69137Y-28400D01*
X68945Y-28438D01*
X68783Y-28546D01*
X68675Y-28708D01*
X68637Y-28900D01*
X68675Y-29091D01*
X68783Y-29253D01*
X68945Y-29361D01*
X69137Y-29400D01*
X68945Y-29438D01*
X68783Y-29546D01*
X68675Y-29708D01*
X68637Y-29900D01*
X68675Y-30091D01*
X68783Y-30253D01*
X68945Y-30361D01*
X69137Y-30400D01*
X68945Y-30438D01*
X68783Y-30546D01*
X68675Y-30708D01*
X68637Y-30900D01*
X68675Y-31091D01*
X68783Y-31253D01*
X68945Y-31361D01*
X69137Y-31400D01*
X68945Y-31438D01*
X68783Y-31546D01*
X68675Y-31708D01*
X68637Y-31900D01*
X68675Y-32091D01*
X68783Y-32253D01*
X68945Y-32361D01*
X69137Y-32400D01*
X69462Y-32400D01*
X69654Y-32361D01*
X69816Y-32253D01*
X69924Y-32091D01*
X69962Y-31900D01*
X69962Y-32725D01*
X68150Y-32725D01*
X68150Y-30791D01*
X68066Y-30588D01*
X67911Y-30434D01*
X67830Y-30400D01*
X67911Y-30366D01*
X68065Y-30211D01*
X68149Y-30009D01*
X68150Y-29791D01*
X68066Y-29588D01*
X67911Y-29434D01*
X67830Y-29400D01*
X67911Y-29366D01*
X68065Y-29211D01*
X68149Y-29009D01*
X68150Y-28791D01*
X68066Y-28588D01*
X67911Y-28434D01*
X67830Y-28400D01*
X67911Y-28366D01*
X68065Y-28211D01*
X68149Y-28009D01*
X68150Y-27791D01*
X68066Y-27588D01*
X67911Y-27434D01*
X67830Y-27400D01*
X67911Y-27366D01*
X68065Y-27211D01*
X68149Y-27009D01*
X68150Y-26791D01*
X68066Y-26588D01*
X67911Y-26434D01*
X67830Y-26400D01*
X67911Y-26366D01*
X68065Y-26211D01*
X68149Y-26009D01*
X68150Y-25791D01*
X68066Y-25588D01*
X67911Y-25434D01*
X67830Y-25400D01*
X67911Y-25366D01*
X68065Y-25211D01*
X68149Y-25009D01*
X68150Y-24791D01*
X68066Y-24588D01*
X67911Y-24434D01*
X67830Y-24400D01*
X67911Y-24366D01*
X68065Y-24211D01*
X68149Y-24009D01*
X68150Y-23791D01*
X68150Y-21791D01*
X68066Y-21588D01*
X67911Y-21434D01*
X67830Y-21400D01*
X67911Y-21366D01*
X68065Y-21211D01*
X68149Y-21009D01*
X68150Y-20791D01*
X68066Y-20588D01*
X67911Y-20434D01*
X67830Y-20400D01*
X67911Y-20366D01*
X68065Y-20211D01*
X68149Y-20009D01*
X68150Y-19791D01*
X68066Y-19588D01*
X67911Y-19434D01*
X67830Y-19400D01*
X67911Y-19366D01*
X68065Y-19211D01*
X68149Y-19009D01*
X68150Y-18791D01*
X68066Y-18588D01*
X67911Y-18434D01*
X67830Y-18400D01*
X67911Y-18366D01*
X68065Y-18211D01*
X68149Y-18009D01*
X68150Y-17791D01*
X68066Y-17588D01*
X67911Y-17434D01*
X67830Y-17400D01*
X67911Y-17366D01*
X68065Y-17211D01*
X68149Y-17009D01*
X68150Y-16791D01*
X68066Y-16588D01*
X67911Y-16434D01*
X67830Y-16400D01*
X67911Y-16366D01*
X68065Y-16211D01*
X68149Y-16009D01*
X68150Y-15791D01*
X68066Y-15588D01*
X67911Y-15434D01*
X67830Y-15400D01*
X67911Y-15366D01*
X68065Y-15211D01*
X68149Y-15009D01*
X68150Y-14791D01*
X68066Y-14588D01*
X67911Y-14434D01*
X67709Y-14350D01*
X67491Y-14349D01*
X67288Y-14433D01*
X67134Y-14588D01*
X67050Y-14790D01*
X67049Y-15008D01*
X67133Y-15211D01*
X67288Y-15365D01*
X67369Y-15399D01*
X67288Y-15433D01*
X67134Y-15588D01*
X67050Y-15790D01*
X67049Y-16008D01*
X67133Y-16211D01*
X67288Y-16365D01*
X67369Y-16399D01*
X67288Y-16433D01*
X67134Y-16588D01*
X67050Y-16790D01*
X67049Y-17008D01*
X67133Y-17211D01*
X67288Y-17365D01*
X67369Y-17399D01*
X67288Y-17433D01*
X67134Y-17588D01*
X67050Y-17790D01*
X67049Y-18008D01*
X67133Y-18211D01*
X67288Y-18365D01*
X67369Y-18399D01*
X67288Y-18433D01*
X67134Y-18588D01*
X67050Y-18790D01*
X67049Y-19008D01*
X67133Y-19211D01*
X67288Y-19365D01*
X67369Y-19399D01*
X67288Y-19433D01*
X67134Y-19588D01*
X67050Y-19790D01*
X67049Y-20008D01*
X67133Y-20211D01*
X67288Y-20365D01*
X67369Y-20399D01*
X67288Y-20433D01*
X67134Y-20588D01*
X67050Y-20790D01*
X67049Y-21008D01*
X67133Y-21211D01*
X67288Y-21365D01*
X67369Y-21399D01*
X67288Y-21433D01*
X67134Y-21588D01*
X67050Y-21790D01*
X67049Y-22008D01*
X67133Y-22211D01*
X67272Y-22350D01*
X67250Y-22350D01*
X67158Y-22388D01*
X67087Y-22458D01*
X67049Y-22550D01*
X67050Y-22787D01*
X67112Y-22850D01*
X67500Y-22850D01*
X67550Y-22850D01*
X67650Y-22850D01*
X67700Y-22850D01*
X68087Y-22850D01*
X68150Y-22787D01*
X68150Y-22550D01*
X68112Y-22458D01*
X68041Y-22388D01*
X67949Y-22350D01*
X67927Y-22350D01*
X68065Y-22211D01*
X68149Y-22009D01*
X68150Y-21791D01*
X68150Y-23791D01*
X68066Y-23588D01*
X67927Y-23449D01*
X67949Y-23449D01*
X68041Y-23411D01*
X68112Y-23341D01*
X68150Y-23249D01*
X68150Y-23012D01*
X68087Y-22950D01*
X67700Y-22950D01*
X67650Y-22950D01*
X67550Y-22950D01*
X67500Y-22950D01*
X67112Y-22950D01*
X67050Y-23012D01*
X67049Y-23249D01*
X67087Y-23341D01*
X67158Y-23411D01*
X67250Y-23449D01*
X67272Y-23449D01*
X67134Y-23588D01*
X67050Y-23790D01*
X67049Y-24008D01*
X67133Y-24211D01*
X67288Y-24365D01*
X67369Y-24399D01*
X67288Y-24433D01*
X67134Y-24588D01*
X67050Y-24790D01*
X67049Y-25008D01*
X67133Y-25211D01*
X67288Y-25365D01*
X67369Y-25399D01*
X67288Y-25433D01*
X67134Y-25588D01*
X67050Y-25790D01*
X67049Y-26008D01*
X67133Y-26211D01*
X67288Y-26365D01*
X67369Y-26399D01*
X67288Y-26433D01*
X67134Y-26588D01*
X67050Y-26790D01*
X67049Y-27008D01*
X67133Y-27211D01*
X67288Y-27365D01*
X67369Y-27399D01*
X67288Y-27433D01*
X67134Y-27588D01*
X67050Y-27790D01*
X67049Y-28008D01*
X67133Y-28211D01*
X67288Y-28365D01*
X67369Y-28399D01*
X67288Y-28433D01*
X67134Y-28588D01*
X67050Y-28790D01*
X67049Y-29008D01*
X67133Y-29211D01*
X67288Y-29365D01*
X67369Y-29399D01*
X67288Y-29433D01*
X67134Y-29588D01*
X67050Y-29790D01*
X67049Y-30008D01*
X67133Y-30211D01*
X67288Y-30365D01*
X67369Y-30399D01*
X67288Y-30433D01*
X67134Y-30588D01*
X67050Y-30790D01*
X67049Y-31008D01*
X67133Y-31211D01*
X67272Y-31350D01*
X67250Y-31350D01*
X67158Y-31388D01*
X67087Y-31458D01*
X67049Y-31550D01*
X67050Y-31787D01*
X67112Y-31850D01*
X67500Y-31850D01*
X67550Y-31850D01*
X67650Y-31850D01*
X67700Y-31850D01*
X68087Y-31850D01*
X68150Y-31787D01*
X68150Y-31550D01*
X68112Y-31458D01*
X68041Y-31388D01*
X67949Y-31350D01*
X67927Y-31350D01*
X68065Y-31211D01*
X68149Y-31009D01*
X68150Y-30791D01*
X68150Y-32725D01*
X68150Y-32725D01*
X68150Y-32249D01*
X68150Y-32012D01*
X68087Y-31950D01*
X67650Y-31950D01*
X67650Y-32387D01*
X67712Y-32450D01*
X67850Y-32450D01*
X67949Y-32449D01*
X68041Y-32411D01*
X68112Y-32341D01*
X68150Y-32249D01*
X68150Y-32725D01*
X67550Y-32725D01*
X67550Y-32387D01*
X67550Y-31950D01*
X67112Y-31950D01*
X67050Y-32012D01*
X67049Y-32249D01*
X67087Y-32341D01*
X67158Y-32411D01*
X67250Y-32449D01*
X67349Y-32450D01*
X67487Y-32450D01*
X67550Y-32387D01*
X67550Y-32725D01*
X66650Y-32725D01*
X66650Y-30791D01*
X66566Y-30588D01*
X66411Y-30434D01*
X66330Y-30400D01*
X66411Y-30366D01*
X66565Y-30211D01*
X66649Y-30009D01*
X66650Y-29791D01*
X66566Y-29588D01*
X66411Y-29434D01*
X66330Y-29400D01*
X66411Y-29366D01*
X66565Y-29211D01*
X66649Y-29009D01*
X66650Y-28791D01*
X66566Y-28588D01*
X66411Y-28434D01*
X66330Y-28400D01*
X66411Y-28366D01*
X66565Y-28211D01*
X66649Y-28009D01*
X66650Y-27791D01*
X66566Y-27588D01*
X66411Y-27434D01*
X66330Y-27400D01*
X66411Y-27366D01*
X66565Y-27211D01*
X66649Y-27009D01*
X66650Y-26791D01*
X66566Y-26588D01*
X66411Y-26434D01*
X66330Y-26400D01*
X66411Y-26366D01*
X66565Y-26211D01*
X66649Y-26009D01*
X66650Y-25791D01*
X66566Y-25588D01*
X66411Y-25434D01*
X66330Y-25400D01*
X66411Y-25366D01*
X66565Y-25211D01*
X66649Y-25009D01*
X66650Y-24791D01*
X66566Y-24588D01*
X66411Y-24434D01*
X66330Y-24400D01*
X66411Y-24366D01*
X66565Y-24211D01*
X66649Y-24009D01*
X66650Y-23791D01*
X66566Y-23588D01*
X66411Y-23434D01*
X66330Y-23400D01*
X66411Y-23366D01*
X66565Y-23211D01*
X66649Y-23009D01*
X66650Y-22791D01*
X66566Y-22588D01*
X66411Y-22434D01*
X66330Y-22400D01*
X66411Y-22366D01*
X66565Y-22211D01*
X66649Y-22009D01*
X66650Y-21791D01*
X66566Y-21588D01*
X66411Y-21434D01*
X66330Y-21400D01*
X66411Y-21366D01*
X66565Y-21211D01*
X66649Y-21009D01*
X66650Y-20791D01*
X66566Y-20588D01*
X66411Y-20434D01*
X66330Y-20400D01*
X66411Y-20366D01*
X66565Y-20211D01*
X66649Y-20009D01*
X66650Y-19791D01*
X66566Y-19588D01*
X66411Y-19434D01*
X66330Y-19400D01*
X66411Y-19366D01*
X66565Y-19211D01*
X66649Y-19009D01*
X66650Y-18791D01*
X66566Y-18588D01*
X66411Y-18434D01*
X66330Y-18400D01*
X66411Y-18366D01*
X66565Y-18211D01*
X66649Y-18009D01*
X66650Y-17791D01*
X66566Y-17588D01*
X66411Y-17434D01*
X66330Y-17400D01*
X66411Y-17366D01*
X66565Y-17211D01*
X66649Y-17009D01*
X66650Y-16791D01*
X66566Y-16588D01*
X66411Y-16434D01*
X66330Y-16400D01*
X66411Y-16366D01*
X66565Y-16211D01*
X66649Y-16009D01*
X66650Y-15791D01*
X66566Y-15588D01*
X66427Y-15449D01*
X66449Y-15449D01*
X66541Y-15411D01*
X66612Y-15341D01*
X66650Y-15249D01*
X66650Y-14550D01*
X66612Y-14458D01*
X66541Y-14388D01*
X66449Y-14350D01*
X66350Y-14349D01*
X66212Y-14350D01*
X66150Y-14412D01*
X66150Y-14850D01*
X66587Y-14850D01*
X66650Y-14787D01*
X66650Y-14550D01*
X66650Y-15249D01*
X66650Y-15012D01*
X66587Y-14950D01*
X66200Y-14950D01*
X66150Y-14950D01*
X66050Y-14950D01*
X66050Y-14850D01*
X66050Y-14412D01*
X65987Y-14350D01*
X65849Y-14349D01*
X65750Y-14350D01*
X65658Y-14388D01*
X65587Y-14458D01*
X65549Y-14550D01*
X65550Y-14787D01*
X65612Y-14850D01*
X66050Y-14850D01*
X66050Y-14950D01*
X66000Y-14950D01*
X65612Y-14950D01*
X65550Y-15012D01*
X65549Y-15249D01*
X65587Y-15341D01*
X65658Y-15411D01*
X65750Y-15449D01*
X65772Y-15449D01*
X65634Y-15588D01*
X65550Y-15790D01*
X65549Y-16008D01*
X65633Y-16211D01*
X65788Y-16365D01*
X65869Y-16399D01*
X65788Y-16433D01*
X65634Y-16588D01*
X65550Y-16790D01*
X65549Y-17008D01*
X65633Y-17211D01*
X65788Y-17365D01*
X65869Y-17399D01*
X65788Y-17433D01*
X65634Y-17588D01*
X65550Y-17790D01*
X65549Y-18008D01*
X65633Y-18211D01*
X65788Y-18365D01*
X65869Y-18399D01*
X65788Y-18433D01*
X65634Y-18588D01*
X65550Y-18790D01*
X65549Y-19008D01*
X65633Y-19211D01*
X65788Y-19365D01*
X65869Y-19399D01*
X65788Y-19433D01*
X65634Y-19588D01*
X65550Y-19790D01*
X65549Y-20008D01*
X65633Y-20211D01*
X65788Y-20365D01*
X65869Y-20399D01*
X65788Y-20433D01*
X65634Y-20588D01*
X65550Y-20790D01*
X65549Y-21008D01*
X65633Y-21211D01*
X65788Y-21365D01*
X65869Y-21399D01*
X65788Y-21433D01*
X65634Y-21588D01*
X65550Y-21790D01*
X65549Y-22008D01*
X65633Y-22211D01*
X65788Y-22365D01*
X65869Y-22399D01*
X65788Y-22433D01*
X65634Y-22588D01*
X65550Y-22790D01*
X65549Y-23008D01*
X65633Y-23211D01*
X65788Y-23365D01*
X65869Y-23399D01*
X65788Y-23433D01*
X65634Y-23588D01*
X65550Y-23790D01*
X65549Y-24008D01*
X65633Y-24211D01*
X65788Y-24365D01*
X65869Y-24399D01*
X65788Y-24433D01*
X65634Y-24588D01*
X65550Y-24790D01*
X65549Y-25008D01*
X65633Y-25211D01*
X65788Y-25365D01*
X65869Y-25399D01*
X65788Y-25433D01*
X65634Y-25588D01*
X65550Y-25790D01*
X65549Y-26008D01*
X65633Y-26211D01*
X65788Y-26365D01*
X65869Y-26399D01*
X65788Y-26433D01*
X65634Y-26588D01*
X65550Y-26790D01*
X65549Y-27008D01*
X65633Y-27211D01*
X65788Y-27365D01*
X65869Y-27399D01*
X65788Y-27433D01*
X65634Y-27588D01*
X65550Y-27790D01*
X65549Y-28008D01*
X65633Y-28211D01*
X65788Y-28365D01*
X65869Y-28399D01*
X65788Y-28433D01*
X65634Y-28588D01*
X65550Y-28790D01*
X65549Y-29008D01*
X65633Y-29211D01*
X65788Y-29365D01*
X65869Y-29399D01*
X65788Y-29433D01*
X65634Y-29588D01*
X65550Y-29790D01*
X65549Y-30008D01*
X65633Y-30211D01*
X65788Y-30365D01*
X65869Y-30399D01*
X65788Y-30433D01*
X65634Y-30588D01*
X65550Y-30790D01*
X65549Y-31008D01*
X65633Y-31211D01*
X65772Y-31350D01*
X65750Y-31350D01*
X65658Y-31388D01*
X65587Y-31458D01*
X65549Y-31550D01*
X65550Y-31787D01*
X65612Y-31850D01*
X66000Y-31850D01*
X66050Y-31850D01*
X66150Y-31850D01*
X66200Y-31850D01*
X66587Y-31850D01*
X66650Y-31787D01*
X66650Y-31550D01*
X66612Y-31458D01*
X66541Y-31388D01*
X66449Y-31350D01*
X66427Y-31350D01*
X66565Y-31211D01*
X66649Y-31009D01*
X66650Y-30791D01*
X66650Y-32725D01*
X66650Y-32725D01*
X66650Y-32249D01*
X66650Y-32012D01*
X66587Y-31950D01*
X66150Y-31950D01*
X66150Y-32387D01*
X66212Y-32450D01*
X66350Y-32450D01*
X66449Y-32449D01*
X66541Y-32411D01*
X66612Y-32341D01*
X66650Y-32249D01*
X66650Y-32725D01*
X66050Y-32725D01*
X66050Y-32387D01*
X66050Y-31950D01*
X65612Y-31950D01*
X65550Y-32012D01*
X65549Y-32249D01*
X65587Y-32341D01*
X65658Y-32411D01*
X65750Y-32449D01*
X65849Y-32450D01*
X65987Y-32450D01*
X66050Y-32387D01*
X66050Y-32725D01*
X65275Y-32725D01*
X65275Y-14075D01*
X75925Y-14075D01*
X75925Y-32725D01*
X75925Y-32725D01*
G37*
G54D16*
X75925Y-32725D02*
X75650Y-32725D01*
X75650Y-30791D01*
X75566Y-30588D01*
X75411Y-30434D01*
X75330Y-30400D01*
X75411Y-30366D01*
X75565Y-30211D01*
X75649Y-30009D01*
X75650Y-29791D01*
X75566Y-29588D01*
X75411Y-29434D01*
X75330Y-29400D01*
X75411Y-29366D01*
X75565Y-29211D01*
X75649Y-29009D01*
X75650Y-28791D01*
X75566Y-28588D01*
X75411Y-28434D01*
X75330Y-28400D01*
X75411Y-28366D01*
X75565Y-28211D01*
X75649Y-28009D01*
X75650Y-27791D01*
X75566Y-27588D01*
X75411Y-27434D01*
X75330Y-27400D01*
X75411Y-27366D01*
X75565Y-27211D01*
X75649Y-27009D01*
X75650Y-26791D01*
X75566Y-26588D01*
X75411Y-26434D01*
X75330Y-26400D01*
X75411Y-26366D01*
X75565Y-26211D01*
X75649Y-26009D01*
X75650Y-25791D01*
X75566Y-25588D01*
X75411Y-25434D01*
X75330Y-25400D01*
X75411Y-25366D01*
X75565Y-25211D01*
X75649Y-25009D01*
X75650Y-24791D01*
X75566Y-24588D01*
X75411Y-24434D01*
X75330Y-24400D01*
X75411Y-24366D01*
X75565Y-24211D01*
X75649Y-24009D01*
X75650Y-23791D01*
X75566Y-23588D01*
X75411Y-23434D01*
X75330Y-23400D01*
X75411Y-23366D01*
X75565Y-23211D01*
X75649Y-23009D01*
X75650Y-22791D01*
X75566Y-22588D01*
X75411Y-22434D01*
X75330Y-22400D01*
X75411Y-22366D01*
X75565Y-22211D01*
X75649Y-22009D01*
X75650Y-21791D01*
X75566Y-21588D01*
X75411Y-21434D01*
X75330Y-21400D01*
X75411Y-21366D01*
X75565Y-21211D01*
X75649Y-21009D01*
X75650Y-20791D01*
X75566Y-20588D01*
X75411Y-20434D01*
X75330Y-20400D01*
X75411Y-20366D01*
X75565Y-20211D01*
X75649Y-20009D01*
X75650Y-19791D01*
X75566Y-19588D01*
X75411Y-19434D01*
X75330Y-19400D01*
X75411Y-19366D01*
X75565Y-19211D01*
X75649Y-19009D01*
X75650Y-18791D01*
X75566Y-18588D01*
X75411Y-18434D01*
X75330Y-18400D01*
X75411Y-18366D01*
X75565Y-18211D01*
X75649Y-18009D01*
X75650Y-17791D01*
X75566Y-17588D01*
X75411Y-17434D01*
X75330Y-17400D01*
X75411Y-17366D01*
X75565Y-17211D01*
X75649Y-17009D01*
X75650Y-16791D01*
X75566Y-16588D01*
X75411Y-16434D01*
X75330Y-16400D01*
X75411Y-16366D01*
X75565Y-16211D01*
X75649Y-16009D01*
X75650Y-15791D01*
X75566Y-15588D01*
X75427Y-15449D01*
X75449Y-15449D01*
X75541Y-15411D01*
X75612Y-15341D01*
X75650Y-15249D01*
X75650Y-14550D01*
X75612Y-14458D01*
X75541Y-14388D01*
X75449Y-14350D01*
X75350Y-14349D01*
X75212Y-14350D01*
X75150Y-14412D01*
X75150Y-14850D01*
X75587Y-14850D01*
X75650Y-14787D01*
X75650Y-14550D01*
X75650Y-15249D01*
X75650Y-15012D01*
X75587Y-14950D01*
X75200Y-14950D01*
X75150Y-14950D01*
X75050Y-14950D01*
X75050Y-14850D01*
X75050Y-14412D01*
X74987Y-14350D01*
X74849Y-14349D01*
X74750Y-14350D01*
X74658Y-14388D01*
X74587Y-14458D01*
X74549Y-14550D01*
X74550Y-14787D01*
X74612Y-14850D01*
X75050Y-14850D01*
X75050Y-14950D01*
X75000Y-14950D01*
X74612Y-14950D01*
X74550Y-15012D01*
X74549Y-15249D01*
X74587Y-15341D01*
X74658Y-15411D01*
X74750Y-15449D01*
X74772Y-15449D01*
X74634Y-15588D01*
X74550Y-15790D01*
X74549Y-16008D01*
X74633Y-16211D01*
X74788Y-16365D01*
X74869Y-16399D01*
X74788Y-16433D01*
X74634Y-16588D01*
X74550Y-16790D01*
X74549Y-17008D01*
X74633Y-17211D01*
X74788Y-17365D01*
X74869Y-17399D01*
X74788Y-17433D01*
X74634Y-17588D01*
X74550Y-17790D01*
X74549Y-18008D01*
X74633Y-18211D01*
X74788Y-18365D01*
X74869Y-18399D01*
X74788Y-18433D01*
X74634Y-18588D01*
X74550Y-18790D01*
X74549Y-19008D01*
X74633Y-19211D01*
X74788Y-19365D01*
X74869Y-19399D01*
X74788Y-19433D01*
X74634Y-19588D01*
X74550Y-19790D01*
X74549Y-20008D01*
X74633Y-20211D01*
X74788Y-20365D01*
X74869Y-20399D01*
X74788Y-20433D01*
X74634Y-20588D01*
X74550Y-20790D01*
X74549Y-21008D01*
X74633Y-21211D01*
X74788Y-21365D01*
X74869Y-21399D01*
X74788Y-21433D01*
X74634Y-21588D01*
X74550Y-21790D01*
X74549Y-22008D01*
X74633Y-22211D01*
X74788Y-22365D01*
X74869Y-22399D01*
X74788Y-22433D01*
X74634Y-22588D01*
X74550Y-22790D01*
X74549Y-23008D01*
X74633Y-23211D01*
X74788Y-23365D01*
X74869Y-23399D01*
X74788Y-23433D01*
X74634Y-23588D01*
X74550Y-23790D01*
X74549Y-24008D01*
X74633Y-24211D01*
X74788Y-24365D01*
X74869Y-24399D01*
X74788Y-24433D01*
X74634Y-24588D01*
X74550Y-24790D01*
X74549Y-25008D01*
X74633Y-25211D01*
X74788Y-25365D01*
X74869Y-25399D01*
X74788Y-25433D01*
X74634Y-25588D01*
X74550Y-25790D01*
X74549Y-26008D01*
X74633Y-26211D01*
X74788Y-26365D01*
X74869Y-26399D01*
X74788Y-26433D01*
X74634Y-26588D01*
X74550Y-26790D01*
X74549Y-27008D01*
X74633Y-27211D01*
X74788Y-27365D01*
X74869Y-27399D01*
X74788Y-27433D01*
X74634Y-27588D01*
X74550Y-27790D01*
X74549Y-28008D01*
X74633Y-28211D01*
X74788Y-28365D01*
X74869Y-28399D01*
X74788Y-28433D01*
X74634Y-28588D01*
X74550Y-28790D01*
X74549Y-29008D01*
X74633Y-29211D01*
X74788Y-29365D01*
X74869Y-29399D01*
X74788Y-29433D01*
X74634Y-29588D01*
X74550Y-29790D01*
X74549Y-30008D01*
X74633Y-30211D01*
X74788Y-30365D01*
X74869Y-30399D01*
X74788Y-30433D01*
X74634Y-30588D01*
X74550Y-30790D01*
X74549Y-31008D01*
X74633Y-31211D01*
X74772Y-31350D01*
X74750Y-31350D01*
X74658Y-31388D01*
X74587Y-31458D01*
X74549Y-31550D01*
X74550Y-31787D01*
X74612Y-31850D01*
X75000Y-31850D01*
X75050Y-31850D01*
X75150Y-31850D01*
X75200Y-31850D01*
X75587Y-31850D01*
X75650Y-31787D01*
X75650Y-31550D01*
X75612Y-31458D01*
X75541Y-31388D01*
X75449Y-31350D01*
X75427Y-31350D01*
X75565Y-31211D01*
X75649Y-31009D01*
X75650Y-30791D01*
X75650Y-32725D01*
X75650Y-32725D01*
X75650Y-32249D01*
X75650Y-32012D01*
X75587Y-31950D01*
X75150Y-31950D01*
X75150Y-32387D01*
X75212Y-32450D01*
X75350Y-32450D01*
X75449Y-32449D01*
X75541Y-32411D01*
X75612Y-32341D01*
X75650Y-32249D01*
X75650Y-32725D01*
X75050Y-32725D01*
X75050Y-32387D01*
X75050Y-31950D01*
X74612Y-31950D01*
X74550Y-32012D01*
X74549Y-32249D01*
X74587Y-32341D01*
X74658Y-32411D01*
X74750Y-32449D01*
X74849Y-32450D01*
X74987Y-32450D01*
X75050Y-32387D01*
X75050Y-32725D01*
X72962Y-32725D01*
X72962Y-31900D01*
X72924Y-31708D01*
X72816Y-31546D01*
X72654Y-31438D01*
X72462Y-31400D01*
X72654Y-31361D01*
X72816Y-31253D01*
X72924Y-31091D01*
X72962Y-30900D01*
X72924Y-30708D01*
X72816Y-30546D01*
X72654Y-30438D01*
X72462Y-30400D01*
X72654Y-30361D01*
X72816Y-30253D01*
X72924Y-30091D01*
X72962Y-29900D01*
X72924Y-29708D01*
X72816Y-29546D01*
X72654Y-29438D01*
X72462Y-29400D01*
X72654Y-29361D01*
X72816Y-29253D01*
X72924Y-29091D01*
X72962Y-28900D01*
X72924Y-28708D01*
X72816Y-28546D01*
X72654Y-28438D01*
X72462Y-28400D01*
X72654Y-28361D01*
X72816Y-28253D01*
X72924Y-28091D01*
X72962Y-27900D01*
X72924Y-27708D01*
X72816Y-27546D01*
X72654Y-27438D01*
X72462Y-27400D01*
X72654Y-27361D01*
X72816Y-27253D01*
X72924Y-27091D01*
X72962Y-26900D01*
X72924Y-26708D01*
X72816Y-26546D01*
X72654Y-26438D01*
X72462Y-26400D01*
X72654Y-26361D01*
X72816Y-26253D01*
X72924Y-26091D01*
X72962Y-25900D01*
X72924Y-25708D01*
X72816Y-25546D01*
X72654Y-25438D01*
X72462Y-25400D01*
X72654Y-25361D01*
X72816Y-25253D01*
X72924Y-25091D01*
X72962Y-24900D01*
X72962Y-21900D01*
X72924Y-21708D01*
X72816Y-21546D01*
X72654Y-21438D01*
X72462Y-21400D01*
X72654Y-21361D01*
X72816Y-21253D01*
X72924Y-21091D01*
X72962Y-20900D01*
X72924Y-20708D01*
X72816Y-20546D01*
X72654Y-20438D01*
X72462Y-20400D01*
X72654Y-20361D01*
X72816Y-20253D01*
X72924Y-20091D01*
X72962Y-19900D01*
X72924Y-19708D01*
X72816Y-19546D01*
X72654Y-19438D01*
X72462Y-19400D01*
X72654Y-19361D01*
X72816Y-19253D01*
X72924Y-19091D01*
X72962Y-18900D01*
X72924Y-18708D01*
X72816Y-18546D01*
X72654Y-18438D01*
X72462Y-18400D01*
X72654Y-18361D01*
X72816Y-18253D01*
X72924Y-18091D01*
X72962Y-17900D01*
X72924Y-17708D01*
X72816Y-17546D01*
X72654Y-17438D01*
X72462Y-17400D01*
X72654Y-17361D01*
X72816Y-17253D01*
X72924Y-17091D01*
X72962Y-16900D01*
X72924Y-16708D01*
X72816Y-16546D01*
X72654Y-16438D01*
X72462Y-16400D01*
X72654Y-16361D01*
X72816Y-16253D01*
X72924Y-16091D01*
X72962Y-15900D01*
X72924Y-15708D01*
X72816Y-15546D01*
X72654Y-15438D01*
X72462Y-15400D01*
X72654Y-15361D01*
X72816Y-15253D01*
X72924Y-15091D01*
X72962Y-14900D01*
X72924Y-14708D01*
X72816Y-14546D01*
X72654Y-14438D01*
X72462Y-14400D01*
X72137Y-14400D01*
X71945Y-14438D01*
X71783Y-14546D01*
X71675Y-14708D01*
X71637Y-14900D01*
X71675Y-15091D01*
X71783Y-15253D01*
X71945Y-15361D01*
X72137Y-15400D01*
X71945Y-15438D01*
X71783Y-15546D01*
X71675Y-15708D01*
X71637Y-15900D01*
X71675Y-16091D01*
X71783Y-16253D01*
X71945Y-16361D01*
X72137Y-16400D01*
X71945Y-16438D01*
X71783Y-16546D01*
X71675Y-16708D01*
X71637Y-16900D01*
X71675Y-17091D01*
X71783Y-17253D01*
X71945Y-17361D01*
X72137Y-17400D01*
X71945Y-17438D01*
X71783Y-17546D01*
X71675Y-17708D01*
X71637Y-17900D01*
X71675Y-18091D01*
X71783Y-18253D01*
X71945Y-18361D01*
X72137Y-18400D01*
X71945Y-18438D01*
X71783Y-18546D01*
X71675Y-18708D01*
X71637Y-18900D01*
X71675Y-19091D01*
X71783Y-19253D01*
X71945Y-19361D01*
X72137Y-19400D01*
X71945Y-19438D01*
X71783Y-19546D01*
X71675Y-19708D01*
X71637Y-19900D01*
X71675Y-20091D01*
X71783Y-20253D01*
X71945Y-20361D01*
X72137Y-20400D01*
X71945Y-20438D01*
X71783Y-20546D01*
X71675Y-20708D01*
X71637Y-20900D01*
X71675Y-21091D01*
X71783Y-21253D01*
X71945Y-21361D01*
X72137Y-21400D01*
X71945Y-21438D01*
X71783Y-21546D01*
X71675Y-21708D01*
X71637Y-21900D01*
X71675Y-22091D01*
X71783Y-22253D01*
X71945Y-22361D01*
X72137Y-22400D01*
X72462Y-22400D01*
X72654Y-22361D01*
X72816Y-22253D01*
X72924Y-22091D01*
X72962Y-21900D01*
X72962Y-24900D01*
X72924Y-24708D01*
X72816Y-24546D01*
X72654Y-24438D01*
X72462Y-24400D01*
X72137Y-24400D01*
X71945Y-24438D01*
X71783Y-24546D01*
X71675Y-24708D01*
X71637Y-24900D01*
X71675Y-25091D01*
X71783Y-25253D01*
X71945Y-25361D01*
X72137Y-25400D01*
X71945Y-25438D01*
X71783Y-25546D01*
X71675Y-25708D01*
X71637Y-25900D01*
X71675Y-26091D01*
X71783Y-26253D01*
X71945Y-26361D01*
X72137Y-26400D01*
X71945Y-26438D01*
X71783Y-26546D01*
X71675Y-26708D01*
X71637Y-26900D01*
X71675Y-27091D01*
X71783Y-27253D01*
X71945Y-27361D01*
X72137Y-27400D01*
X71945Y-27438D01*
X71783Y-27546D01*
X71675Y-27708D01*
X71637Y-27900D01*
X71675Y-28091D01*
X71783Y-28253D01*
X71945Y-28361D01*
X72137Y-28400D01*
X71945Y-28438D01*
X71783Y-28546D01*
X71675Y-28708D01*
X71637Y-28900D01*
X71675Y-29091D01*
X71783Y-29253D01*
X71945Y-29361D01*
X72137Y-29400D01*
X71945Y-29438D01*
X71783Y-29546D01*
X71675Y-29708D01*
X71637Y-29900D01*
X71675Y-30091D01*
X71783Y-30253D01*
X71945Y-30361D01*
X72137Y-30400D01*
X71945Y-30438D01*
X71783Y-30546D01*
X71675Y-30708D01*
X71637Y-30900D01*
X71675Y-31091D01*
X71783Y-31253D01*
X71945Y-31361D01*
X72137Y-31400D01*
X71945Y-31438D01*
X71783Y-31546D01*
X71675Y-31708D01*
X71637Y-31900D01*
X71675Y-32091D01*
X71783Y-32253D01*
X71945Y-32361D01*
X72137Y-32400D01*
X72462Y-32400D01*
X72654Y-32361D01*
X72816Y-32253D01*
X72924Y-32091D01*
X72962Y-31900D01*
X72962Y-32725D01*
X69962Y-32725D01*
X69962Y-31900D01*
X69924Y-31708D01*
X69816Y-31546D01*
X69654Y-31438D01*
X69462Y-31400D01*
X69654Y-31361D01*
X69816Y-31253D01*
X69924Y-31091D01*
X69962Y-30900D01*
X69924Y-30708D01*
X69816Y-30546D01*
X69654Y-30438D01*
X69462Y-30400D01*
X69654Y-30361D01*
X69816Y-30253D01*
X69924Y-30091D01*
X69962Y-29900D01*
X69924Y-29708D01*
X69816Y-29546D01*
X69654Y-29438D01*
X69462Y-29400D01*
X69654Y-29361D01*
X69816Y-29253D01*
X69924Y-29091D01*
X69962Y-28900D01*
X69924Y-28708D01*
X69816Y-28546D01*
X69654Y-28438D01*
X69462Y-28400D01*
X69654Y-28361D01*
X69816Y-28253D01*
X69924Y-28091D01*
X69962Y-27900D01*
X69924Y-27708D01*
X69816Y-27546D01*
X69654Y-27438D01*
X69462Y-27400D01*
X69654Y-27361D01*
X69816Y-27253D01*
X69924Y-27091D01*
X69962Y-26900D01*
X69924Y-26708D01*
X69816Y-26546D01*
X69654Y-26438D01*
X69462Y-26400D01*
X69654Y-26361D01*
X69816Y-26253D01*
X69924Y-26091D01*
X69962Y-25900D01*
X69924Y-25708D01*
X69816Y-25546D01*
X69654Y-25438D01*
X69462Y-25400D01*
X69654Y-25361D01*
X69816Y-25253D01*
X69924Y-25091D01*
X69962Y-24900D01*
X69962Y-21900D01*
X69924Y-21708D01*
X69816Y-21546D01*
X69654Y-21438D01*
X69462Y-21400D01*
X69654Y-21361D01*
X69816Y-21253D01*
X69924Y-21091D01*
X69962Y-20900D01*
X69924Y-20708D01*
X69816Y-20546D01*
X69654Y-20438D01*
X69462Y-20400D01*
X69654Y-20361D01*
X69816Y-20253D01*
X69924Y-20091D01*
X69962Y-19900D01*
X69924Y-19708D01*
X69816Y-19546D01*
X69654Y-19438D01*
X69462Y-19400D01*
X69654Y-19361D01*
X69816Y-19253D01*
X69924Y-19091D01*
X69962Y-18900D01*
X69924Y-18708D01*
X69816Y-18546D01*
X69654Y-18438D01*
X69462Y-18400D01*
X69654Y-18361D01*
X69816Y-18253D01*
X69924Y-18091D01*
X69962Y-17900D01*
X69924Y-17708D01*
X69816Y-17546D01*
X69654Y-17438D01*
X69462Y-17400D01*
X69654Y-17361D01*
X69816Y-17253D01*
X69924Y-17091D01*
X69962Y-16900D01*
X69924Y-16708D01*
X69816Y-16546D01*
X69654Y-16438D01*
X69462Y-16400D01*
X69654Y-16361D01*
X69816Y-16253D01*
X69924Y-16091D01*
X69962Y-15900D01*
X69924Y-15708D01*
X69816Y-15546D01*
X69654Y-15438D01*
X69462Y-15400D01*
X69654Y-15361D01*
X69816Y-15253D01*
X69924Y-15091D01*
X69962Y-14900D01*
X69924Y-14708D01*
X69816Y-14546D01*
X69654Y-14438D01*
X69462Y-14400D01*
X69137Y-14400D01*
X68945Y-14438D01*
X68783Y-14546D01*
X68675Y-14708D01*
X68637Y-14900D01*
X68675Y-15091D01*
X68783Y-15253D01*
X68945Y-15361D01*
X69137Y-15400D01*
X68945Y-15438D01*
X68783Y-15546D01*
X68675Y-15708D01*
X68637Y-15900D01*
X68675Y-16091D01*
X68783Y-16253D01*
X68945Y-16361D01*
X69137Y-16400D01*
X68945Y-16438D01*
X68783Y-16546D01*
X68675Y-16708D01*
X68637Y-16900D01*
X68675Y-17091D01*
X68783Y-17253D01*
X68945Y-17361D01*
X69137Y-17400D01*
X68945Y-17438D01*
X68783Y-17546D01*
X68675Y-17708D01*
X68637Y-17900D01*
X68675Y-18091D01*
X68783Y-18253D01*
X68945Y-18361D01*
X69137Y-18400D01*
X68945Y-18438D01*
X68783Y-18546D01*
X68675Y-18708D01*
X68637Y-18900D01*
X68675Y-19091D01*
X68783Y-19253D01*
X68945Y-19361D01*
X69137Y-19400D01*
X68945Y-19438D01*
X68783Y-19546D01*
X68675Y-19708D01*
X68637Y-19900D01*
X68675Y-20091D01*
X68783Y-20253D01*
X68945Y-20361D01*
X69137Y-20400D01*
X68945Y-20438D01*
X68783Y-20546D01*
X68675Y-20708D01*
X68637Y-20900D01*
X68675Y-21091D01*
X68783Y-21253D01*
X68945Y-21361D01*
X69137Y-21400D01*
X68945Y-21438D01*
X68783Y-21546D01*
X68675Y-21708D01*
X68637Y-21900D01*
X68675Y-22091D01*
X68783Y-22253D01*
X68945Y-22361D01*
X69137Y-22400D01*
X69462Y-22400D01*
X69654Y-22361D01*
X69816Y-22253D01*
X69924Y-22091D01*
X69962Y-21900D01*
X69962Y-24900D01*
X69924Y-24708D01*
X69816Y-24546D01*
X69654Y-24438D01*
X69462Y-24400D01*
X69137Y-24400D01*
X68945Y-24438D01*
X68783Y-24546D01*
X68675Y-24708D01*
X68637Y-24900D01*
X68675Y-25091D01*
X68783Y-25253D01*
X68945Y-25361D01*
X69137Y-25400D01*
X68945Y-25438D01*
X68783Y-25546D01*
X68675Y-25708D01*
X68637Y-25900D01*
X68675Y-26091D01*
X68783Y-26253D01*
X68945Y-26361D01*
X69137Y-26400D01*
X68945Y-26438D01*
X68783Y-26546D01*
X68675Y-26708D01*
X68637Y-26900D01*
X68675Y-27091D01*
X68783Y-27253D01*
X68945Y-27361D01*
X69137Y-27400D01*
X68945Y-27438D01*
X68783Y-27546D01*
X68675Y-27708D01*
X68637Y-27900D01*
X68675Y-28091D01*
X68783Y-28253D01*
X68945Y-28361D01*
X69137Y-28400D01*
X68945Y-28438D01*
X68783Y-28546D01*
X68675Y-28708D01*
X68637Y-28900D01*
X68675Y-29091D01*
X68783Y-29253D01*
X68945Y-29361D01*
X69137Y-29400D01*
X68945Y-29438D01*
X68783Y-29546D01*
X68675Y-29708D01*
X68637Y-29900D01*
X68675Y-30091D01*
X68783Y-30253D01*
X68945Y-30361D01*
X69137Y-30400D01*
X68945Y-30438D01*
X68783Y-30546D01*
X68675Y-30708D01*
X68637Y-30900D01*
X68675Y-31091D01*
X68783Y-31253D01*
X68945Y-31361D01*
X69137Y-31400D01*
X68945Y-31438D01*
X68783Y-31546D01*
X68675Y-31708D01*
X68637Y-31900D01*
X68675Y-32091D01*
X68783Y-32253D01*
X68945Y-32361D01*
X69137Y-32400D01*
X69462Y-32400D01*
X69654Y-32361D01*
X69816Y-32253D01*
X69924Y-32091D01*
X69962Y-31900D01*
X69962Y-32725D01*
X68150Y-32725D01*
X68150Y-30791D01*
X68066Y-30588D01*
X67911Y-30434D01*
X67830Y-30400D01*
X67911Y-30366D01*
X68065Y-30211D01*
X68149Y-30009D01*
X68150Y-29791D01*
X68066Y-29588D01*
X67911Y-29434D01*
X67830Y-29400D01*
X67911Y-29366D01*
X68065Y-29211D01*
X68149Y-29009D01*
X68150Y-28791D01*
X68066Y-28588D01*
X67911Y-28434D01*
X67830Y-28400D01*
X67911Y-28366D01*
X68065Y-28211D01*
X68149Y-28009D01*
X68150Y-27791D01*
X68066Y-27588D01*
X67911Y-27434D01*
X67830Y-27400D01*
X67911Y-27366D01*
X68065Y-27211D01*
X68149Y-27009D01*
X68150Y-26791D01*
X68066Y-26588D01*
X67911Y-26434D01*
X67830Y-26400D01*
X67911Y-26366D01*
X68065Y-26211D01*
X68149Y-26009D01*
X68150Y-25791D01*
X68066Y-25588D01*
X67911Y-25434D01*
X67830Y-25400D01*
X67911Y-25366D01*
X68065Y-25211D01*
X68149Y-25009D01*
X68150Y-24791D01*
X68066Y-24588D01*
X67911Y-24434D01*
X67830Y-24400D01*
X67911Y-24366D01*
X68065Y-24211D01*
X68149Y-24009D01*
X68150Y-23791D01*
X68150Y-21791D01*
X68066Y-21588D01*
X67911Y-21434D01*
X67830Y-21400D01*
X67911Y-21366D01*
X68065Y-21211D01*
X68149Y-21009D01*
X68150Y-20791D01*
X68066Y-20588D01*
X67911Y-20434D01*
X67830Y-20400D01*
X67911Y-20366D01*
X68065Y-20211D01*
X68149Y-20009D01*
X68150Y-19791D01*
X68066Y-19588D01*
X67911Y-19434D01*
X67830Y-19400D01*
X67911Y-19366D01*
X68065Y-19211D01*
X68149Y-19009D01*
X68150Y-18791D01*
X68066Y-18588D01*
X67911Y-18434D01*
X67830Y-18400D01*
X67911Y-18366D01*
X68065Y-18211D01*
X68149Y-18009D01*
X68150Y-17791D01*
X68066Y-17588D01*
X67911Y-17434D01*
X67830Y-17400D01*
X67911Y-17366D01*
X68065Y-17211D01*
X68149Y-17009D01*
X68150Y-16791D01*
X68066Y-16588D01*
X67911Y-16434D01*
X67830Y-16400D01*
X67911Y-16366D01*
X68065Y-16211D01*
X68149Y-16009D01*
X68150Y-15791D01*
X68066Y-15588D01*
X67911Y-15434D01*
X67830Y-15400D01*
X67911Y-15366D01*
X68065Y-15211D01*
X68149Y-15009D01*
X68150Y-14791D01*
X68066Y-14588D01*
X67911Y-14434D01*
X67709Y-14350D01*
X67491Y-14349D01*
X67288Y-14433D01*
X67134Y-14588D01*
X67050Y-14790D01*
X67049Y-15008D01*
X67133Y-15211D01*
X67288Y-15365D01*
X67369Y-15399D01*
X67288Y-15433D01*
X67134Y-15588D01*
X67050Y-15790D01*
X67049Y-16008D01*
X67133Y-16211D01*
X67288Y-16365D01*
X67369Y-16399D01*
X67288Y-16433D01*
X67134Y-16588D01*
X67050Y-16790D01*
X67049Y-17008D01*
X67133Y-17211D01*
X67288Y-17365D01*
X67369Y-17399D01*
X67288Y-17433D01*
X67134Y-17588D01*
X67050Y-17790D01*
X67049Y-18008D01*
X67133Y-18211D01*
X67288Y-18365D01*
X67369Y-18399D01*
X67288Y-18433D01*
X67134Y-18588D01*
X67050Y-18790D01*
X67049Y-19008D01*
X67133Y-19211D01*
X67288Y-19365D01*
X67369Y-19399D01*
X67288Y-19433D01*
X67134Y-19588D01*
X67050Y-19790D01*
X67049Y-20008D01*
X67133Y-20211D01*
X67288Y-20365D01*
X67369Y-20399D01*
X67288Y-20433D01*
X67134Y-20588D01*
X67050Y-20790D01*
X67049Y-21008D01*
X67133Y-21211D01*
X67288Y-21365D01*
X67369Y-21399D01*
X67288Y-21433D01*
X67134Y-21588D01*
X67050Y-21790D01*
X67049Y-22008D01*
X67133Y-22211D01*
X67272Y-22350D01*
X67250Y-22350D01*
X67158Y-22388D01*
X67087Y-22458D01*
X67049Y-22550D01*
X67050Y-22787D01*
X67112Y-22850D01*
X67500Y-22850D01*
X67550Y-22850D01*
X67650Y-22850D01*
X67700Y-22850D01*
X68087Y-22850D01*
X68150Y-22787D01*
X68150Y-22550D01*
X68112Y-22458D01*
X68041Y-22388D01*
X67949Y-22350D01*
X67927Y-22350D01*
X68065Y-22211D01*
X68149Y-22009D01*
X68150Y-21791D01*
X68150Y-23791D01*
X68066Y-23588D01*
X67927Y-23449D01*
X67949Y-23449D01*
X68041Y-23411D01*
X68112Y-23341D01*
X68150Y-23249D01*
X68150Y-23012D01*
X68087Y-22950D01*
X67700Y-22950D01*
X67650Y-22950D01*
X67550Y-22950D01*
X67500Y-22950D01*
X67112Y-22950D01*
X67050Y-23012D01*
X67049Y-23249D01*
X67087Y-23341D01*
X67158Y-23411D01*
X67250Y-23449D01*
X67272Y-23449D01*
X67134Y-23588D01*
X67050Y-23790D01*
X67049Y-24008D01*
X67133Y-24211D01*
X67288Y-24365D01*
X67369Y-24399D01*
X67288Y-24433D01*
X67134Y-24588D01*
X67050Y-24790D01*
X67049Y-25008D01*
X67133Y-25211D01*
X67288Y-25365D01*
X67369Y-25399D01*
X67288Y-25433D01*
X67134Y-25588D01*
X67050Y-25790D01*
X67049Y-26008D01*
X67133Y-26211D01*
X67288Y-26365D01*
X67369Y-26399D01*
X67288Y-26433D01*
X67134Y-26588D01*
X67050Y-26790D01*
X67049Y-27008D01*
X67133Y-27211D01*
X67288Y-27365D01*
X67369Y-27399D01*
X67288Y-27433D01*
X67134Y-27588D01*
X67050Y-27790D01*
X67049Y-28008D01*
X67133Y-28211D01*
X67288Y-28365D01*
X67369Y-28399D01*
X67288Y-28433D01*
X67134Y-28588D01*
X67050Y-28790D01*
X67049Y-29008D01*
X67133Y-29211D01*
X67288Y-29365D01*
X67369Y-29399D01*
X67288Y-29433D01*
X67134Y-29588D01*
X67050Y-29790D01*
X67049Y-30008D01*
X67133Y-30211D01*
X67288Y-30365D01*
X67369Y-30399D01*
X67288Y-30433D01*
X67134Y-30588D01*
X67050Y-30790D01*
X67049Y-31008D01*
X67133Y-31211D01*
X67272Y-31350D01*
X67250Y-31350D01*
X67158Y-31388D01*
X67087Y-31458D01*
X67049Y-31550D01*
X67050Y-31787D01*
X67112Y-31850D01*
X67500Y-31850D01*
X67550Y-31850D01*
X67650Y-31850D01*
X67700Y-31850D01*
X68087Y-31850D01*
X68150Y-31787D01*
X68150Y-31550D01*
X68112Y-31458D01*
X68041Y-31388D01*
X67949Y-31350D01*
X67927Y-31350D01*
X68065Y-31211D01*
X68149Y-31009D01*
X68150Y-30791D01*
X68150Y-32725D01*
X68150Y-32725D01*
X68150Y-32249D01*
X68150Y-32012D01*
X68087Y-31950D01*
X67650Y-31950D01*
X67650Y-32387D01*
X67712Y-32450D01*
X67850Y-32450D01*
X67949Y-32449D01*
X68041Y-32411D01*
X68112Y-32341D01*
X68150Y-32249D01*
X68150Y-32725D01*
X67550Y-32725D01*
X67550Y-32387D01*
X67550Y-31950D01*
X67112Y-31950D01*
X67050Y-32012D01*
X67049Y-32249D01*
X67087Y-32341D01*
X67158Y-32411D01*
X67250Y-32449D01*
X67349Y-32450D01*
X67487Y-32450D01*
X67550Y-32387D01*
X67550Y-32725D01*
X66650Y-32725D01*
X66650Y-30791D01*
X66566Y-30588D01*
X66411Y-30434D01*
X66330Y-30400D01*
X66411Y-30366D01*
X66565Y-30211D01*
X66649Y-30009D01*
X66650Y-29791D01*
X66566Y-29588D01*
X66411Y-29434D01*
X66330Y-29400D01*
X66411Y-29366D01*
X66565Y-29211D01*
X66649Y-29009D01*
X66650Y-28791D01*
X66566Y-28588D01*
X66411Y-28434D01*
X66330Y-28400D01*
X66411Y-28366D01*
X66565Y-28211D01*
X66649Y-28009D01*
X66650Y-27791D01*
X66566Y-27588D01*
X66411Y-27434D01*
X66330Y-27400D01*
X66411Y-27366D01*
X66565Y-27211D01*
X66649Y-27009D01*
X66650Y-26791D01*
X66566Y-26588D01*
X66411Y-26434D01*
X66330Y-26400D01*
X66411Y-26366D01*
X66565Y-26211D01*
X66649Y-26009D01*
X66650Y-25791D01*
X66566Y-25588D01*
X66411Y-25434D01*
X66330Y-25400D01*
X66411Y-25366D01*
X66565Y-25211D01*
X66649Y-25009D01*
X66650Y-24791D01*
X66566Y-24588D01*
X66411Y-24434D01*
X66330Y-24400D01*
X66411Y-24366D01*
X66565Y-24211D01*
X66649Y-24009D01*
X66650Y-23791D01*
X66566Y-23588D01*
X66411Y-23434D01*
X66330Y-23400D01*
X66411Y-23366D01*
X66565Y-23211D01*
X66649Y-23009D01*
X66650Y-22791D01*
X66566Y-22588D01*
X66411Y-22434D01*
X66330Y-22400D01*
X66411Y-22366D01*
X66565Y-22211D01*
X66649Y-22009D01*
X66650Y-21791D01*
X66566Y-21588D01*
X66411Y-21434D01*
X66330Y-21400D01*
X66411Y-21366D01*
X66565Y-21211D01*
X66649Y-21009D01*
X66650Y-20791D01*
X66566Y-20588D01*
X66411Y-20434D01*
X66330Y-20400D01*
X66411Y-20366D01*
X66565Y-20211D01*
X66649Y-20009D01*
X66650Y-19791D01*
X66566Y-19588D01*
X66411Y-19434D01*
X66330Y-19400D01*
X66411Y-19366D01*
X66565Y-19211D01*
X66649Y-19009D01*
X66650Y-18791D01*
X66566Y-18588D01*
X66411Y-18434D01*
X66330Y-18400D01*
X66411Y-18366D01*
X66565Y-18211D01*
X66649Y-18009D01*
X66650Y-17791D01*
X66566Y-17588D01*
X66411Y-17434D01*
X66330Y-17400D01*
X66411Y-17366D01*
X66565Y-17211D01*
X66649Y-17009D01*
X66650Y-16791D01*
X66566Y-16588D01*
X66411Y-16434D01*
X66330Y-16400D01*
X66411Y-16366D01*
X66565Y-16211D01*
X66649Y-16009D01*
X66650Y-15791D01*
X66566Y-15588D01*
X66427Y-15449D01*
X66449Y-15449D01*
X66541Y-15411D01*
X66612Y-15341D01*
X66650Y-15249D01*
X66650Y-14550D01*
X66612Y-14458D01*
X66541Y-14388D01*
X66449Y-14350D01*
X66350Y-14349D01*
X66212Y-14350D01*
X66150Y-14412D01*
X66150Y-14850D01*
X66587Y-14850D01*
X66650Y-14787D01*
X66650Y-14550D01*
X66650Y-15249D01*
X66650Y-15012D01*
X66587Y-14950D01*
X66200Y-14950D01*
X66150Y-14950D01*
X66050Y-14950D01*
X66050Y-14850D01*
X66050Y-14412D01*
X65987Y-14350D01*
X65849Y-14349D01*
X65750Y-14350D01*
X65658Y-14388D01*
X65587Y-14458D01*
X65549Y-14550D01*
X65550Y-14787D01*
X65612Y-14850D01*
X66050Y-14850D01*
X66050Y-14950D01*
X66000Y-14950D01*
X65612Y-14950D01*
X65550Y-15012D01*
X65549Y-15249D01*
X65587Y-15341D01*
X65658Y-15411D01*
X65750Y-15449D01*
X65772Y-15449D01*
X65634Y-15588D01*
X65550Y-15790D01*
X65549Y-16008D01*
X65633Y-16211D01*
X65788Y-16365D01*
X65869Y-16399D01*
X65788Y-16433D01*
X65634Y-16588D01*
X65550Y-16790D01*
X65549Y-17008D01*
X65633Y-17211D01*
X65788Y-17365D01*
X65869Y-17399D01*
X65788Y-17433D01*
X65634Y-17588D01*
X65550Y-17790D01*
X65549Y-18008D01*
X65633Y-18211D01*
X65788Y-18365D01*
X65869Y-18399D01*
X65788Y-18433D01*
X65634Y-18588D01*
X65550Y-18790D01*
X65549Y-19008D01*
X65633Y-19211D01*
X65788Y-19365D01*
X65869Y-19399D01*
X65788Y-19433D01*
X65634Y-19588D01*
X65550Y-19790D01*
X65549Y-20008D01*
X65633Y-20211D01*
X65788Y-20365D01*
X65869Y-20399D01*
X65788Y-20433D01*
X65634Y-20588D01*
X65550Y-20790D01*
X65549Y-21008D01*
X65633Y-21211D01*
X65788Y-21365D01*
X65869Y-21399D01*
X65788Y-21433D01*
X65634Y-21588D01*
X65550Y-21790D01*
X65549Y-22008D01*
X65633Y-22211D01*
X65788Y-22365D01*
X65869Y-22399D01*
X65788Y-22433D01*
X65634Y-22588D01*
X65550Y-22790D01*
X65549Y-23008D01*
X65633Y-23211D01*
X65788Y-23365D01*
X65869Y-23399D01*
X65788Y-23433D01*
X65634Y-23588D01*
X65550Y-23790D01*
X65549Y-24008D01*
X65633Y-24211D01*
X65788Y-24365D01*
X65869Y-24399D01*
X65788Y-24433D01*
X65634Y-24588D01*
X65550Y-24790D01*
X65549Y-25008D01*
X65633Y-25211D01*
X65788Y-25365D01*
X65869Y-25399D01*
X65788Y-25433D01*
X65634Y-25588D01*
X65550Y-25790D01*
X65549Y-26008D01*
X65633Y-26211D01*
X65788Y-26365D01*
X65869Y-26399D01*
X65788Y-26433D01*
X65634Y-26588D01*
X65550Y-26790D01*
X65549Y-27008D01*
X65633Y-27211D01*
X65788Y-27365D01*
X65869Y-27399D01*
X65788Y-27433D01*
X65634Y-27588D01*
X65550Y-27790D01*
X65549Y-28008D01*
X65633Y-28211D01*
X65788Y-28365D01*
X65869Y-28399D01*
X65788Y-28433D01*
X65634Y-28588D01*
X65550Y-28790D01*
X65549Y-29008D01*
X65633Y-29211D01*
X65788Y-29365D01*
X65869Y-29399D01*
X65788Y-29433D01*
X65634Y-29588D01*
X65550Y-29790D01*
X65549Y-30008D01*
X65633Y-30211D01*
X65788Y-30365D01*
X65869Y-30399D01*
X65788Y-30433D01*
X65634Y-30588D01*
X65550Y-30790D01*
X65549Y-31008D01*
X65633Y-31211D01*
X65772Y-31350D01*
X65750Y-31350D01*
X65658Y-31388D01*
X65587Y-31458D01*
X65549Y-31550D01*
X65550Y-31787D01*
X65612Y-31850D01*
X66000Y-31850D01*
X66050Y-31850D01*
X66150Y-31850D01*
X66200Y-31850D01*
X66587Y-31850D01*
X66650Y-31787D01*
X66650Y-31550D01*
X66612Y-31458D01*
X66541Y-31388D01*
X66449Y-31350D01*
X66427Y-31350D01*
X66565Y-31211D01*
X66649Y-31009D01*
X66650Y-30791D01*
X66650Y-32725D01*
X66650Y-32725D01*
X66650Y-32249D01*
X66650Y-32012D01*
X66587Y-31950D01*
X66150Y-31950D01*
X66150Y-32387D01*
X66212Y-32450D01*
X66350Y-32450D01*
X66449Y-32449D01*
X66541Y-32411D01*
X66612Y-32341D01*
X66650Y-32249D01*
X66650Y-32725D01*
X66050Y-32725D01*
X66050Y-32387D01*
X66050Y-31950D01*
X65612Y-31950D01*
X65550Y-32012D01*
X65549Y-32249D01*
X65587Y-32341D01*
X65658Y-32411D01*
X65750Y-32449D01*
X65849Y-32450D01*
X65987Y-32450D01*
X66050Y-32387D01*
X66050Y-32725D01*
X65275Y-32725D01*
X65275Y-14075D01*
X75925Y-14075D01*
X75925Y-32725D01*
M02*
