G04 (created by PCBNEW (2013-01-23 BZR 3920)-testing) date Thu 24 Jan 2013 01:11:53 AM CET*
%MOIN*%
G04 Gerber Fmt 3.4, Leading zero omitted, Abs format*
%FSLAX34Y34*%
G01*
G70*
G90*
G04 APERTURE LIST*
%ADD10C,2.3622e-06*%
%ADD11C,0.015*%
%ADD12O,0.08X0.05*%
%ADD13R,0.06X0.06*%
%ADD14C,0.06*%
%ADD15C,0.012*%
G04 APERTURE END LIST*
G54D10*
G54D11*
X64950Y-33050D02*
X64950Y-13750D01*
X76250Y-33050D02*
X76250Y-13750D01*
X64950Y-33050D02*
X76250Y-33050D01*
X64950Y-13750D02*
X76250Y-13750D01*
G54D12*
X72300Y-31900D03*
X72300Y-30900D03*
X72300Y-29900D03*
X72300Y-28900D03*
X72300Y-27900D03*
X72300Y-26900D03*
X72300Y-25900D03*
X72300Y-24900D03*
X69300Y-24900D03*
X69300Y-25900D03*
X69300Y-26900D03*
X69300Y-27900D03*
X69300Y-28900D03*
X69300Y-29900D03*
X69300Y-30900D03*
X69300Y-31900D03*
X72300Y-21900D03*
X72300Y-20900D03*
X72300Y-19900D03*
X72300Y-18900D03*
X72300Y-17900D03*
X72300Y-16900D03*
X72300Y-15900D03*
X72300Y-14900D03*
X69300Y-14900D03*
X69300Y-15900D03*
X69300Y-16900D03*
X69300Y-17900D03*
X69300Y-18900D03*
X69300Y-19900D03*
X69300Y-20900D03*
X69300Y-21900D03*
G54D13*
X67600Y-31900D03*
G54D14*
X67600Y-30900D03*
X67600Y-29900D03*
X67600Y-28900D03*
X67600Y-27900D03*
X67600Y-26900D03*
X67600Y-25900D03*
X67600Y-24900D03*
X67600Y-23900D03*
G54D13*
X66100Y-14900D03*
G54D14*
X66100Y-15900D03*
X66100Y-16900D03*
X66100Y-17900D03*
X66100Y-18900D03*
X66100Y-19900D03*
X66100Y-20900D03*
X66100Y-21900D03*
X66100Y-22900D03*
G54D13*
X66100Y-31900D03*
G54D14*
X66100Y-30900D03*
X66100Y-29900D03*
X66100Y-28900D03*
X66100Y-27900D03*
X66100Y-26900D03*
X66100Y-25900D03*
X66100Y-24900D03*
X66100Y-23900D03*
G54D13*
X75100Y-31900D03*
G54D14*
X75100Y-30900D03*
X75100Y-29900D03*
X75100Y-28900D03*
X75100Y-27900D03*
X75100Y-26900D03*
X75100Y-25900D03*
X75100Y-24900D03*
X75100Y-23900D03*
G54D13*
X75100Y-14900D03*
G54D14*
X75100Y-15900D03*
X75100Y-16900D03*
X75100Y-17900D03*
X75100Y-18900D03*
X75100Y-19900D03*
X75100Y-20900D03*
X75100Y-21900D03*
X75100Y-22900D03*
G54D13*
X67600Y-22900D03*
G54D14*
X67600Y-21900D03*
X67600Y-20900D03*
X67600Y-19900D03*
X67600Y-18900D03*
X67600Y-17900D03*
X67600Y-16900D03*
X67600Y-15900D03*
X67600Y-14900D03*
G54D15*
X71550Y-32650D02*
X72300Y-31900D01*
X67000Y-32650D02*
X71550Y-32650D01*
X66850Y-32500D02*
X67000Y-32650D01*
X66850Y-31350D02*
X66850Y-32500D01*
X72300Y-31900D02*
X74100Y-31900D01*
X66400Y-30900D02*
X66850Y-31350D01*
X74100Y-31900D02*
X75100Y-30900D01*
X66100Y-30900D02*
X66400Y-30900D01*
X71800Y-31400D02*
X72300Y-30900D01*
X68850Y-31400D02*
X71800Y-31400D01*
X67850Y-30400D02*
X68850Y-31400D01*
X67100Y-30400D02*
X67850Y-30400D01*
X72300Y-30900D02*
X74100Y-30900D01*
X66600Y-29900D02*
X67100Y-30400D01*
X74100Y-30900D02*
X75100Y-29900D01*
X66100Y-29900D02*
X66600Y-29900D01*
X71800Y-30400D02*
X72300Y-29900D01*
X68850Y-30400D02*
X71800Y-30400D01*
X67850Y-29400D02*
X68850Y-30400D01*
X67150Y-29400D02*
X67850Y-29400D01*
X72300Y-29900D02*
X74100Y-29900D01*
X66650Y-28900D02*
X67150Y-29400D01*
X74100Y-29900D02*
X75100Y-28900D01*
X66100Y-28900D02*
X66650Y-28900D01*
X71850Y-29350D02*
X72300Y-28900D01*
X68800Y-29350D02*
X71850Y-29350D01*
X67850Y-28400D02*
X68800Y-29350D01*
X67100Y-28400D02*
X67850Y-28400D01*
X72300Y-28900D02*
X74100Y-28900D01*
X66600Y-27900D02*
X67100Y-28400D01*
X74100Y-28900D02*
X75100Y-27900D01*
X66100Y-27900D02*
X66600Y-27900D01*
X71800Y-28400D02*
X72300Y-27900D01*
X72300Y-27900D02*
X74100Y-27900D01*
X68850Y-28400D02*
X71800Y-28400D01*
X74100Y-27900D02*
X75100Y-26900D01*
X67850Y-27400D02*
X68850Y-28400D01*
X67100Y-27400D02*
X67850Y-27400D01*
X66100Y-26900D02*
X66600Y-26900D01*
X66600Y-26900D02*
X67100Y-27400D01*
X71800Y-27400D02*
X72300Y-26900D01*
X72300Y-26900D02*
X74100Y-26900D01*
X68850Y-27400D02*
X71800Y-27400D01*
X74100Y-26900D02*
X75100Y-25900D01*
X67900Y-26450D02*
X68850Y-27400D01*
X67150Y-26450D02*
X67900Y-26450D01*
X66100Y-25900D02*
X66600Y-25900D01*
X66600Y-25900D02*
X67150Y-26450D01*
X71800Y-26400D02*
X72300Y-25900D01*
X72300Y-25900D02*
X74100Y-25900D01*
X68950Y-26400D02*
X71800Y-26400D01*
X74100Y-25900D02*
X75100Y-24900D01*
X67950Y-25400D02*
X68950Y-26400D01*
X67050Y-25400D02*
X67950Y-25400D01*
X66100Y-24900D02*
X66550Y-24900D01*
X66550Y-24900D02*
X67050Y-25400D01*
X71800Y-25400D02*
X72300Y-24900D01*
X72300Y-24900D02*
X74100Y-24900D01*
X68850Y-25400D02*
X71800Y-25400D01*
X74100Y-24900D02*
X75100Y-23900D01*
X67850Y-24400D02*
X68850Y-25400D01*
X67050Y-24400D02*
X67850Y-24400D01*
X66100Y-23900D02*
X66550Y-23900D01*
X66550Y-23900D02*
X67050Y-24400D01*
X66100Y-22900D02*
X66350Y-22900D01*
X66350Y-22900D02*
X66850Y-22400D01*
X66850Y-22400D02*
X71800Y-22400D01*
X74100Y-21900D02*
X75100Y-22900D01*
X71800Y-22400D02*
X72300Y-21900D01*
X72300Y-21900D02*
X74100Y-21900D01*
X66100Y-21900D02*
X66350Y-21900D01*
X66350Y-21900D02*
X66850Y-21400D01*
X66850Y-21400D02*
X71800Y-21400D01*
X74100Y-20900D02*
X75100Y-21900D01*
X71800Y-21400D02*
X72300Y-20900D01*
X72300Y-20900D02*
X74100Y-20900D01*
X66100Y-20900D02*
X66350Y-20900D01*
X66350Y-20900D02*
X66850Y-20400D01*
X66850Y-20400D02*
X71800Y-20400D01*
X74100Y-19900D02*
X75100Y-20900D01*
X71800Y-20400D02*
X72300Y-19900D01*
X72300Y-19900D02*
X74100Y-19900D01*
X66100Y-19900D02*
X66350Y-19900D01*
X66350Y-19900D02*
X66850Y-19400D01*
X66850Y-19400D02*
X71800Y-19400D01*
X74100Y-18900D02*
X75100Y-19900D01*
X71800Y-19400D02*
X72300Y-18900D01*
X72300Y-18900D02*
X74100Y-18900D01*
X66100Y-18900D02*
X66350Y-18900D01*
X66350Y-18900D02*
X66850Y-18400D01*
X66850Y-18400D02*
X71800Y-18400D01*
X74100Y-17900D02*
X75100Y-18900D01*
X71800Y-18400D02*
X72300Y-17900D01*
X72300Y-17900D02*
X74100Y-17900D01*
X66100Y-17900D02*
X66350Y-17900D01*
X66350Y-17900D02*
X66850Y-17400D01*
X66850Y-17400D02*
X71800Y-17400D01*
X74100Y-16900D02*
X75100Y-17900D01*
X71800Y-17400D02*
X72300Y-16900D01*
X72300Y-16900D02*
X74100Y-16900D01*
X66100Y-16900D02*
X66350Y-16900D01*
X66350Y-16900D02*
X66850Y-16400D01*
X66850Y-16400D02*
X71800Y-16400D01*
X74100Y-15900D02*
X75100Y-16900D01*
X71800Y-16400D02*
X72300Y-15900D01*
X72300Y-15900D02*
X74100Y-15900D01*
X66100Y-15900D02*
X66350Y-15900D01*
X66350Y-15900D02*
X66900Y-15350D01*
X66900Y-15350D02*
X71850Y-15350D01*
X74100Y-14900D02*
X75100Y-15900D01*
X71850Y-15350D02*
X72300Y-14900D01*
X72300Y-14900D02*
X74100Y-14900D01*
X67600Y-14900D02*
X69300Y-14900D01*
X67600Y-28900D02*
X67750Y-28900D01*
X67750Y-28900D02*
X68750Y-29900D01*
X68750Y-29900D02*
X69300Y-29900D01*
X67600Y-26900D02*
X67800Y-26900D01*
X67800Y-26900D02*
X68800Y-27900D01*
X68800Y-27900D02*
X69300Y-27900D01*
X67600Y-24900D02*
X67850Y-24900D01*
X67850Y-24900D02*
X68850Y-25900D01*
X68850Y-25900D02*
X69300Y-25900D01*
X67600Y-16900D02*
X69300Y-16900D01*
X67600Y-20900D02*
X69300Y-20900D01*
X67600Y-18900D02*
X69300Y-18900D01*
X68800Y-24900D02*
X69300Y-24900D01*
X67800Y-23900D02*
X68800Y-24900D01*
X67600Y-23900D02*
X67800Y-23900D01*
X68900Y-26900D02*
X69300Y-26900D01*
X69100Y-26900D02*
X69300Y-26900D01*
X67900Y-25900D02*
X68900Y-26900D01*
X67600Y-25900D02*
X67900Y-25900D01*
X68850Y-28900D02*
X69300Y-28900D01*
X67850Y-27900D02*
X68850Y-28900D01*
X67600Y-27900D02*
X67850Y-27900D01*
X68850Y-30900D02*
X69300Y-30900D01*
X67850Y-29900D02*
X68850Y-30900D01*
X67600Y-29900D02*
X67850Y-29900D01*
X67600Y-30900D02*
X67750Y-30900D01*
X67750Y-30900D02*
X68750Y-31900D01*
X68750Y-31900D02*
X69300Y-31900D01*
X69300Y-15900D02*
X67600Y-15900D01*
X69300Y-17900D02*
X67600Y-17900D01*
X69300Y-19900D02*
X67600Y-19900D01*
X69300Y-21900D02*
X67600Y-21900D01*
M02*
