M48
INCH,TZ
T1C0.030
T2C0.040
%
G90
G05
T1
X059250Y-015000
X059250Y-016000
X059250Y-017000
X059250Y-018000
X059250Y-019000
X059250Y-020000
X059250Y-021000
X059250Y-022000
X059250Y-025000
X059250Y-026000
X059250Y-027000
X059250Y-028000
X059250Y-029000
X059250Y-030000
X059250Y-031000
X059250Y-032000
X062250Y-015000
X062250Y-016000
X062250Y-017000
X062250Y-018000
X062250Y-019000
X062250Y-020000
X062250Y-021000
X062250Y-022000
X062250Y-025000
X062250Y-026000
X062250Y-027000
X062250Y-028000
X062250Y-029000
X062250Y-030000
X062250Y-031000
X062250Y-032000
X069250Y-015000
X069250Y-016000
X069250Y-017000
X069250Y-018000
X069250Y-019000
X069250Y-020000
X069250Y-021000
X069250Y-022000
X069250Y-025000
X069250Y-026000
X069250Y-027000
X069250Y-028000
X069250Y-029000
X069250Y-030000
X069250Y-031000
X069250Y-032000
X072250Y-015000
X072250Y-016000
X072250Y-017000
X072250Y-018000
X072250Y-019000
X072250Y-020000
X072250Y-021000
X072250Y-022000
X072250Y-025000
X072250Y-026000
X072250Y-027000
X072250Y-028000
X072250Y-029000
X072250Y-030000
X072250Y-031000
X072250Y-032000
T2
X057750Y-015000
X057750Y-016000
X057750Y-017000
X057750Y-018000
X057750Y-019000
X057750Y-020000
X057750Y-021000
X057750Y-022000
X057750Y-023000
X057750Y-024000
X057750Y-025000
X057750Y-026000
X057750Y-027000
X057750Y-028000
X057750Y-029000
X057750Y-030000
X057750Y-031000
X057750Y-032000
X063750Y-014750
X063750Y-015750
X063750Y-016750
X063750Y-017750
X063750Y-018750
X063750Y-019750
X063750Y-020750
X063750Y-021750
X063750Y-022750
X063750Y-024250
X063750Y-025250
X063750Y-026250
X063750Y-027250
X063750Y-028250
X063750Y-029250
X063750Y-030250
X063750Y-031250
X063750Y-032250
X065250Y-019250
X065250Y-020250
X065250Y-021250
X065250Y-025750
X065250Y-026750
X065250Y-027750
X065750Y-014750
X065750Y-015750
X065750Y-016750
X065750Y-017750
X066250Y-019250
X066250Y-020250
X066250Y-021250
X066250Y-025750
X066250Y-026750
X066250Y-027750
X067750Y-014750
X067750Y-015750
X067750Y-016750
X067750Y-017750
X067750Y-018750
X067750Y-019750
X067750Y-020750
X067750Y-021750
X067750Y-022750
X067750Y-024250
X067750Y-025250
X067750Y-026250
X067750Y-027250
X067750Y-028250
X067750Y-029250
X067750Y-030250
X067750Y-031250
X067750Y-032250
X075250Y-015000
X075250Y-016000
X075250Y-017000
X075250Y-018000
X075250Y-019000
X075250Y-020000
X075250Y-021000
X075250Y-022000
X075250Y-023000
X075250Y-024000
X075250Y-025000
X075250Y-026000
X075250Y-027000
X075250Y-028000
X075250Y-029000
X075250Y-030000
X075250Y-031000
X075250Y-032000
T0
M30
