G04 (created by PCBNEW (2013-01-23 BZR 3920)-testing) date Thu 24 Jan 2013 01:04:39 AM CET*
%MOIN*%
G04 Gerber Fmt 3.4, Leading zero omitted, Abs format*
%FSLAX34Y34*%
G01*
G70*
G90*
G04 APERTURE LIST*
%ADD10C,2.3622e-06*%
%ADD11C,0.015*%
%ADD12R,0.0433X0.0393*%
%ADD13R,0.06X0.06*%
%ADD14C,0.06*%
%ADD15O,0.08X0.05*%
%ADD16C,0.008*%
G04 APERTURE END LIST*
G54D10*
G54D11*
X76250Y-13750D02*
X76250Y-33250D01*
X56750Y-13750D02*
X76250Y-13750D01*
X56750Y-33250D02*
X76250Y-33250D01*
X56750Y-13750D02*
X56750Y-33250D01*
G54D12*
X64750Y-16334D03*
X64750Y-15666D03*
X66750Y-16834D03*
X66750Y-16166D03*
X64750Y-18334D03*
X64750Y-17666D03*
G54D13*
X65250Y-25750D03*
G54D14*
X66250Y-25750D03*
X65250Y-26750D03*
X66250Y-26750D03*
X65250Y-27750D03*
X66250Y-27750D03*
G54D13*
X65250Y-19250D03*
G54D14*
X66250Y-19250D03*
X65250Y-20250D03*
X66250Y-20250D03*
X65250Y-21250D03*
X66250Y-21250D03*
G54D15*
X59250Y-15000D03*
X59250Y-16000D03*
X59250Y-17000D03*
X59250Y-18000D03*
X59250Y-19000D03*
X59250Y-20000D03*
X59250Y-21000D03*
X59250Y-22000D03*
X62250Y-22000D03*
X62250Y-21000D03*
X62250Y-20000D03*
X62250Y-19000D03*
X62250Y-18000D03*
X62250Y-17000D03*
X62250Y-16000D03*
X62250Y-15000D03*
X72250Y-22000D03*
X72250Y-21000D03*
X72250Y-20000D03*
X72250Y-19000D03*
X72250Y-18000D03*
X72250Y-17000D03*
X72250Y-16000D03*
X72250Y-15000D03*
X69250Y-15000D03*
X69250Y-16000D03*
X69250Y-17000D03*
X69250Y-18000D03*
X69250Y-19000D03*
X69250Y-20000D03*
X69250Y-21000D03*
X69250Y-22000D03*
X72250Y-32000D03*
X72250Y-31000D03*
X72250Y-30000D03*
X72250Y-29000D03*
X72250Y-28000D03*
X72250Y-27000D03*
X72250Y-26000D03*
X72250Y-25000D03*
X69250Y-25000D03*
X69250Y-26000D03*
X69250Y-27000D03*
X69250Y-28000D03*
X69250Y-29000D03*
X69250Y-30000D03*
X69250Y-31000D03*
X69250Y-32000D03*
X59250Y-25000D03*
X59250Y-26000D03*
X59250Y-27000D03*
X59250Y-28000D03*
X59250Y-29000D03*
X59250Y-30000D03*
X59250Y-31000D03*
X59250Y-32000D03*
X62250Y-32000D03*
X62250Y-31000D03*
X62250Y-30000D03*
X62250Y-29000D03*
X62250Y-28000D03*
X62250Y-27000D03*
X62250Y-26000D03*
X62250Y-25000D03*
G54D13*
X65750Y-14750D03*
G54D14*
X65750Y-15750D03*
X65750Y-16750D03*
X65750Y-17750D03*
G54D13*
X57750Y-15000D03*
G54D14*
X57750Y-16000D03*
X57750Y-17000D03*
X57750Y-18000D03*
X57750Y-19000D03*
X57750Y-20000D03*
X57750Y-21000D03*
X57750Y-22000D03*
X57750Y-23000D03*
G54D13*
X57750Y-32000D03*
G54D14*
X57750Y-31000D03*
X57750Y-30000D03*
X57750Y-29000D03*
X57750Y-28000D03*
X57750Y-27000D03*
X57750Y-26000D03*
X57750Y-25000D03*
X57750Y-24000D03*
G54D13*
X75250Y-15000D03*
G54D14*
X75250Y-16000D03*
X75250Y-17000D03*
X75250Y-18000D03*
X75250Y-19000D03*
X75250Y-20000D03*
X75250Y-21000D03*
X75250Y-22000D03*
X75250Y-23000D03*
G54D13*
X75250Y-32000D03*
G54D14*
X75250Y-31000D03*
X75250Y-30000D03*
X75250Y-29000D03*
X75250Y-28000D03*
X75250Y-27000D03*
X75250Y-26000D03*
X75250Y-25000D03*
X75250Y-24000D03*
G54D13*
X63750Y-14750D03*
G54D14*
X63750Y-15750D03*
X63750Y-16750D03*
X63750Y-17750D03*
X63750Y-18750D03*
X63750Y-19750D03*
X63750Y-20750D03*
X63750Y-21750D03*
X63750Y-22750D03*
G54D13*
X63750Y-24250D03*
G54D14*
X63750Y-25250D03*
X63750Y-26250D03*
X63750Y-27250D03*
X63750Y-28250D03*
X63750Y-29250D03*
X63750Y-30250D03*
X63750Y-31250D03*
X63750Y-32250D03*
G54D13*
X67750Y-22750D03*
G54D14*
X67750Y-21750D03*
X67750Y-20750D03*
X67750Y-19750D03*
X67750Y-18750D03*
X67750Y-17750D03*
X67750Y-16750D03*
X67750Y-15750D03*
X67750Y-14750D03*
G54D13*
X67750Y-32250D03*
G54D14*
X67750Y-31250D03*
X67750Y-30250D03*
X67750Y-29250D03*
X67750Y-28250D03*
X67750Y-27250D03*
X67750Y-26250D03*
X67750Y-25250D03*
X67750Y-24250D03*
G54D16*
X64750Y-16653D02*
X65337Y-17240D01*
X64750Y-16334D02*
X64750Y-16653D01*
X65250Y-18780D02*
X65250Y-19250D01*
X65370Y-18660D02*
X65250Y-18780D01*
X65650Y-18660D02*
X65370Y-18660D01*
X66360Y-17950D02*
X65650Y-18660D01*
X66360Y-17610D02*
X66360Y-17950D01*
X65990Y-17240D02*
X66360Y-17610D01*
X65337Y-17240D02*
X65990Y-17240D01*
X66750Y-17832D02*
X66750Y-16834D01*
X65740Y-18842D02*
X66750Y-17832D01*
X65740Y-19760D02*
X65740Y-18842D01*
X65250Y-20250D02*
X65740Y-19760D01*
X64750Y-20750D02*
X64750Y-18653D01*
X65250Y-21250D02*
X64750Y-20750D01*
X64750Y-18334D02*
X64750Y-18653D01*
X71047Y-32680D02*
X71727Y-32000D01*
X60453Y-32680D02*
X71047Y-32680D01*
X59773Y-32000D02*
X60453Y-32680D01*
X59250Y-32000D02*
X59773Y-32000D01*
X72250Y-32000D02*
X71727Y-32000D01*
X71227Y-31500D02*
X71727Y-31000D01*
X68682Y-31500D02*
X71227Y-31500D01*
X67922Y-30740D02*
X68682Y-31500D01*
X63472Y-30740D02*
X67922Y-30740D01*
X63255Y-30523D02*
X63472Y-30740D01*
X60250Y-30523D02*
X63255Y-30523D01*
X59773Y-31000D02*
X60250Y-30523D01*
X72250Y-31000D02*
X71727Y-31000D01*
X59431Y-31000D02*
X59773Y-31000D01*
X59431Y-31000D02*
X59250Y-31000D01*
X58727Y-30977D02*
X57750Y-30000D01*
X58727Y-31000D02*
X58727Y-30977D01*
X59250Y-31000D02*
X58727Y-31000D01*
X71101Y-30626D02*
X71727Y-30000D01*
X68865Y-30626D02*
X71101Y-30626D01*
X67979Y-29740D02*
X68865Y-30626D01*
X63472Y-29740D02*
X67979Y-29740D01*
X63255Y-29523D02*
X63472Y-29740D01*
X60250Y-29523D02*
X63255Y-29523D01*
X59773Y-30000D02*
X60250Y-29523D01*
X72250Y-30000D02*
X71727Y-30000D01*
X59431Y-30000D02*
X59773Y-30000D01*
X59431Y-30000D02*
X59250Y-30000D01*
X58727Y-29977D02*
X57750Y-29000D01*
X58727Y-30000D02*
X58727Y-29977D01*
X59250Y-30000D02*
X58727Y-30000D01*
X71241Y-29486D02*
X71727Y-29000D01*
X68635Y-29486D02*
X71241Y-29486D01*
X67840Y-28691D02*
X68635Y-29486D01*
X63423Y-28691D02*
X67840Y-28691D01*
X63255Y-28523D02*
X63423Y-28691D01*
X60250Y-28523D02*
X63255Y-28523D01*
X59773Y-29000D02*
X60250Y-28523D01*
X72250Y-29000D02*
X71727Y-29000D01*
X59431Y-29000D02*
X59773Y-29000D01*
X59431Y-29000D02*
X59250Y-29000D01*
X58727Y-28977D02*
X57750Y-28000D01*
X58727Y-29000D02*
X58727Y-28977D01*
X59250Y-29000D02*
X58727Y-29000D01*
X71241Y-28486D02*
X71727Y-28000D01*
X68635Y-28486D02*
X71241Y-28486D01*
X67840Y-27691D02*
X68635Y-28486D01*
X67260Y-27691D02*
X67840Y-27691D01*
X66543Y-28408D02*
X67260Y-27691D01*
X64708Y-28408D02*
X66543Y-28408D01*
X64030Y-27730D02*
X64708Y-28408D01*
X63463Y-27730D02*
X64030Y-27730D01*
X63174Y-27441D02*
X63463Y-27730D01*
X60332Y-27441D02*
X63174Y-27441D01*
X59773Y-28000D02*
X60332Y-27441D01*
X72250Y-28000D02*
X71727Y-28000D01*
X59431Y-28000D02*
X59773Y-28000D01*
X59431Y-28000D02*
X59250Y-28000D01*
X58727Y-27977D02*
X57750Y-27000D01*
X58727Y-28000D02*
X58727Y-27977D01*
X59250Y-28000D02*
X58727Y-28000D01*
X71101Y-27626D02*
X71727Y-27000D01*
X68826Y-27626D02*
X71101Y-27626D01*
X67970Y-26770D02*
X68826Y-27626D01*
X67181Y-26770D02*
X67970Y-26770D01*
X66768Y-27183D02*
X67181Y-26770D01*
X64570Y-27183D02*
X66768Y-27183D01*
X64157Y-26770D02*
X64570Y-27183D01*
X63502Y-26770D02*
X64157Y-26770D01*
X63356Y-26624D02*
X63502Y-26770D01*
X60149Y-26624D02*
X63356Y-26624D01*
X59773Y-27000D02*
X60149Y-26624D01*
X72250Y-27000D02*
X71727Y-27000D01*
X59431Y-27000D02*
X59773Y-27000D01*
X59431Y-27000D02*
X59250Y-27000D01*
X58727Y-26977D02*
X57750Y-26000D01*
X58727Y-27000D02*
X58727Y-26977D01*
X59250Y-27000D02*
X58727Y-27000D01*
X72250Y-26000D02*
X71727Y-26000D01*
X59469Y-26000D02*
X59773Y-26000D01*
X59469Y-26000D02*
X59250Y-26000D01*
X58727Y-25977D02*
X57750Y-25000D01*
X58727Y-26000D02*
X58727Y-25977D01*
X59250Y-26000D02*
X58727Y-26000D01*
X60170Y-25603D02*
X59773Y-26000D01*
X63073Y-25603D02*
X60170Y-25603D01*
X63210Y-25740D02*
X63073Y-25603D01*
X64070Y-25740D02*
X63210Y-25740D01*
X64563Y-25247D02*
X64070Y-25740D01*
X66747Y-25247D02*
X64563Y-25247D01*
X67240Y-25740D02*
X66747Y-25247D01*
X67889Y-25740D02*
X67240Y-25740D01*
X68775Y-26626D02*
X67889Y-25740D01*
X71101Y-26626D02*
X68775Y-26626D01*
X71727Y-26000D02*
X71101Y-26626D01*
X74250Y-25000D02*
X72250Y-25000D01*
X75250Y-24000D02*
X74250Y-25000D01*
X72250Y-25000D02*
X71727Y-25000D01*
X71227Y-25500D02*
X71727Y-25000D01*
X68840Y-25500D02*
X71227Y-25500D01*
X68110Y-24770D02*
X68840Y-25500D01*
X63319Y-24770D02*
X68110Y-24770D01*
X63009Y-24460D02*
X63319Y-24770D01*
X60313Y-24460D02*
X63009Y-24460D01*
X59773Y-25000D02*
X60313Y-24460D01*
X58727Y-24977D02*
X57750Y-24000D01*
X58727Y-25000D02*
X58727Y-24977D01*
X59250Y-25000D02*
X58727Y-25000D01*
X59250Y-25000D02*
X59773Y-25000D01*
X60720Y-23470D02*
X69830Y-23470D01*
X59250Y-22000D02*
X60715Y-23465D01*
X60720Y-23470D02*
X60715Y-23465D01*
X71300Y-22000D02*
X72250Y-22000D01*
X69830Y-23470D02*
X71300Y-22000D01*
X57750Y-23000D02*
X58750Y-22000D01*
X58750Y-22000D02*
X59250Y-22000D01*
X73773Y-23000D02*
X72773Y-22000D01*
X72250Y-22000D02*
X72773Y-22000D01*
X75250Y-23000D02*
X73773Y-23000D01*
X60263Y-21490D02*
X59773Y-21000D01*
X64274Y-22250D02*
X63460Y-22250D01*
X63460Y-22250D02*
X62700Y-21490D01*
X62700Y-21490D02*
X60263Y-21490D01*
X72250Y-21000D02*
X71727Y-21000D01*
X71169Y-21558D02*
X71727Y-21000D01*
X68933Y-21558D02*
X71169Y-21558D01*
X68626Y-21251D02*
X68933Y-21558D01*
X67524Y-21251D02*
X68626Y-21251D01*
X66652Y-22123D02*
X67524Y-21251D01*
X66397Y-22123D02*
X66652Y-22123D01*
X66114Y-22406D02*
X66397Y-22123D01*
X64430Y-22406D02*
X66114Y-22406D01*
X64430Y-22406D02*
X64274Y-22250D01*
X59773Y-21000D02*
X59250Y-21000D01*
X58727Y-21023D02*
X57750Y-22000D01*
X59250Y-21000D02*
X58727Y-21000D01*
X58727Y-21000D02*
X58727Y-21023D01*
X74250Y-21000D02*
X72250Y-21000D01*
X75250Y-22000D02*
X74250Y-21000D01*
X67420Y-20240D02*
X68615Y-20240D01*
X67230Y-20700D02*
X67230Y-20430D01*
X67230Y-20430D02*
X67420Y-20240D01*
X72250Y-20000D02*
X71727Y-20000D01*
X59773Y-20000D02*
X59250Y-20000D01*
X71169Y-20558D02*
X71727Y-20000D01*
X68933Y-20558D02*
X71169Y-20558D01*
X68615Y-20240D02*
X68933Y-20558D01*
X67007Y-21537D02*
X67007Y-20923D01*
X66584Y-21960D02*
X67007Y-21537D01*
X66049Y-21960D02*
X66584Y-21960D01*
X65886Y-22123D02*
X66049Y-21960D01*
X64928Y-22123D02*
X65886Y-22123D01*
X64052Y-21247D02*
X64928Y-22123D01*
X63565Y-21247D02*
X64052Y-21247D01*
X62818Y-20500D02*
X63565Y-21247D01*
X60273Y-20500D02*
X62818Y-20500D01*
X59773Y-20000D02*
X60273Y-20500D01*
X67007Y-20923D02*
X67230Y-20700D01*
X58727Y-20023D02*
X57750Y-21000D01*
X59250Y-20000D02*
X58727Y-20000D01*
X58727Y-20000D02*
X58727Y-20023D01*
X74250Y-20000D02*
X72250Y-20000D01*
X75250Y-21000D02*
X74250Y-20000D01*
X58727Y-19023D02*
X58727Y-19000D01*
X57750Y-20000D02*
X58727Y-19023D01*
X59250Y-19000D02*
X58727Y-19000D01*
X74250Y-19000D02*
X72250Y-19000D01*
X75250Y-20000D02*
X74250Y-19000D01*
X72250Y-19000D02*
X71727Y-19000D01*
X59250Y-19000D02*
X59773Y-19000D01*
X71169Y-19558D02*
X71727Y-19000D01*
X69053Y-19558D02*
X71169Y-19558D01*
X68743Y-19248D02*
X69053Y-19558D01*
X67463Y-19248D02*
X68743Y-19248D01*
X67003Y-19708D02*
X67463Y-19248D01*
X67003Y-20572D02*
X67003Y-19708D01*
X66751Y-20824D02*
X67003Y-20572D01*
X66751Y-21562D02*
X66751Y-20824D01*
X66516Y-21797D02*
X66751Y-21562D01*
X65935Y-21797D02*
X66516Y-21797D01*
X65797Y-21935D02*
X65935Y-21797D01*
X64971Y-21935D02*
X65797Y-21935D01*
X64326Y-21290D02*
X64971Y-21935D01*
X64326Y-20523D02*
X64326Y-21290D01*
X64052Y-20249D02*
X64326Y-20523D01*
X63567Y-20249D02*
X64052Y-20249D01*
X62818Y-19500D02*
X63567Y-20249D01*
X60273Y-19500D02*
X62818Y-19500D01*
X59773Y-19000D02*
X60273Y-19500D01*
X58727Y-18023D02*
X57750Y-19000D01*
X58727Y-18000D02*
X58727Y-18023D01*
X59069Y-18000D02*
X58727Y-18000D01*
X59069Y-18000D02*
X59250Y-18000D01*
X60273Y-18500D02*
X59773Y-18000D01*
X62818Y-18500D02*
X60273Y-18500D01*
X63567Y-19249D02*
X62818Y-18500D01*
X64052Y-19249D02*
X63567Y-19249D01*
X64586Y-19783D02*
X64052Y-19249D01*
X64586Y-21298D02*
X64586Y-19783D01*
X65049Y-21761D02*
X64586Y-21298D01*
X65578Y-21761D02*
X65049Y-21761D01*
X65737Y-21602D02*
X65578Y-21761D01*
X65737Y-20991D02*
X65737Y-21602D01*
X65974Y-20754D02*
X65737Y-20991D01*
X66507Y-20754D02*
X65974Y-20754D01*
X66774Y-20487D02*
X66507Y-20754D01*
X66774Y-18840D02*
X66774Y-20487D01*
X67351Y-18263D02*
X66774Y-18840D01*
X67840Y-18263D02*
X67351Y-18263D01*
X67952Y-18375D02*
X67840Y-18263D01*
X71352Y-18375D02*
X67952Y-18375D01*
X71727Y-18000D02*
X71352Y-18375D01*
X72250Y-18000D02*
X71727Y-18000D01*
X59250Y-18000D02*
X59773Y-18000D01*
X58727Y-17023D02*
X57750Y-18000D01*
X58727Y-17000D02*
X58727Y-17023D01*
X59250Y-17000D02*
X58727Y-17000D01*
X74250Y-17000D02*
X72250Y-17000D01*
X75250Y-18000D02*
X74250Y-17000D01*
X72250Y-17000D02*
X71727Y-17000D01*
X59250Y-17000D02*
X59773Y-17000D01*
X71204Y-16477D02*
X71727Y-17000D01*
X68137Y-16477D02*
X71204Y-16477D01*
X67914Y-16254D02*
X68137Y-16477D01*
X67557Y-16254D02*
X67914Y-16254D01*
X67088Y-15785D02*
X67557Y-16254D01*
X66443Y-15785D02*
X67088Y-15785D01*
X65999Y-16229D02*
X66443Y-15785D01*
X65389Y-16229D02*
X65999Y-16229D01*
X65173Y-16013D02*
X65389Y-16229D01*
X64301Y-16013D02*
X65173Y-16013D01*
X64065Y-16249D02*
X64301Y-16013D01*
X63349Y-16249D02*
X64065Y-16249D01*
X62595Y-15495D02*
X63349Y-16249D01*
X61278Y-15495D02*
X62595Y-15495D01*
X59773Y-17000D02*
X61278Y-15495D01*
X72250Y-16000D02*
X71727Y-16000D01*
X61256Y-14517D02*
X59773Y-16000D01*
X62562Y-14517D02*
X61256Y-14517D01*
X63299Y-15254D02*
X62562Y-14517D01*
X68029Y-15254D02*
X63299Y-15254D01*
X68249Y-15474D02*
X68029Y-15254D01*
X71201Y-15474D02*
X68249Y-15474D01*
X71727Y-16000D02*
X71201Y-15474D01*
X58727Y-16023D02*
X57750Y-17000D01*
X58727Y-16000D02*
X58727Y-16023D01*
X59250Y-16000D02*
X58727Y-16000D01*
X59250Y-16000D02*
X59773Y-16000D01*
X58727Y-15023D02*
X57750Y-16000D01*
X58727Y-15000D02*
X58727Y-15023D01*
X59250Y-15000D02*
X58727Y-15000D01*
X74250Y-15000D02*
X75250Y-16000D01*
X72250Y-15000D02*
X74250Y-15000D01*
X60586Y-14187D02*
X59773Y-15000D01*
X70914Y-14187D02*
X60586Y-14187D01*
X71727Y-15000D02*
X70914Y-14187D01*
X72250Y-15000D02*
X71727Y-15000D01*
X59250Y-15000D02*
X59773Y-15000D01*
X63523Y-15750D02*
X63750Y-15750D01*
X62773Y-15000D02*
X63523Y-15750D01*
X62250Y-15000D02*
X62773Y-15000D01*
X63500Y-29000D02*
X63750Y-29250D01*
X62250Y-29000D02*
X63500Y-29000D01*
X66334Y-16166D02*
X66750Y-16166D01*
X65750Y-16750D02*
X66334Y-16166D01*
X63023Y-32250D02*
X63750Y-32250D01*
X62773Y-32000D02*
X63023Y-32250D01*
X62250Y-32000D02*
X62773Y-32000D01*
X63500Y-31000D02*
X63750Y-31250D01*
X62250Y-31000D02*
X63500Y-31000D01*
X63500Y-30000D02*
X63750Y-30250D01*
X62250Y-30000D02*
X63500Y-30000D01*
X63500Y-28000D02*
X63750Y-28250D01*
X62250Y-28000D02*
X63500Y-28000D01*
X63500Y-27000D02*
X63750Y-27250D01*
X62250Y-27000D02*
X63500Y-27000D01*
X62250Y-26000D02*
X62773Y-26000D01*
X63023Y-26250D02*
X63750Y-26250D01*
X62773Y-26000D02*
X63023Y-26250D01*
X63500Y-25000D02*
X63750Y-25250D01*
X62250Y-25000D02*
X63500Y-25000D01*
X63523Y-19750D02*
X63750Y-19750D01*
X62773Y-19000D02*
X63523Y-19750D01*
X62250Y-19000D02*
X62773Y-19000D01*
X62250Y-17000D02*
X62773Y-17000D01*
X63000Y-17000D02*
X62773Y-17000D01*
X63750Y-17750D02*
X63000Y-17000D01*
X68000Y-16000D02*
X67750Y-15750D01*
X69250Y-16000D02*
X68000Y-16000D01*
X68000Y-18000D02*
X67750Y-17750D01*
X69250Y-18000D02*
X68000Y-18000D01*
X68477Y-18750D02*
X67750Y-18750D01*
X68727Y-19000D02*
X68477Y-18750D01*
X69250Y-19000D02*
X68727Y-19000D01*
X68000Y-20000D02*
X67750Y-19750D01*
X69250Y-20000D02*
X68000Y-20000D01*
X68000Y-21000D02*
X67750Y-20750D01*
X69250Y-21000D02*
X68000Y-21000D01*
X68000Y-22000D02*
X67750Y-21750D01*
X69250Y-22000D02*
X68000Y-22000D01*
X67977Y-24250D02*
X67750Y-24250D01*
X68727Y-25000D02*
X67977Y-24250D01*
X69250Y-25000D02*
X68727Y-25000D01*
X68500Y-27000D02*
X67750Y-26250D01*
X69250Y-27000D02*
X68500Y-27000D01*
X68500Y-29000D02*
X67750Y-28250D01*
X69250Y-29000D02*
X68500Y-29000D01*
X68500Y-31000D02*
X67750Y-30250D01*
X69250Y-31000D02*
X68500Y-31000D01*
X68000Y-17000D02*
X67750Y-16750D01*
X69250Y-17000D02*
X68000Y-17000D01*
X65173Y-17750D02*
X65089Y-17666D01*
X65750Y-17750D02*
X65173Y-17750D01*
X64750Y-17666D02*
X65089Y-17666D01*
X65173Y-15750D02*
X65089Y-15666D01*
X65750Y-15750D02*
X65173Y-15750D01*
X64750Y-15666D02*
X65089Y-15666D01*
X63523Y-16750D02*
X63750Y-16750D01*
X62773Y-16000D02*
X63523Y-16750D01*
X62250Y-16000D02*
X62773Y-16000D01*
X63523Y-18750D02*
X63750Y-18750D01*
X62773Y-18000D02*
X63523Y-18750D01*
X62250Y-18000D02*
X62773Y-18000D01*
X63523Y-20750D02*
X63750Y-20750D01*
X62773Y-20000D02*
X63523Y-20750D01*
X62250Y-20000D02*
X62773Y-20000D01*
X63523Y-22750D02*
X63750Y-22750D01*
X62773Y-22000D02*
X63523Y-22750D01*
X62250Y-22000D02*
X62773Y-22000D01*
X68500Y-32000D02*
X67750Y-31250D01*
X69250Y-32000D02*
X68500Y-32000D01*
X68000Y-15000D02*
X67750Y-14750D01*
X69250Y-15000D02*
X68000Y-15000D01*
X68500Y-30000D02*
X67750Y-29250D01*
X69250Y-30000D02*
X68500Y-30000D01*
X68500Y-28000D02*
X67750Y-27250D01*
X69250Y-28000D02*
X68500Y-28000D01*
X68500Y-26000D02*
X67750Y-25250D01*
X69250Y-26000D02*
X68500Y-26000D01*
X66250Y-25750D02*
X66250Y-26750D01*
M02*
