G04 (created by PCBNEW (2013-01-23 BZR 3920)-testing) date Thu 24 Jan 2013 01:04:39 AM CET*
%MOIN*%
G04 Gerber Fmt 3.4, Leading zero omitted, Abs format*
%FSLAX34Y34*%
G01*
G70*
G90*
G04 APERTURE LIST*
%ADD10C,2.3622e-06*%
%ADD11C,0.015*%
%ADD12R,0.06X0.06*%
%ADD13C,0.06*%
%ADD14O,0.08X0.05*%
%ADD15C,0.008*%
G04 APERTURE END LIST*
G54D10*
G54D11*
X76250Y-13750D02*
X76250Y-33250D01*
X56750Y-13750D02*
X76250Y-13750D01*
X56750Y-33250D02*
X76250Y-33250D01*
X56750Y-13750D02*
X56750Y-33250D01*
G54D12*
X65250Y-25750D03*
G54D13*
X66250Y-25750D03*
X65250Y-26750D03*
X66250Y-26750D03*
X65250Y-27750D03*
X66250Y-27750D03*
G54D12*
X65250Y-19250D03*
G54D13*
X66250Y-19250D03*
X65250Y-20250D03*
X66250Y-20250D03*
X65250Y-21250D03*
X66250Y-21250D03*
G54D14*
X59250Y-15000D03*
X59250Y-16000D03*
X59250Y-17000D03*
X59250Y-18000D03*
X59250Y-19000D03*
X59250Y-20000D03*
X59250Y-21000D03*
X59250Y-22000D03*
X62250Y-22000D03*
X62250Y-21000D03*
X62250Y-20000D03*
X62250Y-19000D03*
X62250Y-18000D03*
X62250Y-17000D03*
X62250Y-16000D03*
X62250Y-15000D03*
X72250Y-22000D03*
X72250Y-21000D03*
X72250Y-20000D03*
X72250Y-19000D03*
X72250Y-18000D03*
X72250Y-17000D03*
X72250Y-16000D03*
X72250Y-15000D03*
X69250Y-15000D03*
X69250Y-16000D03*
X69250Y-17000D03*
X69250Y-18000D03*
X69250Y-19000D03*
X69250Y-20000D03*
X69250Y-21000D03*
X69250Y-22000D03*
X72250Y-32000D03*
X72250Y-31000D03*
X72250Y-30000D03*
X72250Y-29000D03*
X72250Y-28000D03*
X72250Y-27000D03*
X72250Y-26000D03*
X72250Y-25000D03*
X69250Y-25000D03*
X69250Y-26000D03*
X69250Y-27000D03*
X69250Y-28000D03*
X69250Y-29000D03*
X69250Y-30000D03*
X69250Y-31000D03*
X69250Y-32000D03*
X59250Y-25000D03*
X59250Y-26000D03*
X59250Y-27000D03*
X59250Y-28000D03*
X59250Y-29000D03*
X59250Y-30000D03*
X59250Y-31000D03*
X59250Y-32000D03*
X62250Y-32000D03*
X62250Y-31000D03*
X62250Y-30000D03*
X62250Y-29000D03*
X62250Y-28000D03*
X62250Y-27000D03*
X62250Y-26000D03*
X62250Y-25000D03*
G54D12*
X65750Y-14750D03*
G54D13*
X65750Y-15750D03*
X65750Y-16750D03*
X65750Y-17750D03*
G54D12*
X57750Y-15000D03*
G54D13*
X57750Y-16000D03*
X57750Y-17000D03*
X57750Y-18000D03*
X57750Y-19000D03*
X57750Y-20000D03*
X57750Y-21000D03*
X57750Y-22000D03*
X57750Y-23000D03*
G54D12*
X57750Y-32000D03*
G54D13*
X57750Y-31000D03*
X57750Y-30000D03*
X57750Y-29000D03*
X57750Y-28000D03*
X57750Y-27000D03*
X57750Y-26000D03*
X57750Y-25000D03*
X57750Y-24000D03*
G54D12*
X75250Y-15000D03*
G54D13*
X75250Y-16000D03*
X75250Y-17000D03*
X75250Y-18000D03*
X75250Y-19000D03*
X75250Y-20000D03*
X75250Y-21000D03*
X75250Y-22000D03*
X75250Y-23000D03*
G54D12*
X75250Y-32000D03*
G54D13*
X75250Y-31000D03*
X75250Y-30000D03*
X75250Y-29000D03*
X75250Y-28000D03*
X75250Y-27000D03*
X75250Y-26000D03*
X75250Y-25000D03*
X75250Y-24000D03*
G54D12*
X63750Y-14750D03*
G54D13*
X63750Y-15750D03*
X63750Y-16750D03*
X63750Y-17750D03*
X63750Y-18750D03*
X63750Y-19750D03*
X63750Y-20750D03*
X63750Y-21750D03*
X63750Y-22750D03*
G54D12*
X63750Y-24250D03*
G54D13*
X63750Y-25250D03*
X63750Y-26250D03*
X63750Y-27250D03*
X63750Y-28250D03*
X63750Y-29250D03*
X63750Y-30250D03*
X63750Y-31250D03*
X63750Y-32250D03*
G54D12*
X67750Y-22750D03*
G54D13*
X67750Y-21750D03*
X67750Y-20750D03*
X67750Y-19750D03*
X67750Y-18750D03*
X67750Y-17750D03*
X67750Y-16750D03*
X67750Y-15750D03*
X67750Y-14750D03*
G54D12*
X67750Y-32250D03*
G54D13*
X67750Y-31250D03*
X67750Y-30250D03*
X67750Y-29250D03*
X67750Y-28250D03*
X67750Y-27250D03*
X67750Y-26250D03*
X67750Y-25250D03*
X67750Y-24250D03*
G54D15*
X64740Y-24817D02*
X65250Y-25327D01*
X64740Y-21010D02*
X64740Y-24817D01*
X64980Y-20770D02*
X64740Y-21010D01*
X65566Y-20770D02*
X64980Y-20770D01*
X65750Y-20586D02*
X65566Y-20770D01*
X65750Y-19772D02*
X65750Y-20586D01*
X65651Y-19673D02*
X65750Y-19772D01*
X65250Y-19673D02*
X65651Y-19673D01*
X65250Y-19250D02*
X65250Y-19673D01*
X65250Y-25750D02*
X65250Y-25327D01*
X64530Y-26030D02*
X65250Y-26750D01*
X64530Y-20970D02*
X64530Y-26030D01*
X65250Y-20250D02*
X64530Y-20970D01*
X65750Y-27250D02*
X65250Y-27750D01*
X65750Y-21750D02*
X65750Y-27250D01*
X65250Y-21250D02*
X65750Y-21750D01*
X58727Y-31977D02*
X57750Y-31000D01*
X58727Y-32000D02*
X58727Y-31977D01*
X59250Y-32000D02*
X58727Y-32000D01*
X73773Y-31000D02*
X75250Y-31000D01*
X72773Y-32000D02*
X73773Y-31000D01*
X72250Y-32000D02*
X72773Y-32000D01*
X73773Y-30000D02*
X75250Y-30000D01*
X72773Y-31000D02*
X73773Y-30000D01*
X72250Y-31000D02*
X72773Y-31000D01*
X73773Y-29000D02*
X75250Y-29000D01*
X72773Y-30000D02*
X73773Y-29000D01*
X72250Y-30000D02*
X72773Y-30000D01*
X73773Y-28000D02*
X75250Y-28000D01*
X72773Y-29000D02*
X73773Y-28000D01*
X72250Y-29000D02*
X72773Y-29000D01*
X73773Y-27000D02*
X75250Y-27000D01*
X72773Y-28000D02*
X73773Y-27000D01*
X72250Y-28000D02*
X72773Y-28000D01*
X73773Y-26000D02*
X75250Y-26000D01*
X72773Y-27000D02*
X73773Y-26000D01*
X72250Y-27000D02*
X72773Y-27000D01*
X73773Y-25000D02*
X75250Y-25000D01*
X72773Y-26000D02*
X73773Y-25000D01*
X72250Y-26000D02*
X72773Y-26000D01*
X74250Y-18000D02*
X75250Y-19000D01*
X72250Y-18000D02*
X74250Y-18000D01*
X74250Y-16000D02*
X75250Y-17000D01*
X72250Y-16000D02*
X74250Y-16000D01*
X66840Y-31709D02*
X66840Y-31950D01*
X67140Y-32250D02*
X67750Y-32250D01*
X66840Y-31950D02*
X67140Y-32250D01*
X67364Y-23534D02*
X66840Y-24058D01*
X66840Y-24058D02*
X66840Y-31709D01*
X67750Y-22750D02*
X67750Y-22352D01*
X65750Y-14750D02*
X65750Y-15148D01*
X67750Y-22750D02*
X67750Y-23148D01*
X57750Y-32000D02*
X58148Y-32000D01*
X66840Y-31709D02*
X63443Y-31709D01*
X63443Y-31709D02*
X62666Y-32486D01*
X62666Y-32486D02*
X58634Y-32486D01*
X58634Y-32486D02*
X58148Y-32000D01*
X66852Y-21454D02*
X66852Y-16250D01*
X67750Y-22352D02*
X66852Y-21454D01*
X66852Y-16250D02*
X65750Y-15148D01*
X74372Y-15480D02*
X74852Y-15000D01*
X68850Y-15480D02*
X74372Y-15480D01*
X68080Y-16250D02*
X68850Y-15480D01*
X66852Y-16250D02*
X68080Y-16250D01*
X75250Y-15000D02*
X74852Y-15000D01*
X67750Y-23148D02*
X67364Y-23534D01*
X67364Y-23534D02*
X67352Y-23546D01*
X68271Y-32373D02*
X68148Y-32250D01*
X67750Y-32250D02*
X68148Y-32250D01*
X75250Y-32000D02*
X74852Y-32000D01*
X74852Y-32000D02*
X74479Y-32373D01*
X74479Y-32373D02*
X68271Y-32373D01*
X64784Y-14182D02*
X65352Y-14750D01*
X58966Y-14182D02*
X64784Y-14182D01*
X58148Y-15000D02*
X58966Y-14182D01*
X57750Y-15000D02*
X58148Y-15000D01*
X65750Y-14750D02*
X65352Y-14750D01*
X63523Y-21750D02*
X63750Y-21750D01*
X62773Y-21000D02*
X63523Y-21750D01*
X62250Y-21000D02*
X62773Y-21000D01*
X66250Y-26750D02*
X66250Y-27750D01*
X65677Y-28323D02*
X66250Y-27750D01*
X64975Y-28323D02*
X65677Y-28323D01*
X64358Y-27706D02*
X64975Y-28323D01*
X64358Y-24896D02*
X64358Y-27706D01*
X63750Y-24288D02*
X64358Y-24896D01*
X63750Y-24250D02*
X63750Y-24288D01*
X66250Y-21250D02*
X66250Y-20250D01*
X66250Y-20250D02*
X66250Y-19250D01*
X63750Y-14750D02*
X63750Y-15148D01*
X65211Y-16609D02*
X63750Y-15148D01*
X65211Y-18211D02*
X65211Y-16609D01*
X66250Y-19250D02*
X65211Y-18211D01*
M02*
