M48
INCH,TZ
T1C0.030
T2C0.032
T3C0.040
%
G90
G05
T1
X056500Y-015000
X056500Y-016000
X056500Y-017000
X056500Y-018000
X056500Y-019000
X056500Y-020000
X056500Y-021000
X056500Y-022000
X056500Y-025000
X056500Y-026000
X056500Y-027000
X056500Y-028000
X056500Y-029000
X056500Y-030000
X056500Y-031000
X056500Y-032000
X059500Y-015000
X059500Y-016000
X059500Y-017000
X059500Y-018000
X059500Y-019000
X059500Y-020000
X059500Y-021000
X059500Y-022000
X059500Y-025000
X059500Y-026000
X059500Y-027000
X059500Y-028000
X059500Y-029000
X059500Y-030000
X059500Y-031000
X059500Y-032000
X069000Y-015000
X069000Y-016000
X069000Y-017000
X069000Y-018000
X069000Y-019000
X069000Y-020000
X069000Y-021000
X069000Y-022000
X069000Y-025000
X069000Y-026000
X069000Y-027000
X069000Y-028000
X069000Y-029000
X069000Y-030000
X069000Y-031000
X069000Y-032000
X072000Y-015000
X072000Y-016000
X072000Y-017000
X072000Y-018000
X072000Y-019000
X072000Y-020000
X072000Y-021000
X072000Y-022000
X072000Y-025000
X072000Y-026000
X072000Y-027000
X072000Y-028000
X072000Y-029000
X072000Y-030000
X072000Y-031000
X072000Y-032000
T2
X053500Y-015000
X053500Y-016000
X053500Y-017000
X053500Y-018000
X053500Y-019000
X053500Y-020000
X053500Y-021000
X053500Y-022000
X053500Y-023000
X053500Y-024000
X053500Y-025000
X053500Y-026000
X053500Y-027000
X053500Y-028000
X053500Y-029000
X053500Y-030000
X053500Y-031000
X053500Y-032000
X061500Y-014000
X061500Y-015000
X061500Y-016000
X061500Y-017000
X061500Y-018000
X061500Y-019000
X061500Y-020000
X061500Y-021000
X061500Y-022000
X061500Y-024750
X061500Y-025750
X061500Y-026750
X061500Y-027750
X061500Y-028750
X061500Y-029750
X061500Y-030750
X061500Y-031750
X061500Y-032750
X064000Y-014000
X065000Y-014000
X066000Y-014000
X067000Y-014000
X074500Y-014000
X074500Y-015000
X074500Y-016000
X074500Y-017000
X074500Y-018000
X074500Y-019000
X074500Y-020000
X074500Y-021000
X074500Y-022000
X074500Y-024750
X074500Y-025750
X074500Y-026750
X074500Y-027750
X074500Y-028750
X074500Y-029750
X074500Y-030750
X074500Y-031750
X074500Y-032750
X077500Y-015000
X077500Y-016000
X077500Y-017000
X077500Y-018000
X077500Y-019000
X077500Y-020000
X077500Y-021000
X077500Y-022000
X077500Y-023000
X077500Y-024000
X077500Y-025000
X077500Y-026000
X077500Y-027000
X077500Y-028000
X077500Y-029000
X077500Y-030000
X077500Y-031000
X077500Y-032000
T3
X064500Y-019250
X064500Y-020250
X064500Y-025750
X064500Y-026750
X065500Y-019250
X065500Y-020250
X065500Y-025750
X065500Y-026750
X066500Y-019250
X066500Y-020250
X066500Y-025750
X066500Y-026750
T0
M30
