G04 (created by PCBNEW-RS274X (2011-07-08)-stable) date Sun 02 Oct 2011 05:19:45 AM CEST*
G01*
G70*
G90*
%MOIN*%
G04 Gerber Fmt 3.4, Leading zero omitted, Abs format*
%FSLAX34Y34*%
G04 APERTURE LIST*
%ADD10C,0.006000*%
%ADD11R,0.060000X0.060000*%
%ADD12C,0.060000*%
%ADD13R,0.055000X0.055000*%
%ADD14C,0.055000*%
%ADD15O,0.070000X0.060000*%
%ADD16C,0.008000*%
G04 APERTURE END LIST*
G54D10*
G54D11*
X66500Y-25750D03*
G54D12*
X66500Y-26750D03*
X65500Y-25750D03*
X65500Y-26750D03*
X64500Y-25750D03*
X64500Y-26750D03*
G54D11*
X66500Y-19250D03*
G54D12*
X66500Y-20250D03*
X65500Y-19250D03*
X65500Y-20250D03*
X64500Y-19250D03*
X64500Y-20250D03*
G54D13*
X67000Y-14000D03*
G54D14*
X66000Y-14000D03*
X65000Y-14000D03*
X64000Y-14000D03*
G54D13*
X74500Y-24750D03*
G54D14*
X74500Y-25750D03*
X74500Y-26750D03*
X74500Y-27750D03*
X74500Y-28750D03*
X74500Y-29750D03*
X74500Y-30750D03*
X74500Y-31750D03*
X74500Y-32750D03*
G54D13*
X74500Y-14000D03*
G54D14*
X74500Y-15000D03*
X74500Y-16000D03*
X74500Y-17000D03*
X74500Y-18000D03*
X74500Y-19000D03*
X74500Y-20000D03*
X74500Y-21000D03*
X74500Y-22000D03*
G54D13*
X61500Y-24750D03*
G54D14*
X61500Y-25750D03*
X61500Y-26750D03*
X61500Y-27750D03*
X61500Y-28750D03*
X61500Y-29750D03*
X61500Y-30750D03*
X61500Y-31750D03*
X61500Y-32750D03*
G54D13*
X61500Y-14000D03*
G54D14*
X61500Y-15000D03*
X61500Y-16000D03*
X61500Y-17000D03*
X61500Y-18000D03*
X61500Y-19000D03*
X61500Y-20000D03*
X61500Y-21000D03*
X61500Y-22000D03*
G54D13*
X77500Y-32000D03*
G54D14*
X77500Y-31000D03*
X77500Y-30000D03*
X77500Y-29000D03*
X77500Y-28000D03*
X77500Y-27000D03*
X77500Y-26000D03*
X77500Y-25000D03*
X77500Y-24000D03*
G54D13*
X77500Y-15000D03*
G54D14*
X77500Y-16000D03*
X77500Y-17000D03*
X77500Y-18000D03*
X77500Y-19000D03*
X77500Y-20000D03*
X77500Y-21000D03*
X77500Y-22000D03*
X77500Y-23000D03*
G54D13*
X53500Y-32000D03*
G54D14*
X53500Y-31000D03*
X53500Y-30000D03*
X53500Y-29000D03*
X53500Y-28000D03*
X53500Y-27000D03*
X53500Y-26000D03*
X53500Y-25000D03*
X53500Y-24000D03*
G54D13*
X53500Y-15000D03*
G54D14*
X53500Y-16000D03*
X53500Y-17000D03*
X53500Y-18000D03*
X53500Y-19000D03*
X53500Y-20000D03*
X53500Y-21000D03*
X53500Y-22000D03*
X53500Y-23000D03*
G54D15*
X56500Y-25000D03*
X56500Y-26000D03*
X56500Y-27000D03*
X56500Y-28000D03*
X56500Y-29000D03*
X56500Y-30000D03*
X56500Y-31000D03*
X56500Y-32000D03*
X59500Y-32000D03*
X59500Y-31000D03*
X59500Y-30000D03*
X59500Y-29000D03*
X59500Y-28000D03*
X59500Y-27000D03*
X59500Y-26000D03*
X59500Y-25000D03*
X69000Y-25000D03*
X69000Y-26000D03*
X69000Y-27000D03*
X69000Y-28000D03*
X69000Y-29000D03*
X69000Y-30000D03*
X69000Y-31000D03*
X69000Y-32000D03*
X72000Y-32000D03*
X72000Y-31000D03*
X72000Y-30000D03*
X72000Y-29000D03*
X72000Y-28000D03*
X72000Y-27000D03*
X72000Y-26000D03*
X72000Y-25000D03*
X69000Y-15000D03*
X69000Y-16000D03*
X69000Y-17000D03*
X69000Y-18000D03*
X69000Y-19000D03*
X69000Y-20000D03*
X69000Y-21000D03*
X69000Y-22000D03*
X72000Y-22000D03*
X72000Y-21000D03*
X72000Y-20000D03*
X72000Y-19000D03*
X72000Y-18000D03*
X72000Y-17000D03*
X72000Y-16000D03*
X72000Y-15000D03*
X56500Y-15000D03*
X56500Y-16000D03*
X56500Y-17000D03*
X56500Y-18000D03*
X56500Y-19000D03*
X56500Y-20000D03*
X56500Y-21000D03*
X56500Y-22000D03*
X59500Y-22000D03*
X59500Y-21000D03*
X59500Y-20000D03*
X59500Y-19000D03*
X59500Y-18000D03*
X59500Y-17000D03*
X59500Y-16000D03*
X59500Y-15000D03*
G54D16*
X56500Y-32000D02*
X57750Y-32000D01*
X58250Y-32500D02*
X60250Y-32500D01*
X60250Y-32500D02*
X61000Y-33250D01*
X61000Y-33250D02*
X67000Y-33250D01*
X67000Y-33250D02*
X68250Y-32000D01*
X68250Y-32000D02*
X69000Y-32000D01*
X57750Y-32000D02*
X58250Y-32500D01*
X56500Y-31000D02*
X57750Y-31000D01*
X68250Y-31000D02*
X69000Y-31000D01*
X67000Y-32250D02*
X68250Y-31000D01*
X61000Y-32250D02*
X67000Y-32250D01*
X60250Y-31500D02*
X61000Y-32250D01*
X58250Y-31500D02*
X60250Y-31500D01*
X57750Y-31000D02*
X58250Y-31500D01*
X56500Y-30000D02*
X57750Y-30000D01*
X68250Y-30000D02*
X69000Y-30000D01*
X67000Y-31250D02*
X68250Y-30000D01*
X61000Y-31250D02*
X67000Y-31250D01*
X60250Y-30500D02*
X61000Y-31250D01*
X58250Y-30500D02*
X60250Y-30500D01*
X57750Y-30000D02*
X58250Y-30500D01*
X56500Y-29000D02*
X57750Y-29000D01*
X68250Y-29000D02*
X69000Y-29000D01*
X67000Y-30250D02*
X68250Y-29000D01*
X61000Y-30250D02*
X67000Y-30250D01*
X60250Y-29500D02*
X61000Y-30250D01*
X58250Y-29500D02*
X60250Y-29500D01*
X57750Y-29000D02*
X58250Y-29500D01*
X56500Y-28000D02*
X57750Y-28000D01*
X68250Y-28000D02*
X69000Y-28000D01*
X67000Y-29250D02*
X68250Y-28000D01*
X61000Y-29250D02*
X67000Y-29250D01*
X60250Y-28500D02*
X61000Y-29250D01*
X58250Y-28500D02*
X60250Y-28500D01*
X57750Y-28000D02*
X58250Y-28500D01*
X56500Y-27000D02*
X57750Y-27000D01*
X68250Y-27000D02*
X69000Y-27000D01*
X67000Y-28250D02*
X68250Y-27000D01*
X61000Y-28250D02*
X67000Y-28250D01*
X60250Y-27500D02*
X61000Y-28250D01*
X58250Y-27500D02*
X60250Y-27500D01*
X57750Y-27000D02*
X58250Y-27500D01*
X56500Y-26000D02*
X57750Y-26000D01*
X68250Y-26000D02*
X69000Y-26000D01*
X66750Y-27500D02*
X68250Y-26000D01*
X63250Y-27500D02*
X66750Y-27500D01*
X63000Y-27250D02*
X63250Y-27500D01*
X61000Y-27250D02*
X63000Y-27250D01*
X60250Y-26500D02*
X61000Y-27250D01*
X58250Y-26500D02*
X60250Y-26500D01*
X57750Y-26000D02*
X58250Y-26500D01*
X56500Y-25000D02*
X57750Y-25000D01*
X64000Y-25000D02*
X69000Y-25000D01*
X63500Y-25500D02*
X64000Y-25000D01*
X63500Y-26000D02*
X63500Y-25500D01*
X63250Y-26250D02*
X63500Y-26000D01*
X61000Y-26250D02*
X63250Y-26250D01*
X60250Y-25500D02*
X61000Y-26250D01*
X58250Y-25500D02*
X60250Y-25500D01*
X57750Y-25000D02*
X58250Y-25500D01*
X56500Y-22000D02*
X57750Y-22000D01*
X68250Y-22750D02*
X69000Y-22000D01*
X58500Y-22750D02*
X68250Y-22750D01*
X57750Y-22000D02*
X58500Y-22750D01*
X56500Y-21000D02*
X57750Y-21000D01*
X68500Y-21500D02*
X69000Y-21000D01*
X58250Y-21500D02*
X68500Y-21500D01*
X57750Y-21000D02*
X58250Y-21500D01*
X56500Y-20000D02*
X57750Y-20000D01*
X68500Y-20000D02*
X69000Y-20000D01*
X67250Y-21250D02*
X68500Y-20000D01*
X63750Y-21250D02*
X67250Y-21250D01*
X63000Y-20500D02*
X63750Y-21250D01*
X58250Y-20500D02*
X63000Y-20500D01*
X57750Y-20000D02*
X58250Y-20500D01*
X56500Y-19000D02*
X57750Y-19000D01*
X68250Y-19000D02*
X69000Y-19000D01*
X67500Y-19750D02*
X68250Y-19000D01*
X67500Y-20500D02*
X67500Y-19750D01*
X67000Y-21000D02*
X67500Y-20500D01*
X64000Y-21000D02*
X67000Y-21000D01*
X63500Y-20500D02*
X64000Y-21000D01*
X63500Y-19750D02*
X63500Y-20500D01*
X63250Y-19500D02*
X63500Y-19750D01*
X58250Y-19500D02*
X63250Y-19500D01*
X57750Y-19000D02*
X58250Y-19500D01*
X56500Y-18000D02*
X57750Y-18000D01*
X68500Y-18000D02*
X69000Y-18000D01*
X68000Y-18500D02*
X68500Y-18000D01*
X58250Y-18500D02*
X68000Y-18500D01*
X57750Y-18000D02*
X58250Y-18500D01*
X56500Y-17000D02*
X57750Y-17000D01*
X68500Y-17000D02*
X69000Y-17000D01*
X68000Y-17500D02*
X68500Y-17000D01*
X58250Y-17500D02*
X68000Y-17500D01*
X57750Y-17000D02*
X58250Y-17500D01*
X56500Y-16000D02*
X57750Y-16000D01*
X68500Y-16000D02*
X69000Y-16000D01*
X68000Y-16500D02*
X68500Y-16000D01*
X58250Y-16500D02*
X68000Y-16500D01*
X57750Y-16000D02*
X58250Y-16500D01*
X56500Y-15000D02*
X57750Y-15000D01*
X68500Y-15000D02*
X69000Y-15000D01*
X68000Y-15500D02*
X68500Y-15000D01*
X58250Y-15500D02*
X68000Y-15500D01*
X57750Y-15000D02*
X58250Y-15500D01*
X76000Y-30500D02*
X76000Y-31500D01*
X76000Y-25250D02*
X76000Y-30500D01*
X76000Y-24750D02*
X76000Y-25250D01*
X76500Y-32000D02*
X77500Y-32000D01*
X76000Y-31500D02*
X76500Y-32000D01*
X66000Y-13000D02*
X66750Y-13000D01*
X54500Y-13000D02*
X66000Y-13000D01*
X53500Y-14000D02*
X54500Y-13000D01*
X53500Y-15000D02*
X53500Y-14000D01*
X67000Y-13250D02*
X67000Y-14000D01*
X66750Y-13000D02*
X67000Y-13250D01*
X76000Y-16500D02*
X76000Y-15500D01*
X76000Y-24750D02*
X76000Y-16500D01*
X76500Y-15000D02*
X77500Y-15000D01*
X76000Y-15500D02*
X76500Y-15000D01*
X76500Y-14000D02*
X77250Y-14000D01*
X77250Y-14000D02*
X77500Y-14250D01*
X77500Y-14250D02*
X77500Y-15000D01*
X74500Y-14000D02*
X76500Y-14000D01*
X53500Y-15000D02*
X54500Y-15000D01*
X54500Y-32000D02*
X55000Y-31500D01*
X55000Y-31500D02*
X55000Y-16500D01*
X54500Y-32000D02*
X53500Y-32000D01*
X55000Y-15500D02*
X55000Y-16500D01*
X54500Y-15000D02*
X55000Y-15500D01*
X74500Y-24750D02*
X76000Y-24750D01*
X53500Y-32000D02*
X53500Y-33500D01*
X77500Y-33750D02*
X77500Y-32000D01*
X76750Y-34500D02*
X77500Y-33750D01*
X54500Y-34500D02*
X76750Y-34500D01*
X53500Y-33500D02*
X54500Y-34500D01*
X67000Y-14000D02*
X73250Y-14000D01*
X73250Y-14000D02*
X74500Y-14000D01*
X65500Y-20250D02*
X66500Y-20250D01*
G54D10*
G36*
X78210Y-35210D02*
X78015Y-35210D01*
X78015Y-32120D01*
X78015Y-31880D01*
X78015Y-15120D01*
X78015Y-14880D01*
X78014Y-14678D01*
X77978Y-14590D01*
X77911Y-14523D01*
X77823Y-14486D01*
X77728Y-14486D01*
X77620Y-14485D01*
X77560Y-14545D01*
X77560Y-14940D01*
X77955Y-14940D01*
X78015Y-14880D01*
X78015Y-15120D01*
X77955Y-15060D01*
X77560Y-15060D01*
X77560Y-15455D01*
X77620Y-15515D01*
X77728Y-15514D01*
X77823Y-15514D01*
X77911Y-15477D01*
X77978Y-15410D01*
X78014Y-15322D01*
X78015Y-15120D01*
X78015Y-31880D01*
X78014Y-31678D01*
X77978Y-31590D01*
X77965Y-31577D01*
X77965Y-31093D01*
X77965Y-30908D01*
X77965Y-30093D01*
X77965Y-29908D01*
X77965Y-29093D01*
X77965Y-28908D01*
X77965Y-28093D01*
X77965Y-27908D01*
X77965Y-27093D01*
X77965Y-26908D01*
X77965Y-26093D01*
X77965Y-25908D01*
X77965Y-25093D01*
X77965Y-24908D01*
X77965Y-24093D01*
X77965Y-23908D01*
X77965Y-23093D01*
X77965Y-22908D01*
X77965Y-22093D01*
X77965Y-21908D01*
X77965Y-21093D01*
X77965Y-20908D01*
X77965Y-20093D01*
X77965Y-19908D01*
X77965Y-19093D01*
X77965Y-18908D01*
X77965Y-18093D01*
X77965Y-17908D01*
X77965Y-17093D01*
X77965Y-16908D01*
X77965Y-16093D01*
X77965Y-15908D01*
X77894Y-15737D01*
X77764Y-15606D01*
X77593Y-15535D01*
X77440Y-15535D01*
X77440Y-15455D01*
X77440Y-15060D01*
X77440Y-14940D01*
X77440Y-14545D01*
X77380Y-14485D01*
X77272Y-14486D01*
X77177Y-14486D01*
X77089Y-14523D01*
X77022Y-14590D01*
X76986Y-14678D01*
X76985Y-14880D01*
X77045Y-14940D01*
X77440Y-14940D01*
X77440Y-15060D01*
X77045Y-15060D01*
X76985Y-15120D01*
X76986Y-15322D01*
X77022Y-15410D01*
X77089Y-15477D01*
X77177Y-15514D01*
X77272Y-15514D01*
X77380Y-15515D01*
X77440Y-15455D01*
X77440Y-15535D01*
X77408Y-15535D01*
X77237Y-15606D01*
X77106Y-15736D01*
X77035Y-15907D01*
X77035Y-16092D01*
X77106Y-16263D01*
X77236Y-16394D01*
X77407Y-16465D01*
X77592Y-16465D01*
X77763Y-16394D01*
X77894Y-16264D01*
X77965Y-16093D01*
X77965Y-16908D01*
X77894Y-16737D01*
X77764Y-16606D01*
X77593Y-16535D01*
X77408Y-16535D01*
X77237Y-16606D01*
X77106Y-16736D01*
X77035Y-16907D01*
X77035Y-17092D01*
X77106Y-17263D01*
X77236Y-17394D01*
X77407Y-17465D01*
X77592Y-17465D01*
X77763Y-17394D01*
X77894Y-17264D01*
X77965Y-17093D01*
X77965Y-17908D01*
X77894Y-17737D01*
X77764Y-17606D01*
X77593Y-17535D01*
X77408Y-17535D01*
X77237Y-17606D01*
X77106Y-17736D01*
X77035Y-17907D01*
X77035Y-18092D01*
X77106Y-18263D01*
X77236Y-18394D01*
X77407Y-18465D01*
X77592Y-18465D01*
X77763Y-18394D01*
X77894Y-18264D01*
X77965Y-18093D01*
X77965Y-18908D01*
X77894Y-18737D01*
X77764Y-18606D01*
X77593Y-18535D01*
X77408Y-18535D01*
X77237Y-18606D01*
X77106Y-18736D01*
X77035Y-18907D01*
X77035Y-19092D01*
X77106Y-19263D01*
X77236Y-19394D01*
X77407Y-19465D01*
X77592Y-19465D01*
X77763Y-19394D01*
X77894Y-19264D01*
X77965Y-19093D01*
X77965Y-19908D01*
X77894Y-19737D01*
X77764Y-19606D01*
X77593Y-19535D01*
X77408Y-19535D01*
X77237Y-19606D01*
X77106Y-19736D01*
X77035Y-19907D01*
X77035Y-20092D01*
X77106Y-20263D01*
X77236Y-20394D01*
X77407Y-20465D01*
X77592Y-20465D01*
X77763Y-20394D01*
X77894Y-20264D01*
X77965Y-20093D01*
X77965Y-20908D01*
X77894Y-20737D01*
X77764Y-20606D01*
X77593Y-20535D01*
X77408Y-20535D01*
X77237Y-20606D01*
X77106Y-20736D01*
X77035Y-20907D01*
X77035Y-21092D01*
X77106Y-21263D01*
X77236Y-21394D01*
X77407Y-21465D01*
X77592Y-21465D01*
X77763Y-21394D01*
X77894Y-21264D01*
X77965Y-21093D01*
X77965Y-21908D01*
X77894Y-21737D01*
X77764Y-21606D01*
X77593Y-21535D01*
X77408Y-21535D01*
X77237Y-21606D01*
X77106Y-21736D01*
X77035Y-21907D01*
X77035Y-22092D01*
X77106Y-22263D01*
X77236Y-22394D01*
X77407Y-22465D01*
X77592Y-22465D01*
X77763Y-22394D01*
X77894Y-22264D01*
X77965Y-22093D01*
X77965Y-22908D01*
X77894Y-22737D01*
X77764Y-22606D01*
X77593Y-22535D01*
X77408Y-22535D01*
X77237Y-22606D01*
X77106Y-22736D01*
X77035Y-22907D01*
X77035Y-23092D01*
X77106Y-23263D01*
X77236Y-23394D01*
X77407Y-23465D01*
X77592Y-23465D01*
X77763Y-23394D01*
X77894Y-23264D01*
X77965Y-23093D01*
X77965Y-23908D01*
X77894Y-23737D01*
X77764Y-23606D01*
X77593Y-23535D01*
X77408Y-23535D01*
X77237Y-23606D01*
X77106Y-23736D01*
X77035Y-23907D01*
X77035Y-24092D01*
X77106Y-24263D01*
X77236Y-24394D01*
X77407Y-24465D01*
X77592Y-24465D01*
X77763Y-24394D01*
X77894Y-24264D01*
X77965Y-24093D01*
X77965Y-24908D01*
X77894Y-24737D01*
X77764Y-24606D01*
X77593Y-24535D01*
X77408Y-24535D01*
X77237Y-24606D01*
X77106Y-24736D01*
X77035Y-24907D01*
X77035Y-25092D01*
X77106Y-25263D01*
X77236Y-25394D01*
X77407Y-25465D01*
X77592Y-25465D01*
X77763Y-25394D01*
X77894Y-25264D01*
X77965Y-25093D01*
X77965Y-25908D01*
X77894Y-25737D01*
X77764Y-25606D01*
X77593Y-25535D01*
X77408Y-25535D01*
X77237Y-25606D01*
X77106Y-25736D01*
X77035Y-25907D01*
X77035Y-26092D01*
X77106Y-26263D01*
X77236Y-26394D01*
X77407Y-26465D01*
X77592Y-26465D01*
X77763Y-26394D01*
X77894Y-26264D01*
X77965Y-26093D01*
X77965Y-26908D01*
X77894Y-26737D01*
X77764Y-26606D01*
X77593Y-26535D01*
X77408Y-26535D01*
X77237Y-26606D01*
X77106Y-26736D01*
X77035Y-26907D01*
X77035Y-27092D01*
X77106Y-27263D01*
X77236Y-27394D01*
X77407Y-27465D01*
X77592Y-27465D01*
X77763Y-27394D01*
X77894Y-27264D01*
X77965Y-27093D01*
X77965Y-27908D01*
X77894Y-27737D01*
X77764Y-27606D01*
X77593Y-27535D01*
X77408Y-27535D01*
X77237Y-27606D01*
X77106Y-27736D01*
X77035Y-27907D01*
X77035Y-28092D01*
X77106Y-28263D01*
X77236Y-28394D01*
X77407Y-28465D01*
X77592Y-28465D01*
X77763Y-28394D01*
X77894Y-28264D01*
X77965Y-28093D01*
X77965Y-28908D01*
X77894Y-28737D01*
X77764Y-28606D01*
X77593Y-28535D01*
X77408Y-28535D01*
X77237Y-28606D01*
X77106Y-28736D01*
X77035Y-28907D01*
X77035Y-29092D01*
X77106Y-29263D01*
X77236Y-29394D01*
X77407Y-29465D01*
X77592Y-29465D01*
X77763Y-29394D01*
X77894Y-29264D01*
X77965Y-29093D01*
X77965Y-29908D01*
X77894Y-29737D01*
X77764Y-29606D01*
X77593Y-29535D01*
X77408Y-29535D01*
X77237Y-29606D01*
X77106Y-29736D01*
X77035Y-29907D01*
X77035Y-30092D01*
X77106Y-30263D01*
X77236Y-30394D01*
X77407Y-30465D01*
X77592Y-30465D01*
X77763Y-30394D01*
X77894Y-30264D01*
X77965Y-30093D01*
X77965Y-30908D01*
X77894Y-30737D01*
X77764Y-30606D01*
X77593Y-30535D01*
X77408Y-30535D01*
X77237Y-30606D01*
X77106Y-30736D01*
X77035Y-30907D01*
X77035Y-31092D01*
X77106Y-31263D01*
X77236Y-31394D01*
X77407Y-31465D01*
X77592Y-31465D01*
X77763Y-31394D01*
X77894Y-31264D01*
X77965Y-31093D01*
X77965Y-31577D01*
X77911Y-31523D01*
X77823Y-31486D01*
X77728Y-31486D01*
X77620Y-31485D01*
X77560Y-31545D01*
X77560Y-31940D01*
X77955Y-31940D01*
X78015Y-31880D01*
X78015Y-32120D01*
X77955Y-32060D01*
X77560Y-32060D01*
X77560Y-32455D01*
X77620Y-32515D01*
X77728Y-32514D01*
X77823Y-32514D01*
X77911Y-32477D01*
X77978Y-32410D01*
X78014Y-32322D01*
X78015Y-32120D01*
X78015Y-35210D01*
X77440Y-35210D01*
X77440Y-32455D01*
X77440Y-32060D01*
X77440Y-31940D01*
X77440Y-31545D01*
X77380Y-31485D01*
X77272Y-31486D01*
X77177Y-31486D01*
X77089Y-31523D01*
X77022Y-31590D01*
X76986Y-31678D01*
X76985Y-31880D01*
X77045Y-31940D01*
X77440Y-31940D01*
X77440Y-32060D01*
X77045Y-32060D01*
X76985Y-32120D01*
X76986Y-32322D01*
X77022Y-32410D01*
X77089Y-32477D01*
X77177Y-32514D01*
X77272Y-32514D01*
X77380Y-32515D01*
X77440Y-32455D01*
X77440Y-35210D01*
X75015Y-35210D01*
X75015Y-24870D01*
X75015Y-24630D01*
X75015Y-14120D01*
X75015Y-13880D01*
X75014Y-13678D01*
X74978Y-13590D01*
X74911Y-13523D01*
X74823Y-13486D01*
X74728Y-13486D01*
X74620Y-13485D01*
X74560Y-13545D01*
X74560Y-13940D01*
X74955Y-13940D01*
X75015Y-13880D01*
X75015Y-14120D01*
X74955Y-14060D01*
X74560Y-14060D01*
X74560Y-14455D01*
X74620Y-14515D01*
X74728Y-14514D01*
X74823Y-14514D01*
X74911Y-14477D01*
X74978Y-14410D01*
X75014Y-14322D01*
X75015Y-14120D01*
X75015Y-24630D01*
X75014Y-24428D01*
X74978Y-24340D01*
X74965Y-24327D01*
X74965Y-22093D01*
X74965Y-21908D01*
X74965Y-21093D01*
X74965Y-20908D01*
X74965Y-20093D01*
X74965Y-19908D01*
X74965Y-19093D01*
X74965Y-18908D01*
X74965Y-18093D01*
X74965Y-17908D01*
X74965Y-17093D01*
X74965Y-16908D01*
X74965Y-16093D01*
X74965Y-15908D01*
X74965Y-15093D01*
X74965Y-14908D01*
X74894Y-14737D01*
X74764Y-14606D01*
X74593Y-14535D01*
X74440Y-14535D01*
X74440Y-14455D01*
X74440Y-14060D01*
X74440Y-13940D01*
X74440Y-13545D01*
X74380Y-13485D01*
X74272Y-13486D01*
X74177Y-13486D01*
X74089Y-13523D01*
X74022Y-13590D01*
X73986Y-13678D01*
X73985Y-13880D01*
X74045Y-13940D01*
X74440Y-13940D01*
X74440Y-14060D01*
X74045Y-14060D01*
X73985Y-14120D01*
X73986Y-14322D01*
X74022Y-14410D01*
X74089Y-14477D01*
X74177Y-14514D01*
X74272Y-14514D01*
X74380Y-14515D01*
X74440Y-14455D01*
X74440Y-14535D01*
X74408Y-14535D01*
X74237Y-14606D01*
X74106Y-14736D01*
X74035Y-14907D01*
X74035Y-15092D01*
X74106Y-15263D01*
X74236Y-15394D01*
X74407Y-15465D01*
X74592Y-15465D01*
X74763Y-15394D01*
X74894Y-15264D01*
X74965Y-15093D01*
X74965Y-15908D01*
X74894Y-15737D01*
X74764Y-15606D01*
X74593Y-15535D01*
X74408Y-15535D01*
X74237Y-15606D01*
X74106Y-15736D01*
X74035Y-15907D01*
X74035Y-16092D01*
X74106Y-16263D01*
X74236Y-16394D01*
X74407Y-16465D01*
X74592Y-16465D01*
X74763Y-16394D01*
X74894Y-16264D01*
X74965Y-16093D01*
X74965Y-16908D01*
X74894Y-16737D01*
X74764Y-16606D01*
X74593Y-16535D01*
X74408Y-16535D01*
X74237Y-16606D01*
X74106Y-16736D01*
X74035Y-16907D01*
X74035Y-17092D01*
X74106Y-17263D01*
X74236Y-17394D01*
X74407Y-17465D01*
X74592Y-17465D01*
X74763Y-17394D01*
X74894Y-17264D01*
X74965Y-17093D01*
X74965Y-17908D01*
X74894Y-17737D01*
X74764Y-17606D01*
X74593Y-17535D01*
X74408Y-17535D01*
X74237Y-17606D01*
X74106Y-17736D01*
X74035Y-17907D01*
X74035Y-18092D01*
X74106Y-18263D01*
X74236Y-18394D01*
X74407Y-18465D01*
X74592Y-18465D01*
X74763Y-18394D01*
X74894Y-18264D01*
X74965Y-18093D01*
X74965Y-18908D01*
X74894Y-18737D01*
X74764Y-18606D01*
X74593Y-18535D01*
X74408Y-18535D01*
X74237Y-18606D01*
X74106Y-18736D01*
X74035Y-18907D01*
X74035Y-19092D01*
X74106Y-19263D01*
X74236Y-19394D01*
X74407Y-19465D01*
X74592Y-19465D01*
X74763Y-19394D01*
X74894Y-19264D01*
X74965Y-19093D01*
X74965Y-19908D01*
X74894Y-19737D01*
X74764Y-19606D01*
X74593Y-19535D01*
X74408Y-19535D01*
X74237Y-19606D01*
X74106Y-19736D01*
X74035Y-19907D01*
X74035Y-20092D01*
X74106Y-20263D01*
X74236Y-20394D01*
X74407Y-20465D01*
X74592Y-20465D01*
X74763Y-20394D01*
X74894Y-20264D01*
X74965Y-20093D01*
X74965Y-20908D01*
X74894Y-20737D01*
X74764Y-20606D01*
X74593Y-20535D01*
X74408Y-20535D01*
X74237Y-20606D01*
X74106Y-20736D01*
X74035Y-20907D01*
X74035Y-21092D01*
X74106Y-21263D01*
X74236Y-21394D01*
X74407Y-21465D01*
X74592Y-21465D01*
X74763Y-21394D01*
X74894Y-21264D01*
X74965Y-21093D01*
X74965Y-21908D01*
X74894Y-21737D01*
X74764Y-21606D01*
X74593Y-21535D01*
X74408Y-21535D01*
X74237Y-21606D01*
X74106Y-21736D01*
X74035Y-21907D01*
X74035Y-22092D01*
X74106Y-22263D01*
X74236Y-22394D01*
X74407Y-22465D01*
X74592Y-22465D01*
X74763Y-22394D01*
X74894Y-22264D01*
X74965Y-22093D01*
X74965Y-24327D01*
X74911Y-24273D01*
X74823Y-24236D01*
X74728Y-24236D01*
X74620Y-24235D01*
X74560Y-24295D01*
X74560Y-24690D01*
X74955Y-24690D01*
X75015Y-24630D01*
X75015Y-24870D01*
X74955Y-24810D01*
X74560Y-24810D01*
X74560Y-25205D01*
X74620Y-25265D01*
X74728Y-25264D01*
X74823Y-25264D01*
X74911Y-25227D01*
X74978Y-25160D01*
X75014Y-25072D01*
X75015Y-24870D01*
X75015Y-35210D01*
X74965Y-35210D01*
X74965Y-32843D01*
X74965Y-32658D01*
X74965Y-31843D01*
X74965Y-31658D01*
X74965Y-30843D01*
X74965Y-30658D01*
X74965Y-29843D01*
X74965Y-29658D01*
X74965Y-28843D01*
X74965Y-28658D01*
X74965Y-27843D01*
X74965Y-27658D01*
X74965Y-26843D01*
X74965Y-26658D01*
X74965Y-25843D01*
X74965Y-25658D01*
X74894Y-25487D01*
X74764Y-25356D01*
X74593Y-25285D01*
X74440Y-25285D01*
X74440Y-25205D01*
X74440Y-24810D01*
X74440Y-24690D01*
X74440Y-24295D01*
X74380Y-24235D01*
X74272Y-24236D01*
X74177Y-24236D01*
X74089Y-24273D01*
X74022Y-24340D01*
X73986Y-24428D01*
X73985Y-24630D01*
X74045Y-24690D01*
X74440Y-24690D01*
X74440Y-24810D01*
X74045Y-24810D01*
X73985Y-24870D01*
X73986Y-25072D01*
X74022Y-25160D01*
X74089Y-25227D01*
X74177Y-25264D01*
X74272Y-25264D01*
X74380Y-25265D01*
X74440Y-25205D01*
X74440Y-25285D01*
X74408Y-25285D01*
X74237Y-25356D01*
X74106Y-25486D01*
X74035Y-25657D01*
X74035Y-25842D01*
X74106Y-26013D01*
X74236Y-26144D01*
X74407Y-26215D01*
X74592Y-26215D01*
X74763Y-26144D01*
X74894Y-26014D01*
X74965Y-25843D01*
X74965Y-26658D01*
X74894Y-26487D01*
X74764Y-26356D01*
X74593Y-26285D01*
X74408Y-26285D01*
X74237Y-26356D01*
X74106Y-26486D01*
X74035Y-26657D01*
X74035Y-26842D01*
X74106Y-27013D01*
X74236Y-27144D01*
X74407Y-27215D01*
X74592Y-27215D01*
X74763Y-27144D01*
X74894Y-27014D01*
X74965Y-26843D01*
X74965Y-27658D01*
X74894Y-27487D01*
X74764Y-27356D01*
X74593Y-27285D01*
X74408Y-27285D01*
X74237Y-27356D01*
X74106Y-27486D01*
X74035Y-27657D01*
X74035Y-27842D01*
X74106Y-28013D01*
X74236Y-28144D01*
X74407Y-28215D01*
X74592Y-28215D01*
X74763Y-28144D01*
X74894Y-28014D01*
X74965Y-27843D01*
X74965Y-28658D01*
X74894Y-28487D01*
X74764Y-28356D01*
X74593Y-28285D01*
X74408Y-28285D01*
X74237Y-28356D01*
X74106Y-28486D01*
X74035Y-28657D01*
X74035Y-28842D01*
X74106Y-29013D01*
X74236Y-29144D01*
X74407Y-29215D01*
X74592Y-29215D01*
X74763Y-29144D01*
X74894Y-29014D01*
X74965Y-28843D01*
X74965Y-29658D01*
X74894Y-29487D01*
X74764Y-29356D01*
X74593Y-29285D01*
X74408Y-29285D01*
X74237Y-29356D01*
X74106Y-29486D01*
X74035Y-29657D01*
X74035Y-29842D01*
X74106Y-30013D01*
X74236Y-30144D01*
X74407Y-30215D01*
X74592Y-30215D01*
X74763Y-30144D01*
X74894Y-30014D01*
X74965Y-29843D01*
X74965Y-30658D01*
X74894Y-30487D01*
X74764Y-30356D01*
X74593Y-30285D01*
X74408Y-30285D01*
X74237Y-30356D01*
X74106Y-30486D01*
X74035Y-30657D01*
X74035Y-30842D01*
X74106Y-31013D01*
X74236Y-31144D01*
X74407Y-31215D01*
X74592Y-31215D01*
X74763Y-31144D01*
X74894Y-31014D01*
X74965Y-30843D01*
X74965Y-31658D01*
X74894Y-31487D01*
X74764Y-31356D01*
X74593Y-31285D01*
X74408Y-31285D01*
X74237Y-31356D01*
X74106Y-31486D01*
X74035Y-31657D01*
X74035Y-31842D01*
X74106Y-32013D01*
X74236Y-32144D01*
X74407Y-32215D01*
X74592Y-32215D01*
X74763Y-32144D01*
X74894Y-32014D01*
X74965Y-31843D01*
X74965Y-32658D01*
X74894Y-32487D01*
X74764Y-32356D01*
X74593Y-32285D01*
X74408Y-32285D01*
X74237Y-32356D01*
X74106Y-32486D01*
X74035Y-32657D01*
X74035Y-32842D01*
X74106Y-33013D01*
X74236Y-33144D01*
X74407Y-33215D01*
X74592Y-33215D01*
X74763Y-33144D01*
X74894Y-33014D01*
X74965Y-32843D01*
X74965Y-35210D01*
X72541Y-35210D01*
X72541Y-32096D01*
X72541Y-31905D01*
X72541Y-31096D01*
X72541Y-30905D01*
X72541Y-30096D01*
X72541Y-29905D01*
X72541Y-29096D01*
X72541Y-28905D01*
X72541Y-28096D01*
X72541Y-27905D01*
X72541Y-27096D01*
X72541Y-26905D01*
X72541Y-26096D01*
X72541Y-25905D01*
X72541Y-25096D01*
X72541Y-24905D01*
X72541Y-22096D01*
X72541Y-21905D01*
X72541Y-21096D01*
X72541Y-20905D01*
X72541Y-20096D01*
X72541Y-19905D01*
X72541Y-19096D01*
X72541Y-18905D01*
X72541Y-18096D01*
X72541Y-17905D01*
X72541Y-17096D01*
X72541Y-16905D01*
X72541Y-16096D01*
X72541Y-15905D01*
X72541Y-15096D01*
X72541Y-14905D01*
X72468Y-14728D01*
X72333Y-14593D01*
X72156Y-14519D01*
X71965Y-14519D01*
X71845Y-14519D01*
X71668Y-14592D01*
X71533Y-14727D01*
X71459Y-14904D01*
X71459Y-15095D01*
X71532Y-15272D01*
X71667Y-15407D01*
X71844Y-15481D01*
X72035Y-15481D01*
X72155Y-15481D01*
X72332Y-15408D01*
X72467Y-15273D01*
X72541Y-15096D01*
X72541Y-15905D01*
X72468Y-15728D01*
X72333Y-15593D01*
X72156Y-15519D01*
X71965Y-15519D01*
X71845Y-15519D01*
X71668Y-15592D01*
X71533Y-15727D01*
X71459Y-15904D01*
X71459Y-16095D01*
X71532Y-16272D01*
X71667Y-16407D01*
X71844Y-16481D01*
X72035Y-16481D01*
X72155Y-16481D01*
X72332Y-16408D01*
X72467Y-16273D01*
X72541Y-16096D01*
X72541Y-16905D01*
X72468Y-16728D01*
X72333Y-16593D01*
X72156Y-16519D01*
X71965Y-16519D01*
X71845Y-16519D01*
X71668Y-16592D01*
X71533Y-16727D01*
X71459Y-16904D01*
X71459Y-17095D01*
X71532Y-17272D01*
X71667Y-17407D01*
X71844Y-17481D01*
X72035Y-17481D01*
X72155Y-17481D01*
X72332Y-17408D01*
X72467Y-17273D01*
X72541Y-17096D01*
X72541Y-17905D01*
X72468Y-17728D01*
X72333Y-17593D01*
X72156Y-17519D01*
X71965Y-17519D01*
X71845Y-17519D01*
X71668Y-17592D01*
X71533Y-17727D01*
X71459Y-17904D01*
X71459Y-18095D01*
X71532Y-18272D01*
X71667Y-18407D01*
X71844Y-18481D01*
X72035Y-18481D01*
X72155Y-18481D01*
X72332Y-18408D01*
X72467Y-18273D01*
X72541Y-18096D01*
X72541Y-18905D01*
X72468Y-18728D01*
X72333Y-18593D01*
X72156Y-18519D01*
X71965Y-18519D01*
X71845Y-18519D01*
X71668Y-18592D01*
X71533Y-18727D01*
X71459Y-18904D01*
X71459Y-19095D01*
X71532Y-19272D01*
X71667Y-19407D01*
X71844Y-19481D01*
X72035Y-19481D01*
X72155Y-19481D01*
X72332Y-19408D01*
X72467Y-19273D01*
X72541Y-19096D01*
X72541Y-19905D01*
X72468Y-19728D01*
X72333Y-19593D01*
X72156Y-19519D01*
X71965Y-19519D01*
X71845Y-19519D01*
X71668Y-19592D01*
X71533Y-19727D01*
X71459Y-19904D01*
X71459Y-20095D01*
X71532Y-20272D01*
X71667Y-20407D01*
X71844Y-20481D01*
X72035Y-20481D01*
X72155Y-20481D01*
X72332Y-20408D01*
X72467Y-20273D01*
X72541Y-20096D01*
X72541Y-20905D01*
X72468Y-20728D01*
X72333Y-20593D01*
X72156Y-20519D01*
X71965Y-20519D01*
X71845Y-20519D01*
X71668Y-20592D01*
X71533Y-20727D01*
X71459Y-20904D01*
X71459Y-21095D01*
X71532Y-21272D01*
X71667Y-21407D01*
X71844Y-21481D01*
X72035Y-21481D01*
X72155Y-21481D01*
X72332Y-21408D01*
X72467Y-21273D01*
X72541Y-21096D01*
X72541Y-21905D01*
X72468Y-21728D01*
X72333Y-21593D01*
X72156Y-21519D01*
X71965Y-21519D01*
X71845Y-21519D01*
X71668Y-21592D01*
X71533Y-21727D01*
X71459Y-21904D01*
X71459Y-22095D01*
X71532Y-22272D01*
X71667Y-22407D01*
X71844Y-22481D01*
X72035Y-22481D01*
X72155Y-22481D01*
X72332Y-22408D01*
X72467Y-22273D01*
X72541Y-22096D01*
X72541Y-24905D01*
X72468Y-24728D01*
X72333Y-24593D01*
X72156Y-24519D01*
X71965Y-24519D01*
X71845Y-24519D01*
X71668Y-24592D01*
X71533Y-24727D01*
X71459Y-24904D01*
X71459Y-25095D01*
X71532Y-25272D01*
X71667Y-25407D01*
X71844Y-25481D01*
X72035Y-25481D01*
X72155Y-25481D01*
X72332Y-25408D01*
X72467Y-25273D01*
X72541Y-25096D01*
X72541Y-25905D01*
X72468Y-25728D01*
X72333Y-25593D01*
X72156Y-25519D01*
X71965Y-25519D01*
X71845Y-25519D01*
X71668Y-25592D01*
X71533Y-25727D01*
X71459Y-25904D01*
X71459Y-26095D01*
X71532Y-26272D01*
X71667Y-26407D01*
X71844Y-26481D01*
X72035Y-26481D01*
X72155Y-26481D01*
X72332Y-26408D01*
X72467Y-26273D01*
X72541Y-26096D01*
X72541Y-26905D01*
X72468Y-26728D01*
X72333Y-26593D01*
X72156Y-26519D01*
X71965Y-26519D01*
X71845Y-26519D01*
X71668Y-26592D01*
X71533Y-26727D01*
X71459Y-26904D01*
X71459Y-27095D01*
X71532Y-27272D01*
X71667Y-27407D01*
X71844Y-27481D01*
X72035Y-27481D01*
X72155Y-27481D01*
X72332Y-27408D01*
X72467Y-27273D01*
X72541Y-27096D01*
X72541Y-27905D01*
X72468Y-27728D01*
X72333Y-27593D01*
X72156Y-27519D01*
X71965Y-27519D01*
X71845Y-27519D01*
X71668Y-27592D01*
X71533Y-27727D01*
X71459Y-27904D01*
X71459Y-28095D01*
X71532Y-28272D01*
X71667Y-28407D01*
X71844Y-28481D01*
X72035Y-28481D01*
X72155Y-28481D01*
X72332Y-28408D01*
X72467Y-28273D01*
X72541Y-28096D01*
X72541Y-28905D01*
X72468Y-28728D01*
X72333Y-28593D01*
X72156Y-28519D01*
X71965Y-28519D01*
X71845Y-28519D01*
X71668Y-28592D01*
X71533Y-28727D01*
X71459Y-28904D01*
X71459Y-29095D01*
X71532Y-29272D01*
X71667Y-29407D01*
X71844Y-29481D01*
X72035Y-29481D01*
X72155Y-29481D01*
X72332Y-29408D01*
X72467Y-29273D01*
X72541Y-29096D01*
X72541Y-29905D01*
X72468Y-29728D01*
X72333Y-29593D01*
X72156Y-29519D01*
X71965Y-29519D01*
X71845Y-29519D01*
X71668Y-29592D01*
X71533Y-29727D01*
X71459Y-29904D01*
X71459Y-30095D01*
X71532Y-30272D01*
X71667Y-30407D01*
X71844Y-30481D01*
X72035Y-30481D01*
X72155Y-30481D01*
X72332Y-30408D01*
X72467Y-30273D01*
X72541Y-30096D01*
X72541Y-30905D01*
X72468Y-30728D01*
X72333Y-30593D01*
X72156Y-30519D01*
X71965Y-30519D01*
X71845Y-30519D01*
X71668Y-30592D01*
X71533Y-30727D01*
X71459Y-30904D01*
X71459Y-31095D01*
X71532Y-31272D01*
X71667Y-31407D01*
X71844Y-31481D01*
X72035Y-31481D01*
X72155Y-31481D01*
X72332Y-31408D01*
X72467Y-31273D01*
X72541Y-31096D01*
X72541Y-31905D01*
X72468Y-31728D01*
X72333Y-31593D01*
X72156Y-31519D01*
X71965Y-31519D01*
X71845Y-31519D01*
X71668Y-31592D01*
X71533Y-31727D01*
X71459Y-31904D01*
X71459Y-32095D01*
X71532Y-32272D01*
X71667Y-32407D01*
X71844Y-32481D01*
X72035Y-32481D01*
X72155Y-32481D01*
X72332Y-32408D01*
X72467Y-32273D01*
X72541Y-32096D01*
X72541Y-35210D01*
X69541Y-35210D01*
X69541Y-32096D01*
X69541Y-31905D01*
X69468Y-31728D01*
X69333Y-31593D01*
X69156Y-31519D01*
X68965Y-31519D01*
X68845Y-31519D01*
X68668Y-31592D01*
X68533Y-31727D01*
X68515Y-31770D01*
X68250Y-31770D01*
X68249Y-31770D01*
X68162Y-31788D01*
X68087Y-31837D01*
X68085Y-31839D01*
X66904Y-33020D01*
X61887Y-33020D01*
X61894Y-33014D01*
X61965Y-32843D01*
X61965Y-32658D01*
X61894Y-32487D01*
X61887Y-32480D01*
X66995Y-32480D01*
X67000Y-32481D01*
X67000Y-32480D01*
X67088Y-32462D01*
X67163Y-32413D01*
X68345Y-31230D01*
X68514Y-31230D01*
X68532Y-31272D01*
X68667Y-31407D01*
X68844Y-31481D01*
X69035Y-31481D01*
X69155Y-31481D01*
X69332Y-31408D01*
X69467Y-31273D01*
X69541Y-31096D01*
X69541Y-30905D01*
X69468Y-30728D01*
X69333Y-30593D01*
X69156Y-30519D01*
X68965Y-30519D01*
X68845Y-30519D01*
X68668Y-30592D01*
X68533Y-30727D01*
X68515Y-30770D01*
X68250Y-30770D01*
X68249Y-30770D01*
X68162Y-30788D01*
X68087Y-30837D01*
X68085Y-30839D01*
X66904Y-32020D01*
X61887Y-32020D01*
X61894Y-32014D01*
X61965Y-31843D01*
X61965Y-31658D01*
X61894Y-31487D01*
X61887Y-31480D01*
X66995Y-31480D01*
X67000Y-31481D01*
X67000Y-31480D01*
X67088Y-31462D01*
X67163Y-31413D01*
X68345Y-30230D01*
X68514Y-30230D01*
X68532Y-30272D01*
X68667Y-30407D01*
X68844Y-30481D01*
X69035Y-30481D01*
X69155Y-30481D01*
X69332Y-30408D01*
X69467Y-30273D01*
X69541Y-30096D01*
X69541Y-29905D01*
X69468Y-29728D01*
X69333Y-29593D01*
X69156Y-29519D01*
X68965Y-29519D01*
X68845Y-29519D01*
X68668Y-29592D01*
X68533Y-29727D01*
X68515Y-29770D01*
X68250Y-29770D01*
X68249Y-29770D01*
X68162Y-29788D01*
X68087Y-29837D01*
X68085Y-29839D01*
X66904Y-31020D01*
X61887Y-31020D01*
X61894Y-31014D01*
X61965Y-30843D01*
X61965Y-30658D01*
X61894Y-30487D01*
X61887Y-30480D01*
X66995Y-30480D01*
X67000Y-30481D01*
X67000Y-30480D01*
X67088Y-30462D01*
X67163Y-30413D01*
X68345Y-29230D01*
X68514Y-29230D01*
X68532Y-29272D01*
X68667Y-29407D01*
X68844Y-29481D01*
X69035Y-29481D01*
X69155Y-29481D01*
X69332Y-29408D01*
X69467Y-29273D01*
X69541Y-29096D01*
X69541Y-28905D01*
X69468Y-28728D01*
X69333Y-28593D01*
X69156Y-28519D01*
X68965Y-28519D01*
X68845Y-28519D01*
X68668Y-28592D01*
X68533Y-28727D01*
X68515Y-28770D01*
X68250Y-28770D01*
X68249Y-28770D01*
X68162Y-28788D01*
X68087Y-28837D01*
X68085Y-28839D01*
X66904Y-30020D01*
X61887Y-30020D01*
X61894Y-30014D01*
X61965Y-29843D01*
X61965Y-29658D01*
X61894Y-29487D01*
X61887Y-29480D01*
X66995Y-29480D01*
X67000Y-29481D01*
X67000Y-29480D01*
X67088Y-29462D01*
X67163Y-29413D01*
X68345Y-28230D01*
X68514Y-28230D01*
X68532Y-28272D01*
X68667Y-28407D01*
X68844Y-28481D01*
X69035Y-28481D01*
X69155Y-28481D01*
X69332Y-28408D01*
X69467Y-28273D01*
X69541Y-28096D01*
X69541Y-27905D01*
X69468Y-27728D01*
X69333Y-27593D01*
X69156Y-27519D01*
X68965Y-27519D01*
X68845Y-27519D01*
X68668Y-27592D01*
X68533Y-27727D01*
X68515Y-27770D01*
X68250Y-27770D01*
X68249Y-27770D01*
X68162Y-27788D01*
X68087Y-27837D01*
X68085Y-27839D01*
X66904Y-29020D01*
X61887Y-29020D01*
X61894Y-29014D01*
X61965Y-28843D01*
X61965Y-28658D01*
X61894Y-28487D01*
X61887Y-28480D01*
X66995Y-28480D01*
X67000Y-28481D01*
X67000Y-28480D01*
X67088Y-28462D01*
X67163Y-28413D01*
X68345Y-27230D01*
X68514Y-27230D01*
X68532Y-27272D01*
X68667Y-27407D01*
X68844Y-27481D01*
X69035Y-27481D01*
X69155Y-27481D01*
X69332Y-27408D01*
X69467Y-27273D01*
X69541Y-27096D01*
X69541Y-26905D01*
X69468Y-26728D01*
X69333Y-26593D01*
X69156Y-26519D01*
X68965Y-26519D01*
X68845Y-26519D01*
X68668Y-26592D01*
X68533Y-26727D01*
X68515Y-26770D01*
X68250Y-26770D01*
X68249Y-26770D01*
X68162Y-26788D01*
X68087Y-26837D01*
X68085Y-26839D01*
X66904Y-28020D01*
X61887Y-28020D01*
X61894Y-28014D01*
X61965Y-27843D01*
X61965Y-27658D01*
X61894Y-27487D01*
X61887Y-27480D01*
X62904Y-27480D01*
X63085Y-27660D01*
X63087Y-27663D01*
X63162Y-27712D01*
X63250Y-27730D01*
X66745Y-27730D01*
X66750Y-27731D01*
X66750Y-27730D01*
X66838Y-27712D01*
X66913Y-27663D01*
X68345Y-26230D01*
X68514Y-26230D01*
X68532Y-26272D01*
X68667Y-26407D01*
X68844Y-26481D01*
X69035Y-26481D01*
X69155Y-26481D01*
X69332Y-26408D01*
X69467Y-26273D01*
X69541Y-26096D01*
X69541Y-25905D01*
X69468Y-25728D01*
X69333Y-25593D01*
X69156Y-25519D01*
X68965Y-25519D01*
X68845Y-25519D01*
X68668Y-25592D01*
X68533Y-25727D01*
X68515Y-25770D01*
X68250Y-25770D01*
X68162Y-25788D01*
X68087Y-25837D01*
X68085Y-25839D01*
X66926Y-26998D01*
X66989Y-26848D01*
X66989Y-26653D01*
X66989Y-26088D01*
X66989Y-26013D01*
X66989Y-25413D01*
X66960Y-25343D01*
X66907Y-25290D01*
X66838Y-25261D01*
X66763Y-25261D01*
X66163Y-25261D01*
X66093Y-25290D01*
X66040Y-25343D01*
X66011Y-25412D01*
X66011Y-25487D01*
X66011Y-26087D01*
X66040Y-26157D01*
X66093Y-26210D01*
X66162Y-26239D01*
X66237Y-26239D01*
X66837Y-26239D01*
X66907Y-26210D01*
X66960Y-26157D01*
X66989Y-26088D01*
X66989Y-26653D01*
X66915Y-26473D01*
X66777Y-26336D01*
X66598Y-26261D01*
X66403Y-26261D01*
X66223Y-26335D01*
X66086Y-26473D01*
X66011Y-26652D01*
X66011Y-26847D01*
X66085Y-27027D01*
X66223Y-27164D01*
X66402Y-27239D01*
X66597Y-27239D01*
X66746Y-27177D01*
X66654Y-27270D01*
X65989Y-27270D01*
X65989Y-26848D01*
X65989Y-26653D01*
X65989Y-25848D01*
X65989Y-25653D01*
X65915Y-25473D01*
X65777Y-25336D01*
X65598Y-25261D01*
X65403Y-25261D01*
X65223Y-25335D01*
X65086Y-25473D01*
X65011Y-25652D01*
X65011Y-25847D01*
X65085Y-26027D01*
X65223Y-26164D01*
X65402Y-26239D01*
X65597Y-26239D01*
X65777Y-26165D01*
X65914Y-26027D01*
X65989Y-25848D01*
X65989Y-26653D01*
X65915Y-26473D01*
X65777Y-26336D01*
X65598Y-26261D01*
X65403Y-26261D01*
X65223Y-26335D01*
X65086Y-26473D01*
X65011Y-26652D01*
X65011Y-26847D01*
X65085Y-27027D01*
X65223Y-27164D01*
X65402Y-27239D01*
X65597Y-27239D01*
X65777Y-27165D01*
X65914Y-27027D01*
X65989Y-26848D01*
X65989Y-27270D01*
X64989Y-27270D01*
X64989Y-26848D01*
X64989Y-26653D01*
X64989Y-25848D01*
X64989Y-25653D01*
X64915Y-25473D01*
X64777Y-25336D01*
X64598Y-25261D01*
X64403Y-25261D01*
X64223Y-25335D01*
X64086Y-25473D01*
X64011Y-25652D01*
X64011Y-25847D01*
X64085Y-26027D01*
X64223Y-26164D01*
X64402Y-26239D01*
X64597Y-26239D01*
X64777Y-26165D01*
X64914Y-26027D01*
X64989Y-25848D01*
X64989Y-26653D01*
X64915Y-26473D01*
X64777Y-26336D01*
X64598Y-26261D01*
X64403Y-26261D01*
X64223Y-26335D01*
X64086Y-26473D01*
X64011Y-26652D01*
X64011Y-26847D01*
X64085Y-27027D01*
X64223Y-27164D01*
X64402Y-27239D01*
X64597Y-27239D01*
X64777Y-27165D01*
X64914Y-27027D01*
X64989Y-26848D01*
X64989Y-27270D01*
X63345Y-27270D01*
X63163Y-27087D01*
X63088Y-27038D01*
X63000Y-27019D01*
X62995Y-27020D01*
X61887Y-27020D01*
X61894Y-27014D01*
X61965Y-26843D01*
X61965Y-26658D01*
X61894Y-26487D01*
X61887Y-26480D01*
X63245Y-26480D01*
X63250Y-26481D01*
X63250Y-26480D01*
X63338Y-26462D01*
X63413Y-26413D01*
X63660Y-26164D01*
X63662Y-26163D01*
X63663Y-26163D01*
X63712Y-26088D01*
X63730Y-26000D01*
X63730Y-25596D01*
X64096Y-25230D01*
X68514Y-25230D01*
X68532Y-25272D01*
X68667Y-25407D01*
X68844Y-25481D01*
X69035Y-25481D01*
X69155Y-25481D01*
X69332Y-25408D01*
X69467Y-25273D01*
X69541Y-25096D01*
X69541Y-24905D01*
X69541Y-22096D01*
X69541Y-21905D01*
X69468Y-21728D01*
X69333Y-21593D01*
X69156Y-21519D01*
X68965Y-21519D01*
X68845Y-21519D01*
X68780Y-21545D01*
X68844Y-21481D01*
X68845Y-21481D01*
X69035Y-21481D01*
X69155Y-21481D01*
X69332Y-21408D01*
X69467Y-21273D01*
X69541Y-21096D01*
X69541Y-20905D01*
X69468Y-20728D01*
X69333Y-20593D01*
X69156Y-20519D01*
X68965Y-20519D01*
X68845Y-20519D01*
X68668Y-20592D01*
X68533Y-20727D01*
X68459Y-20904D01*
X68459Y-21095D01*
X68494Y-21179D01*
X68404Y-21270D01*
X67555Y-21270D01*
X68542Y-20282D01*
X68667Y-20407D01*
X68844Y-20481D01*
X69035Y-20481D01*
X69155Y-20481D01*
X69332Y-20408D01*
X69467Y-20273D01*
X69541Y-20096D01*
X69541Y-19905D01*
X69468Y-19728D01*
X69333Y-19593D01*
X69156Y-19519D01*
X68965Y-19519D01*
X68845Y-19519D01*
X68668Y-19592D01*
X68533Y-19727D01*
X68515Y-19770D01*
X68500Y-19770D01*
X68499Y-19770D01*
X68412Y-19788D01*
X68337Y-19837D01*
X68335Y-19839D01*
X67730Y-20444D01*
X67730Y-19845D01*
X68345Y-19230D01*
X68514Y-19230D01*
X68532Y-19272D01*
X68667Y-19407D01*
X68844Y-19481D01*
X69035Y-19481D01*
X69155Y-19481D01*
X69332Y-19408D01*
X69467Y-19273D01*
X69541Y-19096D01*
X69541Y-18905D01*
X69468Y-18728D01*
X69333Y-18593D01*
X69156Y-18519D01*
X68965Y-18519D01*
X68845Y-18519D01*
X68668Y-18592D01*
X68533Y-18727D01*
X68515Y-18770D01*
X68250Y-18770D01*
X68162Y-18788D01*
X68087Y-18837D01*
X68085Y-18839D01*
X67337Y-19587D01*
X67288Y-19662D01*
X67269Y-19750D01*
X67270Y-19754D01*
X67270Y-20404D01*
X66989Y-20685D01*
X66989Y-20348D01*
X66989Y-20153D01*
X66989Y-19588D01*
X66989Y-19513D01*
X66989Y-18913D01*
X66960Y-18843D01*
X66907Y-18790D01*
X66838Y-18761D01*
X66763Y-18761D01*
X66163Y-18761D01*
X66093Y-18790D01*
X66040Y-18843D01*
X66011Y-18912D01*
X66011Y-18987D01*
X66011Y-19587D01*
X66040Y-19657D01*
X66093Y-19710D01*
X66162Y-19739D01*
X66237Y-19739D01*
X66837Y-19739D01*
X66907Y-19710D01*
X66960Y-19657D01*
X66989Y-19588D01*
X66989Y-20153D01*
X66915Y-19973D01*
X66777Y-19836D01*
X66598Y-19761D01*
X66403Y-19761D01*
X66223Y-19835D01*
X66086Y-19973D01*
X66066Y-20020D01*
X65989Y-20020D01*
X65989Y-19348D01*
X65989Y-19153D01*
X65915Y-18973D01*
X65777Y-18836D01*
X65598Y-18761D01*
X65403Y-18761D01*
X65223Y-18835D01*
X65086Y-18973D01*
X65011Y-19152D01*
X65011Y-19347D01*
X65085Y-19527D01*
X65223Y-19664D01*
X65402Y-19739D01*
X65597Y-19739D01*
X65777Y-19665D01*
X65914Y-19527D01*
X65989Y-19348D01*
X65989Y-20020D01*
X65934Y-20020D01*
X65915Y-19973D01*
X65777Y-19836D01*
X65598Y-19761D01*
X65403Y-19761D01*
X65223Y-19835D01*
X65086Y-19973D01*
X65011Y-20152D01*
X65011Y-20347D01*
X65085Y-20527D01*
X65223Y-20664D01*
X65402Y-20739D01*
X65597Y-20739D01*
X65777Y-20665D01*
X65914Y-20527D01*
X65933Y-20480D01*
X66065Y-20480D01*
X66085Y-20527D01*
X66223Y-20664D01*
X66402Y-20739D01*
X66597Y-20739D01*
X66777Y-20665D01*
X66914Y-20527D01*
X66989Y-20348D01*
X66989Y-20685D01*
X66904Y-20770D01*
X64989Y-20770D01*
X64989Y-20348D01*
X64989Y-20153D01*
X64989Y-19348D01*
X64989Y-19153D01*
X64915Y-18973D01*
X64777Y-18836D01*
X64598Y-18761D01*
X64403Y-18761D01*
X64223Y-18835D01*
X64086Y-18973D01*
X64011Y-19152D01*
X64011Y-19347D01*
X64085Y-19527D01*
X64223Y-19664D01*
X64402Y-19739D01*
X64597Y-19739D01*
X64777Y-19665D01*
X64914Y-19527D01*
X64989Y-19348D01*
X64989Y-20153D01*
X64915Y-19973D01*
X64777Y-19836D01*
X64598Y-19761D01*
X64403Y-19761D01*
X64223Y-19835D01*
X64086Y-19973D01*
X64011Y-20152D01*
X64011Y-20347D01*
X64085Y-20527D01*
X64223Y-20664D01*
X64402Y-20739D01*
X64597Y-20739D01*
X64777Y-20665D01*
X64914Y-20527D01*
X64989Y-20348D01*
X64989Y-20770D01*
X64096Y-20770D01*
X63730Y-20404D01*
X63730Y-19750D01*
X63712Y-19662D01*
X63663Y-19587D01*
X63660Y-19585D01*
X63413Y-19337D01*
X63338Y-19288D01*
X63250Y-19269D01*
X63245Y-19270D01*
X61887Y-19270D01*
X61894Y-19264D01*
X61965Y-19093D01*
X61965Y-18908D01*
X61894Y-18737D01*
X61887Y-18730D01*
X67995Y-18730D01*
X68000Y-18731D01*
X68000Y-18730D01*
X68088Y-18712D01*
X68163Y-18663D01*
X68543Y-18283D01*
X68667Y-18407D01*
X68844Y-18481D01*
X69035Y-18481D01*
X69155Y-18481D01*
X69332Y-18408D01*
X69467Y-18273D01*
X69541Y-18096D01*
X69541Y-17905D01*
X69468Y-17728D01*
X69333Y-17593D01*
X69156Y-17519D01*
X68965Y-17519D01*
X68845Y-17519D01*
X68668Y-17592D01*
X68533Y-17727D01*
X68515Y-17770D01*
X68500Y-17770D01*
X68412Y-17788D01*
X68337Y-17837D01*
X67904Y-18270D01*
X61887Y-18270D01*
X61894Y-18264D01*
X61965Y-18093D01*
X61965Y-17908D01*
X61894Y-17737D01*
X61887Y-17730D01*
X67995Y-17730D01*
X68000Y-17731D01*
X68000Y-17730D01*
X68088Y-17712D01*
X68163Y-17663D01*
X68543Y-17283D01*
X68667Y-17407D01*
X68844Y-17481D01*
X69035Y-17481D01*
X69155Y-17481D01*
X69332Y-17408D01*
X69467Y-17273D01*
X69541Y-17096D01*
X69541Y-16905D01*
X69468Y-16728D01*
X69333Y-16593D01*
X69156Y-16519D01*
X68965Y-16519D01*
X68845Y-16519D01*
X68668Y-16592D01*
X68533Y-16727D01*
X68515Y-16770D01*
X68500Y-16770D01*
X68412Y-16788D01*
X68337Y-16837D01*
X67904Y-17270D01*
X61887Y-17270D01*
X61894Y-17264D01*
X61965Y-17093D01*
X61965Y-16908D01*
X61894Y-16737D01*
X61887Y-16730D01*
X67995Y-16730D01*
X68000Y-16731D01*
X68000Y-16730D01*
X68088Y-16712D01*
X68163Y-16663D01*
X68543Y-16283D01*
X68667Y-16407D01*
X68844Y-16481D01*
X69035Y-16481D01*
X69155Y-16481D01*
X69332Y-16408D01*
X69467Y-16273D01*
X69541Y-16096D01*
X69541Y-15905D01*
X69468Y-15728D01*
X69333Y-15593D01*
X69156Y-15519D01*
X68965Y-15519D01*
X68845Y-15519D01*
X68668Y-15592D01*
X68533Y-15727D01*
X68515Y-15770D01*
X68500Y-15770D01*
X68412Y-15788D01*
X68337Y-15837D01*
X67904Y-16270D01*
X61887Y-16270D01*
X61894Y-16264D01*
X61965Y-16093D01*
X61965Y-15908D01*
X61894Y-15737D01*
X61887Y-15730D01*
X67995Y-15730D01*
X68000Y-15731D01*
X68000Y-15730D01*
X68088Y-15712D01*
X68163Y-15663D01*
X68543Y-15283D01*
X68667Y-15407D01*
X68844Y-15481D01*
X69035Y-15481D01*
X69155Y-15481D01*
X69332Y-15408D01*
X69467Y-15273D01*
X69541Y-15096D01*
X69541Y-14905D01*
X69468Y-14728D01*
X69333Y-14593D01*
X69156Y-14519D01*
X68965Y-14519D01*
X68845Y-14519D01*
X68668Y-14592D01*
X68533Y-14727D01*
X68515Y-14770D01*
X68500Y-14770D01*
X68412Y-14788D01*
X68337Y-14837D01*
X67904Y-15270D01*
X67515Y-15270D01*
X67515Y-14120D01*
X67515Y-13880D01*
X67514Y-13772D01*
X67514Y-13677D01*
X67477Y-13589D01*
X67410Y-13522D01*
X67322Y-13486D01*
X67120Y-13485D01*
X67060Y-13545D01*
X67060Y-13940D01*
X67455Y-13940D01*
X67515Y-13880D01*
X67515Y-14120D01*
X67455Y-14060D01*
X67060Y-14060D01*
X67060Y-14455D01*
X67120Y-14515D01*
X67322Y-14514D01*
X67410Y-14478D01*
X67477Y-14411D01*
X67514Y-14323D01*
X67514Y-14228D01*
X67515Y-14120D01*
X67515Y-15270D01*
X66940Y-15270D01*
X66940Y-14455D01*
X66940Y-14060D01*
X66940Y-13940D01*
X66940Y-13545D01*
X66880Y-13485D01*
X66678Y-13486D01*
X66590Y-13522D01*
X66523Y-13589D01*
X66486Y-13677D01*
X66486Y-13772D01*
X66485Y-13880D01*
X66545Y-13940D01*
X66940Y-13940D01*
X66940Y-14060D01*
X66545Y-14060D01*
X66485Y-14120D01*
X66486Y-14228D01*
X66486Y-14323D01*
X66523Y-14411D01*
X66590Y-14478D01*
X66678Y-14514D01*
X66880Y-14515D01*
X66940Y-14455D01*
X66940Y-15270D01*
X66465Y-15270D01*
X66465Y-14093D01*
X66465Y-13908D01*
X66394Y-13737D01*
X66264Y-13606D01*
X66093Y-13535D01*
X65908Y-13535D01*
X65737Y-13606D01*
X65606Y-13736D01*
X65535Y-13907D01*
X65535Y-14092D01*
X65606Y-14263D01*
X65736Y-14394D01*
X65907Y-14465D01*
X66092Y-14465D01*
X66263Y-14394D01*
X66394Y-14264D01*
X66465Y-14093D01*
X66465Y-15270D01*
X65465Y-15270D01*
X65465Y-14093D01*
X65465Y-13908D01*
X65394Y-13737D01*
X65264Y-13606D01*
X65093Y-13535D01*
X64908Y-13535D01*
X64737Y-13606D01*
X64606Y-13736D01*
X64535Y-13907D01*
X64535Y-14092D01*
X64606Y-14263D01*
X64736Y-14394D01*
X64907Y-14465D01*
X65092Y-14465D01*
X65263Y-14394D01*
X65394Y-14264D01*
X65465Y-14093D01*
X65465Y-15270D01*
X64465Y-15270D01*
X64465Y-14093D01*
X64465Y-13908D01*
X64394Y-13737D01*
X64264Y-13606D01*
X64093Y-13535D01*
X63908Y-13535D01*
X63737Y-13606D01*
X63606Y-13736D01*
X63535Y-13907D01*
X63535Y-14092D01*
X63606Y-14263D01*
X63736Y-14394D01*
X63907Y-14465D01*
X64092Y-14465D01*
X64263Y-14394D01*
X64394Y-14264D01*
X64465Y-14093D01*
X64465Y-15270D01*
X61887Y-15270D01*
X61894Y-15264D01*
X61965Y-15093D01*
X61965Y-14908D01*
X61964Y-14905D01*
X61964Y-14313D01*
X61964Y-14238D01*
X61964Y-13688D01*
X61935Y-13618D01*
X61882Y-13565D01*
X61813Y-13536D01*
X61738Y-13536D01*
X61188Y-13536D01*
X61118Y-13565D01*
X61065Y-13618D01*
X61036Y-13687D01*
X61036Y-13762D01*
X61036Y-14312D01*
X61065Y-14382D01*
X61118Y-14435D01*
X61187Y-14464D01*
X61262Y-14464D01*
X61812Y-14464D01*
X61882Y-14435D01*
X61935Y-14382D01*
X61964Y-14313D01*
X61964Y-14905D01*
X61894Y-14737D01*
X61764Y-14606D01*
X61593Y-14535D01*
X61408Y-14535D01*
X61237Y-14606D01*
X61106Y-14736D01*
X61035Y-14907D01*
X61035Y-15092D01*
X61106Y-15263D01*
X61112Y-15270D01*
X59968Y-15270D01*
X60041Y-15096D01*
X60041Y-14905D01*
X59968Y-14728D01*
X59833Y-14593D01*
X59656Y-14519D01*
X59465Y-14519D01*
X59345Y-14519D01*
X59168Y-14592D01*
X59033Y-14727D01*
X58959Y-14904D01*
X58959Y-15095D01*
X59031Y-15270D01*
X58346Y-15270D01*
X57913Y-14837D01*
X57838Y-14788D01*
X57750Y-14769D01*
X57745Y-14770D01*
X56985Y-14770D01*
X56968Y-14728D01*
X56833Y-14593D01*
X56656Y-14519D01*
X56465Y-14519D01*
X56345Y-14519D01*
X56168Y-14592D01*
X56033Y-14727D01*
X55959Y-14904D01*
X55959Y-15095D01*
X56032Y-15272D01*
X56167Y-15407D01*
X56344Y-15481D01*
X56535Y-15481D01*
X56655Y-15481D01*
X56832Y-15408D01*
X56967Y-15273D01*
X56984Y-15230D01*
X57654Y-15230D01*
X58087Y-15663D01*
X58162Y-15712D01*
X58250Y-15730D01*
X59031Y-15730D01*
X58959Y-15904D01*
X58959Y-16095D01*
X59031Y-16270D01*
X58346Y-16270D01*
X57913Y-15837D01*
X57838Y-15788D01*
X57750Y-15769D01*
X57745Y-15770D01*
X56985Y-15770D01*
X56968Y-15728D01*
X56833Y-15593D01*
X56656Y-15519D01*
X56465Y-15519D01*
X56345Y-15519D01*
X56168Y-15592D01*
X56033Y-15727D01*
X55959Y-15904D01*
X55959Y-16095D01*
X56032Y-16272D01*
X56167Y-16407D01*
X56344Y-16481D01*
X56535Y-16481D01*
X56655Y-16481D01*
X56832Y-16408D01*
X56967Y-16273D01*
X56984Y-16230D01*
X57654Y-16230D01*
X58087Y-16663D01*
X58162Y-16712D01*
X58250Y-16730D01*
X59031Y-16730D01*
X58959Y-16904D01*
X58959Y-17095D01*
X59031Y-17270D01*
X58346Y-17270D01*
X57913Y-16837D01*
X57838Y-16788D01*
X57750Y-16769D01*
X57745Y-16770D01*
X56985Y-16770D01*
X56968Y-16728D01*
X56833Y-16593D01*
X56656Y-16519D01*
X56465Y-16519D01*
X56345Y-16519D01*
X56168Y-16592D01*
X56033Y-16727D01*
X55959Y-16904D01*
X55959Y-17095D01*
X56032Y-17272D01*
X56167Y-17407D01*
X56344Y-17481D01*
X56535Y-17481D01*
X56655Y-17481D01*
X56832Y-17408D01*
X56967Y-17273D01*
X56984Y-17230D01*
X57654Y-17230D01*
X58087Y-17663D01*
X58162Y-17712D01*
X58250Y-17730D01*
X59031Y-17730D01*
X58959Y-17904D01*
X58959Y-18095D01*
X59031Y-18270D01*
X58346Y-18270D01*
X57913Y-17837D01*
X57838Y-17788D01*
X57750Y-17769D01*
X57745Y-17770D01*
X56985Y-17770D01*
X56968Y-17728D01*
X56833Y-17593D01*
X56656Y-17519D01*
X56465Y-17519D01*
X56345Y-17519D01*
X56168Y-17592D01*
X56033Y-17727D01*
X55959Y-17904D01*
X55959Y-18095D01*
X56032Y-18272D01*
X56167Y-18407D01*
X56344Y-18481D01*
X56535Y-18481D01*
X56655Y-18481D01*
X56832Y-18408D01*
X56967Y-18273D01*
X56984Y-18230D01*
X57654Y-18230D01*
X58087Y-18663D01*
X58162Y-18712D01*
X58250Y-18730D01*
X59031Y-18730D01*
X58959Y-18904D01*
X58959Y-19095D01*
X59031Y-19270D01*
X58346Y-19270D01*
X57913Y-18837D01*
X57838Y-18788D01*
X57750Y-18769D01*
X57745Y-18770D01*
X56985Y-18770D01*
X56968Y-18728D01*
X56833Y-18593D01*
X56656Y-18519D01*
X56465Y-18519D01*
X56345Y-18519D01*
X56168Y-18592D01*
X56033Y-18727D01*
X55959Y-18904D01*
X55959Y-19095D01*
X56032Y-19272D01*
X56167Y-19407D01*
X56344Y-19481D01*
X56535Y-19481D01*
X56655Y-19481D01*
X56832Y-19408D01*
X56967Y-19273D01*
X56984Y-19230D01*
X57654Y-19230D01*
X58087Y-19663D01*
X58162Y-19712D01*
X58250Y-19730D01*
X59031Y-19730D01*
X58959Y-19904D01*
X58959Y-20095D01*
X59031Y-20270D01*
X58346Y-20270D01*
X57913Y-19837D01*
X57838Y-19788D01*
X57750Y-19769D01*
X57745Y-19770D01*
X56985Y-19770D01*
X56968Y-19728D01*
X56833Y-19593D01*
X56656Y-19519D01*
X56465Y-19519D01*
X56345Y-19519D01*
X56168Y-19592D01*
X56033Y-19727D01*
X55959Y-19904D01*
X55959Y-20095D01*
X56032Y-20272D01*
X56167Y-20407D01*
X56344Y-20481D01*
X56535Y-20481D01*
X56655Y-20481D01*
X56832Y-20408D01*
X56967Y-20273D01*
X56984Y-20230D01*
X57654Y-20230D01*
X58087Y-20663D01*
X58162Y-20712D01*
X58250Y-20730D01*
X59031Y-20730D01*
X58959Y-20904D01*
X58959Y-21095D01*
X59031Y-21270D01*
X58346Y-21270D01*
X57913Y-20837D01*
X57838Y-20788D01*
X57750Y-20769D01*
X57745Y-20770D01*
X56985Y-20770D01*
X56968Y-20728D01*
X56833Y-20593D01*
X56656Y-20519D01*
X56465Y-20519D01*
X56345Y-20519D01*
X56168Y-20592D01*
X56033Y-20727D01*
X55959Y-20904D01*
X55959Y-21095D01*
X56032Y-21272D01*
X56167Y-21407D01*
X56344Y-21481D01*
X56535Y-21481D01*
X56655Y-21481D01*
X56832Y-21408D01*
X56967Y-21273D01*
X56984Y-21230D01*
X57654Y-21230D01*
X58087Y-21663D01*
X58162Y-21712D01*
X58250Y-21730D01*
X59031Y-21730D01*
X58959Y-21904D01*
X58959Y-22095D01*
X59032Y-22272D01*
X59167Y-22407D01*
X59344Y-22481D01*
X59535Y-22481D01*
X59655Y-22481D01*
X59832Y-22408D01*
X59967Y-22273D01*
X60041Y-22096D01*
X60041Y-21905D01*
X59968Y-21730D01*
X61112Y-21730D01*
X61106Y-21736D01*
X61035Y-21907D01*
X61035Y-22092D01*
X61106Y-22263D01*
X61236Y-22394D01*
X61407Y-22465D01*
X61592Y-22465D01*
X61763Y-22394D01*
X61894Y-22264D01*
X61965Y-22093D01*
X61965Y-21908D01*
X61894Y-21737D01*
X61887Y-21730D01*
X68495Y-21730D01*
X68500Y-21731D01*
X68500Y-21730D01*
X68536Y-21723D01*
X68533Y-21727D01*
X68459Y-21904D01*
X68459Y-22095D01*
X68494Y-22180D01*
X68154Y-22520D01*
X58595Y-22520D01*
X57913Y-21837D01*
X57838Y-21788D01*
X57750Y-21769D01*
X57745Y-21770D01*
X56985Y-21770D01*
X56968Y-21728D01*
X56833Y-21593D01*
X56656Y-21519D01*
X56465Y-21519D01*
X56345Y-21519D01*
X56168Y-21592D01*
X56033Y-21727D01*
X55959Y-21904D01*
X55959Y-22095D01*
X56032Y-22272D01*
X56167Y-22407D01*
X56344Y-22481D01*
X56535Y-22481D01*
X56655Y-22481D01*
X56832Y-22408D01*
X56967Y-22273D01*
X56984Y-22230D01*
X57654Y-22230D01*
X58335Y-22910D01*
X58337Y-22913D01*
X58412Y-22962D01*
X58500Y-22980D01*
X68245Y-22980D01*
X68250Y-22981D01*
X68250Y-22980D01*
X68338Y-22962D01*
X68413Y-22913D01*
X68844Y-22481D01*
X69035Y-22481D01*
X69155Y-22481D01*
X69332Y-22408D01*
X69467Y-22273D01*
X69541Y-22096D01*
X69541Y-24905D01*
X69468Y-24728D01*
X69333Y-24593D01*
X69156Y-24519D01*
X68965Y-24519D01*
X68845Y-24519D01*
X68668Y-24592D01*
X68533Y-24727D01*
X68515Y-24770D01*
X64000Y-24770D01*
X63912Y-24788D01*
X63837Y-24837D01*
X63337Y-25337D01*
X63288Y-25412D01*
X63269Y-25500D01*
X63270Y-25504D01*
X63270Y-25904D01*
X63154Y-26020D01*
X61887Y-26020D01*
X61894Y-26014D01*
X61965Y-25843D01*
X61965Y-25658D01*
X61964Y-25655D01*
X61964Y-25063D01*
X61964Y-24988D01*
X61964Y-24438D01*
X61935Y-24368D01*
X61882Y-24315D01*
X61813Y-24286D01*
X61738Y-24286D01*
X61188Y-24286D01*
X61118Y-24315D01*
X61065Y-24368D01*
X61036Y-24437D01*
X61036Y-24512D01*
X61036Y-25062D01*
X61065Y-25132D01*
X61118Y-25185D01*
X61187Y-25214D01*
X61262Y-25214D01*
X61812Y-25214D01*
X61882Y-25185D01*
X61935Y-25132D01*
X61964Y-25063D01*
X61964Y-25655D01*
X61894Y-25487D01*
X61764Y-25356D01*
X61593Y-25285D01*
X61408Y-25285D01*
X61237Y-25356D01*
X61106Y-25486D01*
X61035Y-25657D01*
X61035Y-25842D01*
X61106Y-26013D01*
X61112Y-26020D01*
X61095Y-26020D01*
X60413Y-25337D01*
X60338Y-25288D01*
X60250Y-25269D01*
X60245Y-25270D01*
X59968Y-25270D01*
X60041Y-25096D01*
X60041Y-24905D01*
X59968Y-24728D01*
X59833Y-24593D01*
X59656Y-24519D01*
X59465Y-24519D01*
X59345Y-24519D01*
X59168Y-24592D01*
X59033Y-24727D01*
X58959Y-24904D01*
X58959Y-25095D01*
X59031Y-25270D01*
X58346Y-25270D01*
X57913Y-24837D01*
X57838Y-24788D01*
X57750Y-24769D01*
X57745Y-24770D01*
X56985Y-24770D01*
X56968Y-24728D01*
X56833Y-24593D01*
X56656Y-24519D01*
X56465Y-24519D01*
X56345Y-24519D01*
X56168Y-24592D01*
X56033Y-24727D01*
X55959Y-24904D01*
X55959Y-25095D01*
X56032Y-25272D01*
X56167Y-25407D01*
X56344Y-25481D01*
X56535Y-25481D01*
X56655Y-25481D01*
X56832Y-25408D01*
X56967Y-25273D01*
X56984Y-25230D01*
X57654Y-25230D01*
X58087Y-25663D01*
X58162Y-25712D01*
X58250Y-25730D01*
X59031Y-25730D01*
X58959Y-25904D01*
X58959Y-26095D01*
X59031Y-26270D01*
X58346Y-26270D01*
X57913Y-25837D01*
X57838Y-25788D01*
X57750Y-25769D01*
X57745Y-25770D01*
X56985Y-25770D01*
X56968Y-25728D01*
X56833Y-25593D01*
X56656Y-25519D01*
X56465Y-25519D01*
X56345Y-25519D01*
X56168Y-25592D01*
X56033Y-25727D01*
X55959Y-25904D01*
X55959Y-26095D01*
X56032Y-26272D01*
X56167Y-26407D01*
X56344Y-26481D01*
X56535Y-26481D01*
X56655Y-26481D01*
X56832Y-26408D01*
X56967Y-26273D01*
X56984Y-26230D01*
X57654Y-26230D01*
X58087Y-26663D01*
X58162Y-26712D01*
X58250Y-26730D01*
X59031Y-26730D01*
X58959Y-26904D01*
X58959Y-27095D01*
X59031Y-27270D01*
X58346Y-27270D01*
X57913Y-26837D01*
X57838Y-26788D01*
X57750Y-26769D01*
X57745Y-26770D01*
X56985Y-26770D01*
X56968Y-26728D01*
X56833Y-26593D01*
X56656Y-26519D01*
X56465Y-26519D01*
X56345Y-26519D01*
X56168Y-26592D01*
X56033Y-26727D01*
X55959Y-26904D01*
X55959Y-27095D01*
X56032Y-27272D01*
X56167Y-27407D01*
X56344Y-27481D01*
X56535Y-27481D01*
X56655Y-27481D01*
X56832Y-27408D01*
X56967Y-27273D01*
X56984Y-27230D01*
X57654Y-27230D01*
X58087Y-27663D01*
X58162Y-27712D01*
X58250Y-27730D01*
X59031Y-27730D01*
X58959Y-27904D01*
X58959Y-28095D01*
X59031Y-28270D01*
X58346Y-28270D01*
X57913Y-27837D01*
X57838Y-27788D01*
X57750Y-27769D01*
X57745Y-27770D01*
X56985Y-27770D01*
X56968Y-27728D01*
X56833Y-27593D01*
X56656Y-27519D01*
X56465Y-27519D01*
X56345Y-27519D01*
X56168Y-27592D01*
X56033Y-27727D01*
X55959Y-27904D01*
X55959Y-28095D01*
X56032Y-28272D01*
X56167Y-28407D01*
X56344Y-28481D01*
X56535Y-28481D01*
X56655Y-28481D01*
X56832Y-28408D01*
X56967Y-28273D01*
X56984Y-28230D01*
X57654Y-28230D01*
X58087Y-28663D01*
X58162Y-28712D01*
X58250Y-28730D01*
X59031Y-28730D01*
X58959Y-28904D01*
X58959Y-29095D01*
X59031Y-29270D01*
X58346Y-29270D01*
X57913Y-28837D01*
X57838Y-28788D01*
X57750Y-28769D01*
X57745Y-28770D01*
X56985Y-28770D01*
X56968Y-28728D01*
X56833Y-28593D01*
X56656Y-28519D01*
X56465Y-28519D01*
X56345Y-28519D01*
X56168Y-28592D01*
X56033Y-28727D01*
X55959Y-28904D01*
X55959Y-29095D01*
X56032Y-29272D01*
X56167Y-29407D01*
X56344Y-29481D01*
X56535Y-29481D01*
X56655Y-29481D01*
X56832Y-29408D01*
X56967Y-29273D01*
X56984Y-29230D01*
X57654Y-29230D01*
X58087Y-29663D01*
X58162Y-29712D01*
X58250Y-29730D01*
X59031Y-29730D01*
X58959Y-29904D01*
X58959Y-30095D01*
X59031Y-30270D01*
X58346Y-30270D01*
X57913Y-29837D01*
X57838Y-29788D01*
X57750Y-29769D01*
X57745Y-29770D01*
X56985Y-29770D01*
X56968Y-29728D01*
X56833Y-29593D01*
X56656Y-29519D01*
X56465Y-29519D01*
X56345Y-29519D01*
X56168Y-29592D01*
X56033Y-29727D01*
X55959Y-29904D01*
X55959Y-30095D01*
X56032Y-30272D01*
X56167Y-30407D01*
X56344Y-30481D01*
X56535Y-30481D01*
X56655Y-30481D01*
X56832Y-30408D01*
X56967Y-30273D01*
X56984Y-30230D01*
X57654Y-30230D01*
X58087Y-30663D01*
X58162Y-30712D01*
X58250Y-30730D01*
X59031Y-30730D01*
X58959Y-30904D01*
X58959Y-31095D01*
X59031Y-31270D01*
X58346Y-31270D01*
X57913Y-30837D01*
X57838Y-30788D01*
X57750Y-30769D01*
X57745Y-30770D01*
X56985Y-30770D01*
X56968Y-30728D01*
X56833Y-30593D01*
X56656Y-30519D01*
X56465Y-30519D01*
X56345Y-30519D01*
X56168Y-30592D01*
X56033Y-30727D01*
X55959Y-30904D01*
X55959Y-31095D01*
X56032Y-31272D01*
X56167Y-31407D01*
X56344Y-31481D01*
X56535Y-31481D01*
X56655Y-31481D01*
X56832Y-31408D01*
X56967Y-31273D01*
X56984Y-31230D01*
X57654Y-31230D01*
X58087Y-31663D01*
X58162Y-31712D01*
X58250Y-31730D01*
X59031Y-31730D01*
X58959Y-31904D01*
X58959Y-32095D01*
X59031Y-32270D01*
X58346Y-32270D01*
X57913Y-31837D01*
X57838Y-31788D01*
X57750Y-31769D01*
X57745Y-31770D01*
X56985Y-31770D01*
X56968Y-31728D01*
X56833Y-31593D01*
X56656Y-31519D01*
X56465Y-31519D01*
X56345Y-31519D01*
X56168Y-31592D01*
X56033Y-31727D01*
X55959Y-31904D01*
X55959Y-32095D01*
X56032Y-32272D01*
X56167Y-32407D01*
X56344Y-32481D01*
X56535Y-32481D01*
X56655Y-32481D01*
X56832Y-32408D01*
X56967Y-32273D01*
X56984Y-32230D01*
X57654Y-32230D01*
X58087Y-32663D01*
X58162Y-32712D01*
X58250Y-32730D01*
X60154Y-32730D01*
X60835Y-33410D01*
X60837Y-33413D01*
X60912Y-33462D01*
X61000Y-33480D01*
X66995Y-33480D01*
X67000Y-33481D01*
X67000Y-33480D01*
X67088Y-33462D01*
X67163Y-33413D01*
X68345Y-32230D01*
X68514Y-32230D01*
X68532Y-32272D01*
X68667Y-32407D01*
X68844Y-32481D01*
X69035Y-32481D01*
X69155Y-32481D01*
X69332Y-32408D01*
X69467Y-32273D01*
X69541Y-32096D01*
X69541Y-35210D01*
X54015Y-35210D01*
X54015Y-32120D01*
X54015Y-31880D01*
X54015Y-15120D01*
X54015Y-14880D01*
X54014Y-14678D01*
X53978Y-14590D01*
X53911Y-14523D01*
X53823Y-14486D01*
X53728Y-14486D01*
X53620Y-14485D01*
X53560Y-14545D01*
X53560Y-14940D01*
X53955Y-14940D01*
X54015Y-14880D01*
X54015Y-15120D01*
X53955Y-15060D01*
X53560Y-15060D01*
X53560Y-15455D01*
X53620Y-15515D01*
X53728Y-15514D01*
X53823Y-15514D01*
X53911Y-15477D01*
X53978Y-15410D01*
X54014Y-15322D01*
X54015Y-15120D01*
X54015Y-31880D01*
X54014Y-31678D01*
X53978Y-31590D01*
X53965Y-31577D01*
X53965Y-31093D01*
X53965Y-30908D01*
X53965Y-30093D01*
X53965Y-29908D01*
X53965Y-29093D01*
X53965Y-28908D01*
X53965Y-28093D01*
X53965Y-27908D01*
X53965Y-27093D01*
X53965Y-26908D01*
X53965Y-26093D01*
X53965Y-25908D01*
X53965Y-25093D01*
X53965Y-24908D01*
X53965Y-24093D01*
X53965Y-23908D01*
X53965Y-23093D01*
X53965Y-22908D01*
X53965Y-22093D01*
X53965Y-21908D01*
X53965Y-21093D01*
X53965Y-20908D01*
X53965Y-20093D01*
X53965Y-19908D01*
X53965Y-19093D01*
X53965Y-18908D01*
X53965Y-18093D01*
X53965Y-17908D01*
X53965Y-17093D01*
X53965Y-16908D01*
X53965Y-16093D01*
X53965Y-15908D01*
X53894Y-15737D01*
X53764Y-15606D01*
X53593Y-15535D01*
X53440Y-15535D01*
X53440Y-15455D01*
X53440Y-15060D01*
X53440Y-14940D01*
X53440Y-14545D01*
X53380Y-14485D01*
X53272Y-14486D01*
X53177Y-14486D01*
X53089Y-14523D01*
X53022Y-14590D01*
X52986Y-14678D01*
X52985Y-14880D01*
X53045Y-14940D01*
X53440Y-14940D01*
X53440Y-15060D01*
X53045Y-15060D01*
X52985Y-15120D01*
X52986Y-15322D01*
X53022Y-15410D01*
X53089Y-15477D01*
X53177Y-15514D01*
X53272Y-15514D01*
X53380Y-15515D01*
X53440Y-15455D01*
X53440Y-15535D01*
X53408Y-15535D01*
X53237Y-15606D01*
X53106Y-15736D01*
X53035Y-15907D01*
X53035Y-16092D01*
X53106Y-16263D01*
X53236Y-16394D01*
X53407Y-16465D01*
X53592Y-16465D01*
X53763Y-16394D01*
X53894Y-16264D01*
X53965Y-16093D01*
X53965Y-16908D01*
X53894Y-16737D01*
X53764Y-16606D01*
X53593Y-16535D01*
X53408Y-16535D01*
X53237Y-16606D01*
X53106Y-16736D01*
X53035Y-16907D01*
X53035Y-17092D01*
X53106Y-17263D01*
X53236Y-17394D01*
X53407Y-17465D01*
X53592Y-17465D01*
X53763Y-17394D01*
X53894Y-17264D01*
X53965Y-17093D01*
X53965Y-17908D01*
X53894Y-17737D01*
X53764Y-17606D01*
X53593Y-17535D01*
X53408Y-17535D01*
X53237Y-17606D01*
X53106Y-17736D01*
X53035Y-17907D01*
X53035Y-18092D01*
X53106Y-18263D01*
X53236Y-18394D01*
X53407Y-18465D01*
X53592Y-18465D01*
X53763Y-18394D01*
X53894Y-18264D01*
X53965Y-18093D01*
X53965Y-18908D01*
X53894Y-18737D01*
X53764Y-18606D01*
X53593Y-18535D01*
X53408Y-18535D01*
X53237Y-18606D01*
X53106Y-18736D01*
X53035Y-18907D01*
X53035Y-19092D01*
X53106Y-19263D01*
X53236Y-19394D01*
X53407Y-19465D01*
X53592Y-19465D01*
X53763Y-19394D01*
X53894Y-19264D01*
X53965Y-19093D01*
X53965Y-19908D01*
X53894Y-19737D01*
X53764Y-19606D01*
X53593Y-19535D01*
X53408Y-19535D01*
X53237Y-19606D01*
X53106Y-19736D01*
X53035Y-19907D01*
X53035Y-20092D01*
X53106Y-20263D01*
X53236Y-20394D01*
X53407Y-20465D01*
X53592Y-20465D01*
X53763Y-20394D01*
X53894Y-20264D01*
X53965Y-20093D01*
X53965Y-20908D01*
X53894Y-20737D01*
X53764Y-20606D01*
X53593Y-20535D01*
X53408Y-20535D01*
X53237Y-20606D01*
X53106Y-20736D01*
X53035Y-20907D01*
X53035Y-21092D01*
X53106Y-21263D01*
X53236Y-21394D01*
X53407Y-21465D01*
X53592Y-21465D01*
X53763Y-21394D01*
X53894Y-21264D01*
X53965Y-21093D01*
X53965Y-21908D01*
X53894Y-21737D01*
X53764Y-21606D01*
X53593Y-21535D01*
X53408Y-21535D01*
X53237Y-21606D01*
X53106Y-21736D01*
X53035Y-21907D01*
X53035Y-22092D01*
X53106Y-22263D01*
X53236Y-22394D01*
X53407Y-22465D01*
X53592Y-22465D01*
X53763Y-22394D01*
X53894Y-22264D01*
X53965Y-22093D01*
X53965Y-22908D01*
X53894Y-22737D01*
X53764Y-22606D01*
X53593Y-22535D01*
X53408Y-22535D01*
X53237Y-22606D01*
X53106Y-22736D01*
X53035Y-22907D01*
X53035Y-23092D01*
X53106Y-23263D01*
X53236Y-23394D01*
X53407Y-23465D01*
X53592Y-23465D01*
X53763Y-23394D01*
X53894Y-23264D01*
X53965Y-23093D01*
X53965Y-23908D01*
X53894Y-23737D01*
X53764Y-23606D01*
X53593Y-23535D01*
X53408Y-23535D01*
X53237Y-23606D01*
X53106Y-23736D01*
X53035Y-23907D01*
X53035Y-24092D01*
X53106Y-24263D01*
X53236Y-24394D01*
X53407Y-24465D01*
X53592Y-24465D01*
X53763Y-24394D01*
X53894Y-24264D01*
X53965Y-24093D01*
X53965Y-24908D01*
X53894Y-24737D01*
X53764Y-24606D01*
X53593Y-24535D01*
X53408Y-24535D01*
X53237Y-24606D01*
X53106Y-24736D01*
X53035Y-24907D01*
X53035Y-25092D01*
X53106Y-25263D01*
X53236Y-25394D01*
X53407Y-25465D01*
X53592Y-25465D01*
X53763Y-25394D01*
X53894Y-25264D01*
X53965Y-25093D01*
X53965Y-25908D01*
X53894Y-25737D01*
X53764Y-25606D01*
X53593Y-25535D01*
X53408Y-25535D01*
X53237Y-25606D01*
X53106Y-25736D01*
X53035Y-25907D01*
X53035Y-26092D01*
X53106Y-26263D01*
X53236Y-26394D01*
X53407Y-26465D01*
X53592Y-26465D01*
X53763Y-26394D01*
X53894Y-26264D01*
X53965Y-26093D01*
X53965Y-26908D01*
X53894Y-26737D01*
X53764Y-26606D01*
X53593Y-26535D01*
X53408Y-26535D01*
X53237Y-26606D01*
X53106Y-26736D01*
X53035Y-26907D01*
X53035Y-27092D01*
X53106Y-27263D01*
X53236Y-27394D01*
X53407Y-27465D01*
X53592Y-27465D01*
X53763Y-27394D01*
X53894Y-27264D01*
X53965Y-27093D01*
X53965Y-27908D01*
X53894Y-27737D01*
X53764Y-27606D01*
X53593Y-27535D01*
X53408Y-27535D01*
X53237Y-27606D01*
X53106Y-27736D01*
X53035Y-27907D01*
X53035Y-28092D01*
X53106Y-28263D01*
X53236Y-28394D01*
X53407Y-28465D01*
X53592Y-28465D01*
X53763Y-28394D01*
X53894Y-28264D01*
X53965Y-28093D01*
X53965Y-28908D01*
X53894Y-28737D01*
X53764Y-28606D01*
X53593Y-28535D01*
X53408Y-28535D01*
X53237Y-28606D01*
X53106Y-28736D01*
X53035Y-28907D01*
X53035Y-29092D01*
X53106Y-29263D01*
X53236Y-29394D01*
X53407Y-29465D01*
X53592Y-29465D01*
X53763Y-29394D01*
X53894Y-29264D01*
X53965Y-29093D01*
X53965Y-29908D01*
X53894Y-29737D01*
X53764Y-29606D01*
X53593Y-29535D01*
X53408Y-29535D01*
X53237Y-29606D01*
X53106Y-29736D01*
X53035Y-29907D01*
X53035Y-30092D01*
X53106Y-30263D01*
X53236Y-30394D01*
X53407Y-30465D01*
X53592Y-30465D01*
X53763Y-30394D01*
X53894Y-30264D01*
X53965Y-30093D01*
X53965Y-30908D01*
X53894Y-30737D01*
X53764Y-30606D01*
X53593Y-30535D01*
X53408Y-30535D01*
X53237Y-30606D01*
X53106Y-30736D01*
X53035Y-30907D01*
X53035Y-31092D01*
X53106Y-31263D01*
X53236Y-31394D01*
X53407Y-31465D01*
X53592Y-31465D01*
X53763Y-31394D01*
X53894Y-31264D01*
X53965Y-31093D01*
X53965Y-31577D01*
X53911Y-31523D01*
X53823Y-31486D01*
X53728Y-31486D01*
X53620Y-31485D01*
X53560Y-31545D01*
X53560Y-31940D01*
X53955Y-31940D01*
X54015Y-31880D01*
X54015Y-32120D01*
X53955Y-32060D01*
X53560Y-32060D01*
X53560Y-32455D01*
X53620Y-32515D01*
X53728Y-32514D01*
X53823Y-32514D01*
X53911Y-32477D01*
X53978Y-32410D01*
X54014Y-32322D01*
X54015Y-32120D01*
X54015Y-35210D01*
X53440Y-35210D01*
X53440Y-32455D01*
X53440Y-32060D01*
X53440Y-31940D01*
X53440Y-31545D01*
X53380Y-31485D01*
X53272Y-31486D01*
X53177Y-31486D01*
X53089Y-31523D01*
X53022Y-31590D01*
X52986Y-31678D01*
X52985Y-31880D01*
X53045Y-31940D01*
X53440Y-31940D01*
X53440Y-32060D01*
X53045Y-32060D01*
X52985Y-32120D01*
X52986Y-32322D01*
X53022Y-32410D01*
X53089Y-32477D01*
X53177Y-32514D01*
X53272Y-32514D01*
X53380Y-32515D01*
X53440Y-32455D01*
X53440Y-35210D01*
X52790Y-35210D01*
X52790Y-11290D01*
X78210Y-11290D01*
X78210Y-35210D01*
X78210Y-35210D01*
G37*
G54D16*
X78210Y-35210D02*
X78015Y-35210D01*
X78015Y-32120D01*
X78015Y-31880D01*
X78015Y-15120D01*
X78015Y-14880D01*
X78014Y-14678D01*
X77978Y-14590D01*
X77911Y-14523D01*
X77823Y-14486D01*
X77728Y-14486D01*
X77620Y-14485D01*
X77560Y-14545D01*
X77560Y-14940D01*
X77955Y-14940D01*
X78015Y-14880D01*
X78015Y-15120D01*
X77955Y-15060D01*
X77560Y-15060D01*
X77560Y-15455D01*
X77620Y-15515D01*
X77728Y-15514D01*
X77823Y-15514D01*
X77911Y-15477D01*
X77978Y-15410D01*
X78014Y-15322D01*
X78015Y-15120D01*
X78015Y-31880D01*
X78014Y-31678D01*
X77978Y-31590D01*
X77965Y-31577D01*
X77965Y-31093D01*
X77965Y-30908D01*
X77965Y-30093D01*
X77965Y-29908D01*
X77965Y-29093D01*
X77965Y-28908D01*
X77965Y-28093D01*
X77965Y-27908D01*
X77965Y-27093D01*
X77965Y-26908D01*
X77965Y-26093D01*
X77965Y-25908D01*
X77965Y-25093D01*
X77965Y-24908D01*
X77965Y-24093D01*
X77965Y-23908D01*
X77965Y-23093D01*
X77965Y-22908D01*
X77965Y-22093D01*
X77965Y-21908D01*
X77965Y-21093D01*
X77965Y-20908D01*
X77965Y-20093D01*
X77965Y-19908D01*
X77965Y-19093D01*
X77965Y-18908D01*
X77965Y-18093D01*
X77965Y-17908D01*
X77965Y-17093D01*
X77965Y-16908D01*
X77965Y-16093D01*
X77965Y-15908D01*
X77894Y-15737D01*
X77764Y-15606D01*
X77593Y-15535D01*
X77440Y-15535D01*
X77440Y-15455D01*
X77440Y-15060D01*
X77440Y-14940D01*
X77440Y-14545D01*
X77380Y-14485D01*
X77272Y-14486D01*
X77177Y-14486D01*
X77089Y-14523D01*
X77022Y-14590D01*
X76986Y-14678D01*
X76985Y-14880D01*
X77045Y-14940D01*
X77440Y-14940D01*
X77440Y-15060D01*
X77045Y-15060D01*
X76985Y-15120D01*
X76986Y-15322D01*
X77022Y-15410D01*
X77089Y-15477D01*
X77177Y-15514D01*
X77272Y-15514D01*
X77380Y-15515D01*
X77440Y-15455D01*
X77440Y-15535D01*
X77408Y-15535D01*
X77237Y-15606D01*
X77106Y-15736D01*
X77035Y-15907D01*
X77035Y-16092D01*
X77106Y-16263D01*
X77236Y-16394D01*
X77407Y-16465D01*
X77592Y-16465D01*
X77763Y-16394D01*
X77894Y-16264D01*
X77965Y-16093D01*
X77965Y-16908D01*
X77894Y-16737D01*
X77764Y-16606D01*
X77593Y-16535D01*
X77408Y-16535D01*
X77237Y-16606D01*
X77106Y-16736D01*
X77035Y-16907D01*
X77035Y-17092D01*
X77106Y-17263D01*
X77236Y-17394D01*
X77407Y-17465D01*
X77592Y-17465D01*
X77763Y-17394D01*
X77894Y-17264D01*
X77965Y-17093D01*
X77965Y-17908D01*
X77894Y-17737D01*
X77764Y-17606D01*
X77593Y-17535D01*
X77408Y-17535D01*
X77237Y-17606D01*
X77106Y-17736D01*
X77035Y-17907D01*
X77035Y-18092D01*
X77106Y-18263D01*
X77236Y-18394D01*
X77407Y-18465D01*
X77592Y-18465D01*
X77763Y-18394D01*
X77894Y-18264D01*
X77965Y-18093D01*
X77965Y-18908D01*
X77894Y-18737D01*
X77764Y-18606D01*
X77593Y-18535D01*
X77408Y-18535D01*
X77237Y-18606D01*
X77106Y-18736D01*
X77035Y-18907D01*
X77035Y-19092D01*
X77106Y-19263D01*
X77236Y-19394D01*
X77407Y-19465D01*
X77592Y-19465D01*
X77763Y-19394D01*
X77894Y-19264D01*
X77965Y-19093D01*
X77965Y-19908D01*
X77894Y-19737D01*
X77764Y-19606D01*
X77593Y-19535D01*
X77408Y-19535D01*
X77237Y-19606D01*
X77106Y-19736D01*
X77035Y-19907D01*
X77035Y-20092D01*
X77106Y-20263D01*
X77236Y-20394D01*
X77407Y-20465D01*
X77592Y-20465D01*
X77763Y-20394D01*
X77894Y-20264D01*
X77965Y-20093D01*
X77965Y-20908D01*
X77894Y-20737D01*
X77764Y-20606D01*
X77593Y-20535D01*
X77408Y-20535D01*
X77237Y-20606D01*
X77106Y-20736D01*
X77035Y-20907D01*
X77035Y-21092D01*
X77106Y-21263D01*
X77236Y-21394D01*
X77407Y-21465D01*
X77592Y-21465D01*
X77763Y-21394D01*
X77894Y-21264D01*
X77965Y-21093D01*
X77965Y-21908D01*
X77894Y-21737D01*
X77764Y-21606D01*
X77593Y-21535D01*
X77408Y-21535D01*
X77237Y-21606D01*
X77106Y-21736D01*
X77035Y-21907D01*
X77035Y-22092D01*
X77106Y-22263D01*
X77236Y-22394D01*
X77407Y-22465D01*
X77592Y-22465D01*
X77763Y-22394D01*
X77894Y-22264D01*
X77965Y-22093D01*
X77965Y-22908D01*
X77894Y-22737D01*
X77764Y-22606D01*
X77593Y-22535D01*
X77408Y-22535D01*
X77237Y-22606D01*
X77106Y-22736D01*
X77035Y-22907D01*
X77035Y-23092D01*
X77106Y-23263D01*
X77236Y-23394D01*
X77407Y-23465D01*
X77592Y-23465D01*
X77763Y-23394D01*
X77894Y-23264D01*
X77965Y-23093D01*
X77965Y-23908D01*
X77894Y-23737D01*
X77764Y-23606D01*
X77593Y-23535D01*
X77408Y-23535D01*
X77237Y-23606D01*
X77106Y-23736D01*
X77035Y-23907D01*
X77035Y-24092D01*
X77106Y-24263D01*
X77236Y-24394D01*
X77407Y-24465D01*
X77592Y-24465D01*
X77763Y-24394D01*
X77894Y-24264D01*
X77965Y-24093D01*
X77965Y-24908D01*
X77894Y-24737D01*
X77764Y-24606D01*
X77593Y-24535D01*
X77408Y-24535D01*
X77237Y-24606D01*
X77106Y-24736D01*
X77035Y-24907D01*
X77035Y-25092D01*
X77106Y-25263D01*
X77236Y-25394D01*
X77407Y-25465D01*
X77592Y-25465D01*
X77763Y-25394D01*
X77894Y-25264D01*
X77965Y-25093D01*
X77965Y-25908D01*
X77894Y-25737D01*
X77764Y-25606D01*
X77593Y-25535D01*
X77408Y-25535D01*
X77237Y-25606D01*
X77106Y-25736D01*
X77035Y-25907D01*
X77035Y-26092D01*
X77106Y-26263D01*
X77236Y-26394D01*
X77407Y-26465D01*
X77592Y-26465D01*
X77763Y-26394D01*
X77894Y-26264D01*
X77965Y-26093D01*
X77965Y-26908D01*
X77894Y-26737D01*
X77764Y-26606D01*
X77593Y-26535D01*
X77408Y-26535D01*
X77237Y-26606D01*
X77106Y-26736D01*
X77035Y-26907D01*
X77035Y-27092D01*
X77106Y-27263D01*
X77236Y-27394D01*
X77407Y-27465D01*
X77592Y-27465D01*
X77763Y-27394D01*
X77894Y-27264D01*
X77965Y-27093D01*
X77965Y-27908D01*
X77894Y-27737D01*
X77764Y-27606D01*
X77593Y-27535D01*
X77408Y-27535D01*
X77237Y-27606D01*
X77106Y-27736D01*
X77035Y-27907D01*
X77035Y-28092D01*
X77106Y-28263D01*
X77236Y-28394D01*
X77407Y-28465D01*
X77592Y-28465D01*
X77763Y-28394D01*
X77894Y-28264D01*
X77965Y-28093D01*
X77965Y-28908D01*
X77894Y-28737D01*
X77764Y-28606D01*
X77593Y-28535D01*
X77408Y-28535D01*
X77237Y-28606D01*
X77106Y-28736D01*
X77035Y-28907D01*
X77035Y-29092D01*
X77106Y-29263D01*
X77236Y-29394D01*
X77407Y-29465D01*
X77592Y-29465D01*
X77763Y-29394D01*
X77894Y-29264D01*
X77965Y-29093D01*
X77965Y-29908D01*
X77894Y-29737D01*
X77764Y-29606D01*
X77593Y-29535D01*
X77408Y-29535D01*
X77237Y-29606D01*
X77106Y-29736D01*
X77035Y-29907D01*
X77035Y-30092D01*
X77106Y-30263D01*
X77236Y-30394D01*
X77407Y-30465D01*
X77592Y-30465D01*
X77763Y-30394D01*
X77894Y-30264D01*
X77965Y-30093D01*
X77965Y-30908D01*
X77894Y-30737D01*
X77764Y-30606D01*
X77593Y-30535D01*
X77408Y-30535D01*
X77237Y-30606D01*
X77106Y-30736D01*
X77035Y-30907D01*
X77035Y-31092D01*
X77106Y-31263D01*
X77236Y-31394D01*
X77407Y-31465D01*
X77592Y-31465D01*
X77763Y-31394D01*
X77894Y-31264D01*
X77965Y-31093D01*
X77965Y-31577D01*
X77911Y-31523D01*
X77823Y-31486D01*
X77728Y-31486D01*
X77620Y-31485D01*
X77560Y-31545D01*
X77560Y-31940D01*
X77955Y-31940D01*
X78015Y-31880D01*
X78015Y-32120D01*
X77955Y-32060D01*
X77560Y-32060D01*
X77560Y-32455D01*
X77620Y-32515D01*
X77728Y-32514D01*
X77823Y-32514D01*
X77911Y-32477D01*
X77978Y-32410D01*
X78014Y-32322D01*
X78015Y-32120D01*
X78015Y-35210D01*
X77440Y-35210D01*
X77440Y-32455D01*
X77440Y-32060D01*
X77440Y-31940D01*
X77440Y-31545D01*
X77380Y-31485D01*
X77272Y-31486D01*
X77177Y-31486D01*
X77089Y-31523D01*
X77022Y-31590D01*
X76986Y-31678D01*
X76985Y-31880D01*
X77045Y-31940D01*
X77440Y-31940D01*
X77440Y-32060D01*
X77045Y-32060D01*
X76985Y-32120D01*
X76986Y-32322D01*
X77022Y-32410D01*
X77089Y-32477D01*
X77177Y-32514D01*
X77272Y-32514D01*
X77380Y-32515D01*
X77440Y-32455D01*
X77440Y-35210D01*
X75015Y-35210D01*
X75015Y-24870D01*
X75015Y-24630D01*
X75015Y-14120D01*
X75015Y-13880D01*
X75014Y-13678D01*
X74978Y-13590D01*
X74911Y-13523D01*
X74823Y-13486D01*
X74728Y-13486D01*
X74620Y-13485D01*
X74560Y-13545D01*
X74560Y-13940D01*
X74955Y-13940D01*
X75015Y-13880D01*
X75015Y-14120D01*
X74955Y-14060D01*
X74560Y-14060D01*
X74560Y-14455D01*
X74620Y-14515D01*
X74728Y-14514D01*
X74823Y-14514D01*
X74911Y-14477D01*
X74978Y-14410D01*
X75014Y-14322D01*
X75015Y-14120D01*
X75015Y-24630D01*
X75014Y-24428D01*
X74978Y-24340D01*
X74965Y-24327D01*
X74965Y-22093D01*
X74965Y-21908D01*
X74965Y-21093D01*
X74965Y-20908D01*
X74965Y-20093D01*
X74965Y-19908D01*
X74965Y-19093D01*
X74965Y-18908D01*
X74965Y-18093D01*
X74965Y-17908D01*
X74965Y-17093D01*
X74965Y-16908D01*
X74965Y-16093D01*
X74965Y-15908D01*
X74965Y-15093D01*
X74965Y-14908D01*
X74894Y-14737D01*
X74764Y-14606D01*
X74593Y-14535D01*
X74440Y-14535D01*
X74440Y-14455D01*
X74440Y-14060D01*
X74440Y-13940D01*
X74440Y-13545D01*
X74380Y-13485D01*
X74272Y-13486D01*
X74177Y-13486D01*
X74089Y-13523D01*
X74022Y-13590D01*
X73986Y-13678D01*
X73985Y-13880D01*
X74045Y-13940D01*
X74440Y-13940D01*
X74440Y-14060D01*
X74045Y-14060D01*
X73985Y-14120D01*
X73986Y-14322D01*
X74022Y-14410D01*
X74089Y-14477D01*
X74177Y-14514D01*
X74272Y-14514D01*
X74380Y-14515D01*
X74440Y-14455D01*
X74440Y-14535D01*
X74408Y-14535D01*
X74237Y-14606D01*
X74106Y-14736D01*
X74035Y-14907D01*
X74035Y-15092D01*
X74106Y-15263D01*
X74236Y-15394D01*
X74407Y-15465D01*
X74592Y-15465D01*
X74763Y-15394D01*
X74894Y-15264D01*
X74965Y-15093D01*
X74965Y-15908D01*
X74894Y-15737D01*
X74764Y-15606D01*
X74593Y-15535D01*
X74408Y-15535D01*
X74237Y-15606D01*
X74106Y-15736D01*
X74035Y-15907D01*
X74035Y-16092D01*
X74106Y-16263D01*
X74236Y-16394D01*
X74407Y-16465D01*
X74592Y-16465D01*
X74763Y-16394D01*
X74894Y-16264D01*
X74965Y-16093D01*
X74965Y-16908D01*
X74894Y-16737D01*
X74764Y-16606D01*
X74593Y-16535D01*
X74408Y-16535D01*
X74237Y-16606D01*
X74106Y-16736D01*
X74035Y-16907D01*
X74035Y-17092D01*
X74106Y-17263D01*
X74236Y-17394D01*
X74407Y-17465D01*
X74592Y-17465D01*
X74763Y-17394D01*
X74894Y-17264D01*
X74965Y-17093D01*
X74965Y-17908D01*
X74894Y-17737D01*
X74764Y-17606D01*
X74593Y-17535D01*
X74408Y-17535D01*
X74237Y-17606D01*
X74106Y-17736D01*
X74035Y-17907D01*
X74035Y-18092D01*
X74106Y-18263D01*
X74236Y-18394D01*
X74407Y-18465D01*
X74592Y-18465D01*
X74763Y-18394D01*
X74894Y-18264D01*
X74965Y-18093D01*
X74965Y-18908D01*
X74894Y-18737D01*
X74764Y-18606D01*
X74593Y-18535D01*
X74408Y-18535D01*
X74237Y-18606D01*
X74106Y-18736D01*
X74035Y-18907D01*
X74035Y-19092D01*
X74106Y-19263D01*
X74236Y-19394D01*
X74407Y-19465D01*
X74592Y-19465D01*
X74763Y-19394D01*
X74894Y-19264D01*
X74965Y-19093D01*
X74965Y-19908D01*
X74894Y-19737D01*
X74764Y-19606D01*
X74593Y-19535D01*
X74408Y-19535D01*
X74237Y-19606D01*
X74106Y-19736D01*
X74035Y-19907D01*
X74035Y-20092D01*
X74106Y-20263D01*
X74236Y-20394D01*
X74407Y-20465D01*
X74592Y-20465D01*
X74763Y-20394D01*
X74894Y-20264D01*
X74965Y-20093D01*
X74965Y-20908D01*
X74894Y-20737D01*
X74764Y-20606D01*
X74593Y-20535D01*
X74408Y-20535D01*
X74237Y-20606D01*
X74106Y-20736D01*
X74035Y-20907D01*
X74035Y-21092D01*
X74106Y-21263D01*
X74236Y-21394D01*
X74407Y-21465D01*
X74592Y-21465D01*
X74763Y-21394D01*
X74894Y-21264D01*
X74965Y-21093D01*
X74965Y-21908D01*
X74894Y-21737D01*
X74764Y-21606D01*
X74593Y-21535D01*
X74408Y-21535D01*
X74237Y-21606D01*
X74106Y-21736D01*
X74035Y-21907D01*
X74035Y-22092D01*
X74106Y-22263D01*
X74236Y-22394D01*
X74407Y-22465D01*
X74592Y-22465D01*
X74763Y-22394D01*
X74894Y-22264D01*
X74965Y-22093D01*
X74965Y-24327D01*
X74911Y-24273D01*
X74823Y-24236D01*
X74728Y-24236D01*
X74620Y-24235D01*
X74560Y-24295D01*
X74560Y-24690D01*
X74955Y-24690D01*
X75015Y-24630D01*
X75015Y-24870D01*
X74955Y-24810D01*
X74560Y-24810D01*
X74560Y-25205D01*
X74620Y-25265D01*
X74728Y-25264D01*
X74823Y-25264D01*
X74911Y-25227D01*
X74978Y-25160D01*
X75014Y-25072D01*
X75015Y-24870D01*
X75015Y-35210D01*
X74965Y-35210D01*
X74965Y-32843D01*
X74965Y-32658D01*
X74965Y-31843D01*
X74965Y-31658D01*
X74965Y-30843D01*
X74965Y-30658D01*
X74965Y-29843D01*
X74965Y-29658D01*
X74965Y-28843D01*
X74965Y-28658D01*
X74965Y-27843D01*
X74965Y-27658D01*
X74965Y-26843D01*
X74965Y-26658D01*
X74965Y-25843D01*
X74965Y-25658D01*
X74894Y-25487D01*
X74764Y-25356D01*
X74593Y-25285D01*
X74440Y-25285D01*
X74440Y-25205D01*
X74440Y-24810D01*
X74440Y-24690D01*
X74440Y-24295D01*
X74380Y-24235D01*
X74272Y-24236D01*
X74177Y-24236D01*
X74089Y-24273D01*
X74022Y-24340D01*
X73986Y-24428D01*
X73985Y-24630D01*
X74045Y-24690D01*
X74440Y-24690D01*
X74440Y-24810D01*
X74045Y-24810D01*
X73985Y-24870D01*
X73986Y-25072D01*
X74022Y-25160D01*
X74089Y-25227D01*
X74177Y-25264D01*
X74272Y-25264D01*
X74380Y-25265D01*
X74440Y-25205D01*
X74440Y-25285D01*
X74408Y-25285D01*
X74237Y-25356D01*
X74106Y-25486D01*
X74035Y-25657D01*
X74035Y-25842D01*
X74106Y-26013D01*
X74236Y-26144D01*
X74407Y-26215D01*
X74592Y-26215D01*
X74763Y-26144D01*
X74894Y-26014D01*
X74965Y-25843D01*
X74965Y-26658D01*
X74894Y-26487D01*
X74764Y-26356D01*
X74593Y-26285D01*
X74408Y-26285D01*
X74237Y-26356D01*
X74106Y-26486D01*
X74035Y-26657D01*
X74035Y-26842D01*
X74106Y-27013D01*
X74236Y-27144D01*
X74407Y-27215D01*
X74592Y-27215D01*
X74763Y-27144D01*
X74894Y-27014D01*
X74965Y-26843D01*
X74965Y-27658D01*
X74894Y-27487D01*
X74764Y-27356D01*
X74593Y-27285D01*
X74408Y-27285D01*
X74237Y-27356D01*
X74106Y-27486D01*
X74035Y-27657D01*
X74035Y-27842D01*
X74106Y-28013D01*
X74236Y-28144D01*
X74407Y-28215D01*
X74592Y-28215D01*
X74763Y-28144D01*
X74894Y-28014D01*
X74965Y-27843D01*
X74965Y-28658D01*
X74894Y-28487D01*
X74764Y-28356D01*
X74593Y-28285D01*
X74408Y-28285D01*
X74237Y-28356D01*
X74106Y-28486D01*
X74035Y-28657D01*
X74035Y-28842D01*
X74106Y-29013D01*
X74236Y-29144D01*
X74407Y-29215D01*
X74592Y-29215D01*
X74763Y-29144D01*
X74894Y-29014D01*
X74965Y-28843D01*
X74965Y-29658D01*
X74894Y-29487D01*
X74764Y-29356D01*
X74593Y-29285D01*
X74408Y-29285D01*
X74237Y-29356D01*
X74106Y-29486D01*
X74035Y-29657D01*
X74035Y-29842D01*
X74106Y-30013D01*
X74236Y-30144D01*
X74407Y-30215D01*
X74592Y-30215D01*
X74763Y-30144D01*
X74894Y-30014D01*
X74965Y-29843D01*
X74965Y-30658D01*
X74894Y-30487D01*
X74764Y-30356D01*
X74593Y-30285D01*
X74408Y-30285D01*
X74237Y-30356D01*
X74106Y-30486D01*
X74035Y-30657D01*
X74035Y-30842D01*
X74106Y-31013D01*
X74236Y-31144D01*
X74407Y-31215D01*
X74592Y-31215D01*
X74763Y-31144D01*
X74894Y-31014D01*
X74965Y-30843D01*
X74965Y-31658D01*
X74894Y-31487D01*
X74764Y-31356D01*
X74593Y-31285D01*
X74408Y-31285D01*
X74237Y-31356D01*
X74106Y-31486D01*
X74035Y-31657D01*
X74035Y-31842D01*
X74106Y-32013D01*
X74236Y-32144D01*
X74407Y-32215D01*
X74592Y-32215D01*
X74763Y-32144D01*
X74894Y-32014D01*
X74965Y-31843D01*
X74965Y-32658D01*
X74894Y-32487D01*
X74764Y-32356D01*
X74593Y-32285D01*
X74408Y-32285D01*
X74237Y-32356D01*
X74106Y-32486D01*
X74035Y-32657D01*
X74035Y-32842D01*
X74106Y-33013D01*
X74236Y-33144D01*
X74407Y-33215D01*
X74592Y-33215D01*
X74763Y-33144D01*
X74894Y-33014D01*
X74965Y-32843D01*
X74965Y-35210D01*
X72541Y-35210D01*
X72541Y-32096D01*
X72541Y-31905D01*
X72541Y-31096D01*
X72541Y-30905D01*
X72541Y-30096D01*
X72541Y-29905D01*
X72541Y-29096D01*
X72541Y-28905D01*
X72541Y-28096D01*
X72541Y-27905D01*
X72541Y-27096D01*
X72541Y-26905D01*
X72541Y-26096D01*
X72541Y-25905D01*
X72541Y-25096D01*
X72541Y-24905D01*
X72541Y-22096D01*
X72541Y-21905D01*
X72541Y-21096D01*
X72541Y-20905D01*
X72541Y-20096D01*
X72541Y-19905D01*
X72541Y-19096D01*
X72541Y-18905D01*
X72541Y-18096D01*
X72541Y-17905D01*
X72541Y-17096D01*
X72541Y-16905D01*
X72541Y-16096D01*
X72541Y-15905D01*
X72541Y-15096D01*
X72541Y-14905D01*
X72468Y-14728D01*
X72333Y-14593D01*
X72156Y-14519D01*
X71965Y-14519D01*
X71845Y-14519D01*
X71668Y-14592D01*
X71533Y-14727D01*
X71459Y-14904D01*
X71459Y-15095D01*
X71532Y-15272D01*
X71667Y-15407D01*
X71844Y-15481D01*
X72035Y-15481D01*
X72155Y-15481D01*
X72332Y-15408D01*
X72467Y-15273D01*
X72541Y-15096D01*
X72541Y-15905D01*
X72468Y-15728D01*
X72333Y-15593D01*
X72156Y-15519D01*
X71965Y-15519D01*
X71845Y-15519D01*
X71668Y-15592D01*
X71533Y-15727D01*
X71459Y-15904D01*
X71459Y-16095D01*
X71532Y-16272D01*
X71667Y-16407D01*
X71844Y-16481D01*
X72035Y-16481D01*
X72155Y-16481D01*
X72332Y-16408D01*
X72467Y-16273D01*
X72541Y-16096D01*
X72541Y-16905D01*
X72468Y-16728D01*
X72333Y-16593D01*
X72156Y-16519D01*
X71965Y-16519D01*
X71845Y-16519D01*
X71668Y-16592D01*
X71533Y-16727D01*
X71459Y-16904D01*
X71459Y-17095D01*
X71532Y-17272D01*
X71667Y-17407D01*
X71844Y-17481D01*
X72035Y-17481D01*
X72155Y-17481D01*
X72332Y-17408D01*
X72467Y-17273D01*
X72541Y-17096D01*
X72541Y-17905D01*
X72468Y-17728D01*
X72333Y-17593D01*
X72156Y-17519D01*
X71965Y-17519D01*
X71845Y-17519D01*
X71668Y-17592D01*
X71533Y-17727D01*
X71459Y-17904D01*
X71459Y-18095D01*
X71532Y-18272D01*
X71667Y-18407D01*
X71844Y-18481D01*
X72035Y-18481D01*
X72155Y-18481D01*
X72332Y-18408D01*
X72467Y-18273D01*
X72541Y-18096D01*
X72541Y-18905D01*
X72468Y-18728D01*
X72333Y-18593D01*
X72156Y-18519D01*
X71965Y-18519D01*
X71845Y-18519D01*
X71668Y-18592D01*
X71533Y-18727D01*
X71459Y-18904D01*
X71459Y-19095D01*
X71532Y-19272D01*
X71667Y-19407D01*
X71844Y-19481D01*
X72035Y-19481D01*
X72155Y-19481D01*
X72332Y-19408D01*
X72467Y-19273D01*
X72541Y-19096D01*
X72541Y-19905D01*
X72468Y-19728D01*
X72333Y-19593D01*
X72156Y-19519D01*
X71965Y-19519D01*
X71845Y-19519D01*
X71668Y-19592D01*
X71533Y-19727D01*
X71459Y-19904D01*
X71459Y-20095D01*
X71532Y-20272D01*
X71667Y-20407D01*
X71844Y-20481D01*
X72035Y-20481D01*
X72155Y-20481D01*
X72332Y-20408D01*
X72467Y-20273D01*
X72541Y-20096D01*
X72541Y-20905D01*
X72468Y-20728D01*
X72333Y-20593D01*
X72156Y-20519D01*
X71965Y-20519D01*
X71845Y-20519D01*
X71668Y-20592D01*
X71533Y-20727D01*
X71459Y-20904D01*
X71459Y-21095D01*
X71532Y-21272D01*
X71667Y-21407D01*
X71844Y-21481D01*
X72035Y-21481D01*
X72155Y-21481D01*
X72332Y-21408D01*
X72467Y-21273D01*
X72541Y-21096D01*
X72541Y-21905D01*
X72468Y-21728D01*
X72333Y-21593D01*
X72156Y-21519D01*
X71965Y-21519D01*
X71845Y-21519D01*
X71668Y-21592D01*
X71533Y-21727D01*
X71459Y-21904D01*
X71459Y-22095D01*
X71532Y-22272D01*
X71667Y-22407D01*
X71844Y-22481D01*
X72035Y-22481D01*
X72155Y-22481D01*
X72332Y-22408D01*
X72467Y-22273D01*
X72541Y-22096D01*
X72541Y-24905D01*
X72468Y-24728D01*
X72333Y-24593D01*
X72156Y-24519D01*
X71965Y-24519D01*
X71845Y-24519D01*
X71668Y-24592D01*
X71533Y-24727D01*
X71459Y-24904D01*
X71459Y-25095D01*
X71532Y-25272D01*
X71667Y-25407D01*
X71844Y-25481D01*
X72035Y-25481D01*
X72155Y-25481D01*
X72332Y-25408D01*
X72467Y-25273D01*
X72541Y-25096D01*
X72541Y-25905D01*
X72468Y-25728D01*
X72333Y-25593D01*
X72156Y-25519D01*
X71965Y-25519D01*
X71845Y-25519D01*
X71668Y-25592D01*
X71533Y-25727D01*
X71459Y-25904D01*
X71459Y-26095D01*
X71532Y-26272D01*
X71667Y-26407D01*
X71844Y-26481D01*
X72035Y-26481D01*
X72155Y-26481D01*
X72332Y-26408D01*
X72467Y-26273D01*
X72541Y-26096D01*
X72541Y-26905D01*
X72468Y-26728D01*
X72333Y-26593D01*
X72156Y-26519D01*
X71965Y-26519D01*
X71845Y-26519D01*
X71668Y-26592D01*
X71533Y-26727D01*
X71459Y-26904D01*
X71459Y-27095D01*
X71532Y-27272D01*
X71667Y-27407D01*
X71844Y-27481D01*
X72035Y-27481D01*
X72155Y-27481D01*
X72332Y-27408D01*
X72467Y-27273D01*
X72541Y-27096D01*
X72541Y-27905D01*
X72468Y-27728D01*
X72333Y-27593D01*
X72156Y-27519D01*
X71965Y-27519D01*
X71845Y-27519D01*
X71668Y-27592D01*
X71533Y-27727D01*
X71459Y-27904D01*
X71459Y-28095D01*
X71532Y-28272D01*
X71667Y-28407D01*
X71844Y-28481D01*
X72035Y-28481D01*
X72155Y-28481D01*
X72332Y-28408D01*
X72467Y-28273D01*
X72541Y-28096D01*
X72541Y-28905D01*
X72468Y-28728D01*
X72333Y-28593D01*
X72156Y-28519D01*
X71965Y-28519D01*
X71845Y-28519D01*
X71668Y-28592D01*
X71533Y-28727D01*
X71459Y-28904D01*
X71459Y-29095D01*
X71532Y-29272D01*
X71667Y-29407D01*
X71844Y-29481D01*
X72035Y-29481D01*
X72155Y-29481D01*
X72332Y-29408D01*
X72467Y-29273D01*
X72541Y-29096D01*
X72541Y-29905D01*
X72468Y-29728D01*
X72333Y-29593D01*
X72156Y-29519D01*
X71965Y-29519D01*
X71845Y-29519D01*
X71668Y-29592D01*
X71533Y-29727D01*
X71459Y-29904D01*
X71459Y-30095D01*
X71532Y-30272D01*
X71667Y-30407D01*
X71844Y-30481D01*
X72035Y-30481D01*
X72155Y-30481D01*
X72332Y-30408D01*
X72467Y-30273D01*
X72541Y-30096D01*
X72541Y-30905D01*
X72468Y-30728D01*
X72333Y-30593D01*
X72156Y-30519D01*
X71965Y-30519D01*
X71845Y-30519D01*
X71668Y-30592D01*
X71533Y-30727D01*
X71459Y-30904D01*
X71459Y-31095D01*
X71532Y-31272D01*
X71667Y-31407D01*
X71844Y-31481D01*
X72035Y-31481D01*
X72155Y-31481D01*
X72332Y-31408D01*
X72467Y-31273D01*
X72541Y-31096D01*
X72541Y-31905D01*
X72468Y-31728D01*
X72333Y-31593D01*
X72156Y-31519D01*
X71965Y-31519D01*
X71845Y-31519D01*
X71668Y-31592D01*
X71533Y-31727D01*
X71459Y-31904D01*
X71459Y-32095D01*
X71532Y-32272D01*
X71667Y-32407D01*
X71844Y-32481D01*
X72035Y-32481D01*
X72155Y-32481D01*
X72332Y-32408D01*
X72467Y-32273D01*
X72541Y-32096D01*
X72541Y-35210D01*
X69541Y-35210D01*
X69541Y-32096D01*
X69541Y-31905D01*
X69468Y-31728D01*
X69333Y-31593D01*
X69156Y-31519D01*
X68965Y-31519D01*
X68845Y-31519D01*
X68668Y-31592D01*
X68533Y-31727D01*
X68515Y-31770D01*
X68250Y-31770D01*
X68249Y-31770D01*
X68162Y-31788D01*
X68087Y-31837D01*
X68085Y-31839D01*
X66904Y-33020D01*
X61887Y-33020D01*
X61894Y-33014D01*
X61965Y-32843D01*
X61965Y-32658D01*
X61894Y-32487D01*
X61887Y-32480D01*
X66995Y-32480D01*
X67000Y-32481D01*
X67000Y-32480D01*
X67088Y-32462D01*
X67163Y-32413D01*
X68345Y-31230D01*
X68514Y-31230D01*
X68532Y-31272D01*
X68667Y-31407D01*
X68844Y-31481D01*
X69035Y-31481D01*
X69155Y-31481D01*
X69332Y-31408D01*
X69467Y-31273D01*
X69541Y-31096D01*
X69541Y-30905D01*
X69468Y-30728D01*
X69333Y-30593D01*
X69156Y-30519D01*
X68965Y-30519D01*
X68845Y-30519D01*
X68668Y-30592D01*
X68533Y-30727D01*
X68515Y-30770D01*
X68250Y-30770D01*
X68249Y-30770D01*
X68162Y-30788D01*
X68087Y-30837D01*
X68085Y-30839D01*
X66904Y-32020D01*
X61887Y-32020D01*
X61894Y-32014D01*
X61965Y-31843D01*
X61965Y-31658D01*
X61894Y-31487D01*
X61887Y-31480D01*
X66995Y-31480D01*
X67000Y-31481D01*
X67000Y-31480D01*
X67088Y-31462D01*
X67163Y-31413D01*
X68345Y-30230D01*
X68514Y-30230D01*
X68532Y-30272D01*
X68667Y-30407D01*
X68844Y-30481D01*
X69035Y-30481D01*
X69155Y-30481D01*
X69332Y-30408D01*
X69467Y-30273D01*
X69541Y-30096D01*
X69541Y-29905D01*
X69468Y-29728D01*
X69333Y-29593D01*
X69156Y-29519D01*
X68965Y-29519D01*
X68845Y-29519D01*
X68668Y-29592D01*
X68533Y-29727D01*
X68515Y-29770D01*
X68250Y-29770D01*
X68249Y-29770D01*
X68162Y-29788D01*
X68087Y-29837D01*
X68085Y-29839D01*
X66904Y-31020D01*
X61887Y-31020D01*
X61894Y-31014D01*
X61965Y-30843D01*
X61965Y-30658D01*
X61894Y-30487D01*
X61887Y-30480D01*
X66995Y-30480D01*
X67000Y-30481D01*
X67000Y-30480D01*
X67088Y-30462D01*
X67163Y-30413D01*
X68345Y-29230D01*
X68514Y-29230D01*
X68532Y-29272D01*
X68667Y-29407D01*
X68844Y-29481D01*
X69035Y-29481D01*
X69155Y-29481D01*
X69332Y-29408D01*
X69467Y-29273D01*
X69541Y-29096D01*
X69541Y-28905D01*
X69468Y-28728D01*
X69333Y-28593D01*
X69156Y-28519D01*
X68965Y-28519D01*
X68845Y-28519D01*
X68668Y-28592D01*
X68533Y-28727D01*
X68515Y-28770D01*
X68250Y-28770D01*
X68249Y-28770D01*
X68162Y-28788D01*
X68087Y-28837D01*
X68085Y-28839D01*
X66904Y-30020D01*
X61887Y-30020D01*
X61894Y-30014D01*
X61965Y-29843D01*
X61965Y-29658D01*
X61894Y-29487D01*
X61887Y-29480D01*
X66995Y-29480D01*
X67000Y-29481D01*
X67000Y-29480D01*
X67088Y-29462D01*
X67163Y-29413D01*
X68345Y-28230D01*
X68514Y-28230D01*
X68532Y-28272D01*
X68667Y-28407D01*
X68844Y-28481D01*
X69035Y-28481D01*
X69155Y-28481D01*
X69332Y-28408D01*
X69467Y-28273D01*
X69541Y-28096D01*
X69541Y-27905D01*
X69468Y-27728D01*
X69333Y-27593D01*
X69156Y-27519D01*
X68965Y-27519D01*
X68845Y-27519D01*
X68668Y-27592D01*
X68533Y-27727D01*
X68515Y-27770D01*
X68250Y-27770D01*
X68249Y-27770D01*
X68162Y-27788D01*
X68087Y-27837D01*
X68085Y-27839D01*
X66904Y-29020D01*
X61887Y-29020D01*
X61894Y-29014D01*
X61965Y-28843D01*
X61965Y-28658D01*
X61894Y-28487D01*
X61887Y-28480D01*
X66995Y-28480D01*
X67000Y-28481D01*
X67000Y-28480D01*
X67088Y-28462D01*
X67163Y-28413D01*
X68345Y-27230D01*
X68514Y-27230D01*
X68532Y-27272D01*
X68667Y-27407D01*
X68844Y-27481D01*
X69035Y-27481D01*
X69155Y-27481D01*
X69332Y-27408D01*
X69467Y-27273D01*
X69541Y-27096D01*
X69541Y-26905D01*
X69468Y-26728D01*
X69333Y-26593D01*
X69156Y-26519D01*
X68965Y-26519D01*
X68845Y-26519D01*
X68668Y-26592D01*
X68533Y-26727D01*
X68515Y-26770D01*
X68250Y-26770D01*
X68249Y-26770D01*
X68162Y-26788D01*
X68087Y-26837D01*
X68085Y-26839D01*
X66904Y-28020D01*
X61887Y-28020D01*
X61894Y-28014D01*
X61965Y-27843D01*
X61965Y-27658D01*
X61894Y-27487D01*
X61887Y-27480D01*
X62904Y-27480D01*
X63085Y-27660D01*
X63087Y-27663D01*
X63162Y-27712D01*
X63250Y-27730D01*
X66745Y-27730D01*
X66750Y-27731D01*
X66750Y-27730D01*
X66838Y-27712D01*
X66913Y-27663D01*
X68345Y-26230D01*
X68514Y-26230D01*
X68532Y-26272D01*
X68667Y-26407D01*
X68844Y-26481D01*
X69035Y-26481D01*
X69155Y-26481D01*
X69332Y-26408D01*
X69467Y-26273D01*
X69541Y-26096D01*
X69541Y-25905D01*
X69468Y-25728D01*
X69333Y-25593D01*
X69156Y-25519D01*
X68965Y-25519D01*
X68845Y-25519D01*
X68668Y-25592D01*
X68533Y-25727D01*
X68515Y-25770D01*
X68250Y-25770D01*
X68162Y-25788D01*
X68087Y-25837D01*
X68085Y-25839D01*
X66926Y-26998D01*
X66989Y-26848D01*
X66989Y-26653D01*
X66989Y-26088D01*
X66989Y-26013D01*
X66989Y-25413D01*
X66960Y-25343D01*
X66907Y-25290D01*
X66838Y-25261D01*
X66763Y-25261D01*
X66163Y-25261D01*
X66093Y-25290D01*
X66040Y-25343D01*
X66011Y-25412D01*
X66011Y-25487D01*
X66011Y-26087D01*
X66040Y-26157D01*
X66093Y-26210D01*
X66162Y-26239D01*
X66237Y-26239D01*
X66837Y-26239D01*
X66907Y-26210D01*
X66960Y-26157D01*
X66989Y-26088D01*
X66989Y-26653D01*
X66915Y-26473D01*
X66777Y-26336D01*
X66598Y-26261D01*
X66403Y-26261D01*
X66223Y-26335D01*
X66086Y-26473D01*
X66011Y-26652D01*
X66011Y-26847D01*
X66085Y-27027D01*
X66223Y-27164D01*
X66402Y-27239D01*
X66597Y-27239D01*
X66746Y-27177D01*
X66654Y-27270D01*
X65989Y-27270D01*
X65989Y-26848D01*
X65989Y-26653D01*
X65989Y-25848D01*
X65989Y-25653D01*
X65915Y-25473D01*
X65777Y-25336D01*
X65598Y-25261D01*
X65403Y-25261D01*
X65223Y-25335D01*
X65086Y-25473D01*
X65011Y-25652D01*
X65011Y-25847D01*
X65085Y-26027D01*
X65223Y-26164D01*
X65402Y-26239D01*
X65597Y-26239D01*
X65777Y-26165D01*
X65914Y-26027D01*
X65989Y-25848D01*
X65989Y-26653D01*
X65915Y-26473D01*
X65777Y-26336D01*
X65598Y-26261D01*
X65403Y-26261D01*
X65223Y-26335D01*
X65086Y-26473D01*
X65011Y-26652D01*
X65011Y-26847D01*
X65085Y-27027D01*
X65223Y-27164D01*
X65402Y-27239D01*
X65597Y-27239D01*
X65777Y-27165D01*
X65914Y-27027D01*
X65989Y-26848D01*
X65989Y-27270D01*
X64989Y-27270D01*
X64989Y-26848D01*
X64989Y-26653D01*
X64989Y-25848D01*
X64989Y-25653D01*
X64915Y-25473D01*
X64777Y-25336D01*
X64598Y-25261D01*
X64403Y-25261D01*
X64223Y-25335D01*
X64086Y-25473D01*
X64011Y-25652D01*
X64011Y-25847D01*
X64085Y-26027D01*
X64223Y-26164D01*
X64402Y-26239D01*
X64597Y-26239D01*
X64777Y-26165D01*
X64914Y-26027D01*
X64989Y-25848D01*
X64989Y-26653D01*
X64915Y-26473D01*
X64777Y-26336D01*
X64598Y-26261D01*
X64403Y-26261D01*
X64223Y-26335D01*
X64086Y-26473D01*
X64011Y-26652D01*
X64011Y-26847D01*
X64085Y-27027D01*
X64223Y-27164D01*
X64402Y-27239D01*
X64597Y-27239D01*
X64777Y-27165D01*
X64914Y-27027D01*
X64989Y-26848D01*
X64989Y-27270D01*
X63345Y-27270D01*
X63163Y-27087D01*
X63088Y-27038D01*
X63000Y-27019D01*
X62995Y-27020D01*
X61887Y-27020D01*
X61894Y-27014D01*
X61965Y-26843D01*
X61965Y-26658D01*
X61894Y-26487D01*
X61887Y-26480D01*
X63245Y-26480D01*
X63250Y-26481D01*
X63250Y-26480D01*
X63338Y-26462D01*
X63413Y-26413D01*
X63660Y-26164D01*
X63662Y-26163D01*
X63663Y-26163D01*
X63712Y-26088D01*
X63730Y-26000D01*
X63730Y-25596D01*
X64096Y-25230D01*
X68514Y-25230D01*
X68532Y-25272D01*
X68667Y-25407D01*
X68844Y-25481D01*
X69035Y-25481D01*
X69155Y-25481D01*
X69332Y-25408D01*
X69467Y-25273D01*
X69541Y-25096D01*
X69541Y-24905D01*
X69541Y-22096D01*
X69541Y-21905D01*
X69468Y-21728D01*
X69333Y-21593D01*
X69156Y-21519D01*
X68965Y-21519D01*
X68845Y-21519D01*
X68780Y-21545D01*
X68844Y-21481D01*
X68845Y-21481D01*
X69035Y-21481D01*
X69155Y-21481D01*
X69332Y-21408D01*
X69467Y-21273D01*
X69541Y-21096D01*
X69541Y-20905D01*
X69468Y-20728D01*
X69333Y-20593D01*
X69156Y-20519D01*
X68965Y-20519D01*
X68845Y-20519D01*
X68668Y-20592D01*
X68533Y-20727D01*
X68459Y-20904D01*
X68459Y-21095D01*
X68494Y-21179D01*
X68404Y-21270D01*
X67555Y-21270D01*
X68542Y-20282D01*
X68667Y-20407D01*
X68844Y-20481D01*
X69035Y-20481D01*
X69155Y-20481D01*
X69332Y-20408D01*
X69467Y-20273D01*
X69541Y-20096D01*
X69541Y-19905D01*
X69468Y-19728D01*
X69333Y-19593D01*
X69156Y-19519D01*
X68965Y-19519D01*
X68845Y-19519D01*
X68668Y-19592D01*
X68533Y-19727D01*
X68515Y-19770D01*
X68500Y-19770D01*
X68499Y-19770D01*
X68412Y-19788D01*
X68337Y-19837D01*
X68335Y-19839D01*
X67730Y-20444D01*
X67730Y-19845D01*
X68345Y-19230D01*
X68514Y-19230D01*
X68532Y-19272D01*
X68667Y-19407D01*
X68844Y-19481D01*
X69035Y-19481D01*
X69155Y-19481D01*
X69332Y-19408D01*
X69467Y-19273D01*
X69541Y-19096D01*
X69541Y-18905D01*
X69468Y-18728D01*
X69333Y-18593D01*
X69156Y-18519D01*
X68965Y-18519D01*
X68845Y-18519D01*
X68668Y-18592D01*
X68533Y-18727D01*
X68515Y-18770D01*
X68250Y-18770D01*
X68162Y-18788D01*
X68087Y-18837D01*
X68085Y-18839D01*
X67337Y-19587D01*
X67288Y-19662D01*
X67269Y-19750D01*
X67270Y-19754D01*
X67270Y-20404D01*
X66989Y-20685D01*
X66989Y-20348D01*
X66989Y-20153D01*
X66989Y-19588D01*
X66989Y-19513D01*
X66989Y-18913D01*
X66960Y-18843D01*
X66907Y-18790D01*
X66838Y-18761D01*
X66763Y-18761D01*
X66163Y-18761D01*
X66093Y-18790D01*
X66040Y-18843D01*
X66011Y-18912D01*
X66011Y-18987D01*
X66011Y-19587D01*
X66040Y-19657D01*
X66093Y-19710D01*
X66162Y-19739D01*
X66237Y-19739D01*
X66837Y-19739D01*
X66907Y-19710D01*
X66960Y-19657D01*
X66989Y-19588D01*
X66989Y-20153D01*
X66915Y-19973D01*
X66777Y-19836D01*
X66598Y-19761D01*
X66403Y-19761D01*
X66223Y-19835D01*
X66086Y-19973D01*
X66066Y-20020D01*
X65989Y-20020D01*
X65989Y-19348D01*
X65989Y-19153D01*
X65915Y-18973D01*
X65777Y-18836D01*
X65598Y-18761D01*
X65403Y-18761D01*
X65223Y-18835D01*
X65086Y-18973D01*
X65011Y-19152D01*
X65011Y-19347D01*
X65085Y-19527D01*
X65223Y-19664D01*
X65402Y-19739D01*
X65597Y-19739D01*
X65777Y-19665D01*
X65914Y-19527D01*
X65989Y-19348D01*
X65989Y-20020D01*
X65934Y-20020D01*
X65915Y-19973D01*
X65777Y-19836D01*
X65598Y-19761D01*
X65403Y-19761D01*
X65223Y-19835D01*
X65086Y-19973D01*
X65011Y-20152D01*
X65011Y-20347D01*
X65085Y-20527D01*
X65223Y-20664D01*
X65402Y-20739D01*
X65597Y-20739D01*
X65777Y-20665D01*
X65914Y-20527D01*
X65933Y-20480D01*
X66065Y-20480D01*
X66085Y-20527D01*
X66223Y-20664D01*
X66402Y-20739D01*
X66597Y-20739D01*
X66777Y-20665D01*
X66914Y-20527D01*
X66989Y-20348D01*
X66989Y-20685D01*
X66904Y-20770D01*
X64989Y-20770D01*
X64989Y-20348D01*
X64989Y-20153D01*
X64989Y-19348D01*
X64989Y-19153D01*
X64915Y-18973D01*
X64777Y-18836D01*
X64598Y-18761D01*
X64403Y-18761D01*
X64223Y-18835D01*
X64086Y-18973D01*
X64011Y-19152D01*
X64011Y-19347D01*
X64085Y-19527D01*
X64223Y-19664D01*
X64402Y-19739D01*
X64597Y-19739D01*
X64777Y-19665D01*
X64914Y-19527D01*
X64989Y-19348D01*
X64989Y-20153D01*
X64915Y-19973D01*
X64777Y-19836D01*
X64598Y-19761D01*
X64403Y-19761D01*
X64223Y-19835D01*
X64086Y-19973D01*
X64011Y-20152D01*
X64011Y-20347D01*
X64085Y-20527D01*
X64223Y-20664D01*
X64402Y-20739D01*
X64597Y-20739D01*
X64777Y-20665D01*
X64914Y-20527D01*
X64989Y-20348D01*
X64989Y-20770D01*
X64096Y-20770D01*
X63730Y-20404D01*
X63730Y-19750D01*
X63712Y-19662D01*
X63663Y-19587D01*
X63660Y-19585D01*
X63413Y-19337D01*
X63338Y-19288D01*
X63250Y-19269D01*
X63245Y-19270D01*
X61887Y-19270D01*
X61894Y-19264D01*
X61965Y-19093D01*
X61965Y-18908D01*
X61894Y-18737D01*
X61887Y-18730D01*
X67995Y-18730D01*
X68000Y-18731D01*
X68000Y-18730D01*
X68088Y-18712D01*
X68163Y-18663D01*
X68543Y-18283D01*
X68667Y-18407D01*
X68844Y-18481D01*
X69035Y-18481D01*
X69155Y-18481D01*
X69332Y-18408D01*
X69467Y-18273D01*
X69541Y-18096D01*
X69541Y-17905D01*
X69468Y-17728D01*
X69333Y-17593D01*
X69156Y-17519D01*
X68965Y-17519D01*
X68845Y-17519D01*
X68668Y-17592D01*
X68533Y-17727D01*
X68515Y-17770D01*
X68500Y-17770D01*
X68412Y-17788D01*
X68337Y-17837D01*
X67904Y-18270D01*
X61887Y-18270D01*
X61894Y-18264D01*
X61965Y-18093D01*
X61965Y-17908D01*
X61894Y-17737D01*
X61887Y-17730D01*
X67995Y-17730D01*
X68000Y-17731D01*
X68000Y-17730D01*
X68088Y-17712D01*
X68163Y-17663D01*
X68543Y-17283D01*
X68667Y-17407D01*
X68844Y-17481D01*
X69035Y-17481D01*
X69155Y-17481D01*
X69332Y-17408D01*
X69467Y-17273D01*
X69541Y-17096D01*
X69541Y-16905D01*
X69468Y-16728D01*
X69333Y-16593D01*
X69156Y-16519D01*
X68965Y-16519D01*
X68845Y-16519D01*
X68668Y-16592D01*
X68533Y-16727D01*
X68515Y-16770D01*
X68500Y-16770D01*
X68412Y-16788D01*
X68337Y-16837D01*
X67904Y-17270D01*
X61887Y-17270D01*
X61894Y-17264D01*
X61965Y-17093D01*
X61965Y-16908D01*
X61894Y-16737D01*
X61887Y-16730D01*
X67995Y-16730D01*
X68000Y-16731D01*
X68000Y-16730D01*
X68088Y-16712D01*
X68163Y-16663D01*
X68543Y-16283D01*
X68667Y-16407D01*
X68844Y-16481D01*
X69035Y-16481D01*
X69155Y-16481D01*
X69332Y-16408D01*
X69467Y-16273D01*
X69541Y-16096D01*
X69541Y-15905D01*
X69468Y-15728D01*
X69333Y-15593D01*
X69156Y-15519D01*
X68965Y-15519D01*
X68845Y-15519D01*
X68668Y-15592D01*
X68533Y-15727D01*
X68515Y-15770D01*
X68500Y-15770D01*
X68412Y-15788D01*
X68337Y-15837D01*
X67904Y-16270D01*
X61887Y-16270D01*
X61894Y-16264D01*
X61965Y-16093D01*
X61965Y-15908D01*
X61894Y-15737D01*
X61887Y-15730D01*
X67995Y-15730D01*
X68000Y-15731D01*
X68000Y-15730D01*
X68088Y-15712D01*
X68163Y-15663D01*
X68543Y-15283D01*
X68667Y-15407D01*
X68844Y-15481D01*
X69035Y-15481D01*
X69155Y-15481D01*
X69332Y-15408D01*
X69467Y-15273D01*
X69541Y-15096D01*
X69541Y-14905D01*
X69468Y-14728D01*
X69333Y-14593D01*
X69156Y-14519D01*
X68965Y-14519D01*
X68845Y-14519D01*
X68668Y-14592D01*
X68533Y-14727D01*
X68515Y-14770D01*
X68500Y-14770D01*
X68412Y-14788D01*
X68337Y-14837D01*
X67904Y-15270D01*
X67515Y-15270D01*
X67515Y-14120D01*
X67515Y-13880D01*
X67514Y-13772D01*
X67514Y-13677D01*
X67477Y-13589D01*
X67410Y-13522D01*
X67322Y-13486D01*
X67120Y-13485D01*
X67060Y-13545D01*
X67060Y-13940D01*
X67455Y-13940D01*
X67515Y-13880D01*
X67515Y-14120D01*
X67455Y-14060D01*
X67060Y-14060D01*
X67060Y-14455D01*
X67120Y-14515D01*
X67322Y-14514D01*
X67410Y-14478D01*
X67477Y-14411D01*
X67514Y-14323D01*
X67514Y-14228D01*
X67515Y-14120D01*
X67515Y-15270D01*
X66940Y-15270D01*
X66940Y-14455D01*
X66940Y-14060D01*
X66940Y-13940D01*
X66940Y-13545D01*
X66880Y-13485D01*
X66678Y-13486D01*
X66590Y-13522D01*
X66523Y-13589D01*
X66486Y-13677D01*
X66486Y-13772D01*
X66485Y-13880D01*
X66545Y-13940D01*
X66940Y-13940D01*
X66940Y-14060D01*
X66545Y-14060D01*
X66485Y-14120D01*
X66486Y-14228D01*
X66486Y-14323D01*
X66523Y-14411D01*
X66590Y-14478D01*
X66678Y-14514D01*
X66880Y-14515D01*
X66940Y-14455D01*
X66940Y-15270D01*
X66465Y-15270D01*
X66465Y-14093D01*
X66465Y-13908D01*
X66394Y-13737D01*
X66264Y-13606D01*
X66093Y-13535D01*
X65908Y-13535D01*
X65737Y-13606D01*
X65606Y-13736D01*
X65535Y-13907D01*
X65535Y-14092D01*
X65606Y-14263D01*
X65736Y-14394D01*
X65907Y-14465D01*
X66092Y-14465D01*
X66263Y-14394D01*
X66394Y-14264D01*
X66465Y-14093D01*
X66465Y-15270D01*
X65465Y-15270D01*
X65465Y-14093D01*
X65465Y-13908D01*
X65394Y-13737D01*
X65264Y-13606D01*
X65093Y-13535D01*
X64908Y-13535D01*
X64737Y-13606D01*
X64606Y-13736D01*
X64535Y-13907D01*
X64535Y-14092D01*
X64606Y-14263D01*
X64736Y-14394D01*
X64907Y-14465D01*
X65092Y-14465D01*
X65263Y-14394D01*
X65394Y-14264D01*
X65465Y-14093D01*
X65465Y-15270D01*
X64465Y-15270D01*
X64465Y-14093D01*
X64465Y-13908D01*
X64394Y-13737D01*
X64264Y-13606D01*
X64093Y-13535D01*
X63908Y-13535D01*
X63737Y-13606D01*
X63606Y-13736D01*
X63535Y-13907D01*
X63535Y-14092D01*
X63606Y-14263D01*
X63736Y-14394D01*
X63907Y-14465D01*
X64092Y-14465D01*
X64263Y-14394D01*
X64394Y-14264D01*
X64465Y-14093D01*
X64465Y-15270D01*
X61887Y-15270D01*
X61894Y-15264D01*
X61965Y-15093D01*
X61965Y-14908D01*
X61964Y-14905D01*
X61964Y-14313D01*
X61964Y-14238D01*
X61964Y-13688D01*
X61935Y-13618D01*
X61882Y-13565D01*
X61813Y-13536D01*
X61738Y-13536D01*
X61188Y-13536D01*
X61118Y-13565D01*
X61065Y-13618D01*
X61036Y-13687D01*
X61036Y-13762D01*
X61036Y-14312D01*
X61065Y-14382D01*
X61118Y-14435D01*
X61187Y-14464D01*
X61262Y-14464D01*
X61812Y-14464D01*
X61882Y-14435D01*
X61935Y-14382D01*
X61964Y-14313D01*
X61964Y-14905D01*
X61894Y-14737D01*
X61764Y-14606D01*
X61593Y-14535D01*
X61408Y-14535D01*
X61237Y-14606D01*
X61106Y-14736D01*
X61035Y-14907D01*
X61035Y-15092D01*
X61106Y-15263D01*
X61112Y-15270D01*
X59968Y-15270D01*
X60041Y-15096D01*
X60041Y-14905D01*
X59968Y-14728D01*
X59833Y-14593D01*
X59656Y-14519D01*
X59465Y-14519D01*
X59345Y-14519D01*
X59168Y-14592D01*
X59033Y-14727D01*
X58959Y-14904D01*
X58959Y-15095D01*
X59031Y-15270D01*
X58346Y-15270D01*
X57913Y-14837D01*
X57838Y-14788D01*
X57750Y-14769D01*
X57745Y-14770D01*
X56985Y-14770D01*
X56968Y-14728D01*
X56833Y-14593D01*
X56656Y-14519D01*
X56465Y-14519D01*
X56345Y-14519D01*
X56168Y-14592D01*
X56033Y-14727D01*
X55959Y-14904D01*
X55959Y-15095D01*
X56032Y-15272D01*
X56167Y-15407D01*
X56344Y-15481D01*
X56535Y-15481D01*
X56655Y-15481D01*
X56832Y-15408D01*
X56967Y-15273D01*
X56984Y-15230D01*
X57654Y-15230D01*
X58087Y-15663D01*
X58162Y-15712D01*
X58250Y-15730D01*
X59031Y-15730D01*
X58959Y-15904D01*
X58959Y-16095D01*
X59031Y-16270D01*
X58346Y-16270D01*
X57913Y-15837D01*
X57838Y-15788D01*
X57750Y-15769D01*
X57745Y-15770D01*
X56985Y-15770D01*
X56968Y-15728D01*
X56833Y-15593D01*
X56656Y-15519D01*
X56465Y-15519D01*
X56345Y-15519D01*
X56168Y-15592D01*
X56033Y-15727D01*
X55959Y-15904D01*
X55959Y-16095D01*
X56032Y-16272D01*
X56167Y-16407D01*
X56344Y-16481D01*
X56535Y-16481D01*
X56655Y-16481D01*
X56832Y-16408D01*
X56967Y-16273D01*
X56984Y-16230D01*
X57654Y-16230D01*
X58087Y-16663D01*
X58162Y-16712D01*
X58250Y-16730D01*
X59031Y-16730D01*
X58959Y-16904D01*
X58959Y-17095D01*
X59031Y-17270D01*
X58346Y-17270D01*
X57913Y-16837D01*
X57838Y-16788D01*
X57750Y-16769D01*
X57745Y-16770D01*
X56985Y-16770D01*
X56968Y-16728D01*
X56833Y-16593D01*
X56656Y-16519D01*
X56465Y-16519D01*
X56345Y-16519D01*
X56168Y-16592D01*
X56033Y-16727D01*
X55959Y-16904D01*
X55959Y-17095D01*
X56032Y-17272D01*
X56167Y-17407D01*
X56344Y-17481D01*
X56535Y-17481D01*
X56655Y-17481D01*
X56832Y-17408D01*
X56967Y-17273D01*
X56984Y-17230D01*
X57654Y-17230D01*
X58087Y-17663D01*
X58162Y-17712D01*
X58250Y-17730D01*
X59031Y-17730D01*
X58959Y-17904D01*
X58959Y-18095D01*
X59031Y-18270D01*
X58346Y-18270D01*
X57913Y-17837D01*
X57838Y-17788D01*
X57750Y-17769D01*
X57745Y-17770D01*
X56985Y-17770D01*
X56968Y-17728D01*
X56833Y-17593D01*
X56656Y-17519D01*
X56465Y-17519D01*
X56345Y-17519D01*
X56168Y-17592D01*
X56033Y-17727D01*
X55959Y-17904D01*
X55959Y-18095D01*
X56032Y-18272D01*
X56167Y-18407D01*
X56344Y-18481D01*
X56535Y-18481D01*
X56655Y-18481D01*
X56832Y-18408D01*
X56967Y-18273D01*
X56984Y-18230D01*
X57654Y-18230D01*
X58087Y-18663D01*
X58162Y-18712D01*
X58250Y-18730D01*
X59031Y-18730D01*
X58959Y-18904D01*
X58959Y-19095D01*
X59031Y-19270D01*
X58346Y-19270D01*
X57913Y-18837D01*
X57838Y-18788D01*
X57750Y-18769D01*
X57745Y-18770D01*
X56985Y-18770D01*
X56968Y-18728D01*
X56833Y-18593D01*
X56656Y-18519D01*
X56465Y-18519D01*
X56345Y-18519D01*
X56168Y-18592D01*
X56033Y-18727D01*
X55959Y-18904D01*
X55959Y-19095D01*
X56032Y-19272D01*
X56167Y-19407D01*
X56344Y-19481D01*
X56535Y-19481D01*
X56655Y-19481D01*
X56832Y-19408D01*
X56967Y-19273D01*
X56984Y-19230D01*
X57654Y-19230D01*
X58087Y-19663D01*
X58162Y-19712D01*
X58250Y-19730D01*
X59031Y-19730D01*
X58959Y-19904D01*
X58959Y-20095D01*
X59031Y-20270D01*
X58346Y-20270D01*
X57913Y-19837D01*
X57838Y-19788D01*
X57750Y-19769D01*
X57745Y-19770D01*
X56985Y-19770D01*
X56968Y-19728D01*
X56833Y-19593D01*
X56656Y-19519D01*
X56465Y-19519D01*
X56345Y-19519D01*
X56168Y-19592D01*
X56033Y-19727D01*
X55959Y-19904D01*
X55959Y-20095D01*
X56032Y-20272D01*
X56167Y-20407D01*
X56344Y-20481D01*
X56535Y-20481D01*
X56655Y-20481D01*
X56832Y-20408D01*
X56967Y-20273D01*
X56984Y-20230D01*
X57654Y-20230D01*
X58087Y-20663D01*
X58162Y-20712D01*
X58250Y-20730D01*
X59031Y-20730D01*
X58959Y-20904D01*
X58959Y-21095D01*
X59031Y-21270D01*
X58346Y-21270D01*
X57913Y-20837D01*
X57838Y-20788D01*
X57750Y-20769D01*
X57745Y-20770D01*
X56985Y-20770D01*
X56968Y-20728D01*
X56833Y-20593D01*
X56656Y-20519D01*
X56465Y-20519D01*
X56345Y-20519D01*
X56168Y-20592D01*
X56033Y-20727D01*
X55959Y-20904D01*
X55959Y-21095D01*
X56032Y-21272D01*
X56167Y-21407D01*
X56344Y-21481D01*
X56535Y-21481D01*
X56655Y-21481D01*
X56832Y-21408D01*
X56967Y-21273D01*
X56984Y-21230D01*
X57654Y-21230D01*
X58087Y-21663D01*
X58162Y-21712D01*
X58250Y-21730D01*
X59031Y-21730D01*
X58959Y-21904D01*
X58959Y-22095D01*
X59032Y-22272D01*
X59167Y-22407D01*
X59344Y-22481D01*
X59535Y-22481D01*
X59655Y-22481D01*
X59832Y-22408D01*
X59967Y-22273D01*
X60041Y-22096D01*
X60041Y-21905D01*
X59968Y-21730D01*
X61112Y-21730D01*
X61106Y-21736D01*
X61035Y-21907D01*
X61035Y-22092D01*
X61106Y-22263D01*
X61236Y-22394D01*
X61407Y-22465D01*
X61592Y-22465D01*
X61763Y-22394D01*
X61894Y-22264D01*
X61965Y-22093D01*
X61965Y-21908D01*
X61894Y-21737D01*
X61887Y-21730D01*
X68495Y-21730D01*
X68500Y-21731D01*
X68500Y-21730D01*
X68536Y-21723D01*
X68533Y-21727D01*
X68459Y-21904D01*
X68459Y-22095D01*
X68494Y-22180D01*
X68154Y-22520D01*
X58595Y-22520D01*
X57913Y-21837D01*
X57838Y-21788D01*
X57750Y-21769D01*
X57745Y-21770D01*
X56985Y-21770D01*
X56968Y-21728D01*
X56833Y-21593D01*
X56656Y-21519D01*
X56465Y-21519D01*
X56345Y-21519D01*
X56168Y-21592D01*
X56033Y-21727D01*
X55959Y-21904D01*
X55959Y-22095D01*
X56032Y-22272D01*
X56167Y-22407D01*
X56344Y-22481D01*
X56535Y-22481D01*
X56655Y-22481D01*
X56832Y-22408D01*
X56967Y-22273D01*
X56984Y-22230D01*
X57654Y-22230D01*
X58335Y-22910D01*
X58337Y-22913D01*
X58412Y-22962D01*
X58500Y-22980D01*
X68245Y-22980D01*
X68250Y-22981D01*
X68250Y-22980D01*
X68338Y-22962D01*
X68413Y-22913D01*
X68844Y-22481D01*
X69035Y-22481D01*
X69155Y-22481D01*
X69332Y-22408D01*
X69467Y-22273D01*
X69541Y-22096D01*
X69541Y-24905D01*
X69468Y-24728D01*
X69333Y-24593D01*
X69156Y-24519D01*
X68965Y-24519D01*
X68845Y-24519D01*
X68668Y-24592D01*
X68533Y-24727D01*
X68515Y-24770D01*
X64000Y-24770D01*
X63912Y-24788D01*
X63837Y-24837D01*
X63337Y-25337D01*
X63288Y-25412D01*
X63269Y-25500D01*
X63270Y-25504D01*
X63270Y-25904D01*
X63154Y-26020D01*
X61887Y-26020D01*
X61894Y-26014D01*
X61965Y-25843D01*
X61965Y-25658D01*
X61964Y-25655D01*
X61964Y-25063D01*
X61964Y-24988D01*
X61964Y-24438D01*
X61935Y-24368D01*
X61882Y-24315D01*
X61813Y-24286D01*
X61738Y-24286D01*
X61188Y-24286D01*
X61118Y-24315D01*
X61065Y-24368D01*
X61036Y-24437D01*
X61036Y-24512D01*
X61036Y-25062D01*
X61065Y-25132D01*
X61118Y-25185D01*
X61187Y-25214D01*
X61262Y-25214D01*
X61812Y-25214D01*
X61882Y-25185D01*
X61935Y-25132D01*
X61964Y-25063D01*
X61964Y-25655D01*
X61894Y-25487D01*
X61764Y-25356D01*
X61593Y-25285D01*
X61408Y-25285D01*
X61237Y-25356D01*
X61106Y-25486D01*
X61035Y-25657D01*
X61035Y-25842D01*
X61106Y-26013D01*
X61112Y-26020D01*
X61095Y-26020D01*
X60413Y-25337D01*
X60338Y-25288D01*
X60250Y-25269D01*
X60245Y-25270D01*
X59968Y-25270D01*
X60041Y-25096D01*
X60041Y-24905D01*
X59968Y-24728D01*
X59833Y-24593D01*
X59656Y-24519D01*
X59465Y-24519D01*
X59345Y-24519D01*
X59168Y-24592D01*
X59033Y-24727D01*
X58959Y-24904D01*
X58959Y-25095D01*
X59031Y-25270D01*
X58346Y-25270D01*
X57913Y-24837D01*
X57838Y-24788D01*
X57750Y-24769D01*
X57745Y-24770D01*
X56985Y-24770D01*
X56968Y-24728D01*
X56833Y-24593D01*
X56656Y-24519D01*
X56465Y-24519D01*
X56345Y-24519D01*
X56168Y-24592D01*
X56033Y-24727D01*
X55959Y-24904D01*
X55959Y-25095D01*
X56032Y-25272D01*
X56167Y-25407D01*
X56344Y-25481D01*
X56535Y-25481D01*
X56655Y-25481D01*
X56832Y-25408D01*
X56967Y-25273D01*
X56984Y-25230D01*
X57654Y-25230D01*
X58087Y-25663D01*
X58162Y-25712D01*
X58250Y-25730D01*
X59031Y-25730D01*
X58959Y-25904D01*
X58959Y-26095D01*
X59031Y-26270D01*
X58346Y-26270D01*
X57913Y-25837D01*
X57838Y-25788D01*
X57750Y-25769D01*
X57745Y-25770D01*
X56985Y-25770D01*
X56968Y-25728D01*
X56833Y-25593D01*
X56656Y-25519D01*
X56465Y-25519D01*
X56345Y-25519D01*
X56168Y-25592D01*
X56033Y-25727D01*
X55959Y-25904D01*
X55959Y-26095D01*
X56032Y-26272D01*
X56167Y-26407D01*
X56344Y-26481D01*
X56535Y-26481D01*
X56655Y-26481D01*
X56832Y-26408D01*
X56967Y-26273D01*
X56984Y-26230D01*
X57654Y-26230D01*
X58087Y-26663D01*
X58162Y-26712D01*
X58250Y-26730D01*
X59031Y-26730D01*
X58959Y-26904D01*
X58959Y-27095D01*
X59031Y-27270D01*
X58346Y-27270D01*
X57913Y-26837D01*
X57838Y-26788D01*
X57750Y-26769D01*
X57745Y-26770D01*
X56985Y-26770D01*
X56968Y-26728D01*
X56833Y-26593D01*
X56656Y-26519D01*
X56465Y-26519D01*
X56345Y-26519D01*
X56168Y-26592D01*
X56033Y-26727D01*
X55959Y-26904D01*
X55959Y-27095D01*
X56032Y-27272D01*
X56167Y-27407D01*
X56344Y-27481D01*
X56535Y-27481D01*
X56655Y-27481D01*
X56832Y-27408D01*
X56967Y-27273D01*
X56984Y-27230D01*
X57654Y-27230D01*
X58087Y-27663D01*
X58162Y-27712D01*
X58250Y-27730D01*
X59031Y-27730D01*
X58959Y-27904D01*
X58959Y-28095D01*
X59031Y-28270D01*
X58346Y-28270D01*
X57913Y-27837D01*
X57838Y-27788D01*
X57750Y-27769D01*
X57745Y-27770D01*
X56985Y-27770D01*
X56968Y-27728D01*
X56833Y-27593D01*
X56656Y-27519D01*
X56465Y-27519D01*
X56345Y-27519D01*
X56168Y-27592D01*
X56033Y-27727D01*
X55959Y-27904D01*
X55959Y-28095D01*
X56032Y-28272D01*
X56167Y-28407D01*
X56344Y-28481D01*
X56535Y-28481D01*
X56655Y-28481D01*
X56832Y-28408D01*
X56967Y-28273D01*
X56984Y-28230D01*
X57654Y-28230D01*
X58087Y-28663D01*
X58162Y-28712D01*
X58250Y-28730D01*
X59031Y-28730D01*
X58959Y-28904D01*
X58959Y-29095D01*
X59031Y-29270D01*
X58346Y-29270D01*
X57913Y-28837D01*
X57838Y-28788D01*
X57750Y-28769D01*
X57745Y-28770D01*
X56985Y-28770D01*
X56968Y-28728D01*
X56833Y-28593D01*
X56656Y-28519D01*
X56465Y-28519D01*
X56345Y-28519D01*
X56168Y-28592D01*
X56033Y-28727D01*
X55959Y-28904D01*
X55959Y-29095D01*
X56032Y-29272D01*
X56167Y-29407D01*
X56344Y-29481D01*
X56535Y-29481D01*
X56655Y-29481D01*
X56832Y-29408D01*
X56967Y-29273D01*
X56984Y-29230D01*
X57654Y-29230D01*
X58087Y-29663D01*
X58162Y-29712D01*
X58250Y-29730D01*
X59031Y-29730D01*
X58959Y-29904D01*
X58959Y-30095D01*
X59031Y-30270D01*
X58346Y-30270D01*
X57913Y-29837D01*
X57838Y-29788D01*
X57750Y-29769D01*
X57745Y-29770D01*
X56985Y-29770D01*
X56968Y-29728D01*
X56833Y-29593D01*
X56656Y-29519D01*
X56465Y-29519D01*
X56345Y-29519D01*
X56168Y-29592D01*
X56033Y-29727D01*
X55959Y-29904D01*
X55959Y-30095D01*
X56032Y-30272D01*
X56167Y-30407D01*
X56344Y-30481D01*
X56535Y-30481D01*
X56655Y-30481D01*
X56832Y-30408D01*
X56967Y-30273D01*
X56984Y-30230D01*
X57654Y-30230D01*
X58087Y-30663D01*
X58162Y-30712D01*
X58250Y-30730D01*
X59031Y-30730D01*
X58959Y-30904D01*
X58959Y-31095D01*
X59031Y-31270D01*
X58346Y-31270D01*
X57913Y-30837D01*
X57838Y-30788D01*
X57750Y-30769D01*
X57745Y-30770D01*
X56985Y-30770D01*
X56968Y-30728D01*
X56833Y-30593D01*
X56656Y-30519D01*
X56465Y-30519D01*
X56345Y-30519D01*
X56168Y-30592D01*
X56033Y-30727D01*
X55959Y-30904D01*
X55959Y-31095D01*
X56032Y-31272D01*
X56167Y-31407D01*
X56344Y-31481D01*
X56535Y-31481D01*
X56655Y-31481D01*
X56832Y-31408D01*
X56967Y-31273D01*
X56984Y-31230D01*
X57654Y-31230D01*
X58087Y-31663D01*
X58162Y-31712D01*
X58250Y-31730D01*
X59031Y-31730D01*
X58959Y-31904D01*
X58959Y-32095D01*
X59031Y-32270D01*
X58346Y-32270D01*
X57913Y-31837D01*
X57838Y-31788D01*
X57750Y-31769D01*
X57745Y-31770D01*
X56985Y-31770D01*
X56968Y-31728D01*
X56833Y-31593D01*
X56656Y-31519D01*
X56465Y-31519D01*
X56345Y-31519D01*
X56168Y-31592D01*
X56033Y-31727D01*
X55959Y-31904D01*
X55959Y-32095D01*
X56032Y-32272D01*
X56167Y-32407D01*
X56344Y-32481D01*
X56535Y-32481D01*
X56655Y-32481D01*
X56832Y-32408D01*
X56967Y-32273D01*
X56984Y-32230D01*
X57654Y-32230D01*
X58087Y-32663D01*
X58162Y-32712D01*
X58250Y-32730D01*
X60154Y-32730D01*
X60835Y-33410D01*
X60837Y-33413D01*
X60912Y-33462D01*
X61000Y-33480D01*
X66995Y-33480D01*
X67000Y-33481D01*
X67000Y-33480D01*
X67088Y-33462D01*
X67163Y-33413D01*
X68345Y-32230D01*
X68514Y-32230D01*
X68532Y-32272D01*
X68667Y-32407D01*
X68844Y-32481D01*
X69035Y-32481D01*
X69155Y-32481D01*
X69332Y-32408D01*
X69467Y-32273D01*
X69541Y-32096D01*
X69541Y-35210D01*
X54015Y-35210D01*
X54015Y-32120D01*
X54015Y-31880D01*
X54015Y-15120D01*
X54015Y-14880D01*
X54014Y-14678D01*
X53978Y-14590D01*
X53911Y-14523D01*
X53823Y-14486D01*
X53728Y-14486D01*
X53620Y-14485D01*
X53560Y-14545D01*
X53560Y-14940D01*
X53955Y-14940D01*
X54015Y-14880D01*
X54015Y-15120D01*
X53955Y-15060D01*
X53560Y-15060D01*
X53560Y-15455D01*
X53620Y-15515D01*
X53728Y-15514D01*
X53823Y-15514D01*
X53911Y-15477D01*
X53978Y-15410D01*
X54014Y-15322D01*
X54015Y-15120D01*
X54015Y-31880D01*
X54014Y-31678D01*
X53978Y-31590D01*
X53965Y-31577D01*
X53965Y-31093D01*
X53965Y-30908D01*
X53965Y-30093D01*
X53965Y-29908D01*
X53965Y-29093D01*
X53965Y-28908D01*
X53965Y-28093D01*
X53965Y-27908D01*
X53965Y-27093D01*
X53965Y-26908D01*
X53965Y-26093D01*
X53965Y-25908D01*
X53965Y-25093D01*
X53965Y-24908D01*
X53965Y-24093D01*
X53965Y-23908D01*
X53965Y-23093D01*
X53965Y-22908D01*
X53965Y-22093D01*
X53965Y-21908D01*
X53965Y-21093D01*
X53965Y-20908D01*
X53965Y-20093D01*
X53965Y-19908D01*
X53965Y-19093D01*
X53965Y-18908D01*
X53965Y-18093D01*
X53965Y-17908D01*
X53965Y-17093D01*
X53965Y-16908D01*
X53965Y-16093D01*
X53965Y-15908D01*
X53894Y-15737D01*
X53764Y-15606D01*
X53593Y-15535D01*
X53440Y-15535D01*
X53440Y-15455D01*
X53440Y-15060D01*
X53440Y-14940D01*
X53440Y-14545D01*
X53380Y-14485D01*
X53272Y-14486D01*
X53177Y-14486D01*
X53089Y-14523D01*
X53022Y-14590D01*
X52986Y-14678D01*
X52985Y-14880D01*
X53045Y-14940D01*
X53440Y-14940D01*
X53440Y-15060D01*
X53045Y-15060D01*
X52985Y-15120D01*
X52986Y-15322D01*
X53022Y-15410D01*
X53089Y-15477D01*
X53177Y-15514D01*
X53272Y-15514D01*
X53380Y-15515D01*
X53440Y-15455D01*
X53440Y-15535D01*
X53408Y-15535D01*
X53237Y-15606D01*
X53106Y-15736D01*
X53035Y-15907D01*
X53035Y-16092D01*
X53106Y-16263D01*
X53236Y-16394D01*
X53407Y-16465D01*
X53592Y-16465D01*
X53763Y-16394D01*
X53894Y-16264D01*
X53965Y-16093D01*
X53965Y-16908D01*
X53894Y-16737D01*
X53764Y-16606D01*
X53593Y-16535D01*
X53408Y-16535D01*
X53237Y-16606D01*
X53106Y-16736D01*
X53035Y-16907D01*
X53035Y-17092D01*
X53106Y-17263D01*
X53236Y-17394D01*
X53407Y-17465D01*
X53592Y-17465D01*
X53763Y-17394D01*
X53894Y-17264D01*
X53965Y-17093D01*
X53965Y-17908D01*
X53894Y-17737D01*
X53764Y-17606D01*
X53593Y-17535D01*
X53408Y-17535D01*
X53237Y-17606D01*
X53106Y-17736D01*
X53035Y-17907D01*
X53035Y-18092D01*
X53106Y-18263D01*
X53236Y-18394D01*
X53407Y-18465D01*
X53592Y-18465D01*
X53763Y-18394D01*
X53894Y-18264D01*
X53965Y-18093D01*
X53965Y-18908D01*
X53894Y-18737D01*
X53764Y-18606D01*
X53593Y-18535D01*
X53408Y-18535D01*
X53237Y-18606D01*
X53106Y-18736D01*
X53035Y-18907D01*
X53035Y-19092D01*
X53106Y-19263D01*
X53236Y-19394D01*
X53407Y-19465D01*
X53592Y-19465D01*
X53763Y-19394D01*
X53894Y-19264D01*
X53965Y-19093D01*
X53965Y-19908D01*
X53894Y-19737D01*
X53764Y-19606D01*
X53593Y-19535D01*
X53408Y-19535D01*
X53237Y-19606D01*
X53106Y-19736D01*
X53035Y-19907D01*
X53035Y-20092D01*
X53106Y-20263D01*
X53236Y-20394D01*
X53407Y-20465D01*
X53592Y-20465D01*
X53763Y-20394D01*
X53894Y-20264D01*
X53965Y-20093D01*
X53965Y-20908D01*
X53894Y-20737D01*
X53764Y-20606D01*
X53593Y-20535D01*
X53408Y-20535D01*
X53237Y-20606D01*
X53106Y-20736D01*
X53035Y-20907D01*
X53035Y-21092D01*
X53106Y-21263D01*
X53236Y-21394D01*
X53407Y-21465D01*
X53592Y-21465D01*
X53763Y-21394D01*
X53894Y-21264D01*
X53965Y-21093D01*
X53965Y-21908D01*
X53894Y-21737D01*
X53764Y-21606D01*
X53593Y-21535D01*
X53408Y-21535D01*
X53237Y-21606D01*
X53106Y-21736D01*
X53035Y-21907D01*
X53035Y-22092D01*
X53106Y-22263D01*
X53236Y-22394D01*
X53407Y-22465D01*
X53592Y-22465D01*
X53763Y-22394D01*
X53894Y-22264D01*
X53965Y-22093D01*
X53965Y-22908D01*
X53894Y-22737D01*
X53764Y-22606D01*
X53593Y-22535D01*
X53408Y-22535D01*
X53237Y-22606D01*
X53106Y-22736D01*
X53035Y-22907D01*
X53035Y-23092D01*
X53106Y-23263D01*
X53236Y-23394D01*
X53407Y-23465D01*
X53592Y-23465D01*
X53763Y-23394D01*
X53894Y-23264D01*
X53965Y-23093D01*
X53965Y-23908D01*
X53894Y-23737D01*
X53764Y-23606D01*
X53593Y-23535D01*
X53408Y-23535D01*
X53237Y-23606D01*
X53106Y-23736D01*
X53035Y-23907D01*
X53035Y-24092D01*
X53106Y-24263D01*
X53236Y-24394D01*
X53407Y-24465D01*
X53592Y-24465D01*
X53763Y-24394D01*
X53894Y-24264D01*
X53965Y-24093D01*
X53965Y-24908D01*
X53894Y-24737D01*
X53764Y-24606D01*
X53593Y-24535D01*
X53408Y-24535D01*
X53237Y-24606D01*
X53106Y-24736D01*
X53035Y-24907D01*
X53035Y-25092D01*
X53106Y-25263D01*
X53236Y-25394D01*
X53407Y-25465D01*
X53592Y-25465D01*
X53763Y-25394D01*
X53894Y-25264D01*
X53965Y-25093D01*
X53965Y-25908D01*
X53894Y-25737D01*
X53764Y-25606D01*
X53593Y-25535D01*
X53408Y-25535D01*
X53237Y-25606D01*
X53106Y-25736D01*
X53035Y-25907D01*
X53035Y-26092D01*
X53106Y-26263D01*
X53236Y-26394D01*
X53407Y-26465D01*
X53592Y-26465D01*
X53763Y-26394D01*
X53894Y-26264D01*
X53965Y-26093D01*
X53965Y-26908D01*
X53894Y-26737D01*
X53764Y-26606D01*
X53593Y-26535D01*
X53408Y-26535D01*
X53237Y-26606D01*
X53106Y-26736D01*
X53035Y-26907D01*
X53035Y-27092D01*
X53106Y-27263D01*
X53236Y-27394D01*
X53407Y-27465D01*
X53592Y-27465D01*
X53763Y-27394D01*
X53894Y-27264D01*
X53965Y-27093D01*
X53965Y-27908D01*
X53894Y-27737D01*
X53764Y-27606D01*
X53593Y-27535D01*
X53408Y-27535D01*
X53237Y-27606D01*
X53106Y-27736D01*
X53035Y-27907D01*
X53035Y-28092D01*
X53106Y-28263D01*
X53236Y-28394D01*
X53407Y-28465D01*
X53592Y-28465D01*
X53763Y-28394D01*
X53894Y-28264D01*
X53965Y-28093D01*
X53965Y-28908D01*
X53894Y-28737D01*
X53764Y-28606D01*
X53593Y-28535D01*
X53408Y-28535D01*
X53237Y-28606D01*
X53106Y-28736D01*
X53035Y-28907D01*
X53035Y-29092D01*
X53106Y-29263D01*
X53236Y-29394D01*
X53407Y-29465D01*
X53592Y-29465D01*
X53763Y-29394D01*
X53894Y-29264D01*
X53965Y-29093D01*
X53965Y-29908D01*
X53894Y-29737D01*
X53764Y-29606D01*
X53593Y-29535D01*
X53408Y-29535D01*
X53237Y-29606D01*
X53106Y-29736D01*
X53035Y-29907D01*
X53035Y-30092D01*
X53106Y-30263D01*
X53236Y-30394D01*
X53407Y-30465D01*
X53592Y-30465D01*
X53763Y-30394D01*
X53894Y-30264D01*
X53965Y-30093D01*
X53965Y-30908D01*
X53894Y-30737D01*
X53764Y-30606D01*
X53593Y-30535D01*
X53408Y-30535D01*
X53237Y-30606D01*
X53106Y-30736D01*
X53035Y-30907D01*
X53035Y-31092D01*
X53106Y-31263D01*
X53236Y-31394D01*
X53407Y-31465D01*
X53592Y-31465D01*
X53763Y-31394D01*
X53894Y-31264D01*
X53965Y-31093D01*
X53965Y-31577D01*
X53911Y-31523D01*
X53823Y-31486D01*
X53728Y-31486D01*
X53620Y-31485D01*
X53560Y-31545D01*
X53560Y-31940D01*
X53955Y-31940D01*
X54015Y-31880D01*
X54015Y-32120D01*
X53955Y-32060D01*
X53560Y-32060D01*
X53560Y-32455D01*
X53620Y-32515D01*
X53728Y-32514D01*
X53823Y-32514D01*
X53911Y-32477D01*
X53978Y-32410D01*
X54014Y-32322D01*
X54015Y-32120D01*
X54015Y-35210D01*
X53440Y-35210D01*
X53440Y-32455D01*
X53440Y-32060D01*
X53440Y-31940D01*
X53440Y-31545D01*
X53380Y-31485D01*
X53272Y-31486D01*
X53177Y-31486D01*
X53089Y-31523D01*
X53022Y-31590D01*
X52986Y-31678D01*
X52985Y-31880D01*
X53045Y-31940D01*
X53440Y-31940D01*
X53440Y-32060D01*
X53045Y-32060D01*
X52985Y-32120D01*
X52986Y-32322D01*
X53022Y-32410D01*
X53089Y-32477D01*
X53177Y-32514D01*
X53272Y-32514D01*
X53380Y-32515D01*
X53440Y-32455D01*
X53440Y-35210D01*
X52790Y-35210D01*
X52790Y-11290D01*
X78210Y-11290D01*
X78210Y-35210D01*
M02*
