G04 (created by PCBNEW (2011-07-08)-stable) date Sun 02 Oct 2011 11:42:45 AM CEST*
G01*
G70*
G90*
%MOIN*%
G04 Gerber Fmt 3.4, Leading zero omitted, Abs format*
%FSLAX34Y34*%
G04 APERTURE LIST*
%ADD10C,0.001000*%
%ADD11C,0.015000*%
%ADD12C,0.008000*%
G04 APERTURE END LIST*
G54D10*
G54D11*
X76250Y-13750D02*
X76250Y-33250D01*
X56750Y-13750D02*
X76250Y-13750D01*
X56750Y-33250D02*
X76250Y-33250D01*
X56750Y-13750D02*
X56750Y-33250D01*
G54D10*
X59100Y-14850D02*
X59400Y-15150D01*
X59400Y-14850D02*
X59100Y-15150D01*
X59100Y-15850D02*
X59400Y-16150D01*
X59400Y-15850D02*
X59100Y-16150D01*
X59100Y-16850D02*
X59400Y-17150D01*
X59400Y-16850D02*
X59100Y-17150D01*
X59100Y-17850D02*
X59400Y-18150D01*
X59400Y-17850D02*
X59100Y-18150D01*
X59100Y-18850D02*
X59400Y-19150D01*
X59400Y-18850D02*
X59100Y-19150D01*
X59100Y-19850D02*
X59400Y-20150D01*
X59400Y-19850D02*
X59100Y-20150D01*
X59100Y-20850D02*
X59400Y-21150D01*
X59400Y-20850D02*
X59100Y-21150D01*
X59100Y-21850D02*
X59400Y-22150D01*
X59400Y-21850D02*
X59100Y-22150D01*
X59100Y-24850D02*
X59400Y-25150D01*
X59400Y-24850D02*
X59100Y-25150D01*
X59100Y-25850D02*
X59400Y-26150D01*
X59400Y-25850D02*
X59100Y-26150D01*
X59100Y-26850D02*
X59400Y-27150D01*
X59400Y-26850D02*
X59100Y-27150D01*
X59100Y-27850D02*
X59400Y-28150D01*
X59400Y-27850D02*
X59100Y-28150D01*
X59100Y-28850D02*
X59400Y-29150D01*
X59400Y-28850D02*
X59100Y-29150D01*
X59100Y-29850D02*
X59400Y-30150D01*
X59400Y-29850D02*
X59100Y-30150D01*
X59100Y-30850D02*
X59400Y-31150D01*
X59400Y-30850D02*
X59100Y-31150D01*
X59100Y-31850D02*
X59400Y-32150D01*
X59400Y-31850D02*
X59100Y-32150D01*
X62100Y-14850D02*
X62400Y-15150D01*
X62400Y-14850D02*
X62100Y-15150D01*
X62100Y-15850D02*
X62400Y-16150D01*
X62400Y-15850D02*
X62100Y-16150D01*
X62100Y-16850D02*
X62400Y-17150D01*
X62400Y-16850D02*
X62100Y-17150D01*
X62100Y-17850D02*
X62400Y-18150D01*
X62400Y-17850D02*
X62100Y-18150D01*
X62100Y-18850D02*
X62400Y-19150D01*
X62400Y-18850D02*
X62100Y-19150D01*
X62100Y-19850D02*
X62400Y-20150D01*
X62400Y-19850D02*
X62100Y-20150D01*
X62100Y-20850D02*
X62400Y-21150D01*
X62400Y-20850D02*
X62100Y-21150D01*
X62100Y-21850D02*
X62400Y-22150D01*
X62400Y-21850D02*
X62100Y-22150D01*
X62100Y-24850D02*
X62400Y-25150D01*
X62400Y-24850D02*
X62100Y-25150D01*
X62100Y-25850D02*
X62400Y-26150D01*
X62400Y-25850D02*
X62100Y-26150D01*
X62100Y-26850D02*
X62400Y-27150D01*
X62400Y-26850D02*
X62100Y-27150D01*
X62100Y-27850D02*
X62400Y-28150D01*
X62400Y-27850D02*
X62100Y-28150D01*
X62100Y-28850D02*
X62400Y-29150D01*
X62400Y-28850D02*
X62100Y-29150D01*
X62100Y-29850D02*
X62400Y-30150D01*
X62400Y-29850D02*
X62100Y-30150D01*
X62100Y-30850D02*
X62400Y-31150D01*
X62400Y-30850D02*
X62100Y-31150D01*
X62100Y-31850D02*
X62400Y-32150D01*
X62400Y-31850D02*
X62100Y-32150D01*
X69100Y-14850D02*
X69400Y-15150D01*
X69400Y-14850D02*
X69100Y-15150D01*
X69100Y-15850D02*
X69400Y-16150D01*
X69400Y-15850D02*
X69100Y-16150D01*
X69100Y-16850D02*
X69400Y-17150D01*
X69400Y-16850D02*
X69100Y-17150D01*
X69100Y-17850D02*
X69400Y-18150D01*
X69400Y-17850D02*
X69100Y-18150D01*
X69100Y-18850D02*
X69400Y-19150D01*
X69400Y-18850D02*
X69100Y-19150D01*
X69100Y-19850D02*
X69400Y-20150D01*
X69400Y-19850D02*
X69100Y-20150D01*
X69100Y-20850D02*
X69400Y-21150D01*
X69400Y-20850D02*
X69100Y-21150D01*
X69100Y-21850D02*
X69400Y-22150D01*
X69400Y-21850D02*
X69100Y-22150D01*
X69100Y-24850D02*
X69400Y-25150D01*
X69400Y-24850D02*
X69100Y-25150D01*
X69100Y-25850D02*
X69400Y-26150D01*
X69400Y-25850D02*
X69100Y-26150D01*
X69100Y-26850D02*
X69400Y-27150D01*
X69400Y-26850D02*
X69100Y-27150D01*
X69100Y-27850D02*
X69400Y-28150D01*
X69400Y-27850D02*
X69100Y-28150D01*
X69100Y-28850D02*
X69400Y-29150D01*
X69400Y-28850D02*
X69100Y-29150D01*
X69100Y-29850D02*
X69400Y-30150D01*
X69400Y-29850D02*
X69100Y-30150D01*
X69100Y-30850D02*
X69400Y-31150D01*
X69400Y-30850D02*
X69100Y-31150D01*
X69100Y-31850D02*
X69400Y-32150D01*
X69400Y-31850D02*
X69100Y-32150D01*
X72100Y-14850D02*
X72400Y-15150D01*
X72400Y-14850D02*
X72100Y-15150D01*
X72100Y-15850D02*
X72400Y-16150D01*
X72400Y-15850D02*
X72100Y-16150D01*
X72100Y-16850D02*
X72400Y-17150D01*
X72400Y-16850D02*
X72100Y-17150D01*
X72100Y-17850D02*
X72400Y-18150D01*
X72400Y-17850D02*
X72100Y-18150D01*
X72100Y-18850D02*
X72400Y-19150D01*
X72400Y-18850D02*
X72100Y-19150D01*
X72100Y-19850D02*
X72400Y-20150D01*
X72400Y-19850D02*
X72100Y-20150D01*
X72100Y-20850D02*
X72400Y-21150D01*
X72400Y-20850D02*
X72100Y-21150D01*
X72100Y-21850D02*
X72400Y-22150D01*
X72400Y-21850D02*
X72100Y-22150D01*
X72100Y-24850D02*
X72400Y-25150D01*
X72400Y-24850D02*
X72100Y-25150D01*
X72100Y-25850D02*
X72400Y-26150D01*
X72400Y-25850D02*
X72100Y-26150D01*
X72100Y-26850D02*
X72400Y-27150D01*
X72400Y-26850D02*
X72100Y-27150D01*
X72100Y-27850D02*
X72400Y-28150D01*
X72400Y-27850D02*
X72100Y-28150D01*
X72100Y-28850D02*
X72400Y-29150D01*
X72400Y-28850D02*
X72100Y-29150D01*
X72100Y-29850D02*
X72400Y-30150D01*
X72400Y-29850D02*
X72100Y-30150D01*
X72100Y-30850D02*
X72400Y-31150D01*
X72400Y-30850D02*
X72100Y-31150D01*
X72100Y-31850D02*
X72400Y-32150D01*
X72400Y-31850D02*
X72100Y-32150D01*
X57910Y-15000D02*
X57906Y-15031D01*
X57897Y-15060D01*
X57883Y-15088D01*
X57863Y-15112D01*
X57839Y-15132D01*
X57812Y-15147D01*
X57782Y-15156D01*
X57751Y-15159D01*
X57721Y-15157D01*
X57691Y-15148D01*
X57663Y-15133D01*
X57639Y-15114D01*
X57618Y-15090D01*
X57603Y-15063D01*
X57594Y-15033D01*
X57591Y-15002D01*
X57593Y-14972D01*
X57602Y-14942D01*
X57616Y-14914D01*
X57635Y-14889D01*
X57659Y-14869D01*
X57686Y-14854D01*
X57716Y-14844D01*
X57747Y-14841D01*
X57777Y-14843D01*
X57807Y-14851D01*
X57835Y-14865D01*
X57860Y-14885D01*
X57880Y-14908D01*
X57896Y-14935D01*
X57906Y-14965D01*
X57909Y-14996D01*
X57910Y-15000D01*
X57910Y-16000D02*
X57906Y-16031D01*
X57897Y-16060D01*
X57883Y-16088D01*
X57863Y-16112D01*
X57839Y-16132D01*
X57812Y-16147D01*
X57782Y-16156D01*
X57751Y-16159D01*
X57721Y-16157D01*
X57691Y-16148D01*
X57663Y-16133D01*
X57639Y-16114D01*
X57618Y-16090D01*
X57603Y-16063D01*
X57594Y-16033D01*
X57591Y-16002D01*
X57593Y-15972D01*
X57602Y-15942D01*
X57616Y-15914D01*
X57635Y-15889D01*
X57659Y-15869D01*
X57686Y-15854D01*
X57716Y-15844D01*
X57747Y-15841D01*
X57777Y-15843D01*
X57807Y-15851D01*
X57835Y-15865D01*
X57860Y-15885D01*
X57880Y-15908D01*
X57896Y-15935D01*
X57906Y-15965D01*
X57909Y-15996D01*
X57910Y-16000D01*
X57910Y-17000D02*
X57906Y-17031D01*
X57897Y-17060D01*
X57883Y-17088D01*
X57863Y-17112D01*
X57839Y-17132D01*
X57812Y-17147D01*
X57782Y-17156D01*
X57751Y-17159D01*
X57721Y-17157D01*
X57691Y-17148D01*
X57663Y-17133D01*
X57639Y-17114D01*
X57618Y-17090D01*
X57603Y-17063D01*
X57594Y-17033D01*
X57591Y-17002D01*
X57593Y-16972D01*
X57602Y-16942D01*
X57616Y-16914D01*
X57635Y-16889D01*
X57659Y-16869D01*
X57686Y-16854D01*
X57716Y-16844D01*
X57747Y-16841D01*
X57777Y-16843D01*
X57807Y-16851D01*
X57835Y-16865D01*
X57860Y-16885D01*
X57880Y-16908D01*
X57896Y-16935D01*
X57906Y-16965D01*
X57909Y-16996D01*
X57910Y-17000D01*
X57910Y-18000D02*
X57906Y-18031D01*
X57897Y-18060D01*
X57883Y-18088D01*
X57863Y-18112D01*
X57839Y-18132D01*
X57812Y-18147D01*
X57782Y-18156D01*
X57751Y-18159D01*
X57721Y-18157D01*
X57691Y-18148D01*
X57663Y-18133D01*
X57639Y-18114D01*
X57618Y-18090D01*
X57603Y-18063D01*
X57594Y-18033D01*
X57591Y-18002D01*
X57593Y-17972D01*
X57602Y-17942D01*
X57616Y-17914D01*
X57635Y-17889D01*
X57659Y-17869D01*
X57686Y-17854D01*
X57716Y-17844D01*
X57747Y-17841D01*
X57777Y-17843D01*
X57807Y-17851D01*
X57835Y-17865D01*
X57860Y-17885D01*
X57880Y-17908D01*
X57896Y-17935D01*
X57906Y-17965D01*
X57909Y-17996D01*
X57910Y-18000D01*
X57910Y-19000D02*
X57906Y-19031D01*
X57897Y-19060D01*
X57883Y-19088D01*
X57863Y-19112D01*
X57839Y-19132D01*
X57812Y-19147D01*
X57782Y-19156D01*
X57751Y-19159D01*
X57721Y-19157D01*
X57691Y-19148D01*
X57663Y-19133D01*
X57639Y-19114D01*
X57618Y-19090D01*
X57603Y-19063D01*
X57594Y-19033D01*
X57591Y-19002D01*
X57593Y-18972D01*
X57602Y-18942D01*
X57616Y-18914D01*
X57635Y-18889D01*
X57659Y-18869D01*
X57686Y-18854D01*
X57716Y-18844D01*
X57747Y-18841D01*
X57777Y-18843D01*
X57807Y-18851D01*
X57835Y-18865D01*
X57860Y-18885D01*
X57880Y-18908D01*
X57896Y-18935D01*
X57906Y-18965D01*
X57909Y-18996D01*
X57910Y-19000D01*
X57910Y-20000D02*
X57906Y-20031D01*
X57897Y-20060D01*
X57883Y-20088D01*
X57863Y-20112D01*
X57839Y-20132D01*
X57812Y-20147D01*
X57782Y-20156D01*
X57751Y-20159D01*
X57721Y-20157D01*
X57691Y-20148D01*
X57663Y-20133D01*
X57639Y-20114D01*
X57618Y-20090D01*
X57603Y-20063D01*
X57594Y-20033D01*
X57591Y-20002D01*
X57593Y-19972D01*
X57602Y-19942D01*
X57616Y-19914D01*
X57635Y-19889D01*
X57659Y-19869D01*
X57686Y-19854D01*
X57716Y-19844D01*
X57747Y-19841D01*
X57777Y-19843D01*
X57807Y-19851D01*
X57835Y-19865D01*
X57860Y-19885D01*
X57880Y-19908D01*
X57896Y-19935D01*
X57906Y-19965D01*
X57909Y-19996D01*
X57910Y-20000D01*
X57910Y-21000D02*
X57906Y-21031D01*
X57897Y-21060D01*
X57883Y-21088D01*
X57863Y-21112D01*
X57839Y-21132D01*
X57812Y-21147D01*
X57782Y-21156D01*
X57751Y-21159D01*
X57721Y-21157D01*
X57691Y-21148D01*
X57663Y-21133D01*
X57639Y-21114D01*
X57618Y-21090D01*
X57603Y-21063D01*
X57594Y-21033D01*
X57591Y-21002D01*
X57593Y-20972D01*
X57602Y-20942D01*
X57616Y-20914D01*
X57635Y-20889D01*
X57659Y-20869D01*
X57686Y-20854D01*
X57716Y-20844D01*
X57747Y-20841D01*
X57777Y-20843D01*
X57807Y-20851D01*
X57835Y-20865D01*
X57860Y-20885D01*
X57880Y-20908D01*
X57896Y-20935D01*
X57906Y-20965D01*
X57909Y-20996D01*
X57910Y-21000D01*
X57910Y-22000D02*
X57906Y-22031D01*
X57897Y-22060D01*
X57883Y-22088D01*
X57863Y-22112D01*
X57839Y-22132D01*
X57812Y-22147D01*
X57782Y-22156D01*
X57751Y-22159D01*
X57721Y-22157D01*
X57691Y-22148D01*
X57663Y-22133D01*
X57639Y-22114D01*
X57618Y-22090D01*
X57603Y-22063D01*
X57594Y-22033D01*
X57591Y-22002D01*
X57593Y-21972D01*
X57602Y-21942D01*
X57616Y-21914D01*
X57635Y-21889D01*
X57659Y-21869D01*
X57686Y-21854D01*
X57716Y-21844D01*
X57747Y-21841D01*
X57777Y-21843D01*
X57807Y-21851D01*
X57835Y-21865D01*
X57860Y-21885D01*
X57880Y-21908D01*
X57896Y-21935D01*
X57906Y-21965D01*
X57909Y-21996D01*
X57910Y-22000D01*
X57910Y-23000D02*
X57906Y-23031D01*
X57897Y-23060D01*
X57883Y-23088D01*
X57863Y-23112D01*
X57839Y-23132D01*
X57812Y-23147D01*
X57782Y-23156D01*
X57751Y-23159D01*
X57721Y-23157D01*
X57691Y-23148D01*
X57663Y-23133D01*
X57639Y-23114D01*
X57618Y-23090D01*
X57603Y-23063D01*
X57594Y-23033D01*
X57591Y-23002D01*
X57593Y-22972D01*
X57602Y-22942D01*
X57616Y-22914D01*
X57635Y-22889D01*
X57659Y-22869D01*
X57686Y-22854D01*
X57716Y-22844D01*
X57747Y-22841D01*
X57777Y-22843D01*
X57807Y-22851D01*
X57835Y-22865D01*
X57860Y-22885D01*
X57880Y-22908D01*
X57896Y-22935D01*
X57906Y-22965D01*
X57909Y-22996D01*
X57910Y-23000D01*
X57910Y-24000D02*
X57906Y-24031D01*
X57897Y-24060D01*
X57883Y-24088D01*
X57863Y-24112D01*
X57839Y-24132D01*
X57812Y-24147D01*
X57782Y-24156D01*
X57751Y-24159D01*
X57721Y-24157D01*
X57691Y-24148D01*
X57663Y-24133D01*
X57639Y-24114D01*
X57618Y-24090D01*
X57603Y-24063D01*
X57594Y-24033D01*
X57591Y-24002D01*
X57593Y-23972D01*
X57602Y-23942D01*
X57616Y-23914D01*
X57635Y-23889D01*
X57659Y-23869D01*
X57686Y-23854D01*
X57716Y-23844D01*
X57747Y-23841D01*
X57777Y-23843D01*
X57807Y-23851D01*
X57835Y-23865D01*
X57860Y-23885D01*
X57880Y-23908D01*
X57896Y-23935D01*
X57906Y-23965D01*
X57909Y-23996D01*
X57910Y-24000D01*
X57910Y-25000D02*
X57906Y-25031D01*
X57897Y-25060D01*
X57883Y-25088D01*
X57863Y-25112D01*
X57839Y-25132D01*
X57812Y-25147D01*
X57782Y-25156D01*
X57751Y-25159D01*
X57721Y-25157D01*
X57691Y-25148D01*
X57663Y-25133D01*
X57639Y-25114D01*
X57618Y-25090D01*
X57603Y-25063D01*
X57594Y-25033D01*
X57591Y-25002D01*
X57593Y-24972D01*
X57602Y-24942D01*
X57616Y-24914D01*
X57635Y-24889D01*
X57659Y-24869D01*
X57686Y-24854D01*
X57716Y-24844D01*
X57747Y-24841D01*
X57777Y-24843D01*
X57807Y-24851D01*
X57835Y-24865D01*
X57860Y-24885D01*
X57880Y-24908D01*
X57896Y-24935D01*
X57906Y-24965D01*
X57909Y-24996D01*
X57910Y-25000D01*
X57910Y-26000D02*
X57906Y-26031D01*
X57897Y-26060D01*
X57883Y-26088D01*
X57863Y-26112D01*
X57839Y-26132D01*
X57812Y-26147D01*
X57782Y-26156D01*
X57751Y-26159D01*
X57721Y-26157D01*
X57691Y-26148D01*
X57663Y-26133D01*
X57639Y-26114D01*
X57618Y-26090D01*
X57603Y-26063D01*
X57594Y-26033D01*
X57591Y-26002D01*
X57593Y-25972D01*
X57602Y-25942D01*
X57616Y-25914D01*
X57635Y-25889D01*
X57659Y-25869D01*
X57686Y-25854D01*
X57716Y-25844D01*
X57747Y-25841D01*
X57777Y-25843D01*
X57807Y-25851D01*
X57835Y-25865D01*
X57860Y-25885D01*
X57880Y-25908D01*
X57896Y-25935D01*
X57906Y-25965D01*
X57909Y-25996D01*
X57910Y-26000D01*
X57910Y-27000D02*
X57906Y-27031D01*
X57897Y-27060D01*
X57883Y-27088D01*
X57863Y-27112D01*
X57839Y-27132D01*
X57812Y-27147D01*
X57782Y-27156D01*
X57751Y-27159D01*
X57721Y-27157D01*
X57691Y-27148D01*
X57663Y-27133D01*
X57639Y-27114D01*
X57618Y-27090D01*
X57603Y-27063D01*
X57594Y-27033D01*
X57591Y-27002D01*
X57593Y-26972D01*
X57602Y-26942D01*
X57616Y-26914D01*
X57635Y-26889D01*
X57659Y-26869D01*
X57686Y-26854D01*
X57716Y-26844D01*
X57747Y-26841D01*
X57777Y-26843D01*
X57807Y-26851D01*
X57835Y-26865D01*
X57860Y-26885D01*
X57880Y-26908D01*
X57896Y-26935D01*
X57906Y-26965D01*
X57909Y-26996D01*
X57910Y-27000D01*
X57910Y-28000D02*
X57906Y-28031D01*
X57897Y-28060D01*
X57883Y-28088D01*
X57863Y-28112D01*
X57839Y-28132D01*
X57812Y-28147D01*
X57782Y-28156D01*
X57751Y-28159D01*
X57721Y-28157D01*
X57691Y-28148D01*
X57663Y-28133D01*
X57639Y-28114D01*
X57618Y-28090D01*
X57603Y-28063D01*
X57594Y-28033D01*
X57591Y-28002D01*
X57593Y-27972D01*
X57602Y-27942D01*
X57616Y-27914D01*
X57635Y-27889D01*
X57659Y-27869D01*
X57686Y-27854D01*
X57716Y-27844D01*
X57747Y-27841D01*
X57777Y-27843D01*
X57807Y-27851D01*
X57835Y-27865D01*
X57860Y-27885D01*
X57880Y-27908D01*
X57896Y-27935D01*
X57906Y-27965D01*
X57909Y-27996D01*
X57910Y-28000D01*
X57910Y-29000D02*
X57906Y-29031D01*
X57897Y-29060D01*
X57883Y-29088D01*
X57863Y-29112D01*
X57839Y-29132D01*
X57812Y-29147D01*
X57782Y-29156D01*
X57751Y-29159D01*
X57721Y-29157D01*
X57691Y-29148D01*
X57663Y-29133D01*
X57639Y-29114D01*
X57618Y-29090D01*
X57603Y-29063D01*
X57594Y-29033D01*
X57591Y-29002D01*
X57593Y-28972D01*
X57602Y-28942D01*
X57616Y-28914D01*
X57635Y-28889D01*
X57659Y-28869D01*
X57686Y-28854D01*
X57716Y-28844D01*
X57747Y-28841D01*
X57777Y-28843D01*
X57807Y-28851D01*
X57835Y-28865D01*
X57860Y-28885D01*
X57880Y-28908D01*
X57896Y-28935D01*
X57906Y-28965D01*
X57909Y-28996D01*
X57910Y-29000D01*
X57910Y-30000D02*
X57906Y-30031D01*
X57897Y-30060D01*
X57883Y-30088D01*
X57863Y-30112D01*
X57839Y-30132D01*
X57812Y-30147D01*
X57782Y-30156D01*
X57751Y-30159D01*
X57721Y-30157D01*
X57691Y-30148D01*
X57663Y-30133D01*
X57639Y-30114D01*
X57618Y-30090D01*
X57603Y-30063D01*
X57594Y-30033D01*
X57591Y-30002D01*
X57593Y-29972D01*
X57602Y-29942D01*
X57616Y-29914D01*
X57635Y-29889D01*
X57659Y-29869D01*
X57686Y-29854D01*
X57716Y-29844D01*
X57747Y-29841D01*
X57777Y-29843D01*
X57807Y-29851D01*
X57835Y-29865D01*
X57860Y-29885D01*
X57880Y-29908D01*
X57896Y-29935D01*
X57906Y-29965D01*
X57909Y-29996D01*
X57910Y-30000D01*
X57910Y-31000D02*
X57906Y-31031D01*
X57897Y-31060D01*
X57883Y-31088D01*
X57863Y-31112D01*
X57839Y-31132D01*
X57812Y-31147D01*
X57782Y-31156D01*
X57751Y-31159D01*
X57721Y-31157D01*
X57691Y-31148D01*
X57663Y-31133D01*
X57639Y-31114D01*
X57618Y-31090D01*
X57603Y-31063D01*
X57594Y-31033D01*
X57591Y-31002D01*
X57593Y-30972D01*
X57602Y-30942D01*
X57616Y-30914D01*
X57635Y-30889D01*
X57659Y-30869D01*
X57686Y-30854D01*
X57716Y-30844D01*
X57747Y-30841D01*
X57777Y-30843D01*
X57807Y-30851D01*
X57835Y-30865D01*
X57860Y-30885D01*
X57880Y-30908D01*
X57896Y-30935D01*
X57906Y-30965D01*
X57909Y-30996D01*
X57910Y-31000D01*
X57910Y-32000D02*
X57906Y-32031D01*
X57897Y-32060D01*
X57883Y-32088D01*
X57863Y-32112D01*
X57839Y-32132D01*
X57812Y-32147D01*
X57782Y-32156D01*
X57751Y-32159D01*
X57721Y-32157D01*
X57691Y-32148D01*
X57663Y-32133D01*
X57639Y-32114D01*
X57618Y-32090D01*
X57603Y-32063D01*
X57594Y-32033D01*
X57591Y-32002D01*
X57593Y-31972D01*
X57602Y-31942D01*
X57616Y-31914D01*
X57635Y-31889D01*
X57659Y-31869D01*
X57686Y-31854D01*
X57716Y-31844D01*
X57747Y-31841D01*
X57777Y-31843D01*
X57807Y-31851D01*
X57835Y-31865D01*
X57860Y-31885D01*
X57880Y-31908D01*
X57896Y-31935D01*
X57906Y-31965D01*
X57909Y-31996D01*
X57910Y-32000D01*
X63910Y-14750D02*
X63906Y-14781D01*
X63897Y-14810D01*
X63883Y-14838D01*
X63863Y-14862D01*
X63839Y-14882D01*
X63812Y-14897D01*
X63782Y-14906D01*
X63751Y-14909D01*
X63721Y-14907D01*
X63691Y-14898D01*
X63663Y-14883D01*
X63639Y-14864D01*
X63618Y-14840D01*
X63603Y-14813D01*
X63594Y-14783D01*
X63591Y-14752D01*
X63593Y-14722D01*
X63602Y-14692D01*
X63616Y-14664D01*
X63635Y-14639D01*
X63659Y-14619D01*
X63686Y-14604D01*
X63716Y-14594D01*
X63747Y-14591D01*
X63777Y-14593D01*
X63807Y-14601D01*
X63835Y-14615D01*
X63860Y-14635D01*
X63880Y-14658D01*
X63896Y-14685D01*
X63906Y-14715D01*
X63909Y-14746D01*
X63910Y-14750D01*
X63910Y-15750D02*
X63906Y-15781D01*
X63897Y-15810D01*
X63883Y-15838D01*
X63863Y-15862D01*
X63839Y-15882D01*
X63812Y-15897D01*
X63782Y-15906D01*
X63751Y-15909D01*
X63721Y-15907D01*
X63691Y-15898D01*
X63663Y-15883D01*
X63639Y-15864D01*
X63618Y-15840D01*
X63603Y-15813D01*
X63594Y-15783D01*
X63591Y-15752D01*
X63593Y-15722D01*
X63602Y-15692D01*
X63616Y-15664D01*
X63635Y-15639D01*
X63659Y-15619D01*
X63686Y-15604D01*
X63716Y-15594D01*
X63747Y-15591D01*
X63777Y-15593D01*
X63807Y-15601D01*
X63835Y-15615D01*
X63860Y-15635D01*
X63880Y-15658D01*
X63896Y-15685D01*
X63906Y-15715D01*
X63909Y-15746D01*
X63910Y-15750D01*
X63910Y-16750D02*
X63906Y-16781D01*
X63897Y-16810D01*
X63883Y-16838D01*
X63863Y-16862D01*
X63839Y-16882D01*
X63812Y-16897D01*
X63782Y-16906D01*
X63751Y-16909D01*
X63721Y-16907D01*
X63691Y-16898D01*
X63663Y-16883D01*
X63639Y-16864D01*
X63618Y-16840D01*
X63603Y-16813D01*
X63594Y-16783D01*
X63591Y-16752D01*
X63593Y-16722D01*
X63602Y-16692D01*
X63616Y-16664D01*
X63635Y-16639D01*
X63659Y-16619D01*
X63686Y-16604D01*
X63716Y-16594D01*
X63747Y-16591D01*
X63777Y-16593D01*
X63807Y-16601D01*
X63835Y-16615D01*
X63860Y-16635D01*
X63880Y-16658D01*
X63896Y-16685D01*
X63906Y-16715D01*
X63909Y-16746D01*
X63910Y-16750D01*
X63910Y-17750D02*
X63906Y-17781D01*
X63897Y-17810D01*
X63883Y-17838D01*
X63863Y-17862D01*
X63839Y-17882D01*
X63812Y-17897D01*
X63782Y-17906D01*
X63751Y-17909D01*
X63721Y-17907D01*
X63691Y-17898D01*
X63663Y-17883D01*
X63639Y-17864D01*
X63618Y-17840D01*
X63603Y-17813D01*
X63594Y-17783D01*
X63591Y-17752D01*
X63593Y-17722D01*
X63602Y-17692D01*
X63616Y-17664D01*
X63635Y-17639D01*
X63659Y-17619D01*
X63686Y-17604D01*
X63716Y-17594D01*
X63747Y-17591D01*
X63777Y-17593D01*
X63807Y-17601D01*
X63835Y-17615D01*
X63860Y-17635D01*
X63880Y-17658D01*
X63896Y-17685D01*
X63906Y-17715D01*
X63909Y-17746D01*
X63910Y-17750D01*
X63910Y-18750D02*
X63906Y-18781D01*
X63897Y-18810D01*
X63883Y-18838D01*
X63863Y-18862D01*
X63839Y-18882D01*
X63812Y-18897D01*
X63782Y-18906D01*
X63751Y-18909D01*
X63721Y-18907D01*
X63691Y-18898D01*
X63663Y-18883D01*
X63639Y-18864D01*
X63618Y-18840D01*
X63603Y-18813D01*
X63594Y-18783D01*
X63591Y-18752D01*
X63593Y-18722D01*
X63602Y-18692D01*
X63616Y-18664D01*
X63635Y-18639D01*
X63659Y-18619D01*
X63686Y-18604D01*
X63716Y-18594D01*
X63747Y-18591D01*
X63777Y-18593D01*
X63807Y-18601D01*
X63835Y-18615D01*
X63860Y-18635D01*
X63880Y-18658D01*
X63896Y-18685D01*
X63906Y-18715D01*
X63909Y-18746D01*
X63910Y-18750D01*
X63910Y-19750D02*
X63906Y-19781D01*
X63897Y-19810D01*
X63883Y-19838D01*
X63863Y-19862D01*
X63839Y-19882D01*
X63812Y-19897D01*
X63782Y-19906D01*
X63751Y-19909D01*
X63721Y-19907D01*
X63691Y-19898D01*
X63663Y-19883D01*
X63639Y-19864D01*
X63618Y-19840D01*
X63603Y-19813D01*
X63594Y-19783D01*
X63591Y-19752D01*
X63593Y-19722D01*
X63602Y-19692D01*
X63616Y-19664D01*
X63635Y-19639D01*
X63659Y-19619D01*
X63686Y-19604D01*
X63716Y-19594D01*
X63747Y-19591D01*
X63777Y-19593D01*
X63807Y-19601D01*
X63835Y-19615D01*
X63860Y-19635D01*
X63880Y-19658D01*
X63896Y-19685D01*
X63906Y-19715D01*
X63909Y-19746D01*
X63910Y-19750D01*
X63910Y-20750D02*
X63906Y-20781D01*
X63897Y-20810D01*
X63883Y-20838D01*
X63863Y-20862D01*
X63839Y-20882D01*
X63812Y-20897D01*
X63782Y-20906D01*
X63751Y-20909D01*
X63721Y-20907D01*
X63691Y-20898D01*
X63663Y-20883D01*
X63639Y-20864D01*
X63618Y-20840D01*
X63603Y-20813D01*
X63594Y-20783D01*
X63591Y-20752D01*
X63593Y-20722D01*
X63602Y-20692D01*
X63616Y-20664D01*
X63635Y-20639D01*
X63659Y-20619D01*
X63686Y-20604D01*
X63716Y-20594D01*
X63747Y-20591D01*
X63777Y-20593D01*
X63807Y-20601D01*
X63835Y-20615D01*
X63860Y-20635D01*
X63880Y-20658D01*
X63896Y-20685D01*
X63906Y-20715D01*
X63909Y-20746D01*
X63910Y-20750D01*
X63910Y-21750D02*
X63906Y-21781D01*
X63897Y-21810D01*
X63883Y-21838D01*
X63863Y-21862D01*
X63839Y-21882D01*
X63812Y-21897D01*
X63782Y-21906D01*
X63751Y-21909D01*
X63721Y-21907D01*
X63691Y-21898D01*
X63663Y-21883D01*
X63639Y-21864D01*
X63618Y-21840D01*
X63603Y-21813D01*
X63594Y-21783D01*
X63591Y-21752D01*
X63593Y-21722D01*
X63602Y-21692D01*
X63616Y-21664D01*
X63635Y-21639D01*
X63659Y-21619D01*
X63686Y-21604D01*
X63716Y-21594D01*
X63747Y-21591D01*
X63777Y-21593D01*
X63807Y-21601D01*
X63835Y-21615D01*
X63860Y-21635D01*
X63880Y-21658D01*
X63896Y-21685D01*
X63906Y-21715D01*
X63909Y-21746D01*
X63910Y-21750D01*
X63910Y-22750D02*
X63906Y-22781D01*
X63897Y-22810D01*
X63883Y-22838D01*
X63863Y-22862D01*
X63839Y-22882D01*
X63812Y-22897D01*
X63782Y-22906D01*
X63751Y-22909D01*
X63721Y-22907D01*
X63691Y-22898D01*
X63663Y-22883D01*
X63639Y-22864D01*
X63618Y-22840D01*
X63603Y-22813D01*
X63594Y-22783D01*
X63591Y-22752D01*
X63593Y-22722D01*
X63602Y-22692D01*
X63616Y-22664D01*
X63635Y-22639D01*
X63659Y-22619D01*
X63686Y-22604D01*
X63716Y-22594D01*
X63747Y-22591D01*
X63777Y-22593D01*
X63807Y-22601D01*
X63835Y-22615D01*
X63860Y-22635D01*
X63880Y-22658D01*
X63896Y-22685D01*
X63906Y-22715D01*
X63909Y-22746D01*
X63910Y-22750D01*
X63910Y-24250D02*
X63906Y-24281D01*
X63897Y-24310D01*
X63883Y-24338D01*
X63863Y-24362D01*
X63839Y-24382D01*
X63812Y-24397D01*
X63782Y-24406D01*
X63751Y-24409D01*
X63721Y-24407D01*
X63691Y-24398D01*
X63663Y-24383D01*
X63639Y-24364D01*
X63618Y-24340D01*
X63603Y-24313D01*
X63594Y-24283D01*
X63591Y-24252D01*
X63593Y-24222D01*
X63602Y-24192D01*
X63616Y-24164D01*
X63635Y-24139D01*
X63659Y-24119D01*
X63686Y-24104D01*
X63716Y-24094D01*
X63747Y-24091D01*
X63777Y-24093D01*
X63807Y-24101D01*
X63835Y-24115D01*
X63860Y-24135D01*
X63880Y-24158D01*
X63896Y-24185D01*
X63906Y-24215D01*
X63909Y-24246D01*
X63910Y-24250D01*
X63910Y-25250D02*
X63906Y-25281D01*
X63897Y-25310D01*
X63883Y-25338D01*
X63863Y-25362D01*
X63839Y-25382D01*
X63812Y-25397D01*
X63782Y-25406D01*
X63751Y-25409D01*
X63721Y-25407D01*
X63691Y-25398D01*
X63663Y-25383D01*
X63639Y-25364D01*
X63618Y-25340D01*
X63603Y-25313D01*
X63594Y-25283D01*
X63591Y-25252D01*
X63593Y-25222D01*
X63602Y-25192D01*
X63616Y-25164D01*
X63635Y-25139D01*
X63659Y-25119D01*
X63686Y-25104D01*
X63716Y-25094D01*
X63747Y-25091D01*
X63777Y-25093D01*
X63807Y-25101D01*
X63835Y-25115D01*
X63860Y-25135D01*
X63880Y-25158D01*
X63896Y-25185D01*
X63906Y-25215D01*
X63909Y-25246D01*
X63910Y-25250D01*
X63910Y-26250D02*
X63906Y-26281D01*
X63897Y-26310D01*
X63883Y-26338D01*
X63863Y-26362D01*
X63839Y-26382D01*
X63812Y-26397D01*
X63782Y-26406D01*
X63751Y-26409D01*
X63721Y-26407D01*
X63691Y-26398D01*
X63663Y-26383D01*
X63639Y-26364D01*
X63618Y-26340D01*
X63603Y-26313D01*
X63594Y-26283D01*
X63591Y-26252D01*
X63593Y-26222D01*
X63602Y-26192D01*
X63616Y-26164D01*
X63635Y-26139D01*
X63659Y-26119D01*
X63686Y-26104D01*
X63716Y-26094D01*
X63747Y-26091D01*
X63777Y-26093D01*
X63807Y-26101D01*
X63835Y-26115D01*
X63860Y-26135D01*
X63880Y-26158D01*
X63896Y-26185D01*
X63906Y-26215D01*
X63909Y-26246D01*
X63910Y-26250D01*
X63910Y-27250D02*
X63906Y-27281D01*
X63897Y-27310D01*
X63883Y-27338D01*
X63863Y-27362D01*
X63839Y-27382D01*
X63812Y-27397D01*
X63782Y-27406D01*
X63751Y-27409D01*
X63721Y-27407D01*
X63691Y-27398D01*
X63663Y-27383D01*
X63639Y-27364D01*
X63618Y-27340D01*
X63603Y-27313D01*
X63594Y-27283D01*
X63591Y-27252D01*
X63593Y-27222D01*
X63602Y-27192D01*
X63616Y-27164D01*
X63635Y-27139D01*
X63659Y-27119D01*
X63686Y-27104D01*
X63716Y-27094D01*
X63747Y-27091D01*
X63777Y-27093D01*
X63807Y-27101D01*
X63835Y-27115D01*
X63860Y-27135D01*
X63880Y-27158D01*
X63896Y-27185D01*
X63906Y-27215D01*
X63909Y-27246D01*
X63910Y-27250D01*
X63910Y-28250D02*
X63906Y-28281D01*
X63897Y-28310D01*
X63883Y-28338D01*
X63863Y-28362D01*
X63839Y-28382D01*
X63812Y-28397D01*
X63782Y-28406D01*
X63751Y-28409D01*
X63721Y-28407D01*
X63691Y-28398D01*
X63663Y-28383D01*
X63639Y-28364D01*
X63618Y-28340D01*
X63603Y-28313D01*
X63594Y-28283D01*
X63591Y-28252D01*
X63593Y-28222D01*
X63602Y-28192D01*
X63616Y-28164D01*
X63635Y-28139D01*
X63659Y-28119D01*
X63686Y-28104D01*
X63716Y-28094D01*
X63747Y-28091D01*
X63777Y-28093D01*
X63807Y-28101D01*
X63835Y-28115D01*
X63860Y-28135D01*
X63880Y-28158D01*
X63896Y-28185D01*
X63906Y-28215D01*
X63909Y-28246D01*
X63910Y-28250D01*
X63910Y-29250D02*
X63906Y-29281D01*
X63897Y-29310D01*
X63883Y-29338D01*
X63863Y-29362D01*
X63839Y-29382D01*
X63812Y-29397D01*
X63782Y-29406D01*
X63751Y-29409D01*
X63721Y-29407D01*
X63691Y-29398D01*
X63663Y-29383D01*
X63639Y-29364D01*
X63618Y-29340D01*
X63603Y-29313D01*
X63594Y-29283D01*
X63591Y-29252D01*
X63593Y-29222D01*
X63602Y-29192D01*
X63616Y-29164D01*
X63635Y-29139D01*
X63659Y-29119D01*
X63686Y-29104D01*
X63716Y-29094D01*
X63747Y-29091D01*
X63777Y-29093D01*
X63807Y-29101D01*
X63835Y-29115D01*
X63860Y-29135D01*
X63880Y-29158D01*
X63896Y-29185D01*
X63906Y-29215D01*
X63909Y-29246D01*
X63910Y-29250D01*
X63910Y-30250D02*
X63906Y-30281D01*
X63897Y-30310D01*
X63883Y-30338D01*
X63863Y-30362D01*
X63839Y-30382D01*
X63812Y-30397D01*
X63782Y-30406D01*
X63751Y-30409D01*
X63721Y-30407D01*
X63691Y-30398D01*
X63663Y-30383D01*
X63639Y-30364D01*
X63618Y-30340D01*
X63603Y-30313D01*
X63594Y-30283D01*
X63591Y-30252D01*
X63593Y-30222D01*
X63602Y-30192D01*
X63616Y-30164D01*
X63635Y-30139D01*
X63659Y-30119D01*
X63686Y-30104D01*
X63716Y-30094D01*
X63747Y-30091D01*
X63777Y-30093D01*
X63807Y-30101D01*
X63835Y-30115D01*
X63860Y-30135D01*
X63880Y-30158D01*
X63896Y-30185D01*
X63906Y-30215D01*
X63909Y-30246D01*
X63910Y-30250D01*
X63910Y-31250D02*
X63906Y-31281D01*
X63897Y-31310D01*
X63883Y-31338D01*
X63863Y-31362D01*
X63839Y-31382D01*
X63812Y-31397D01*
X63782Y-31406D01*
X63751Y-31409D01*
X63721Y-31407D01*
X63691Y-31398D01*
X63663Y-31383D01*
X63639Y-31364D01*
X63618Y-31340D01*
X63603Y-31313D01*
X63594Y-31283D01*
X63591Y-31252D01*
X63593Y-31222D01*
X63602Y-31192D01*
X63616Y-31164D01*
X63635Y-31139D01*
X63659Y-31119D01*
X63686Y-31104D01*
X63716Y-31094D01*
X63747Y-31091D01*
X63777Y-31093D01*
X63807Y-31101D01*
X63835Y-31115D01*
X63860Y-31135D01*
X63880Y-31158D01*
X63896Y-31185D01*
X63906Y-31215D01*
X63909Y-31246D01*
X63910Y-31250D01*
X63910Y-32250D02*
X63906Y-32281D01*
X63897Y-32310D01*
X63883Y-32338D01*
X63863Y-32362D01*
X63839Y-32382D01*
X63812Y-32397D01*
X63782Y-32406D01*
X63751Y-32409D01*
X63721Y-32407D01*
X63691Y-32398D01*
X63663Y-32383D01*
X63639Y-32364D01*
X63618Y-32340D01*
X63603Y-32313D01*
X63594Y-32283D01*
X63591Y-32252D01*
X63593Y-32222D01*
X63602Y-32192D01*
X63616Y-32164D01*
X63635Y-32139D01*
X63659Y-32119D01*
X63686Y-32104D01*
X63716Y-32094D01*
X63747Y-32091D01*
X63777Y-32093D01*
X63807Y-32101D01*
X63835Y-32115D01*
X63860Y-32135D01*
X63880Y-32158D01*
X63896Y-32185D01*
X63906Y-32215D01*
X63909Y-32246D01*
X63910Y-32250D01*
X65910Y-14750D02*
X65906Y-14781D01*
X65897Y-14810D01*
X65883Y-14838D01*
X65863Y-14862D01*
X65839Y-14882D01*
X65812Y-14897D01*
X65782Y-14906D01*
X65751Y-14909D01*
X65721Y-14907D01*
X65691Y-14898D01*
X65663Y-14883D01*
X65639Y-14864D01*
X65618Y-14840D01*
X65603Y-14813D01*
X65594Y-14783D01*
X65591Y-14752D01*
X65593Y-14722D01*
X65602Y-14692D01*
X65616Y-14664D01*
X65635Y-14639D01*
X65659Y-14619D01*
X65686Y-14604D01*
X65716Y-14594D01*
X65747Y-14591D01*
X65777Y-14593D01*
X65807Y-14601D01*
X65835Y-14615D01*
X65860Y-14635D01*
X65880Y-14658D01*
X65896Y-14685D01*
X65906Y-14715D01*
X65909Y-14746D01*
X65910Y-14750D01*
X65910Y-15750D02*
X65906Y-15781D01*
X65897Y-15810D01*
X65883Y-15838D01*
X65863Y-15862D01*
X65839Y-15882D01*
X65812Y-15897D01*
X65782Y-15906D01*
X65751Y-15909D01*
X65721Y-15907D01*
X65691Y-15898D01*
X65663Y-15883D01*
X65639Y-15864D01*
X65618Y-15840D01*
X65603Y-15813D01*
X65594Y-15783D01*
X65591Y-15752D01*
X65593Y-15722D01*
X65602Y-15692D01*
X65616Y-15664D01*
X65635Y-15639D01*
X65659Y-15619D01*
X65686Y-15604D01*
X65716Y-15594D01*
X65747Y-15591D01*
X65777Y-15593D01*
X65807Y-15601D01*
X65835Y-15615D01*
X65860Y-15635D01*
X65880Y-15658D01*
X65896Y-15685D01*
X65906Y-15715D01*
X65909Y-15746D01*
X65910Y-15750D01*
X65910Y-16750D02*
X65906Y-16781D01*
X65897Y-16810D01*
X65883Y-16838D01*
X65863Y-16862D01*
X65839Y-16882D01*
X65812Y-16897D01*
X65782Y-16906D01*
X65751Y-16909D01*
X65721Y-16907D01*
X65691Y-16898D01*
X65663Y-16883D01*
X65639Y-16864D01*
X65618Y-16840D01*
X65603Y-16813D01*
X65594Y-16783D01*
X65591Y-16752D01*
X65593Y-16722D01*
X65602Y-16692D01*
X65616Y-16664D01*
X65635Y-16639D01*
X65659Y-16619D01*
X65686Y-16604D01*
X65716Y-16594D01*
X65747Y-16591D01*
X65777Y-16593D01*
X65807Y-16601D01*
X65835Y-16615D01*
X65860Y-16635D01*
X65880Y-16658D01*
X65896Y-16685D01*
X65906Y-16715D01*
X65909Y-16746D01*
X65910Y-16750D01*
X65910Y-17750D02*
X65906Y-17781D01*
X65897Y-17810D01*
X65883Y-17838D01*
X65863Y-17862D01*
X65839Y-17882D01*
X65812Y-17897D01*
X65782Y-17906D01*
X65751Y-17909D01*
X65721Y-17907D01*
X65691Y-17898D01*
X65663Y-17883D01*
X65639Y-17864D01*
X65618Y-17840D01*
X65603Y-17813D01*
X65594Y-17783D01*
X65591Y-17752D01*
X65593Y-17722D01*
X65602Y-17692D01*
X65616Y-17664D01*
X65635Y-17639D01*
X65659Y-17619D01*
X65686Y-17604D01*
X65716Y-17594D01*
X65747Y-17591D01*
X65777Y-17593D01*
X65807Y-17601D01*
X65835Y-17615D01*
X65860Y-17635D01*
X65880Y-17658D01*
X65896Y-17685D01*
X65906Y-17715D01*
X65909Y-17746D01*
X65910Y-17750D01*
X67910Y-14750D02*
X67906Y-14781D01*
X67897Y-14810D01*
X67883Y-14838D01*
X67863Y-14862D01*
X67839Y-14882D01*
X67812Y-14897D01*
X67782Y-14906D01*
X67751Y-14909D01*
X67721Y-14907D01*
X67691Y-14898D01*
X67663Y-14883D01*
X67639Y-14864D01*
X67618Y-14840D01*
X67603Y-14813D01*
X67594Y-14783D01*
X67591Y-14752D01*
X67593Y-14722D01*
X67602Y-14692D01*
X67616Y-14664D01*
X67635Y-14639D01*
X67659Y-14619D01*
X67686Y-14604D01*
X67716Y-14594D01*
X67747Y-14591D01*
X67777Y-14593D01*
X67807Y-14601D01*
X67835Y-14615D01*
X67860Y-14635D01*
X67880Y-14658D01*
X67896Y-14685D01*
X67906Y-14715D01*
X67909Y-14746D01*
X67910Y-14750D01*
X67910Y-15750D02*
X67906Y-15781D01*
X67897Y-15810D01*
X67883Y-15838D01*
X67863Y-15862D01*
X67839Y-15882D01*
X67812Y-15897D01*
X67782Y-15906D01*
X67751Y-15909D01*
X67721Y-15907D01*
X67691Y-15898D01*
X67663Y-15883D01*
X67639Y-15864D01*
X67618Y-15840D01*
X67603Y-15813D01*
X67594Y-15783D01*
X67591Y-15752D01*
X67593Y-15722D01*
X67602Y-15692D01*
X67616Y-15664D01*
X67635Y-15639D01*
X67659Y-15619D01*
X67686Y-15604D01*
X67716Y-15594D01*
X67747Y-15591D01*
X67777Y-15593D01*
X67807Y-15601D01*
X67835Y-15615D01*
X67860Y-15635D01*
X67880Y-15658D01*
X67896Y-15685D01*
X67906Y-15715D01*
X67909Y-15746D01*
X67910Y-15750D01*
X67910Y-16750D02*
X67906Y-16781D01*
X67897Y-16810D01*
X67883Y-16838D01*
X67863Y-16862D01*
X67839Y-16882D01*
X67812Y-16897D01*
X67782Y-16906D01*
X67751Y-16909D01*
X67721Y-16907D01*
X67691Y-16898D01*
X67663Y-16883D01*
X67639Y-16864D01*
X67618Y-16840D01*
X67603Y-16813D01*
X67594Y-16783D01*
X67591Y-16752D01*
X67593Y-16722D01*
X67602Y-16692D01*
X67616Y-16664D01*
X67635Y-16639D01*
X67659Y-16619D01*
X67686Y-16604D01*
X67716Y-16594D01*
X67747Y-16591D01*
X67777Y-16593D01*
X67807Y-16601D01*
X67835Y-16615D01*
X67860Y-16635D01*
X67880Y-16658D01*
X67896Y-16685D01*
X67906Y-16715D01*
X67909Y-16746D01*
X67910Y-16750D01*
X67910Y-17750D02*
X67906Y-17781D01*
X67897Y-17810D01*
X67883Y-17838D01*
X67863Y-17862D01*
X67839Y-17882D01*
X67812Y-17897D01*
X67782Y-17906D01*
X67751Y-17909D01*
X67721Y-17907D01*
X67691Y-17898D01*
X67663Y-17883D01*
X67639Y-17864D01*
X67618Y-17840D01*
X67603Y-17813D01*
X67594Y-17783D01*
X67591Y-17752D01*
X67593Y-17722D01*
X67602Y-17692D01*
X67616Y-17664D01*
X67635Y-17639D01*
X67659Y-17619D01*
X67686Y-17604D01*
X67716Y-17594D01*
X67747Y-17591D01*
X67777Y-17593D01*
X67807Y-17601D01*
X67835Y-17615D01*
X67860Y-17635D01*
X67880Y-17658D01*
X67896Y-17685D01*
X67906Y-17715D01*
X67909Y-17746D01*
X67910Y-17750D01*
X67910Y-18750D02*
X67906Y-18781D01*
X67897Y-18810D01*
X67883Y-18838D01*
X67863Y-18862D01*
X67839Y-18882D01*
X67812Y-18897D01*
X67782Y-18906D01*
X67751Y-18909D01*
X67721Y-18907D01*
X67691Y-18898D01*
X67663Y-18883D01*
X67639Y-18864D01*
X67618Y-18840D01*
X67603Y-18813D01*
X67594Y-18783D01*
X67591Y-18752D01*
X67593Y-18722D01*
X67602Y-18692D01*
X67616Y-18664D01*
X67635Y-18639D01*
X67659Y-18619D01*
X67686Y-18604D01*
X67716Y-18594D01*
X67747Y-18591D01*
X67777Y-18593D01*
X67807Y-18601D01*
X67835Y-18615D01*
X67860Y-18635D01*
X67880Y-18658D01*
X67896Y-18685D01*
X67906Y-18715D01*
X67909Y-18746D01*
X67910Y-18750D01*
X67910Y-19750D02*
X67906Y-19781D01*
X67897Y-19810D01*
X67883Y-19838D01*
X67863Y-19862D01*
X67839Y-19882D01*
X67812Y-19897D01*
X67782Y-19906D01*
X67751Y-19909D01*
X67721Y-19907D01*
X67691Y-19898D01*
X67663Y-19883D01*
X67639Y-19864D01*
X67618Y-19840D01*
X67603Y-19813D01*
X67594Y-19783D01*
X67591Y-19752D01*
X67593Y-19722D01*
X67602Y-19692D01*
X67616Y-19664D01*
X67635Y-19639D01*
X67659Y-19619D01*
X67686Y-19604D01*
X67716Y-19594D01*
X67747Y-19591D01*
X67777Y-19593D01*
X67807Y-19601D01*
X67835Y-19615D01*
X67860Y-19635D01*
X67880Y-19658D01*
X67896Y-19685D01*
X67906Y-19715D01*
X67909Y-19746D01*
X67910Y-19750D01*
X67910Y-20750D02*
X67906Y-20781D01*
X67897Y-20810D01*
X67883Y-20838D01*
X67863Y-20862D01*
X67839Y-20882D01*
X67812Y-20897D01*
X67782Y-20906D01*
X67751Y-20909D01*
X67721Y-20907D01*
X67691Y-20898D01*
X67663Y-20883D01*
X67639Y-20864D01*
X67618Y-20840D01*
X67603Y-20813D01*
X67594Y-20783D01*
X67591Y-20752D01*
X67593Y-20722D01*
X67602Y-20692D01*
X67616Y-20664D01*
X67635Y-20639D01*
X67659Y-20619D01*
X67686Y-20604D01*
X67716Y-20594D01*
X67747Y-20591D01*
X67777Y-20593D01*
X67807Y-20601D01*
X67835Y-20615D01*
X67860Y-20635D01*
X67880Y-20658D01*
X67896Y-20685D01*
X67906Y-20715D01*
X67909Y-20746D01*
X67910Y-20750D01*
X67910Y-21750D02*
X67906Y-21781D01*
X67897Y-21810D01*
X67883Y-21838D01*
X67863Y-21862D01*
X67839Y-21882D01*
X67812Y-21897D01*
X67782Y-21906D01*
X67751Y-21909D01*
X67721Y-21907D01*
X67691Y-21898D01*
X67663Y-21883D01*
X67639Y-21864D01*
X67618Y-21840D01*
X67603Y-21813D01*
X67594Y-21783D01*
X67591Y-21752D01*
X67593Y-21722D01*
X67602Y-21692D01*
X67616Y-21664D01*
X67635Y-21639D01*
X67659Y-21619D01*
X67686Y-21604D01*
X67716Y-21594D01*
X67747Y-21591D01*
X67777Y-21593D01*
X67807Y-21601D01*
X67835Y-21615D01*
X67860Y-21635D01*
X67880Y-21658D01*
X67896Y-21685D01*
X67906Y-21715D01*
X67909Y-21746D01*
X67910Y-21750D01*
X67910Y-22750D02*
X67906Y-22781D01*
X67897Y-22810D01*
X67883Y-22838D01*
X67863Y-22862D01*
X67839Y-22882D01*
X67812Y-22897D01*
X67782Y-22906D01*
X67751Y-22909D01*
X67721Y-22907D01*
X67691Y-22898D01*
X67663Y-22883D01*
X67639Y-22864D01*
X67618Y-22840D01*
X67603Y-22813D01*
X67594Y-22783D01*
X67591Y-22752D01*
X67593Y-22722D01*
X67602Y-22692D01*
X67616Y-22664D01*
X67635Y-22639D01*
X67659Y-22619D01*
X67686Y-22604D01*
X67716Y-22594D01*
X67747Y-22591D01*
X67777Y-22593D01*
X67807Y-22601D01*
X67835Y-22615D01*
X67860Y-22635D01*
X67880Y-22658D01*
X67896Y-22685D01*
X67906Y-22715D01*
X67909Y-22746D01*
X67910Y-22750D01*
X67910Y-24250D02*
X67906Y-24281D01*
X67897Y-24310D01*
X67883Y-24338D01*
X67863Y-24362D01*
X67839Y-24382D01*
X67812Y-24397D01*
X67782Y-24406D01*
X67751Y-24409D01*
X67721Y-24407D01*
X67691Y-24398D01*
X67663Y-24383D01*
X67639Y-24364D01*
X67618Y-24340D01*
X67603Y-24313D01*
X67594Y-24283D01*
X67591Y-24252D01*
X67593Y-24222D01*
X67602Y-24192D01*
X67616Y-24164D01*
X67635Y-24139D01*
X67659Y-24119D01*
X67686Y-24104D01*
X67716Y-24094D01*
X67747Y-24091D01*
X67777Y-24093D01*
X67807Y-24101D01*
X67835Y-24115D01*
X67860Y-24135D01*
X67880Y-24158D01*
X67896Y-24185D01*
X67906Y-24215D01*
X67909Y-24246D01*
X67910Y-24250D01*
X67910Y-25250D02*
X67906Y-25281D01*
X67897Y-25310D01*
X67883Y-25338D01*
X67863Y-25362D01*
X67839Y-25382D01*
X67812Y-25397D01*
X67782Y-25406D01*
X67751Y-25409D01*
X67721Y-25407D01*
X67691Y-25398D01*
X67663Y-25383D01*
X67639Y-25364D01*
X67618Y-25340D01*
X67603Y-25313D01*
X67594Y-25283D01*
X67591Y-25252D01*
X67593Y-25222D01*
X67602Y-25192D01*
X67616Y-25164D01*
X67635Y-25139D01*
X67659Y-25119D01*
X67686Y-25104D01*
X67716Y-25094D01*
X67747Y-25091D01*
X67777Y-25093D01*
X67807Y-25101D01*
X67835Y-25115D01*
X67860Y-25135D01*
X67880Y-25158D01*
X67896Y-25185D01*
X67906Y-25215D01*
X67909Y-25246D01*
X67910Y-25250D01*
X67910Y-26250D02*
X67906Y-26281D01*
X67897Y-26310D01*
X67883Y-26338D01*
X67863Y-26362D01*
X67839Y-26382D01*
X67812Y-26397D01*
X67782Y-26406D01*
X67751Y-26409D01*
X67721Y-26407D01*
X67691Y-26398D01*
X67663Y-26383D01*
X67639Y-26364D01*
X67618Y-26340D01*
X67603Y-26313D01*
X67594Y-26283D01*
X67591Y-26252D01*
X67593Y-26222D01*
X67602Y-26192D01*
X67616Y-26164D01*
X67635Y-26139D01*
X67659Y-26119D01*
X67686Y-26104D01*
X67716Y-26094D01*
X67747Y-26091D01*
X67777Y-26093D01*
X67807Y-26101D01*
X67835Y-26115D01*
X67860Y-26135D01*
X67880Y-26158D01*
X67896Y-26185D01*
X67906Y-26215D01*
X67909Y-26246D01*
X67910Y-26250D01*
X67910Y-27250D02*
X67906Y-27281D01*
X67897Y-27310D01*
X67883Y-27338D01*
X67863Y-27362D01*
X67839Y-27382D01*
X67812Y-27397D01*
X67782Y-27406D01*
X67751Y-27409D01*
X67721Y-27407D01*
X67691Y-27398D01*
X67663Y-27383D01*
X67639Y-27364D01*
X67618Y-27340D01*
X67603Y-27313D01*
X67594Y-27283D01*
X67591Y-27252D01*
X67593Y-27222D01*
X67602Y-27192D01*
X67616Y-27164D01*
X67635Y-27139D01*
X67659Y-27119D01*
X67686Y-27104D01*
X67716Y-27094D01*
X67747Y-27091D01*
X67777Y-27093D01*
X67807Y-27101D01*
X67835Y-27115D01*
X67860Y-27135D01*
X67880Y-27158D01*
X67896Y-27185D01*
X67906Y-27215D01*
X67909Y-27246D01*
X67910Y-27250D01*
X67910Y-28250D02*
X67906Y-28281D01*
X67897Y-28310D01*
X67883Y-28338D01*
X67863Y-28362D01*
X67839Y-28382D01*
X67812Y-28397D01*
X67782Y-28406D01*
X67751Y-28409D01*
X67721Y-28407D01*
X67691Y-28398D01*
X67663Y-28383D01*
X67639Y-28364D01*
X67618Y-28340D01*
X67603Y-28313D01*
X67594Y-28283D01*
X67591Y-28252D01*
X67593Y-28222D01*
X67602Y-28192D01*
X67616Y-28164D01*
X67635Y-28139D01*
X67659Y-28119D01*
X67686Y-28104D01*
X67716Y-28094D01*
X67747Y-28091D01*
X67777Y-28093D01*
X67807Y-28101D01*
X67835Y-28115D01*
X67860Y-28135D01*
X67880Y-28158D01*
X67896Y-28185D01*
X67906Y-28215D01*
X67909Y-28246D01*
X67910Y-28250D01*
X67910Y-29250D02*
X67906Y-29281D01*
X67897Y-29310D01*
X67883Y-29338D01*
X67863Y-29362D01*
X67839Y-29382D01*
X67812Y-29397D01*
X67782Y-29406D01*
X67751Y-29409D01*
X67721Y-29407D01*
X67691Y-29398D01*
X67663Y-29383D01*
X67639Y-29364D01*
X67618Y-29340D01*
X67603Y-29313D01*
X67594Y-29283D01*
X67591Y-29252D01*
X67593Y-29222D01*
X67602Y-29192D01*
X67616Y-29164D01*
X67635Y-29139D01*
X67659Y-29119D01*
X67686Y-29104D01*
X67716Y-29094D01*
X67747Y-29091D01*
X67777Y-29093D01*
X67807Y-29101D01*
X67835Y-29115D01*
X67860Y-29135D01*
X67880Y-29158D01*
X67896Y-29185D01*
X67906Y-29215D01*
X67909Y-29246D01*
X67910Y-29250D01*
X67910Y-30250D02*
X67906Y-30281D01*
X67897Y-30310D01*
X67883Y-30338D01*
X67863Y-30362D01*
X67839Y-30382D01*
X67812Y-30397D01*
X67782Y-30406D01*
X67751Y-30409D01*
X67721Y-30407D01*
X67691Y-30398D01*
X67663Y-30383D01*
X67639Y-30364D01*
X67618Y-30340D01*
X67603Y-30313D01*
X67594Y-30283D01*
X67591Y-30252D01*
X67593Y-30222D01*
X67602Y-30192D01*
X67616Y-30164D01*
X67635Y-30139D01*
X67659Y-30119D01*
X67686Y-30104D01*
X67716Y-30094D01*
X67747Y-30091D01*
X67777Y-30093D01*
X67807Y-30101D01*
X67835Y-30115D01*
X67860Y-30135D01*
X67880Y-30158D01*
X67896Y-30185D01*
X67906Y-30215D01*
X67909Y-30246D01*
X67910Y-30250D01*
X67910Y-31250D02*
X67906Y-31281D01*
X67897Y-31310D01*
X67883Y-31338D01*
X67863Y-31362D01*
X67839Y-31382D01*
X67812Y-31397D01*
X67782Y-31406D01*
X67751Y-31409D01*
X67721Y-31407D01*
X67691Y-31398D01*
X67663Y-31383D01*
X67639Y-31364D01*
X67618Y-31340D01*
X67603Y-31313D01*
X67594Y-31283D01*
X67591Y-31252D01*
X67593Y-31222D01*
X67602Y-31192D01*
X67616Y-31164D01*
X67635Y-31139D01*
X67659Y-31119D01*
X67686Y-31104D01*
X67716Y-31094D01*
X67747Y-31091D01*
X67777Y-31093D01*
X67807Y-31101D01*
X67835Y-31115D01*
X67860Y-31135D01*
X67880Y-31158D01*
X67896Y-31185D01*
X67906Y-31215D01*
X67909Y-31246D01*
X67910Y-31250D01*
X67910Y-32250D02*
X67906Y-32281D01*
X67897Y-32310D01*
X67883Y-32338D01*
X67863Y-32362D01*
X67839Y-32382D01*
X67812Y-32397D01*
X67782Y-32406D01*
X67751Y-32409D01*
X67721Y-32407D01*
X67691Y-32398D01*
X67663Y-32383D01*
X67639Y-32364D01*
X67618Y-32340D01*
X67603Y-32313D01*
X67594Y-32283D01*
X67591Y-32252D01*
X67593Y-32222D01*
X67602Y-32192D01*
X67616Y-32164D01*
X67635Y-32139D01*
X67659Y-32119D01*
X67686Y-32104D01*
X67716Y-32094D01*
X67747Y-32091D01*
X67777Y-32093D01*
X67807Y-32101D01*
X67835Y-32115D01*
X67860Y-32135D01*
X67880Y-32158D01*
X67896Y-32185D01*
X67906Y-32215D01*
X67909Y-32246D01*
X67910Y-32250D01*
X75410Y-15000D02*
X75406Y-15031D01*
X75397Y-15060D01*
X75383Y-15088D01*
X75363Y-15112D01*
X75339Y-15132D01*
X75312Y-15147D01*
X75282Y-15156D01*
X75251Y-15159D01*
X75221Y-15157D01*
X75191Y-15148D01*
X75163Y-15133D01*
X75139Y-15114D01*
X75118Y-15090D01*
X75103Y-15063D01*
X75094Y-15033D01*
X75091Y-15002D01*
X75093Y-14972D01*
X75102Y-14942D01*
X75116Y-14914D01*
X75135Y-14889D01*
X75159Y-14869D01*
X75186Y-14854D01*
X75216Y-14844D01*
X75247Y-14841D01*
X75277Y-14843D01*
X75307Y-14851D01*
X75335Y-14865D01*
X75360Y-14885D01*
X75380Y-14908D01*
X75396Y-14935D01*
X75406Y-14965D01*
X75409Y-14996D01*
X75410Y-15000D01*
X75410Y-16000D02*
X75406Y-16031D01*
X75397Y-16060D01*
X75383Y-16088D01*
X75363Y-16112D01*
X75339Y-16132D01*
X75312Y-16147D01*
X75282Y-16156D01*
X75251Y-16159D01*
X75221Y-16157D01*
X75191Y-16148D01*
X75163Y-16133D01*
X75139Y-16114D01*
X75118Y-16090D01*
X75103Y-16063D01*
X75094Y-16033D01*
X75091Y-16002D01*
X75093Y-15972D01*
X75102Y-15942D01*
X75116Y-15914D01*
X75135Y-15889D01*
X75159Y-15869D01*
X75186Y-15854D01*
X75216Y-15844D01*
X75247Y-15841D01*
X75277Y-15843D01*
X75307Y-15851D01*
X75335Y-15865D01*
X75360Y-15885D01*
X75380Y-15908D01*
X75396Y-15935D01*
X75406Y-15965D01*
X75409Y-15996D01*
X75410Y-16000D01*
X75410Y-17000D02*
X75406Y-17031D01*
X75397Y-17060D01*
X75383Y-17088D01*
X75363Y-17112D01*
X75339Y-17132D01*
X75312Y-17147D01*
X75282Y-17156D01*
X75251Y-17159D01*
X75221Y-17157D01*
X75191Y-17148D01*
X75163Y-17133D01*
X75139Y-17114D01*
X75118Y-17090D01*
X75103Y-17063D01*
X75094Y-17033D01*
X75091Y-17002D01*
X75093Y-16972D01*
X75102Y-16942D01*
X75116Y-16914D01*
X75135Y-16889D01*
X75159Y-16869D01*
X75186Y-16854D01*
X75216Y-16844D01*
X75247Y-16841D01*
X75277Y-16843D01*
X75307Y-16851D01*
X75335Y-16865D01*
X75360Y-16885D01*
X75380Y-16908D01*
X75396Y-16935D01*
X75406Y-16965D01*
X75409Y-16996D01*
X75410Y-17000D01*
X75410Y-18000D02*
X75406Y-18031D01*
X75397Y-18060D01*
X75383Y-18088D01*
X75363Y-18112D01*
X75339Y-18132D01*
X75312Y-18147D01*
X75282Y-18156D01*
X75251Y-18159D01*
X75221Y-18157D01*
X75191Y-18148D01*
X75163Y-18133D01*
X75139Y-18114D01*
X75118Y-18090D01*
X75103Y-18063D01*
X75094Y-18033D01*
X75091Y-18002D01*
X75093Y-17972D01*
X75102Y-17942D01*
X75116Y-17914D01*
X75135Y-17889D01*
X75159Y-17869D01*
X75186Y-17854D01*
X75216Y-17844D01*
X75247Y-17841D01*
X75277Y-17843D01*
X75307Y-17851D01*
X75335Y-17865D01*
X75360Y-17885D01*
X75380Y-17908D01*
X75396Y-17935D01*
X75406Y-17965D01*
X75409Y-17996D01*
X75410Y-18000D01*
X75410Y-19000D02*
X75406Y-19031D01*
X75397Y-19060D01*
X75383Y-19088D01*
X75363Y-19112D01*
X75339Y-19132D01*
X75312Y-19147D01*
X75282Y-19156D01*
X75251Y-19159D01*
X75221Y-19157D01*
X75191Y-19148D01*
X75163Y-19133D01*
X75139Y-19114D01*
X75118Y-19090D01*
X75103Y-19063D01*
X75094Y-19033D01*
X75091Y-19002D01*
X75093Y-18972D01*
X75102Y-18942D01*
X75116Y-18914D01*
X75135Y-18889D01*
X75159Y-18869D01*
X75186Y-18854D01*
X75216Y-18844D01*
X75247Y-18841D01*
X75277Y-18843D01*
X75307Y-18851D01*
X75335Y-18865D01*
X75360Y-18885D01*
X75380Y-18908D01*
X75396Y-18935D01*
X75406Y-18965D01*
X75409Y-18996D01*
X75410Y-19000D01*
X75410Y-20000D02*
X75406Y-20031D01*
X75397Y-20060D01*
X75383Y-20088D01*
X75363Y-20112D01*
X75339Y-20132D01*
X75312Y-20147D01*
X75282Y-20156D01*
X75251Y-20159D01*
X75221Y-20157D01*
X75191Y-20148D01*
X75163Y-20133D01*
X75139Y-20114D01*
X75118Y-20090D01*
X75103Y-20063D01*
X75094Y-20033D01*
X75091Y-20002D01*
X75093Y-19972D01*
X75102Y-19942D01*
X75116Y-19914D01*
X75135Y-19889D01*
X75159Y-19869D01*
X75186Y-19854D01*
X75216Y-19844D01*
X75247Y-19841D01*
X75277Y-19843D01*
X75307Y-19851D01*
X75335Y-19865D01*
X75360Y-19885D01*
X75380Y-19908D01*
X75396Y-19935D01*
X75406Y-19965D01*
X75409Y-19996D01*
X75410Y-20000D01*
X75410Y-21000D02*
X75406Y-21031D01*
X75397Y-21060D01*
X75383Y-21088D01*
X75363Y-21112D01*
X75339Y-21132D01*
X75312Y-21147D01*
X75282Y-21156D01*
X75251Y-21159D01*
X75221Y-21157D01*
X75191Y-21148D01*
X75163Y-21133D01*
X75139Y-21114D01*
X75118Y-21090D01*
X75103Y-21063D01*
X75094Y-21033D01*
X75091Y-21002D01*
X75093Y-20972D01*
X75102Y-20942D01*
X75116Y-20914D01*
X75135Y-20889D01*
X75159Y-20869D01*
X75186Y-20854D01*
X75216Y-20844D01*
X75247Y-20841D01*
X75277Y-20843D01*
X75307Y-20851D01*
X75335Y-20865D01*
X75360Y-20885D01*
X75380Y-20908D01*
X75396Y-20935D01*
X75406Y-20965D01*
X75409Y-20996D01*
X75410Y-21000D01*
X75410Y-22000D02*
X75406Y-22031D01*
X75397Y-22060D01*
X75383Y-22088D01*
X75363Y-22112D01*
X75339Y-22132D01*
X75312Y-22147D01*
X75282Y-22156D01*
X75251Y-22159D01*
X75221Y-22157D01*
X75191Y-22148D01*
X75163Y-22133D01*
X75139Y-22114D01*
X75118Y-22090D01*
X75103Y-22063D01*
X75094Y-22033D01*
X75091Y-22002D01*
X75093Y-21972D01*
X75102Y-21942D01*
X75116Y-21914D01*
X75135Y-21889D01*
X75159Y-21869D01*
X75186Y-21854D01*
X75216Y-21844D01*
X75247Y-21841D01*
X75277Y-21843D01*
X75307Y-21851D01*
X75335Y-21865D01*
X75360Y-21885D01*
X75380Y-21908D01*
X75396Y-21935D01*
X75406Y-21965D01*
X75409Y-21996D01*
X75410Y-22000D01*
X75410Y-23000D02*
X75406Y-23031D01*
X75397Y-23060D01*
X75383Y-23088D01*
X75363Y-23112D01*
X75339Y-23132D01*
X75312Y-23147D01*
X75282Y-23156D01*
X75251Y-23159D01*
X75221Y-23157D01*
X75191Y-23148D01*
X75163Y-23133D01*
X75139Y-23114D01*
X75118Y-23090D01*
X75103Y-23063D01*
X75094Y-23033D01*
X75091Y-23002D01*
X75093Y-22972D01*
X75102Y-22942D01*
X75116Y-22914D01*
X75135Y-22889D01*
X75159Y-22869D01*
X75186Y-22854D01*
X75216Y-22844D01*
X75247Y-22841D01*
X75277Y-22843D01*
X75307Y-22851D01*
X75335Y-22865D01*
X75360Y-22885D01*
X75380Y-22908D01*
X75396Y-22935D01*
X75406Y-22965D01*
X75409Y-22996D01*
X75410Y-23000D01*
X75410Y-24000D02*
X75406Y-24031D01*
X75397Y-24060D01*
X75383Y-24088D01*
X75363Y-24112D01*
X75339Y-24132D01*
X75312Y-24147D01*
X75282Y-24156D01*
X75251Y-24159D01*
X75221Y-24157D01*
X75191Y-24148D01*
X75163Y-24133D01*
X75139Y-24114D01*
X75118Y-24090D01*
X75103Y-24063D01*
X75094Y-24033D01*
X75091Y-24002D01*
X75093Y-23972D01*
X75102Y-23942D01*
X75116Y-23914D01*
X75135Y-23889D01*
X75159Y-23869D01*
X75186Y-23854D01*
X75216Y-23844D01*
X75247Y-23841D01*
X75277Y-23843D01*
X75307Y-23851D01*
X75335Y-23865D01*
X75360Y-23885D01*
X75380Y-23908D01*
X75396Y-23935D01*
X75406Y-23965D01*
X75409Y-23996D01*
X75410Y-24000D01*
X75410Y-25000D02*
X75406Y-25031D01*
X75397Y-25060D01*
X75383Y-25088D01*
X75363Y-25112D01*
X75339Y-25132D01*
X75312Y-25147D01*
X75282Y-25156D01*
X75251Y-25159D01*
X75221Y-25157D01*
X75191Y-25148D01*
X75163Y-25133D01*
X75139Y-25114D01*
X75118Y-25090D01*
X75103Y-25063D01*
X75094Y-25033D01*
X75091Y-25002D01*
X75093Y-24972D01*
X75102Y-24942D01*
X75116Y-24914D01*
X75135Y-24889D01*
X75159Y-24869D01*
X75186Y-24854D01*
X75216Y-24844D01*
X75247Y-24841D01*
X75277Y-24843D01*
X75307Y-24851D01*
X75335Y-24865D01*
X75360Y-24885D01*
X75380Y-24908D01*
X75396Y-24935D01*
X75406Y-24965D01*
X75409Y-24996D01*
X75410Y-25000D01*
X75410Y-26000D02*
X75406Y-26031D01*
X75397Y-26060D01*
X75383Y-26088D01*
X75363Y-26112D01*
X75339Y-26132D01*
X75312Y-26147D01*
X75282Y-26156D01*
X75251Y-26159D01*
X75221Y-26157D01*
X75191Y-26148D01*
X75163Y-26133D01*
X75139Y-26114D01*
X75118Y-26090D01*
X75103Y-26063D01*
X75094Y-26033D01*
X75091Y-26002D01*
X75093Y-25972D01*
X75102Y-25942D01*
X75116Y-25914D01*
X75135Y-25889D01*
X75159Y-25869D01*
X75186Y-25854D01*
X75216Y-25844D01*
X75247Y-25841D01*
X75277Y-25843D01*
X75307Y-25851D01*
X75335Y-25865D01*
X75360Y-25885D01*
X75380Y-25908D01*
X75396Y-25935D01*
X75406Y-25965D01*
X75409Y-25996D01*
X75410Y-26000D01*
X75410Y-27000D02*
X75406Y-27031D01*
X75397Y-27060D01*
X75383Y-27088D01*
X75363Y-27112D01*
X75339Y-27132D01*
X75312Y-27147D01*
X75282Y-27156D01*
X75251Y-27159D01*
X75221Y-27157D01*
X75191Y-27148D01*
X75163Y-27133D01*
X75139Y-27114D01*
X75118Y-27090D01*
X75103Y-27063D01*
X75094Y-27033D01*
X75091Y-27002D01*
X75093Y-26972D01*
X75102Y-26942D01*
X75116Y-26914D01*
X75135Y-26889D01*
X75159Y-26869D01*
X75186Y-26854D01*
X75216Y-26844D01*
X75247Y-26841D01*
X75277Y-26843D01*
X75307Y-26851D01*
X75335Y-26865D01*
X75360Y-26885D01*
X75380Y-26908D01*
X75396Y-26935D01*
X75406Y-26965D01*
X75409Y-26996D01*
X75410Y-27000D01*
X75410Y-28000D02*
X75406Y-28031D01*
X75397Y-28060D01*
X75383Y-28088D01*
X75363Y-28112D01*
X75339Y-28132D01*
X75312Y-28147D01*
X75282Y-28156D01*
X75251Y-28159D01*
X75221Y-28157D01*
X75191Y-28148D01*
X75163Y-28133D01*
X75139Y-28114D01*
X75118Y-28090D01*
X75103Y-28063D01*
X75094Y-28033D01*
X75091Y-28002D01*
X75093Y-27972D01*
X75102Y-27942D01*
X75116Y-27914D01*
X75135Y-27889D01*
X75159Y-27869D01*
X75186Y-27854D01*
X75216Y-27844D01*
X75247Y-27841D01*
X75277Y-27843D01*
X75307Y-27851D01*
X75335Y-27865D01*
X75360Y-27885D01*
X75380Y-27908D01*
X75396Y-27935D01*
X75406Y-27965D01*
X75409Y-27996D01*
X75410Y-28000D01*
X75410Y-29000D02*
X75406Y-29031D01*
X75397Y-29060D01*
X75383Y-29088D01*
X75363Y-29112D01*
X75339Y-29132D01*
X75312Y-29147D01*
X75282Y-29156D01*
X75251Y-29159D01*
X75221Y-29157D01*
X75191Y-29148D01*
X75163Y-29133D01*
X75139Y-29114D01*
X75118Y-29090D01*
X75103Y-29063D01*
X75094Y-29033D01*
X75091Y-29002D01*
X75093Y-28972D01*
X75102Y-28942D01*
X75116Y-28914D01*
X75135Y-28889D01*
X75159Y-28869D01*
X75186Y-28854D01*
X75216Y-28844D01*
X75247Y-28841D01*
X75277Y-28843D01*
X75307Y-28851D01*
X75335Y-28865D01*
X75360Y-28885D01*
X75380Y-28908D01*
X75396Y-28935D01*
X75406Y-28965D01*
X75409Y-28996D01*
X75410Y-29000D01*
X75410Y-30000D02*
X75406Y-30031D01*
X75397Y-30060D01*
X75383Y-30088D01*
X75363Y-30112D01*
X75339Y-30132D01*
X75312Y-30147D01*
X75282Y-30156D01*
X75251Y-30159D01*
X75221Y-30157D01*
X75191Y-30148D01*
X75163Y-30133D01*
X75139Y-30114D01*
X75118Y-30090D01*
X75103Y-30063D01*
X75094Y-30033D01*
X75091Y-30002D01*
X75093Y-29972D01*
X75102Y-29942D01*
X75116Y-29914D01*
X75135Y-29889D01*
X75159Y-29869D01*
X75186Y-29854D01*
X75216Y-29844D01*
X75247Y-29841D01*
X75277Y-29843D01*
X75307Y-29851D01*
X75335Y-29865D01*
X75360Y-29885D01*
X75380Y-29908D01*
X75396Y-29935D01*
X75406Y-29965D01*
X75409Y-29996D01*
X75410Y-30000D01*
X75410Y-31000D02*
X75406Y-31031D01*
X75397Y-31060D01*
X75383Y-31088D01*
X75363Y-31112D01*
X75339Y-31132D01*
X75312Y-31147D01*
X75282Y-31156D01*
X75251Y-31159D01*
X75221Y-31157D01*
X75191Y-31148D01*
X75163Y-31133D01*
X75139Y-31114D01*
X75118Y-31090D01*
X75103Y-31063D01*
X75094Y-31033D01*
X75091Y-31002D01*
X75093Y-30972D01*
X75102Y-30942D01*
X75116Y-30914D01*
X75135Y-30889D01*
X75159Y-30869D01*
X75186Y-30854D01*
X75216Y-30844D01*
X75247Y-30841D01*
X75277Y-30843D01*
X75307Y-30851D01*
X75335Y-30865D01*
X75360Y-30885D01*
X75380Y-30908D01*
X75396Y-30935D01*
X75406Y-30965D01*
X75409Y-30996D01*
X75410Y-31000D01*
X75410Y-32000D02*
X75406Y-32031D01*
X75397Y-32060D01*
X75383Y-32088D01*
X75363Y-32112D01*
X75339Y-32132D01*
X75312Y-32147D01*
X75282Y-32156D01*
X75251Y-32159D01*
X75221Y-32157D01*
X75191Y-32148D01*
X75163Y-32133D01*
X75139Y-32114D01*
X75118Y-32090D01*
X75103Y-32063D01*
X75094Y-32033D01*
X75091Y-32002D01*
X75093Y-31972D01*
X75102Y-31942D01*
X75116Y-31914D01*
X75135Y-31889D01*
X75159Y-31869D01*
X75186Y-31854D01*
X75216Y-31844D01*
X75247Y-31841D01*
X75277Y-31843D01*
X75307Y-31851D01*
X75335Y-31865D01*
X75360Y-31885D01*
X75380Y-31908D01*
X75396Y-31935D01*
X75406Y-31965D01*
X75409Y-31996D01*
X75410Y-32000D01*
X65250Y-19050D02*
X65250Y-19450D01*
X65450Y-19250D02*
X65050Y-19250D01*
X65250Y-20050D02*
X65250Y-20450D01*
X65450Y-20250D02*
X65050Y-20250D01*
X65250Y-21050D02*
X65250Y-21450D01*
X65450Y-21250D02*
X65050Y-21250D01*
X65250Y-25550D02*
X65250Y-25950D01*
X65450Y-25750D02*
X65050Y-25750D01*
X65250Y-26550D02*
X65250Y-26950D01*
X65450Y-26750D02*
X65050Y-26750D01*
X65250Y-27550D02*
X65250Y-27950D01*
X65450Y-27750D02*
X65050Y-27750D01*
X66250Y-19050D02*
X66250Y-19450D01*
X66450Y-19250D02*
X66050Y-19250D01*
X66250Y-20050D02*
X66250Y-20450D01*
X66450Y-20250D02*
X66050Y-20250D01*
X66250Y-21050D02*
X66250Y-21450D01*
X66450Y-21250D02*
X66050Y-21250D01*
X66250Y-25550D02*
X66250Y-25950D01*
X66450Y-25750D02*
X66050Y-25750D01*
X66250Y-26550D02*
X66250Y-26950D01*
X66450Y-26750D02*
X66050Y-26750D01*
X66250Y-27550D02*
X66250Y-27950D01*
X66450Y-27750D02*
X66050Y-27750D01*
G54D12*
X52033Y-34530D02*
X52033Y-33730D01*
X52224Y-33730D01*
X52338Y-33768D01*
X52414Y-33844D01*
X52453Y-33920D01*
X52491Y-34073D01*
X52491Y-34187D01*
X52453Y-34339D01*
X52414Y-34416D01*
X52338Y-34492D01*
X52224Y-34530D01*
X52033Y-34530D01*
X52833Y-34530D02*
X52833Y-33996D01*
X52833Y-34149D02*
X52872Y-34073D01*
X52910Y-34035D01*
X52986Y-33996D01*
X53062Y-33996D01*
X53328Y-34530D02*
X53328Y-33996D01*
X53328Y-33730D02*
X53290Y-33768D01*
X53328Y-33806D01*
X53367Y-33768D01*
X53328Y-33730D01*
X53328Y-33806D01*
X53824Y-34530D02*
X53748Y-34492D01*
X53709Y-34416D01*
X53709Y-33730D01*
X54243Y-34530D02*
X54167Y-34492D01*
X54128Y-34416D01*
X54128Y-33730D01*
X55157Y-34530D02*
X55157Y-33730D01*
X55424Y-34301D01*
X55691Y-33730D01*
X55691Y-34530D01*
X56414Y-34530D02*
X56414Y-34111D01*
X56376Y-34035D01*
X56300Y-33996D01*
X56148Y-33996D01*
X56071Y-34035D01*
X56414Y-34492D02*
X56338Y-34530D01*
X56148Y-34530D01*
X56071Y-34492D01*
X56033Y-34416D01*
X56033Y-34339D01*
X56071Y-34263D01*
X56148Y-34225D01*
X56338Y-34225D01*
X56414Y-34187D01*
X56795Y-33996D02*
X56795Y-34796D01*
X56795Y-34035D02*
X56872Y-33996D01*
X57024Y-33996D01*
X57100Y-34035D01*
X57138Y-34073D01*
X57176Y-34149D01*
X57176Y-34377D01*
X57138Y-34454D01*
X57100Y-34492D01*
X57024Y-34530D01*
X56872Y-34530D01*
X56795Y-34492D01*
X57519Y-34454D02*
X57558Y-34492D01*
X57519Y-34530D01*
X57481Y-34492D01*
X57519Y-34454D01*
X57519Y-34530D01*
X57519Y-34035D02*
X57558Y-34073D01*
X57519Y-34111D01*
X57481Y-34073D01*
X57519Y-34035D01*
X57519Y-34111D01*
X51343Y-35736D02*
X51643Y-36036D01*
X51643Y-35736D02*
X51343Y-36036D01*
X52186Y-35410D02*
X52262Y-35410D01*
X52338Y-35448D01*
X52376Y-35486D01*
X52414Y-35562D01*
X52453Y-35715D01*
X52453Y-35905D01*
X52414Y-36057D01*
X52376Y-36134D01*
X52338Y-36172D01*
X52262Y-36210D01*
X52186Y-36210D01*
X52110Y-36172D01*
X52072Y-36134D01*
X52033Y-36057D01*
X51995Y-35905D01*
X51995Y-35715D01*
X52033Y-35562D01*
X52072Y-35486D01*
X52110Y-35448D01*
X52186Y-35410D01*
X52795Y-36134D02*
X52834Y-36172D01*
X52795Y-36210D01*
X52757Y-36172D01*
X52795Y-36134D01*
X52795Y-36210D01*
X53329Y-35410D02*
X53405Y-35410D01*
X53481Y-35448D01*
X53519Y-35486D01*
X53557Y-35562D01*
X53596Y-35715D01*
X53596Y-35905D01*
X53557Y-36057D01*
X53519Y-36134D01*
X53481Y-36172D01*
X53405Y-36210D01*
X53329Y-36210D01*
X53253Y-36172D01*
X53215Y-36134D01*
X53176Y-36057D01*
X53138Y-35905D01*
X53138Y-35715D01*
X53176Y-35562D01*
X53215Y-35486D01*
X53253Y-35448D01*
X53329Y-35410D01*
X53862Y-35410D02*
X54358Y-35410D01*
X54091Y-35715D01*
X54205Y-35715D01*
X54281Y-35753D01*
X54319Y-35791D01*
X54358Y-35867D01*
X54358Y-36057D01*
X54319Y-36134D01*
X54281Y-36172D01*
X54205Y-36210D01*
X53977Y-36210D01*
X53900Y-36172D01*
X53862Y-36134D01*
X54853Y-35410D02*
X54929Y-35410D01*
X55005Y-35448D01*
X55043Y-35486D01*
X55081Y-35562D01*
X55120Y-35715D01*
X55120Y-35905D01*
X55081Y-36057D01*
X55043Y-36134D01*
X55005Y-36172D01*
X54929Y-36210D01*
X54853Y-36210D01*
X54777Y-36172D01*
X54739Y-36134D01*
X54700Y-36057D01*
X54662Y-35905D01*
X54662Y-35715D01*
X54700Y-35562D01*
X54739Y-35486D01*
X54777Y-35448D01*
X54853Y-35410D01*
X55424Y-35410D02*
X55424Y-35562D01*
X55729Y-35410D02*
X55729Y-35562D01*
X57254Y-35372D02*
X56568Y-36400D01*
X58283Y-35410D02*
X58359Y-35410D01*
X58435Y-35448D01*
X58473Y-35486D01*
X58511Y-35562D01*
X58550Y-35715D01*
X58550Y-35905D01*
X58511Y-36057D01*
X58473Y-36134D01*
X58435Y-36172D01*
X58359Y-36210D01*
X58283Y-36210D01*
X58207Y-36172D01*
X58169Y-36134D01*
X58130Y-36057D01*
X58092Y-35905D01*
X58092Y-35715D01*
X58130Y-35562D01*
X58169Y-35486D01*
X58207Y-35448D01*
X58283Y-35410D01*
X58892Y-36134D02*
X58931Y-36172D01*
X58892Y-36210D01*
X58854Y-36172D01*
X58892Y-36134D01*
X58892Y-36210D01*
X59197Y-35410D02*
X59731Y-35410D01*
X59388Y-36210D01*
X60378Y-35410D02*
X60226Y-35410D01*
X60150Y-35448D01*
X60112Y-35486D01*
X60035Y-35600D01*
X59997Y-35753D01*
X59997Y-36057D01*
X60035Y-36134D01*
X60074Y-36172D01*
X60150Y-36210D01*
X60302Y-36210D01*
X60378Y-36172D01*
X60416Y-36134D01*
X60455Y-36057D01*
X60455Y-35867D01*
X60416Y-35791D01*
X60378Y-35753D01*
X60302Y-35715D01*
X60150Y-35715D01*
X60074Y-35753D01*
X60035Y-35791D01*
X59997Y-35867D01*
X60797Y-36210D02*
X60797Y-35676D01*
X60797Y-35753D02*
X60836Y-35715D01*
X60912Y-35676D01*
X61026Y-35676D01*
X61102Y-35715D01*
X61140Y-35791D01*
X61140Y-36210D01*
X61140Y-35791D02*
X61178Y-35715D01*
X61255Y-35676D01*
X61369Y-35676D01*
X61445Y-35715D01*
X61483Y-35791D01*
X61483Y-36210D01*
X61864Y-36210D02*
X61864Y-35676D01*
X61864Y-35753D02*
X61903Y-35715D01*
X61979Y-35676D01*
X62093Y-35676D01*
X62169Y-35715D01*
X62207Y-35791D01*
X62207Y-36210D01*
X62207Y-35791D02*
X62245Y-35715D01*
X62322Y-35676D01*
X62436Y-35676D01*
X62512Y-35715D01*
X62550Y-35791D01*
X62550Y-36210D01*
X63770Y-36515D02*
X63732Y-36476D01*
X63656Y-36362D01*
X63618Y-36286D01*
X63580Y-36172D01*
X63541Y-35981D01*
X63541Y-35829D01*
X63580Y-35638D01*
X63618Y-35524D01*
X63656Y-35448D01*
X63732Y-35334D01*
X63770Y-35296D01*
X64417Y-35410D02*
X64265Y-35410D01*
X64189Y-35448D01*
X64151Y-35486D01*
X64074Y-35600D01*
X64036Y-35753D01*
X64036Y-36057D01*
X64074Y-36134D01*
X64113Y-36172D01*
X64189Y-36210D01*
X64341Y-36210D01*
X64417Y-36172D01*
X64455Y-36134D01*
X64494Y-36057D01*
X64494Y-35867D01*
X64455Y-35791D01*
X64417Y-35753D01*
X64341Y-35715D01*
X64189Y-35715D01*
X64113Y-35753D01*
X64074Y-35791D01*
X64036Y-35867D01*
X65179Y-35676D02*
X65179Y-36210D01*
X64989Y-35372D02*
X64798Y-35943D01*
X65294Y-35943D01*
X66208Y-36210D02*
X66208Y-35410D01*
X66551Y-36210D02*
X66551Y-35791D01*
X66513Y-35715D01*
X66437Y-35676D01*
X66323Y-35676D01*
X66247Y-35715D01*
X66208Y-35753D01*
X67047Y-36210D02*
X66971Y-36172D01*
X66932Y-36134D01*
X66894Y-36057D01*
X66894Y-35829D01*
X66932Y-35753D01*
X66971Y-35715D01*
X67047Y-35676D01*
X67161Y-35676D01*
X67237Y-35715D01*
X67275Y-35753D01*
X67313Y-35829D01*
X67313Y-36057D01*
X67275Y-36134D01*
X67237Y-36172D01*
X67161Y-36210D01*
X67047Y-36210D01*
X67771Y-36210D02*
X67695Y-36172D01*
X67656Y-36096D01*
X67656Y-35410D01*
X68380Y-36172D02*
X68304Y-36210D01*
X68152Y-36210D01*
X68075Y-36172D01*
X68037Y-36096D01*
X68037Y-35791D01*
X68075Y-35715D01*
X68152Y-35676D01*
X68304Y-35676D01*
X68380Y-35715D01*
X68418Y-35791D01*
X68418Y-35867D01*
X68037Y-35943D01*
X68723Y-36172D02*
X68800Y-36210D01*
X68952Y-36210D01*
X69028Y-36172D01*
X69066Y-36096D01*
X69066Y-36057D01*
X69028Y-35981D01*
X68952Y-35943D01*
X68838Y-35943D01*
X68761Y-35905D01*
X68723Y-35829D01*
X68723Y-35791D01*
X68761Y-35715D01*
X68838Y-35676D01*
X68952Y-35676D01*
X69028Y-35715D01*
X69333Y-36515D02*
X69371Y-36476D01*
X69448Y-36362D01*
X69486Y-36286D01*
X69524Y-36172D01*
X69562Y-35981D01*
X69562Y-35829D01*
X69524Y-35638D01*
X69486Y-35524D01*
X69448Y-35448D01*
X69371Y-35334D01*
X69333Y-35296D01*
G54D10*
X51643Y-36941D02*
X51639Y-36972D01*
X51630Y-37001D01*
X51616Y-37029D01*
X51596Y-37053D01*
X51572Y-37073D01*
X51545Y-37088D01*
X51515Y-37097D01*
X51484Y-37100D01*
X51454Y-37098D01*
X51424Y-37089D01*
X51396Y-37074D01*
X51372Y-37055D01*
X51351Y-37031D01*
X51336Y-37004D01*
X51327Y-36974D01*
X51324Y-36943D01*
X51326Y-36913D01*
X51335Y-36883D01*
X51349Y-36855D01*
X51368Y-36830D01*
X51392Y-36810D01*
X51419Y-36795D01*
X51449Y-36785D01*
X51480Y-36782D01*
X51510Y-36784D01*
X51540Y-36792D01*
X51568Y-36806D01*
X51593Y-36826D01*
X51613Y-36849D01*
X51629Y-36876D01*
X51639Y-36906D01*
X51642Y-36937D01*
X51643Y-36941D01*
G54D12*
X52186Y-36465D02*
X52262Y-36465D01*
X52338Y-36503D01*
X52376Y-36541D01*
X52414Y-36617D01*
X52453Y-36770D01*
X52453Y-36960D01*
X52414Y-37112D01*
X52376Y-37189D01*
X52338Y-37227D01*
X52262Y-37265D01*
X52186Y-37265D01*
X52110Y-37227D01*
X52072Y-37189D01*
X52033Y-37112D01*
X51995Y-36960D01*
X51995Y-36770D01*
X52033Y-36617D01*
X52072Y-36541D01*
X52110Y-36503D01*
X52186Y-36465D01*
X52795Y-37189D02*
X52834Y-37227D01*
X52795Y-37265D01*
X52757Y-37227D01*
X52795Y-37189D01*
X52795Y-37265D01*
X53329Y-36465D02*
X53405Y-36465D01*
X53481Y-36503D01*
X53519Y-36541D01*
X53557Y-36617D01*
X53596Y-36770D01*
X53596Y-36960D01*
X53557Y-37112D01*
X53519Y-37189D01*
X53481Y-37227D01*
X53405Y-37265D01*
X53329Y-37265D01*
X53253Y-37227D01*
X53215Y-37189D01*
X53176Y-37112D01*
X53138Y-36960D01*
X53138Y-36770D01*
X53176Y-36617D01*
X53215Y-36541D01*
X53253Y-36503D01*
X53329Y-36465D01*
X53862Y-36465D02*
X54358Y-36465D01*
X54091Y-36770D01*
X54205Y-36770D01*
X54281Y-36808D01*
X54319Y-36846D01*
X54358Y-36922D01*
X54358Y-37112D01*
X54319Y-37189D01*
X54281Y-37227D01*
X54205Y-37265D01*
X53977Y-37265D01*
X53900Y-37227D01*
X53862Y-37189D01*
X54662Y-36541D02*
X54700Y-36503D01*
X54777Y-36465D01*
X54967Y-36465D01*
X55043Y-36503D01*
X55081Y-36541D01*
X55120Y-36617D01*
X55120Y-36693D01*
X55081Y-36808D01*
X54624Y-37265D01*
X55120Y-37265D01*
X55424Y-36465D02*
X55424Y-36617D01*
X55729Y-36465D02*
X55729Y-36617D01*
X57254Y-36427D02*
X56568Y-37455D01*
X58283Y-36465D02*
X58359Y-36465D01*
X58435Y-36503D01*
X58473Y-36541D01*
X58511Y-36617D01*
X58550Y-36770D01*
X58550Y-36960D01*
X58511Y-37112D01*
X58473Y-37189D01*
X58435Y-37227D01*
X58359Y-37265D01*
X58283Y-37265D01*
X58207Y-37227D01*
X58169Y-37189D01*
X58130Y-37112D01*
X58092Y-36960D01*
X58092Y-36770D01*
X58130Y-36617D01*
X58169Y-36541D01*
X58207Y-36503D01*
X58283Y-36465D01*
X58892Y-37189D02*
X58931Y-37227D01*
X58892Y-37265D01*
X58854Y-37227D01*
X58892Y-37189D01*
X58892Y-37265D01*
X59388Y-36808D02*
X59312Y-36770D01*
X59273Y-36731D01*
X59235Y-36655D01*
X59235Y-36617D01*
X59273Y-36541D01*
X59312Y-36503D01*
X59388Y-36465D01*
X59540Y-36465D01*
X59616Y-36503D01*
X59654Y-36541D01*
X59693Y-36617D01*
X59693Y-36655D01*
X59654Y-36731D01*
X59616Y-36770D01*
X59540Y-36808D01*
X59388Y-36808D01*
X59312Y-36846D01*
X59273Y-36884D01*
X59235Y-36960D01*
X59235Y-37112D01*
X59273Y-37189D01*
X59312Y-37227D01*
X59388Y-37265D01*
X59540Y-37265D01*
X59616Y-37227D01*
X59654Y-37189D01*
X59693Y-37112D01*
X59693Y-36960D01*
X59654Y-36884D01*
X59616Y-36846D01*
X59540Y-36808D01*
X60455Y-37265D02*
X59997Y-37265D01*
X60226Y-37265D02*
X60226Y-36465D01*
X60150Y-36579D01*
X60074Y-36655D01*
X59997Y-36693D01*
X60797Y-37265D02*
X60797Y-36731D01*
X60797Y-36808D02*
X60836Y-36770D01*
X60912Y-36731D01*
X61026Y-36731D01*
X61102Y-36770D01*
X61140Y-36846D01*
X61140Y-37265D01*
X61140Y-36846D02*
X61178Y-36770D01*
X61255Y-36731D01*
X61369Y-36731D01*
X61445Y-36770D01*
X61483Y-36846D01*
X61483Y-37265D01*
X61864Y-37265D02*
X61864Y-36731D01*
X61864Y-36808D02*
X61903Y-36770D01*
X61979Y-36731D01*
X62093Y-36731D01*
X62169Y-36770D01*
X62207Y-36846D01*
X62207Y-37265D01*
X62207Y-36846D02*
X62245Y-36770D01*
X62322Y-36731D01*
X62436Y-36731D01*
X62512Y-36770D01*
X62550Y-36846D01*
X62550Y-37265D01*
X63770Y-37570D02*
X63732Y-37531D01*
X63656Y-37417D01*
X63618Y-37341D01*
X63580Y-37227D01*
X63541Y-37036D01*
X63541Y-36884D01*
X63580Y-36693D01*
X63618Y-36579D01*
X63656Y-36503D01*
X63732Y-36389D01*
X63770Y-36351D01*
X63998Y-36465D02*
X64532Y-36465D01*
X64189Y-37265D01*
X65179Y-36465D02*
X65027Y-36465D01*
X64951Y-36503D01*
X64913Y-36541D01*
X64836Y-36655D01*
X64798Y-36808D01*
X64798Y-37112D01*
X64836Y-37189D01*
X64875Y-37227D01*
X64951Y-37265D01*
X65103Y-37265D01*
X65179Y-37227D01*
X65217Y-37189D01*
X65256Y-37112D01*
X65256Y-36922D01*
X65217Y-36846D01*
X65179Y-36808D01*
X65103Y-36770D01*
X64951Y-36770D01*
X64875Y-36808D01*
X64836Y-36846D01*
X64798Y-36922D01*
X66208Y-37265D02*
X66208Y-36465D01*
X66551Y-37265D02*
X66551Y-36846D01*
X66513Y-36770D01*
X66437Y-36731D01*
X66323Y-36731D01*
X66247Y-36770D01*
X66208Y-36808D01*
X67047Y-37265D02*
X66971Y-37227D01*
X66932Y-37189D01*
X66894Y-37112D01*
X66894Y-36884D01*
X66932Y-36808D01*
X66971Y-36770D01*
X67047Y-36731D01*
X67161Y-36731D01*
X67237Y-36770D01*
X67275Y-36808D01*
X67313Y-36884D01*
X67313Y-37112D01*
X67275Y-37189D01*
X67237Y-37227D01*
X67161Y-37265D01*
X67047Y-37265D01*
X67771Y-37265D02*
X67695Y-37227D01*
X67656Y-37151D01*
X67656Y-36465D01*
X68380Y-37227D02*
X68304Y-37265D01*
X68152Y-37265D01*
X68075Y-37227D01*
X68037Y-37151D01*
X68037Y-36846D01*
X68075Y-36770D01*
X68152Y-36731D01*
X68304Y-36731D01*
X68380Y-36770D01*
X68418Y-36846D01*
X68418Y-36922D01*
X68037Y-36998D01*
X68723Y-37227D02*
X68800Y-37265D01*
X68952Y-37265D01*
X69028Y-37227D01*
X69066Y-37151D01*
X69066Y-37112D01*
X69028Y-37036D01*
X68952Y-36998D01*
X68838Y-36998D01*
X68761Y-36960D01*
X68723Y-36884D01*
X68723Y-36846D01*
X68761Y-36770D01*
X68838Y-36731D01*
X68952Y-36731D01*
X69028Y-36770D01*
X69333Y-37570D02*
X69371Y-37531D01*
X69448Y-37417D01*
X69486Y-37341D01*
X69524Y-37227D01*
X69562Y-37036D01*
X69562Y-36884D01*
X69524Y-36693D01*
X69486Y-36579D01*
X69448Y-36503D01*
X69371Y-36389D01*
X69333Y-36351D01*
X51443Y-37796D02*
X51443Y-38196D01*
X51643Y-37996D02*
X51243Y-37996D01*
X52186Y-37520D02*
X52262Y-37520D01*
X52338Y-37558D01*
X52376Y-37596D01*
X52414Y-37672D01*
X52453Y-37825D01*
X52453Y-38015D01*
X52414Y-38167D01*
X52376Y-38244D01*
X52338Y-38282D01*
X52262Y-38320D01*
X52186Y-38320D01*
X52110Y-38282D01*
X52072Y-38244D01*
X52033Y-38167D01*
X51995Y-38015D01*
X51995Y-37825D01*
X52033Y-37672D01*
X52072Y-37596D01*
X52110Y-37558D01*
X52186Y-37520D01*
X52795Y-38244D02*
X52834Y-38282D01*
X52795Y-38320D01*
X52757Y-38282D01*
X52795Y-38244D01*
X52795Y-38320D01*
X53329Y-37520D02*
X53405Y-37520D01*
X53481Y-37558D01*
X53519Y-37596D01*
X53557Y-37672D01*
X53596Y-37825D01*
X53596Y-38015D01*
X53557Y-38167D01*
X53519Y-38244D01*
X53481Y-38282D01*
X53405Y-38320D01*
X53329Y-38320D01*
X53253Y-38282D01*
X53215Y-38244D01*
X53176Y-38167D01*
X53138Y-38015D01*
X53138Y-37825D01*
X53176Y-37672D01*
X53215Y-37596D01*
X53253Y-37558D01*
X53329Y-37520D01*
X54281Y-37786D02*
X54281Y-38320D01*
X54091Y-37482D02*
X53900Y-38053D01*
X54396Y-38053D01*
X54853Y-37520D02*
X54929Y-37520D01*
X55005Y-37558D01*
X55043Y-37596D01*
X55081Y-37672D01*
X55120Y-37825D01*
X55120Y-38015D01*
X55081Y-38167D01*
X55043Y-38244D01*
X55005Y-38282D01*
X54929Y-38320D01*
X54853Y-38320D01*
X54777Y-38282D01*
X54739Y-38244D01*
X54700Y-38167D01*
X54662Y-38015D01*
X54662Y-37825D01*
X54700Y-37672D01*
X54739Y-37596D01*
X54777Y-37558D01*
X54853Y-37520D01*
X55424Y-37520D02*
X55424Y-37672D01*
X55729Y-37520D02*
X55729Y-37672D01*
X57254Y-37482D02*
X56568Y-38510D01*
X58550Y-38320D02*
X58092Y-38320D01*
X58321Y-38320D02*
X58321Y-37520D01*
X58245Y-37634D01*
X58169Y-37710D01*
X58092Y-37748D01*
X58892Y-38244D02*
X58931Y-38282D01*
X58892Y-38320D01*
X58854Y-38282D01*
X58892Y-38244D01*
X58892Y-38320D01*
X59426Y-37520D02*
X59502Y-37520D01*
X59578Y-37558D01*
X59616Y-37596D01*
X59654Y-37672D01*
X59693Y-37825D01*
X59693Y-38015D01*
X59654Y-38167D01*
X59616Y-38244D01*
X59578Y-38282D01*
X59502Y-38320D01*
X59426Y-38320D01*
X59350Y-38282D01*
X59312Y-38244D01*
X59273Y-38167D01*
X59235Y-38015D01*
X59235Y-37825D01*
X59273Y-37672D01*
X59312Y-37596D01*
X59350Y-37558D01*
X59426Y-37520D01*
X59997Y-37596D02*
X60035Y-37558D01*
X60112Y-37520D01*
X60302Y-37520D01*
X60378Y-37558D01*
X60416Y-37596D01*
X60455Y-37672D01*
X60455Y-37748D01*
X60416Y-37863D01*
X59959Y-38320D01*
X60455Y-38320D01*
X60797Y-38320D02*
X60797Y-37786D01*
X60797Y-37863D02*
X60836Y-37825D01*
X60912Y-37786D01*
X61026Y-37786D01*
X61102Y-37825D01*
X61140Y-37901D01*
X61140Y-38320D01*
X61140Y-37901D02*
X61178Y-37825D01*
X61255Y-37786D01*
X61369Y-37786D01*
X61445Y-37825D01*
X61483Y-37901D01*
X61483Y-38320D01*
X61864Y-38320D02*
X61864Y-37786D01*
X61864Y-37863D02*
X61903Y-37825D01*
X61979Y-37786D01*
X62093Y-37786D01*
X62169Y-37825D01*
X62207Y-37901D01*
X62207Y-38320D01*
X62207Y-37901D02*
X62245Y-37825D01*
X62322Y-37786D01*
X62436Y-37786D01*
X62512Y-37825D01*
X62550Y-37901D01*
X62550Y-38320D01*
X63770Y-38625D02*
X63732Y-38586D01*
X63656Y-38472D01*
X63618Y-38396D01*
X63580Y-38282D01*
X63541Y-38091D01*
X63541Y-37939D01*
X63580Y-37748D01*
X63618Y-37634D01*
X63656Y-37558D01*
X63732Y-37444D01*
X63770Y-37406D01*
X64494Y-38320D02*
X64036Y-38320D01*
X64265Y-38320D02*
X64265Y-37520D01*
X64189Y-37634D01*
X64113Y-37710D01*
X64036Y-37748D01*
X64798Y-37596D02*
X64836Y-37558D01*
X64913Y-37520D01*
X65103Y-37520D01*
X65179Y-37558D01*
X65217Y-37596D01*
X65256Y-37672D01*
X65256Y-37748D01*
X65217Y-37863D01*
X64760Y-38320D01*
X65256Y-38320D01*
X66208Y-38320D02*
X66208Y-37520D01*
X66551Y-38320D02*
X66551Y-37901D01*
X66513Y-37825D01*
X66437Y-37786D01*
X66323Y-37786D01*
X66247Y-37825D01*
X66208Y-37863D01*
X67047Y-38320D02*
X66971Y-38282D01*
X66932Y-38244D01*
X66894Y-38167D01*
X66894Y-37939D01*
X66932Y-37863D01*
X66971Y-37825D01*
X67047Y-37786D01*
X67161Y-37786D01*
X67237Y-37825D01*
X67275Y-37863D01*
X67313Y-37939D01*
X67313Y-38167D01*
X67275Y-38244D01*
X67237Y-38282D01*
X67161Y-38320D01*
X67047Y-38320D01*
X67771Y-38320D02*
X67695Y-38282D01*
X67656Y-38206D01*
X67656Y-37520D01*
X68380Y-38282D02*
X68304Y-38320D01*
X68152Y-38320D01*
X68075Y-38282D01*
X68037Y-38206D01*
X68037Y-37901D01*
X68075Y-37825D01*
X68152Y-37786D01*
X68304Y-37786D01*
X68380Y-37825D01*
X68418Y-37901D01*
X68418Y-37977D01*
X68037Y-38053D01*
X68723Y-38282D02*
X68800Y-38320D01*
X68952Y-38320D01*
X69028Y-38282D01*
X69066Y-38206D01*
X69066Y-38167D01*
X69028Y-38091D01*
X68952Y-38053D01*
X68838Y-38053D01*
X68761Y-38015D01*
X68723Y-37939D01*
X68723Y-37901D01*
X68761Y-37825D01*
X68838Y-37786D01*
X68952Y-37786D01*
X69028Y-37825D01*
X69333Y-38625D02*
X69371Y-38586D01*
X69448Y-38472D01*
X69486Y-38396D01*
X69524Y-38282D01*
X69562Y-38091D01*
X69562Y-37939D01*
X69524Y-37748D01*
X69486Y-37634D01*
X69448Y-37558D01*
X69371Y-37444D01*
X69333Y-37406D01*
M02*
