G04 (created by PCBNEW-RS274X (2011-07-08)-stable) date Sun 02 Oct 2011 07:45:31 AM CEST*
G01*
G70*
G90*
%MOIN*%
G04 Gerber Fmt 3.4, Leading zero omitted, Abs format*
%FSLAX34Y34*%
G04 APERTURE LIST*
%ADD10C,0.006000*%
%ADD11C,0.015000*%
%ADD12R,0.043300X0.039300*%
%ADD13R,0.060000X0.060000*%
%ADD14C,0.060000*%
%ADD15R,0.055000X0.055000*%
%ADD16C,0.055000*%
%ADD17O,0.070000X0.060000*%
G04 APERTURE END LIST*
G54D10*
G54D11*
X78500Y-35500D02*
X52500Y-35500D01*
X78500Y-11000D02*
X78500Y-35500D01*
X52500Y-11000D02*
X78500Y-11000D01*
X52500Y-35500D02*
X52500Y-11000D01*
G54D12*
X67000Y-17584D03*
X67000Y-16916D03*
X65500Y-16834D03*
X65500Y-16166D03*
X64000Y-17584D03*
X64000Y-16916D03*
G54D13*
X66500Y-25750D03*
G54D14*
X66500Y-26750D03*
X65500Y-25750D03*
X65500Y-26750D03*
X64500Y-25750D03*
X64500Y-26750D03*
G54D13*
X66500Y-19250D03*
G54D14*
X66500Y-20250D03*
X65500Y-19250D03*
X65500Y-20250D03*
X64500Y-19250D03*
X64500Y-20250D03*
G54D15*
X67000Y-14000D03*
G54D16*
X66000Y-14000D03*
X65000Y-14000D03*
X64000Y-14000D03*
G54D15*
X74500Y-24750D03*
G54D16*
X74500Y-25750D03*
X74500Y-26750D03*
X74500Y-27750D03*
X74500Y-28750D03*
X74500Y-29750D03*
X74500Y-30750D03*
X74500Y-31750D03*
X74500Y-32750D03*
G54D15*
X74500Y-14000D03*
G54D16*
X74500Y-15000D03*
X74500Y-16000D03*
X74500Y-17000D03*
X74500Y-18000D03*
X74500Y-19000D03*
X74500Y-20000D03*
X74500Y-21000D03*
X74500Y-22000D03*
G54D15*
X61500Y-24750D03*
G54D16*
X61500Y-25750D03*
X61500Y-26750D03*
X61500Y-27750D03*
X61500Y-28750D03*
X61500Y-29750D03*
X61500Y-30750D03*
X61500Y-31750D03*
X61500Y-32750D03*
G54D15*
X61500Y-14000D03*
G54D16*
X61500Y-15000D03*
X61500Y-16000D03*
X61500Y-17000D03*
X61500Y-18000D03*
X61500Y-19000D03*
X61500Y-20000D03*
X61500Y-21000D03*
X61500Y-22000D03*
G54D15*
X77500Y-32000D03*
G54D16*
X77500Y-31000D03*
X77500Y-30000D03*
X77500Y-29000D03*
X77500Y-28000D03*
X77500Y-27000D03*
X77500Y-26000D03*
X77500Y-25000D03*
X77500Y-24000D03*
G54D15*
X77500Y-15000D03*
G54D16*
X77500Y-16000D03*
X77500Y-17000D03*
X77500Y-18000D03*
X77500Y-19000D03*
X77500Y-20000D03*
X77500Y-21000D03*
X77500Y-22000D03*
X77500Y-23000D03*
G54D15*
X53500Y-32000D03*
G54D16*
X53500Y-31000D03*
X53500Y-30000D03*
X53500Y-29000D03*
X53500Y-28000D03*
X53500Y-27000D03*
X53500Y-26000D03*
X53500Y-25000D03*
X53500Y-24000D03*
G54D15*
X53500Y-15000D03*
G54D16*
X53500Y-16000D03*
X53500Y-17000D03*
X53500Y-18000D03*
X53500Y-19000D03*
X53500Y-20000D03*
X53500Y-21000D03*
X53500Y-22000D03*
X53500Y-23000D03*
G54D17*
X56500Y-25000D03*
X56500Y-26000D03*
X56500Y-27000D03*
X56500Y-28000D03*
X56500Y-29000D03*
X56500Y-30000D03*
X56500Y-31000D03*
X56500Y-32000D03*
X59500Y-32000D03*
X59500Y-31000D03*
X59500Y-30000D03*
X59500Y-29000D03*
X59500Y-28000D03*
X59500Y-27000D03*
X59500Y-26000D03*
X59500Y-25000D03*
X69000Y-25000D03*
X69000Y-26000D03*
X69000Y-27000D03*
X69000Y-28000D03*
X69000Y-29000D03*
X69000Y-30000D03*
X69000Y-31000D03*
X69000Y-32000D03*
X72000Y-32000D03*
X72000Y-31000D03*
X72000Y-30000D03*
X72000Y-29000D03*
X72000Y-28000D03*
X72000Y-27000D03*
X72000Y-26000D03*
X72000Y-25000D03*
X69000Y-15000D03*
X69000Y-16000D03*
X69000Y-17000D03*
X69000Y-18000D03*
X69000Y-19000D03*
X69000Y-20000D03*
X69000Y-21000D03*
X69000Y-22000D03*
X72000Y-22000D03*
X72000Y-21000D03*
X72000Y-20000D03*
X72000Y-19000D03*
X72000Y-18000D03*
X72000Y-17000D03*
X72000Y-16000D03*
X72000Y-15000D03*
X56500Y-15000D03*
X56500Y-16000D03*
X56500Y-17000D03*
X56500Y-18000D03*
X56500Y-19000D03*
X56500Y-20000D03*
X56500Y-21000D03*
X56500Y-22000D03*
X59500Y-22000D03*
X59500Y-21000D03*
X59500Y-20000D03*
X59500Y-19000D03*
X59500Y-18000D03*
X59500Y-17000D03*
X59500Y-16000D03*
X59500Y-15000D03*
M02*
