G04 (created by PCBNEW-RS274X (2011-07-08)-stable) date Sun 02 Oct 2011 11:42:34 AM CEST*
G01*
G70*
G90*
%MOIN*%
G04 Gerber Fmt 3.4, Leading zero omitted, Abs format*
%FSLAX34Y34*%
G04 APERTURE LIST*
%ADD10C,0.006000*%
%ADD11C,0.015000*%
%ADD12C,0.012000*%
%ADD13C,0.002600*%
%ADD14C,0.002000*%
%ADD15C,0.008000*%
%ADD16R,0.043300X0.039300*%
%ADD17R,0.060000X0.060000*%
%ADD18C,0.060000*%
%ADD19R,0.055000X0.055000*%
%ADD20C,0.055000*%
%ADD21O,0.080000X0.050000*%
G04 APERTURE END LIST*
G54D10*
G54D11*
X76250Y-13750D02*
X76250Y-33250D01*
X56750Y-13750D02*
X76250Y-13750D01*
X56750Y-33250D02*
X76250Y-33250D01*
X56750Y-13750D02*
X56750Y-33250D01*
X74750Y-23500D02*
X74250Y-23500D01*
X73000Y-23500D02*
X73250Y-23500D01*
X67000Y-23500D02*
X68500Y-23500D01*
X63000Y-23500D02*
X64500Y-23500D01*
X58250Y-23500D02*
X58500Y-23500D01*
G54D12*
X66452Y-17845D02*
X66452Y-18083D01*
X66690Y-18107D01*
X66667Y-18083D01*
X66643Y-18035D01*
X66643Y-17916D01*
X66667Y-17869D01*
X66690Y-17845D01*
X66738Y-17821D01*
X66857Y-17821D01*
X66905Y-17845D01*
X66929Y-17869D01*
X66952Y-17916D01*
X66952Y-18035D01*
X66929Y-18083D01*
X66905Y-18107D01*
X66452Y-17678D02*
X66952Y-17512D01*
X66452Y-17345D01*
X73369Y-14671D02*
X73321Y-14643D01*
X73250Y-14643D01*
X73178Y-14671D01*
X73131Y-14729D01*
X73107Y-14786D01*
X73083Y-14900D01*
X73083Y-14986D01*
X73107Y-15100D01*
X73131Y-15157D01*
X73178Y-15214D01*
X73250Y-15243D01*
X73298Y-15243D01*
X73369Y-15214D01*
X73393Y-15186D01*
X73393Y-14986D01*
X73298Y-14986D01*
X73607Y-15243D02*
X73607Y-14643D01*
X73893Y-15243D01*
X73893Y-14643D01*
X74131Y-15243D02*
X74131Y-14643D01*
X74250Y-14643D01*
X74322Y-14671D01*
X74369Y-14729D01*
X74393Y-14786D01*
X74417Y-14900D01*
X74417Y-14986D01*
X74393Y-15100D01*
X74369Y-15157D01*
X74322Y-15214D01*
X74250Y-15243D01*
X74131Y-15243D01*
X73551Y-23643D02*
X73951Y-23643D01*
X73694Y-24243D01*
X73865Y-24643D02*
X73751Y-24643D01*
X73694Y-24671D01*
X73665Y-24700D01*
X73608Y-24786D01*
X73579Y-24900D01*
X73579Y-25129D01*
X73608Y-25186D01*
X73636Y-25214D01*
X73694Y-25243D01*
X73808Y-25243D01*
X73865Y-25214D01*
X73894Y-25186D01*
X73922Y-25129D01*
X73922Y-24986D01*
X73894Y-24929D01*
X73865Y-24900D01*
X73808Y-24871D01*
X73694Y-24871D01*
X73636Y-24900D01*
X73608Y-24929D01*
X73579Y-24986D01*
X73894Y-25643D02*
X73608Y-25643D01*
X73579Y-25929D01*
X73608Y-25900D01*
X73665Y-25871D01*
X73808Y-25871D01*
X73865Y-25900D01*
X73894Y-25929D01*
X73922Y-25986D01*
X73922Y-26129D01*
X73894Y-26186D01*
X73865Y-26214D01*
X73808Y-26243D01*
X73665Y-26243D01*
X73608Y-26214D01*
X73579Y-26186D01*
X73865Y-26843D02*
X73865Y-27243D01*
X73722Y-26614D02*
X73579Y-27043D01*
X73951Y-27043D01*
X73551Y-27643D02*
X73922Y-27643D01*
X73722Y-27871D01*
X73808Y-27871D01*
X73865Y-27900D01*
X73894Y-27929D01*
X73922Y-27986D01*
X73922Y-28129D01*
X73894Y-28186D01*
X73865Y-28214D01*
X73808Y-28243D01*
X73636Y-28243D01*
X73579Y-28214D01*
X73551Y-28186D01*
X73579Y-28700D02*
X73608Y-28671D01*
X73665Y-28643D01*
X73808Y-28643D01*
X73865Y-28671D01*
X73894Y-28700D01*
X73922Y-28757D01*
X73922Y-28814D01*
X73894Y-28900D01*
X73551Y-29243D01*
X73922Y-29243D01*
X73722Y-30643D02*
X73779Y-30643D01*
X73836Y-30671D01*
X73865Y-30700D01*
X73894Y-30757D01*
X73922Y-30871D01*
X73922Y-31014D01*
X73894Y-31129D01*
X73865Y-31186D01*
X73836Y-31214D01*
X73779Y-31243D01*
X73722Y-31243D01*
X73665Y-31214D01*
X73636Y-31186D01*
X73608Y-31129D01*
X73579Y-31014D01*
X73579Y-30871D01*
X73608Y-30757D01*
X73636Y-30700D01*
X73665Y-30671D01*
X73722Y-30643D01*
X73922Y-30243D02*
X73579Y-30243D01*
X73751Y-30243D02*
X73751Y-29643D01*
X73694Y-29729D01*
X73636Y-29786D01*
X73579Y-29814D01*
X73369Y-31671D02*
X73321Y-31643D01*
X73250Y-31643D01*
X73178Y-31671D01*
X73131Y-31729D01*
X73107Y-31786D01*
X73083Y-31900D01*
X73083Y-31986D01*
X73107Y-32100D01*
X73131Y-32157D01*
X73178Y-32214D01*
X73250Y-32243D01*
X73298Y-32243D01*
X73369Y-32214D01*
X73393Y-32186D01*
X73393Y-31986D01*
X73298Y-31986D01*
X73607Y-32243D02*
X73607Y-31643D01*
X73893Y-32243D01*
X73893Y-31643D01*
X74131Y-32243D02*
X74131Y-31643D01*
X74250Y-31643D01*
X74322Y-31671D01*
X74369Y-31729D01*
X74393Y-31786D01*
X74417Y-31900D01*
X74417Y-31986D01*
X74393Y-32100D01*
X74369Y-32157D01*
X74322Y-32214D01*
X74250Y-32243D01*
X74131Y-32243D01*
X73694Y-22900D02*
X73636Y-22871D01*
X73608Y-22843D01*
X73579Y-22786D01*
X73579Y-22757D01*
X73608Y-22700D01*
X73636Y-22671D01*
X73694Y-22643D01*
X73808Y-22643D01*
X73865Y-22671D01*
X73894Y-22700D01*
X73922Y-22757D01*
X73922Y-22786D01*
X73894Y-22843D01*
X73865Y-22871D01*
X73808Y-22900D01*
X73694Y-22900D01*
X73636Y-22929D01*
X73608Y-22957D01*
X73579Y-23014D01*
X73579Y-23129D01*
X73608Y-23186D01*
X73636Y-23214D01*
X73694Y-23243D01*
X73808Y-23243D01*
X73865Y-23214D01*
X73894Y-23186D01*
X73922Y-23129D01*
X73922Y-23014D01*
X73894Y-22957D01*
X73865Y-22929D01*
X73808Y-22900D01*
X73636Y-22243D02*
X73751Y-22243D01*
X73808Y-22214D01*
X73836Y-22186D01*
X73894Y-22100D01*
X73922Y-21986D01*
X73922Y-21757D01*
X73894Y-21700D01*
X73865Y-21671D01*
X73808Y-21643D01*
X73694Y-21643D01*
X73636Y-21671D01*
X73608Y-21700D01*
X73579Y-21757D01*
X73579Y-21900D01*
X73608Y-21957D01*
X73636Y-21986D01*
X73694Y-22014D01*
X73808Y-22014D01*
X73865Y-21986D01*
X73894Y-21957D01*
X73922Y-21900D01*
X73636Y-21243D02*
X73293Y-21243D01*
X73465Y-21243D02*
X73465Y-20643D01*
X73408Y-20729D01*
X73350Y-20786D01*
X73293Y-20814D01*
X74007Y-20643D02*
X74064Y-20643D01*
X74121Y-20671D01*
X74150Y-20700D01*
X74179Y-20757D01*
X74207Y-20871D01*
X74207Y-21014D01*
X74179Y-21129D01*
X74150Y-21186D01*
X74121Y-21214D01*
X74064Y-21243D01*
X74007Y-21243D01*
X73950Y-21214D01*
X73921Y-21186D01*
X73893Y-21129D01*
X73864Y-21014D01*
X73864Y-20871D01*
X73893Y-20757D01*
X73921Y-20700D01*
X73950Y-20671D01*
X74007Y-20643D01*
X73636Y-20243D02*
X73293Y-20243D01*
X73465Y-20243D02*
X73465Y-19643D01*
X73408Y-19729D01*
X73350Y-19786D01*
X73293Y-19814D01*
X74207Y-20243D02*
X73864Y-20243D01*
X74036Y-20243D02*
X74036Y-19643D01*
X73979Y-19729D01*
X73921Y-19786D01*
X73864Y-19814D01*
X73636Y-19243D02*
X73293Y-19243D01*
X73465Y-19243D02*
X73465Y-18643D01*
X73408Y-18729D01*
X73350Y-18786D01*
X73293Y-18814D01*
X73864Y-18700D02*
X73893Y-18671D01*
X73950Y-18643D01*
X74093Y-18643D01*
X74150Y-18671D01*
X74179Y-18700D01*
X74207Y-18757D01*
X74207Y-18814D01*
X74179Y-18900D01*
X73836Y-19243D01*
X74207Y-19243D01*
X73636Y-18243D02*
X73293Y-18243D01*
X73465Y-18243D02*
X73465Y-17643D01*
X73408Y-17729D01*
X73350Y-17786D01*
X73293Y-17814D01*
X73836Y-17643D02*
X74207Y-17643D01*
X74007Y-17871D01*
X74093Y-17871D01*
X74150Y-17900D01*
X74179Y-17929D01*
X74207Y-17986D01*
X74207Y-18129D01*
X74179Y-18186D01*
X74150Y-18214D01*
X74093Y-18243D01*
X73921Y-18243D01*
X73864Y-18214D01*
X73836Y-18186D01*
X73636Y-17243D02*
X73293Y-17243D01*
X73465Y-17243D02*
X73465Y-16643D01*
X73408Y-16729D01*
X73350Y-16786D01*
X73293Y-16814D01*
X74150Y-16843D02*
X74150Y-17243D01*
X74007Y-16614D02*
X73864Y-17043D01*
X74236Y-17043D01*
X73636Y-16243D02*
X73293Y-16243D01*
X73465Y-16243D02*
X73465Y-15643D01*
X73408Y-15729D01*
X73350Y-15786D01*
X73293Y-15814D01*
X74179Y-15643D02*
X73893Y-15643D01*
X73864Y-15929D01*
X73893Y-15900D01*
X73950Y-15871D01*
X74093Y-15871D01*
X74150Y-15900D01*
X74179Y-15929D01*
X74207Y-15986D01*
X74207Y-16129D01*
X74179Y-16186D01*
X74150Y-16214D01*
X74093Y-16243D01*
X73950Y-16243D01*
X73893Y-16214D01*
X73864Y-16186D01*
X64893Y-22200D02*
X64922Y-22171D01*
X64979Y-22143D01*
X65122Y-22143D01*
X65179Y-22171D01*
X65208Y-22200D01*
X65236Y-22257D01*
X65236Y-22314D01*
X65208Y-22400D01*
X64865Y-22743D01*
X65236Y-22743D01*
X65493Y-22686D02*
X65521Y-22714D01*
X65493Y-22743D01*
X65464Y-22714D01*
X65493Y-22686D01*
X65493Y-22743D01*
X66065Y-22143D02*
X65779Y-22143D01*
X65750Y-22429D01*
X65779Y-22400D01*
X65836Y-22371D01*
X65979Y-22371D01*
X66036Y-22400D01*
X66065Y-22429D01*
X66093Y-22486D01*
X66093Y-22629D01*
X66065Y-22686D01*
X66036Y-22714D01*
X65979Y-22743D01*
X65836Y-22743D01*
X65779Y-22714D01*
X65750Y-22686D01*
X66264Y-22143D02*
X66464Y-22743D01*
X66664Y-22143D01*
X64865Y-23143D02*
X65236Y-23143D01*
X65036Y-23371D01*
X65122Y-23371D01*
X65179Y-23400D01*
X65208Y-23429D01*
X65236Y-23486D01*
X65236Y-23629D01*
X65208Y-23686D01*
X65179Y-23714D01*
X65122Y-23743D01*
X64950Y-23743D01*
X64893Y-23714D01*
X64865Y-23686D01*
X65493Y-23686D02*
X65521Y-23714D01*
X65493Y-23743D01*
X65464Y-23714D01*
X65493Y-23686D01*
X65493Y-23743D01*
X65722Y-23143D02*
X66093Y-23143D01*
X65893Y-23371D01*
X65979Y-23371D01*
X66036Y-23400D01*
X66065Y-23429D01*
X66093Y-23486D01*
X66093Y-23629D01*
X66065Y-23686D01*
X66036Y-23714D01*
X65979Y-23743D01*
X65807Y-23743D01*
X65750Y-23714D01*
X65722Y-23686D01*
X66264Y-23143D02*
X66464Y-23743D01*
X66664Y-23143D01*
X65208Y-24143D02*
X64922Y-24143D01*
X64893Y-24429D01*
X64922Y-24400D01*
X64979Y-24371D01*
X65122Y-24371D01*
X65179Y-24400D01*
X65208Y-24429D01*
X65236Y-24486D01*
X65236Y-24629D01*
X65208Y-24686D01*
X65179Y-24714D01*
X65122Y-24743D01*
X64979Y-24743D01*
X64922Y-24714D01*
X64893Y-24686D01*
X65493Y-24686D02*
X65521Y-24714D01*
X65493Y-24743D01*
X65464Y-24714D01*
X65493Y-24686D01*
X65493Y-24743D01*
X65893Y-24143D02*
X65950Y-24143D01*
X66007Y-24171D01*
X66036Y-24200D01*
X66065Y-24257D01*
X66093Y-24371D01*
X66093Y-24514D01*
X66065Y-24629D01*
X66036Y-24686D01*
X66007Y-24714D01*
X65950Y-24743D01*
X65893Y-24743D01*
X65836Y-24714D01*
X65807Y-24686D01*
X65779Y-24629D01*
X65750Y-24514D01*
X65750Y-24371D01*
X65779Y-24257D01*
X65807Y-24200D01*
X65836Y-24171D01*
X65893Y-24143D01*
X66264Y-24143D02*
X66464Y-24743D01*
X66664Y-24143D01*
X68807Y-23743D02*
X68807Y-23143D01*
X69035Y-23143D01*
X69093Y-23171D01*
X69121Y-23200D01*
X69150Y-23257D01*
X69150Y-23343D01*
X69121Y-23400D01*
X69093Y-23429D01*
X69035Y-23457D01*
X68807Y-23457D01*
X69407Y-23143D02*
X69407Y-23629D01*
X69435Y-23686D01*
X69464Y-23714D01*
X69521Y-23743D01*
X69635Y-23743D01*
X69693Y-23714D01*
X69721Y-23686D01*
X69750Y-23629D01*
X69750Y-23143D01*
X70322Y-23743D02*
X70036Y-23743D01*
X70036Y-23143D01*
X70808Y-23743D02*
X70522Y-23743D01*
X70522Y-23143D01*
X71008Y-23514D02*
X71465Y-23514D01*
X71751Y-23743D02*
X71751Y-23143D01*
X71894Y-23143D01*
X71979Y-23171D01*
X72037Y-23229D01*
X72065Y-23286D01*
X72094Y-23400D01*
X72094Y-23486D01*
X72065Y-23600D01*
X72037Y-23657D01*
X71979Y-23714D01*
X71894Y-23743D01*
X71751Y-23743D01*
X72351Y-23743D02*
X72351Y-23143D01*
X72694Y-23743D01*
X72694Y-23143D01*
X58807Y-23743D02*
X58807Y-23143D01*
X59035Y-23143D01*
X59093Y-23171D01*
X59121Y-23200D01*
X59150Y-23257D01*
X59150Y-23343D01*
X59121Y-23400D01*
X59093Y-23429D01*
X59035Y-23457D01*
X58807Y-23457D01*
X59407Y-23143D02*
X59407Y-23629D01*
X59435Y-23686D01*
X59464Y-23714D01*
X59521Y-23743D01*
X59635Y-23743D01*
X59693Y-23714D01*
X59721Y-23686D01*
X59750Y-23629D01*
X59750Y-23143D01*
X60322Y-23743D02*
X60036Y-23743D01*
X60036Y-23143D01*
X60808Y-23743D02*
X60522Y-23743D01*
X60522Y-23143D01*
X61008Y-23514D02*
X61465Y-23514D01*
X61751Y-23143D02*
X61751Y-23629D01*
X61779Y-23686D01*
X61808Y-23714D01*
X61865Y-23743D01*
X61979Y-23743D01*
X62037Y-23714D01*
X62065Y-23686D01*
X62094Y-23629D01*
X62094Y-23143D01*
X62380Y-23743D02*
X62380Y-23143D01*
X62608Y-23143D01*
X62666Y-23171D01*
X62694Y-23200D01*
X62723Y-23257D01*
X62723Y-23343D01*
X62694Y-23400D01*
X62666Y-23429D01*
X62608Y-23457D01*
X62380Y-23457D01*
X65493Y-32300D02*
X64893Y-32300D01*
X64893Y-32072D01*
X64921Y-32014D01*
X64950Y-31986D01*
X65007Y-31957D01*
X65093Y-31957D01*
X65150Y-31986D01*
X65179Y-32014D01*
X65207Y-32072D01*
X65207Y-32300D01*
X64893Y-31700D02*
X65379Y-31700D01*
X65436Y-31672D01*
X65464Y-31643D01*
X65493Y-31586D01*
X65493Y-31472D01*
X65464Y-31414D01*
X65436Y-31386D01*
X65379Y-31357D01*
X64893Y-31357D01*
X65493Y-30785D02*
X65493Y-31071D01*
X64893Y-31071D01*
X65493Y-30299D02*
X65493Y-30585D01*
X64893Y-30585D01*
X64893Y-29642D02*
X65379Y-29642D01*
X65436Y-29614D01*
X65464Y-29585D01*
X65493Y-29528D01*
X65493Y-29414D01*
X65464Y-29356D01*
X65436Y-29328D01*
X65379Y-29299D01*
X64893Y-29299D01*
X65493Y-29013D02*
X64893Y-29013D01*
X64893Y-28785D01*
X64921Y-28727D01*
X64950Y-28699D01*
X65007Y-28670D01*
X65093Y-28670D01*
X65150Y-28699D01*
X65179Y-28727D01*
X65207Y-28785D01*
X65207Y-29013D01*
X65853Y-32314D02*
X66453Y-32114D01*
X65853Y-31914D01*
X65853Y-31600D02*
X65853Y-31486D01*
X65881Y-31428D01*
X65939Y-31371D01*
X66053Y-31343D01*
X66253Y-31343D01*
X66367Y-31371D01*
X66424Y-31428D01*
X66453Y-31486D01*
X66453Y-31600D01*
X66424Y-31657D01*
X66367Y-31714D01*
X66253Y-31743D01*
X66053Y-31743D01*
X65939Y-31714D01*
X65881Y-31657D01*
X65853Y-31600D01*
X66453Y-30799D02*
X66453Y-31085D01*
X65853Y-31085D01*
X65853Y-30685D02*
X65853Y-30342D01*
X66453Y-30513D02*
X65853Y-30513D01*
X66281Y-30171D02*
X66281Y-29885D01*
X66453Y-30228D02*
X65853Y-30028D01*
X66453Y-29828D01*
X65881Y-29314D02*
X65853Y-29371D01*
X65853Y-29457D01*
X65881Y-29542D01*
X65939Y-29600D01*
X65996Y-29628D01*
X66110Y-29657D01*
X66196Y-29657D01*
X66310Y-29628D01*
X66367Y-29600D01*
X66424Y-29542D01*
X66453Y-29457D01*
X66453Y-29400D01*
X66424Y-29314D01*
X66396Y-29285D01*
X66196Y-29285D01*
X66196Y-29400D01*
X66139Y-29028D02*
X66139Y-28828D01*
X66453Y-28742D02*
X66453Y-29028D01*
X65853Y-29028D01*
X65853Y-28742D01*
X66476Y-15131D02*
X66452Y-15179D01*
X66452Y-15250D01*
X66476Y-15322D01*
X66524Y-15369D01*
X66571Y-15393D01*
X66667Y-15417D01*
X66738Y-15417D01*
X66833Y-15393D01*
X66881Y-15369D01*
X66929Y-15322D01*
X66952Y-15250D01*
X66952Y-15202D01*
X66929Y-15131D01*
X66905Y-15107D01*
X66738Y-15107D01*
X66738Y-15202D01*
X66952Y-14893D02*
X66452Y-14893D01*
X66952Y-14607D01*
X66452Y-14607D01*
X66952Y-14369D02*
X66452Y-14369D01*
X66452Y-14250D01*
X66476Y-14178D01*
X66524Y-14131D01*
X66571Y-14107D01*
X66667Y-14083D01*
X66738Y-14083D01*
X66833Y-14107D01*
X66881Y-14131D01*
X66929Y-14178D01*
X66952Y-14250D01*
X66952Y-14369D01*
G54D13*
X64920Y-15830D02*
X64920Y-15670D01*
X64920Y-15670D02*
X64580Y-15670D01*
X64580Y-15830D02*
X64580Y-15670D01*
X64920Y-15830D02*
X64580Y-15830D01*
X64920Y-16330D02*
X64920Y-16170D01*
X64920Y-16170D02*
X64580Y-16170D01*
X64580Y-16330D02*
X64580Y-16170D01*
X64920Y-16330D02*
X64580Y-16330D01*
X64907Y-16078D02*
X64907Y-15922D01*
X64907Y-15922D02*
X64593Y-15922D01*
X64593Y-16078D02*
X64593Y-15922D01*
X64907Y-16078D02*
X64593Y-16078D01*
G54D10*
X64890Y-16170D02*
X64890Y-15830D01*
X64610Y-15830D02*
X64610Y-16170D01*
G54D14*
X64363Y-16579D02*
X64363Y-15421D01*
X64363Y-15421D02*
X65137Y-15421D01*
X65137Y-15421D02*
X65137Y-16579D01*
X65137Y-16579D02*
X64363Y-16579D01*
G54D13*
X66920Y-16330D02*
X66920Y-16170D01*
X66920Y-16170D02*
X66580Y-16170D01*
X66580Y-16330D02*
X66580Y-16170D01*
X66920Y-16330D02*
X66580Y-16330D01*
X66920Y-16830D02*
X66920Y-16670D01*
X66920Y-16670D02*
X66580Y-16670D01*
X66580Y-16830D02*
X66580Y-16670D01*
X66920Y-16830D02*
X66580Y-16830D01*
X66907Y-16578D02*
X66907Y-16422D01*
X66907Y-16422D02*
X66593Y-16422D01*
X66593Y-16578D02*
X66593Y-16422D01*
X66907Y-16578D02*
X66593Y-16578D01*
G54D10*
X66890Y-16670D02*
X66890Y-16330D01*
X66610Y-16330D02*
X66610Y-16670D01*
G54D14*
X66363Y-17079D02*
X66363Y-15921D01*
X66363Y-15921D02*
X67137Y-15921D01*
X67137Y-15921D02*
X67137Y-17079D01*
X67137Y-17079D02*
X66363Y-17079D01*
G54D13*
X64920Y-17830D02*
X64920Y-17670D01*
X64920Y-17670D02*
X64580Y-17670D01*
X64580Y-17830D02*
X64580Y-17670D01*
X64920Y-17830D02*
X64580Y-17830D01*
X64920Y-18330D02*
X64920Y-18170D01*
X64920Y-18170D02*
X64580Y-18170D01*
X64580Y-18330D02*
X64580Y-18170D01*
X64920Y-18330D02*
X64580Y-18330D01*
X64907Y-18078D02*
X64907Y-17922D01*
X64907Y-17922D02*
X64593Y-17922D01*
X64593Y-18078D02*
X64593Y-17922D01*
X64907Y-18078D02*
X64593Y-18078D01*
G54D10*
X64890Y-18170D02*
X64890Y-17830D01*
X64610Y-17830D02*
X64610Y-18170D01*
G54D14*
X64363Y-18579D02*
X64363Y-17421D01*
X64363Y-17421D02*
X65137Y-17421D01*
X65137Y-17421D02*
X65137Y-18579D01*
X65137Y-18579D02*
X64363Y-18579D01*
G54D15*
X64750Y-28250D02*
X64750Y-25250D01*
X66750Y-25250D02*
X66750Y-28250D01*
X66750Y-28250D02*
X64750Y-28250D01*
X64750Y-25250D02*
X66750Y-25250D01*
X64750Y-21750D02*
X64750Y-18750D01*
X66750Y-18750D02*
X66750Y-21750D01*
X66750Y-21750D02*
X64750Y-21750D01*
X64750Y-18750D02*
X66750Y-18750D01*
G54D12*
X66250Y-14250D02*
X66250Y-14250D01*
X65250Y-14250D02*
X66250Y-14250D01*
X66250Y-14250D02*
X66250Y-14250D01*
X66250Y-14250D02*
X66250Y-18250D01*
X66250Y-18250D02*
X65250Y-18250D01*
X65250Y-18250D02*
X65250Y-14250D01*
X65250Y-15250D02*
X66250Y-15250D01*
X67250Y-23750D02*
X68250Y-23750D01*
X68250Y-23750D02*
X68250Y-32750D01*
X68250Y-32750D02*
X67250Y-32750D01*
X67250Y-23750D02*
X67250Y-32750D01*
X67250Y-31750D02*
X68250Y-31750D01*
X67250Y-14250D02*
X68250Y-14250D01*
X68250Y-14250D02*
X68250Y-23250D01*
X68250Y-23250D02*
X67250Y-23250D01*
X67250Y-14250D02*
X67250Y-23250D01*
X67250Y-22250D02*
X68250Y-22250D01*
X64250Y-32750D02*
X63250Y-32750D01*
X63250Y-32750D02*
X63250Y-23750D01*
X63250Y-23750D02*
X64250Y-23750D01*
X64250Y-32750D02*
X64250Y-23750D01*
X64250Y-24750D02*
X63250Y-24750D01*
X64250Y-23250D02*
X63250Y-23250D01*
X63250Y-23250D02*
X63250Y-14250D01*
X63250Y-14250D02*
X64250Y-14250D01*
X64250Y-23250D02*
X64250Y-14250D01*
X64250Y-15250D02*
X63250Y-15250D01*
X74750Y-23500D02*
X75750Y-23500D01*
X75750Y-23500D02*
X75750Y-32500D01*
X75750Y-32500D02*
X74750Y-32500D01*
X74750Y-23500D02*
X74750Y-32500D01*
X74750Y-31500D02*
X75750Y-31500D01*
X75750Y-23500D02*
X74750Y-23500D01*
X74750Y-23500D02*
X74750Y-14500D01*
X74750Y-14500D02*
X75750Y-14500D01*
X75750Y-23500D02*
X75750Y-14500D01*
X75750Y-15500D02*
X74750Y-15500D01*
X57250Y-23500D02*
X58250Y-23500D01*
X58250Y-23500D02*
X58250Y-32500D01*
X58250Y-32500D02*
X57250Y-32500D01*
X57250Y-23500D02*
X57250Y-32500D01*
X57250Y-31500D02*
X58250Y-31500D01*
X58250Y-23500D02*
X57250Y-23500D01*
X57250Y-23500D02*
X57250Y-14500D01*
X57250Y-14500D02*
X58250Y-14500D01*
X58250Y-23500D02*
X58250Y-14500D01*
X58250Y-15500D02*
X57250Y-15500D01*
G54D11*
X58750Y-22800D02*
X58750Y-14200D01*
X62750Y-14200D02*
X62750Y-22800D01*
X62750Y-14200D02*
X58750Y-14200D01*
X62750Y-22800D02*
X58750Y-22800D01*
X72750Y-14200D02*
X72750Y-22800D01*
X68750Y-22800D02*
X68750Y-14200D01*
X68750Y-22800D02*
X72750Y-22800D01*
X68750Y-14200D02*
X72750Y-14200D01*
X72750Y-24200D02*
X72750Y-32800D01*
X68750Y-32800D02*
X68750Y-24200D01*
X68750Y-32800D02*
X72750Y-32800D01*
X68750Y-24200D02*
X72750Y-24200D01*
X58750Y-32800D02*
X58750Y-24200D01*
X62750Y-24200D02*
X62750Y-32800D01*
X62750Y-24200D02*
X58750Y-24200D01*
X62750Y-32800D02*
X58750Y-32800D01*
%LPC*%
G54D16*
X64750Y-16334D03*
X64750Y-15666D03*
X66750Y-16834D03*
X66750Y-16166D03*
X64750Y-18334D03*
X64750Y-17666D03*
G54D17*
X65250Y-25750D03*
G54D18*
X66250Y-25750D03*
X65250Y-26750D03*
X66250Y-26750D03*
X65250Y-27750D03*
X66250Y-27750D03*
G54D17*
X65250Y-19250D03*
G54D18*
X66250Y-19250D03*
X65250Y-20250D03*
X66250Y-20250D03*
X65250Y-21250D03*
X66250Y-21250D03*
G54D19*
X65750Y-14750D03*
G54D20*
X65750Y-15750D03*
X65750Y-16750D03*
X65750Y-17750D03*
G54D19*
X67750Y-32250D03*
G54D20*
X67750Y-31250D03*
X67750Y-30250D03*
X67750Y-29250D03*
X67750Y-28250D03*
X67750Y-27250D03*
X67750Y-26250D03*
X67750Y-25250D03*
X67750Y-24250D03*
G54D19*
X67750Y-22750D03*
G54D20*
X67750Y-21750D03*
X67750Y-20750D03*
X67750Y-19750D03*
X67750Y-18750D03*
X67750Y-17750D03*
X67750Y-16750D03*
X67750Y-15750D03*
X67750Y-14750D03*
G54D19*
X63750Y-24250D03*
G54D20*
X63750Y-25250D03*
X63750Y-26250D03*
X63750Y-27250D03*
X63750Y-28250D03*
X63750Y-29250D03*
X63750Y-30250D03*
X63750Y-31250D03*
X63750Y-32250D03*
G54D19*
X63750Y-14750D03*
G54D20*
X63750Y-15750D03*
X63750Y-16750D03*
X63750Y-17750D03*
X63750Y-18750D03*
X63750Y-19750D03*
X63750Y-20750D03*
X63750Y-21750D03*
X63750Y-22750D03*
G54D19*
X75250Y-32000D03*
G54D20*
X75250Y-31000D03*
X75250Y-30000D03*
X75250Y-29000D03*
X75250Y-28000D03*
X75250Y-27000D03*
X75250Y-26000D03*
X75250Y-25000D03*
X75250Y-24000D03*
G54D19*
X75250Y-15000D03*
G54D20*
X75250Y-16000D03*
X75250Y-17000D03*
X75250Y-18000D03*
X75250Y-19000D03*
X75250Y-20000D03*
X75250Y-21000D03*
X75250Y-22000D03*
X75250Y-23000D03*
G54D19*
X57750Y-32000D03*
G54D20*
X57750Y-31000D03*
X57750Y-30000D03*
X57750Y-29000D03*
X57750Y-28000D03*
X57750Y-27000D03*
X57750Y-26000D03*
X57750Y-25000D03*
X57750Y-24000D03*
G54D19*
X57750Y-15000D03*
G54D20*
X57750Y-16000D03*
X57750Y-17000D03*
X57750Y-18000D03*
X57750Y-19000D03*
X57750Y-20000D03*
X57750Y-21000D03*
X57750Y-22000D03*
X57750Y-23000D03*
G54D21*
X59250Y-15000D03*
X59250Y-16000D03*
X59250Y-17000D03*
X59250Y-18000D03*
X59250Y-19000D03*
X59250Y-20000D03*
X59250Y-21000D03*
X59250Y-22000D03*
X62250Y-22000D03*
X62250Y-21000D03*
X62250Y-20000D03*
X62250Y-19000D03*
X62250Y-18000D03*
X62250Y-17000D03*
X62250Y-16000D03*
X62250Y-15000D03*
X72250Y-22000D03*
X72250Y-21000D03*
X72250Y-20000D03*
X72250Y-19000D03*
X72250Y-18000D03*
X72250Y-17000D03*
X72250Y-16000D03*
X72250Y-15000D03*
X69250Y-15000D03*
X69250Y-16000D03*
X69250Y-17000D03*
X69250Y-18000D03*
X69250Y-19000D03*
X69250Y-20000D03*
X69250Y-21000D03*
X69250Y-22000D03*
X72250Y-32000D03*
X72250Y-31000D03*
X72250Y-30000D03*
X72250Y-29000D03*
X72250Y-28000D03*
X72250Y-27000D03*
X72250Y-26000D03*
X72250Y-25000D03*
X69250Y-25000D03*
X69250Y-26000D03*
X69250Y-27000D03*
X69250Y-28000D03*
X69250Y-29000D03*
X69250Y-30000D03*
X69250Y-31000D03*
X69250Y-32000D03*
X59250Y-25000D03*
X59250Y-26000D03*
X59250Y-27000D03*
X59250Y-28000D03*
X59250Y-29000D03*
X59250Y-30000D03*
X59250Y-31000D03*
X59250Y-32000D03*
X62250Y-32000D03*
X62250Y-31000D03*
X62250Y-30000D03*
X62250Y-29000D03*
X62250Y-28000D03*
X62250Y-27000D03*
X62250Y-26000D03*
X62250Y-25000D03*
M02*
