G04 (created by PCBNEW-RS274X (2011-07-08)-stable) date Thu 27 Oct 2011 07:18:31 PM CEST*
G01*
G70*
G90*
%MOIN*%
G04 Gerber Fmt 3.4, Leading zero omitted, Abs format*
%FSLAX34Y34*%
G04 APERTURE LIST*
%ADD10C,0.006000*%
%ADD11C,0.015000*%
%ADD12C,0.012000*%
%ADD13R,0.055000X0.055000*%
%ADD14C,0.055000*%
%ADD15O,0.080000X0.050000*%
G04 APERTURE END LIST*
G54D10*
G54D11*
X64950Y-33050D02*
X64950Y-13750D01*
X76250Y-33050D02*
X76250Y-13750D01*
X64950Y-33050D02*
X76250Y-33050D01*
X64950Y-13750D02*
X76250Y-13750D01*
G54D12*
X73369Y-14671D02*
X73321Y-14643D01*
X73250Y-14643D01*
X73178Y-14671D01*
X73131Y-14729D01*
X73107Y-14786D01*
X73083Y-14900D01*
X73083Y-14986D01*
X73107Y-15100D01*
X73131Y-15157D01*
X73178Y-15214D01*
X73250Y-15243D01*
X73298Y-15243D01*
X73369Y-15214D01*
X73393Y-15186D01*
X73393Y-14986D01*
X73298Y-14986D01*
X73607Y-15243D02*
X73607Y-14643D01*
X73893Y-15243D01*
X73893Y-14643D01*
X74131Y-15243D02*
X74131Y-14643D01*
X74250Y-14643D01*
X74322Y-14671D01*
X74369Y-14729D01*
X74393Y-14786D01*
X74417Y-14900D01*
X74417Y-14986D01*
X74393Y-15100D01*
X74369Y-15157D01*
X74322Y-15214D01*
X74250Y-15243D01*
X74131Y-15243D01*
X73551Y-23643D02*
X73951Y-23643D01*
X73694Y-24243D01*
X73865Y-24643D02*
X73751Y-24643D01*
X73694Y-24671D01*
X73665Y-24700D01*
X73608Y-24786D01*
X73579Y-24900D01*
X73579Y-25129D01*
X73608Y-25186D01*
X73636Y-25214D01*
X73694Y-25243D01*
X73808Y-25243D01*
X73865Y-25214D01*
X73894Y-25186D01*
X73922Y-25129D01*
X73922Y-24986D01*
X73894Y-24929D01*
X73865Y-24900D01*
X73808Y-24871D01*
X73694Y-24871D01*
X73636Y-24900D01*
X73608Y-24929D01*
X73579Y-24986D01*
X73894Y-25643D02*
X73608Y-25643D01*
X73579Y-25929D01*
X73608Y-25900D01*
X73665Y-25871D01*
X73808Y-25871D01*
X73865Y-25900D01*
X73894Y-25929D01*
X73922Y-25986D01*
X73922Y-26129D01*
X73894Y-26186D01*
X73865Y-26214D01*
X73808Y-26243D01*
X73665Y-26243D01*
X73608Y-26214D01*
X73579Y-26186D01*
X73865Y-26843D02*
X73865Y-27243D01*
X73722Y-26614D02*
X73579Y-27043D01*
X73951Y-27043D01*
X73551Y-27643D02*
X73922Y-27643D01*
X73722Y-27871D01*
X73808Y-27871D01*
X73865Y-27900D01*
X73894Y-27929D01*
X73922Y-27986D01*
X73922Y-28129D01*
X73894Y-28186D01*
X73865Y-28214D01*
X73808Y-28243D01*
X73636Y-28243D01*
X73579Y-28214D01*
X73551Y-28186D01*
X73579Y-28700D02*
X73608Y-28671D01*
X73665Y-28643D01*
X73808Y-28643D01*
X73865Y-28671D01*
X73894Y-28700D01*
X73922Y-28757D01*
X73922Y-28814D01*
X73894Y-28900D01*
X73551Y-29243D01*
X73922Y-29243D01*
X73722Y-30643D02*
X73779Y-30643D01*
X73836Y-30671D01*
X73865Y-30700D01*
X73894Y-30757D01*
X73922Y-30871D01*
X73922Y-31014D01*
X73894Y-31129D01*
X73865Y-31186D01*
X73836Y-31214D01*
X73779Y-31243D01*
X73722Y-31243D01*
X73665Y-31214D01*
X73636Y-31186D01*
X73608Y-31129D01*
X73579Y-31014D01*
X73579Y-30871D01*
X73608Y-30757D01*
X73636Y-30700D01*
X73665Y-30671D01*
X73722Y-30643D01*
X73922Y-30243D02*
X73579Y-30243D01*
X73751Y-30243D02*
X73751Y-29643D01*
X73694Y-29729D01*
X73636Y-29786D01*
X73579Y-29814D01*
X73369Y-31671D02*
X73321Y-31643D01*
X73250Y-31643D01*
X73178Y-31671D01*
X73131Y-31729D01*
X73107Y-31786D01*
X73083Y-31900D01*
X73083Y-31986D01*
X73107Y-32100D01*
X73131Y-32157D01*
X73178Y-32214D01*
X73250Y-32243D01*
X73298Y-32243D01*
X73369Y-32214D01*
X73393Y-32186D01*
X73393Y-31986D01*
X73298Y-31986D01*
X73607Y-32243D02*
X73607Y-31643D01*
X73893Y-32243D01*
X73893Y-31643D01*
X74131Y-32243D02*
X74131Y-31643D01*
X74250Y-31643D01*
X74322Y-31671D01*
X74369Y-31729D01*
X74393Y-31786D01*
X74417Y-31900D01*
X74417Y-31986D01*
X74393Y-32100D01*
X74369Y-32157D01*
X74322Y-32214D01*
X74250Y-32243D01*
X74131Y-32243D01*
X73694Y-22900D02*
X73636Y-22871D01*
X73608Y-22843D01*
X73579Y-22786D01*
X73579Y-22757D01*
X73608Y-22700D01*
X73636Y-22671D01*
X73694Y-22643D01*
X73808Y-22643D01*
X73865Y-22671D01*
X73894Y-22700D01*
X73922Y-22757D01*
X73922Y-22786D01*
X73894Y-22843D01*
X73865Y-22871D01*
X73808Y-22900D01*
X73694Y-22900D01*
X73636Y-22929D01*
X73608Y-22957D01*
X73579Y-23014D01*
X73579Y-23129D01*
X73608Y-23186D01*
X73636Y-23214D01*
X73694Y-23243D01*
X73808Y-23243D01*
X73865Y-23214D01*
X73894Y-23186D01*
X73922Y-23129D01*
X73922Y-23014D01*
X73894Y-22957D01*
X73865Y-22929D01*
X73808Y-22900D01*
X73636Y-22243D02*
X73751Y-22243D01*
X73808Y-22214D01*
X73836Y-22186D01*
X73894Y-22100D01*
X73922Y-21986D01*
X73922Y-21757D01*
X73894Y-21700D01*
X73865Y-21671D01*
X73808Y-21643D01*
X73694Y-21643D01*
X73636Y-21671D01*
X73608Y-21700D01*
X73579Y-21757D01*
X73579Y-21900D01*
X73608Y-21957D01*
X73636Y-21986D01*
X73694Y-22014D01*
X73808Y-22014D01*
X73865Y-21986D01*
X73894Y-21957D01*
X73922Y-21900D01*
X73636Y-21243D02*
X73293Y-21243D01*
X73465Y-21243D02*
X73465Y-20643D01*
X73408Y-20729D01*
X73350Y-20786D01*
X73293Y-20814D01*
X74007Y-20643D02*
X74064Y-20643D01*
X74121Y-20671D01*
X74150Y-20700D01*
X74179Y-20757D01*
X74207Y-20871D01*
X74207Y-21014D01*
X74179Y-21129D01*
X74150Y-21186D01*
X74121Y-21214D01*
X74064Y-21243D01*
X74007Y-21243D01*
X73950Y-21214D01*
X73921Y-21186D01*
X73893Y-21129D01*
X73864Y-21014D01*
X73864Y-20871D01*
X73893Y-20757D01*
X73921Y-20700D01*
X73950Y-20671D01*
X74007Y-20643D01*
X73636Y-20243D02*
X73293Y-20243D01*
X73465Y-20243D02*
X73465Y-19643D01*
X73408Y-19729D01*
X73350Y-19786D01*
X73293Y-19814D01*
X74207Y-20243D02*
X73864Y-20243D01*
X74036Y-20243D02*
X74036Y-19643D01*
X73979Y-19729D01*
X73921Y-19786D01*
X73864Y-19814D01*
X73636Y-19243D02*
X73293Y-19243D01*
X73465Y-19243D02*
X73465Y-18643D01*
X73408Y-18729D01*
X73350Y-18786D01*
X73293Y-18814D01*
X73864Y-18700D02*
X73893Y-18671D01*
X73950Y-18643D01*
X74093Y-18643D01*
X74150Y-18671D01*
X74179Y-18700D01*
X74207Y-18757D01*
X74207Y-18814D01*
X74179Y-18900D01*
X73836Y-19243D01*
X74207Y-19243D01*
X73636Y-18243D02*
X73293Y-18243D01*
X73465Y-18243D02*
X73465Y-17643D01*
X73408Y-17729D01*
X73350Y-17786D01*
X73293Y-17814D01*
X73836Y-17643D02*
X74207Y-17643D01*
X74007Y-17871D01*
X74093Y-17871D01*
X74150Y-17900D01*
X74179Y-17929D01*
X74207Y-17986D01*
X74207Y-18129D01*
X74179Y-18186D01*
X74150Y-18214D01*
X74093Y-18243D01*
X73921Y-18243D01*
X73864Y-18214D01*
X73836Y-18186D01*
X73636Y-17243D02*
X73293Y-17243D01*
X73465Y-17243D02*
X73465Y-16643D01*
X73408Y-16729D01*
X73350Y-16786D01*
X73293Y-16814D01*
X74150Y-16843D02*
X74150Y-17243D01*
X74007Y-16614D02*
X73864Y-17043D01*
X74236Y-17043D01*
X73636Y-16243D02*
X73293Y-16243D01*
X73465Y-16243D02*
X73465Y-15643D01*
X73408Y-15729D01*
X73350Y-15786D01*
X73293Y-15814D01*
X74179Y-15643D02*
X73893Y-15643D01*
X73864Y-15929D01*
X73893Y-15900D01*
X73950Y-15871D01*
X74093Y-15871D01*
X74150Y-15900D01*
X74179Y-15929D01*
X74207Y-15986D01*
X74207Y-16129D01*
X74179Y-16186D01*
X74150Y-16214D01*
X74093Y-16243D01*
X73950Y-16243D01*
X73893Y-16214D01*
X73864Y-16186D01*
X68807Y-23643D02*
X68807Y-23043D01*
X69035Y-23043D01*
X69093Y-23071D01*
X69121Y-23100D01*
X69150Y-23157D01*
X69150Y-23243D01*
X69121Y-23300D01*
X69093Y-23329D01*
X69035Y-23357D01*
X68807Y-23357D01*
X69407Y-23043D02*
X69407Y-23529D01*
X69435Y-23586D01*
X69464Y-23614D01*
X69521Y-23643D01*
X69635Y-23643D01*
X69693Y-23614D01*
X69721Y-23586D01*
X69750Y-23529D01*
X69750Y-23043D01*
X70322Y-23643D02*
X70036Y-23643D01*
X70036Y-23043D01*
X70808Y-23643D02*
X70522Y-23643D01*
X70522Y-23043D01*
X71008Y-23414D02*
X71465Y-23414D01*
X71751Y-23643D02*
X71751Y-23043D01*
X71894Y-23043D01*
X71979Y-23071D01*
X72037Y-23129D01*
X72065Y-23186D01*
X72094Y-23300D01*
X72094Y-23386D01*
X72065Y-23500D01*
X72037Y-23557D01*
X71979Y-23614D01*
X71894Y-23643D01*
X71751Y-23643D01*
X72351Y-23643D02*
X72351Y-23043D01*
X72694Y-23643D01*
X72694Y-23043D01*
X67100Y-14400D02*
X68100Y-14400D01*
X68100Y-14400D02*
X68100Y-23400D01*
X68100Y-23400D02*
X67100Y-23400D01*
X67100Y-14400D02*
X67100Y-23400D01*
X67100Y-22400D02*
X68100Y-22400D01*
X75600Y-23400D02*
X74600Y-23400D01*
X74600Y-23400D02*
X74600Y-14400D01*
X74600Y-14400D02*
X75600Y-14400D01*
X75600Y-23400D02*
X75600Y-14400D01*
X75600Y-15400D02*
X74600Y-15400D01*
X74600Y-23400D02*
X75600Y-23400D01*
X75600Y-23400D02*
X75600Y-32400D01*
X75600Y-32400D02*
X74600Y-32400D01*
X74600Y-23400D02*
X74600Y-32400D01*
X74600Y-31400D02*
X75600Y-31400D01*
X65600Y-23400D02*
X66600Y-23400D01*
X66600Y-23400D02*
X66600Y-32400D01*
X66600Y-32400D02*
X65600Y-32400D01*
X65600Y-23400D02*
X65600Y-32400D01*
X65600Y-31400D02*
X66600Y-31400D01*
X66600Y-23400D02*
X65600Y-23400D01*
X65600Y-23400D02*
X65600Y-14400D01*
X65600Y-14400D02*
X66600Y-14400D01*
X66600Y-23400D02*
X66600Y-14400D01*
X66600Y-15400D02*
X65600Y-15400D01*
G54D11*
X72800Y-24100D02*
X72800Y-32700D01*
X68800Y-32700D02*
X68800Y-24100D01*
X68800Y-32700D02*
X72800Y-32700D01*
X68800Y-24100D02*
X72800Y-24100D01*
X72800Y-14100D02*
X72800Y-22700D01*
X68800Y-22700D02*
X68800Y-14100D01*
X68800Y-22700D02*
X72800Y-22700D01*
X68800Y-14100D02*
X72800Y-14100D01*
G54D12*
X67100Y-23400D02*
X68100Y-23400D01*
X68100Y-23400D02*
X68100Y-32400D01*
X68100Y-32400D02*
X67100Y-32400D01*
X67100Y-23400D02*
X67100Y-32400D01*
X67100Y-31400D02*
X68100Y-31400D01*
%LPC*%
G54D13*
X67600Y-22900D03*
G54D14*
X67600Y-21900D03*
X67600Y-20900D03*
X67600Y-19900D03*
X67600Y-18900D03*
X67600Y-17900D03*
X67600Y-16900D03*
X67600Y-15900D03*
X67600Y-14900D03*
G54D13*
X75100Y-14900D03*
G54D14*
X75100Y-15900D03*
X75100Y-16900D03*
X75100Y-17900D03*
X75100Y-18900D03*
X75100Y-19900D03*
X75100Y-20900D03*
X75100Y-21900D03*
X75100Y-22900D03*
G54D13*
X75100Y-31900D03*
G54D14*
X75100Y-30900D03*
X75100Y-29900D03*
X75100Y-28900D03*
X75100Y-27900D03*
X75100Y-26900D03*
X75100Y-25900D03*
X75100Y-24900D03*
X75100Y-23900D03*
G54D13*
X66100Y-31900D03*
G54D14*
X66100Y-30900D03*
X66100Y-29900D03*
X66100Y-28900D03*
X66100Y-27900D03*
X66100Y-26900D03*
X66100Y-25900D03*
X66100Y-24900D03*
X66100Y-23900D03*
G54D13*
X66100Y-14900D03*
G54D14*
X66100Y-15900D03*
X66100Y-16900D03*
X66100Y-17900D03*
X66100Y-18900D03*
X66100Y-19900D03*
X66100Y-20900D03*
X66100Y-21900D03*
X66100Y-22900D03*
G54D15*
X72300Y-31900D03*
X72300Y-30900D03*
X72300Y-29900D03*
X72300Y-28900D03*
X72300Y-27900D03*
X72300Y-26900D03*
X72300Y-25900D03*
X72300Y-24900D03*
X69300Y-24900D03*
X69300Y-25900D03*
X69300Y-26900D03*
X69300Y-27900D03*
X69300Y-28900D03*
X69300Y-29900D03*
X69300Y-30900D03*
X69300Y-31900D03*
X72300Y-21900D03*
X72300Y-20900D03*
X72300Y-19900D03*
X72300Y-18900D03*
X72300Y-17900D03*
X72300Y-16900D03*
X72300Y-15900D03*
X72300Y-14900D03*
X69300Y-14900D03*
X69300Y-15900D03*
X69300Y-16900D03*
X69300Y-17900D03*
X69300Y-18900D03*
X69300Y-19900D03*
X69300Y-20900D03*
X69300Y-21900D03*
G54D13*
X67600Y-31900D03*
G54D14*
X67600Y-30900D03*
X67600Y-29900D03*
X67600Y-28900D03*
X67600Y-27900D03*
X67600Y-26900D03*
X67600Y-25900D03*
X67600Y-24900D03*
X67600Y-23900D03*
M02*
