G04 (created by PCBNEW (2011-07-08)-stable) date Thu 27 Oct 2011 07:18:39 PM CEST*
G01*
G70*
G90*
%MOIN*%
G04 Gerber Fmt 3.4, Leading zero omitted, Abs format*
%FSLAX34Y34*%
G04 APERTURE LIST*
%ADD10C,0.001000*%
%ADD11C,0.015000*%
%ADD12C,0.008000*%
G04 APERTURE END LIST*
G54D10*
G54D11*
X64950Y-33050D02*
X64950Y-13750D01*
X76250Y-33050D02*
X76250Y-13750D01*
X64950Y-33050D02*
X76250Y-33050D01*
X64950Y-13750D02*
X76250Y-13750D01*
G54D10*
X69150Y-14750D02*
X69450Y-15050D01*
X69450Y-14750D02*
X69150Y-15050D01*
X69150Y-15750D02*
X69450Y-16050D01*
X69450Y-15750D02*
X69150Y-16050D01*
X69150Y-16750D02*
X69450Y-17050D01*
X69450Y-16750D02*
X69150Y-17050D01*
X69150Y-17750D02*
X69450Y-18050D01*
X69450Y-17750D02*
X69150Y-18050D01*
X69150Y-18750D02*
X69450Y-19050D01*
X69450Y-18750D02*
X69150Y-19050D01*
X69150Y-19750D02*
X69450Y-20050D01*
X69450Y-19750D02*
X69150Y-20050D01*
X69150Y-20750D02*
X69450Y-21050D01*
X69450Y-20750D02*
X69150Y-21050D01*
X69150Y-21750D02*
X69450Y-22050D01*
X69450Y-21750D02*
X69150Y-22050D01*
X69150Y-24750D02*
X69450Y-25050D01*
X69450Y-24750D02*
X69150Y-25050D01*
X69150Y-25750D02*
X69450Y-26050D01*
X69450Y-25750D02*
X69150Y-26050D01*
X69150Y-26750D02*
X69450Y-27050D01*
X69450Y-26750D02*
X69150Y-27050D01*
X69150Y-27750D02*
X69450Y-28050D01*
X69450Y-27750D02*
X69150Y-28050D01*
X69150Y-28750D02*
X69450Y-29050D01*
X69450Y-28750D02*
X69150Y-29050D01*
X69150Y-29750D02*
X69450Y-30050D01*
X69450Y-29750D02*
X69150Y-30050D01*
X69150Y-30750D02*
X69450Y-31050D01*
X69450Y-30750D02*
X69150Y-31050D01*
X69150Y-31750D02*
X69450Y-32050D01*
X69450Y-31750D02*
X69150Y-32050D01*
X72150Y-14750D02*
X72450Y-15050D01*
X72450Y-14750D02*
X72150Y-15050D01*
X72150Y-15750D02*
X72450Y-16050D01*
X72450Y-15750D02*
X72150Y-16050D01*
X72150Y-16750D02*
X72450Y-17050D01*
X72450Y-16750D02*
X72150Y-17050D01*
X72150Y-17750D02*
X72450Y-18050D01*
X72450Y-17750D02*
X72150Y-18050D01*
X72150Y-18750D02*
X72450Y-19050D01*
X72450Y-18750D02*
X72150Y-19050D01*
X72150Y-19750D02*
X72450Y-20050D01*
X72450Y-19750D02*
X72150Y-20050D01*
X72150Y-20750D02*
X72450Y-21050D01*
X72450Y-20750D02*
X72150Y-21050D01*
X72150Y-21750D02*
X72450Y-22050D01*
X72450Y-21750D02*
X72150Y-22050D01*
X72150Y-24750D02*
X72450Y-25050D01*
X72450Y-24750D02*
X72150Y-25050D01*
X72150Y-25750D02*
X72450Y-26050D01*
X72450Y-25750D02*
X72150Y-26050D01*
X72150Y-26750D02*
X72450Y-27050D01*
X72450Y-26750D02*
X72150Y-27050D01*
X72150Y-27750D02*
X72450Y-28050D01*
X72450Y-27750D02*
X72150Y-28050D01*
X72150Y-28750D02*
X72450Y-29050D01*
X72450Y-28750D02*
X72150Y-29050D01*
X72150Y-29750D02*
X72450Y-30050D01*
X72450Y-29750D02*
X72150Y-30050D01*
X72150Y-30750D02*
X72450Y-31050D01*
X72450Y-30750D02*
X72150Y-31050D01*
X72150Y-31750D02*
X72450Y-32050D01*
X72450Y-31750D02*
X72150Y-32050D01*
X66260Y-14900D02*
X66256Y-14931D01*
X66247Y-14960D01*
X66233Y-14988D01*
X66213Y-15012D01*
X66189Y-15032D01*
X66162Y-15047D01*
X66132Y-15056D01*
X66101Y-15059D01*
X66071Y-15057D01*
X66041Y-15048D01*
X66013Y-15033D01*
X65989Y-15014D01*
X65968Y-14990D01*
X65953Y-14963D01*
X65944Y-14933D01*
X65941Y-14902D01*
X65943Y-14872D01*
X65952Y-14842D01*
X65966Y-14814D01*
X65985Y-14789D01*
X66009Y-14769D01*
X66036Y-14754D01*
X66066Y-14744D01*
X66097Y-14741D01*
X66127Y-14743D01*
X66157Y-14751D01*
X66185Y-14765D01*
X66210Y-14785D01*
X66230Y-14808D01*
X66246Y-14835D01*
X66256Y-14865D01*
X66259Y-14896D01*
X66260Y-14900D01*
X66260Y-15900D02*
X66256Y-15931D01*
X66247Y-15960D01*
X66233Y-15988D01*
X66213Y-16012D01*
X66189Y-16032D01*
X66162Y-16047D01*
X66132Y-16056D01*
X66101Y-16059D01*
X66071Y-16057D01*
X66041Y-16048D01*
X66013Y-16033D01*
X65989Y-16014D01*
X65968Y-15990D01*
X65953Y-15963D01*
X65944Y-15933D01*
X65941Y-15902D01*
X65943Y-15872D01*
X65952Y-15842D01*
X65966Y-15814D01*
X65985Y-15789D01*
X66009Y-15769D01*
X66036Y-15754D01*
X66066Y-15744D01*
X66097Y-15741D01*
X66127Y-15743D01*
X66157Y-15751D01*
X66185Y-15765D01*
X66210Y-15785D01*
X66230Y-15808D01*
X66246Y-15835D01*
X66256Y-15865D01*
X66259Y-15896D01*
X66260Y-15900D01*
X66260Y-16900D02*
X66256Y-16931D01*
X66247Y-16960D01*
X66233Y-16988D01*
X66213Y-17012D01*
X66189Y-17032D01*
X66162Y-17047D01*
X66132Y-17056D01*
X66101Y-17059D01*
X66071Y-17057D01*
X66041Y-17048D01*
X66013Y-17033D01*
X65989Y-17014D01*
X65968Y-16990D01*
X65953Y-16963D01*
X65944Y-16933D01*
X65941Y-16902D01*
X65943Y-16872D01*
X65952Y-16842D01*
X65966Y-16814D01*
X65985Y-16789D01*
X66009Y-16769D01*
X66036Y-16754D01*
X66066Y-16744D01*
X66097Y-16741D01*
X66127Y-16743D01*
X66157Y-16751D01*
X66185Y-16765D01*
X66210Y-16785D01*
X66230Y-16808D01*
X66246Y-16835D01*
X66256Y-16865D01*
X66259Y-16896D01*
X66260Y-16900D01*
X66260Y-17900D02*
X66256Y-17931D01*
X66247Y-17960D01*
X66233Y-17988D01*
X66213Y-18012D01*
X66189Y-18032D01*
X66162Y-18047D01*
X66132Y-18056D01*
X66101Y-18059D01*
X66071Y-18057D01*
X66041Y-18048D01*
X66013Y-18033D01*
X65989Y-18014D01*
X65968Y-17990D01*
X65953Y-17963D01*
X65944Y-17933D01*
X65941Y-17902D01*
X65943Y-17872D01*
X65952Y-17842D01*
X65966Y-17814D01*
X65985Y-17789D01*
X66009Y-17769D01*
X66036Y-17754D01*
X66066Y-17744D01*
X66097Y-17741D01*
X66127Y-17743D01*
X66157Y-17751D01*
X66185Y-17765D01*
X66210Y-17785D01*
X66230Y-17808D01*
X66246Y-17835D01*
X66256Y-17865D01*
X66259Y-17896D01*
X66260Y-17900D01*
X66260Y-18900D02*
X66256Y-18931D01*
X66247Y-18960D01*
X66233Y-18988D01*
X66213Y-19012D01*
X66189Y-19032D01*
X66162Y-19047D01*
X66132Y-19056D01*
X66101Y-19059D01*
X66071Y-19057D01*
X66041Y-19048D01*
X66013Y-19033D01*
X65989Y-19014D01*
X65968Y-18990D01*
X65953Y-18963D01*
X65944Y-18933D01*
X65941Y-18902D01*
X65943Y-18872D01*
X65952Y-18842D01*
X65966Y-18814D01*
X65985Y-18789D01*
X66009Y-18769D01*
X66036Y-18754D01*
X66066Y-18744D01*
X66097Y-18741D01*
X66127Y-18743D01*
X66157Y-18751D01*
X66185Y-18765D01*
X66210Y-18785D01*
X66230Y-18808D01*
X66246Y-18835D01*
X66256Y-18865D01*
X66259Y-18896D01*
X66260Y-18900D01*
X66260Y-19900D02*
X66256Y-19931D01*
X66247Y-19960D01*
X66233Y-19988D01*
X66213Y-20012D01*
X66189Y-20032D01*
X66162Y-20047D01*
X66132Y-20056D01*
X66101Y-20059D01*
X66071Y-20057D01*
X66041Y-20048D01*
X66013Y-20033D01*
X65989Y-20014D01*
X65968Y-19990D01*
X65953Y-19963D01*
X65944Y-19933D01*
X65941Y-19902D01*
X65943Y-19872D01*
X65952Y-19842D01*
X65966Y-19814D01*
X65985Y-19789D01*
X66009Y-19769D01*
X66036Y-19754D01*
X66066Y-19744D01*
X66097Y-19741D01*
X66127Y-19743D01*
X66157Y-19751D01*
X66185Y-19765D01*
X66210Y-19785D01*
X66230Y-19808D01*
X66246Y-19835D01*
X66256Y-19865D01*
X66259Y-19896D01*
X66260Y-19900D01*
X66260Y-20900D02*
X66256Y-20931D01*
X66247Y-20960D01*
X66233Y-20988D01*
X66213Y-21012D01*
X66189Y-21032D01*
X66162Y-21047D01*
X66132Y-21056D01*
X66101Y-21059D01*
X66071Y-21057D01*
X66041Y-21048D01*
X66013Y-21033D01*
X65989Y-21014D01*
X65968Y-20990D01*
X65953Y-20963D01*
X65944Y-20933D01*
X65941Y-20902D01*
X65943Y-20872D01*
X65952Y-20842D01*
X65966Y-20814D01*
X65985Y-20789D01*
X66009Y-20769D01*
X66036Y-20754D01*
X66066Y-20744D01*
X66097Y-20741D01*
X66127Y-20743D01*
X66157Y-20751D01*
X66185Y-20765D01*
X66210Y-20785D01*
X66230Y-20808D01*
X66246Y-20835D01*
X66256Y-20865D01*
X66259Y-20896D01*
X66260Y-20900D01*
X66260Y-21900D02*
X66256Y-21931D01*
X66247Y-21960D01*
X66233Y-21988D01*
X66213Y-22012D01*
X66189Y-22032D01*
X66162Y-22047D01*
X66132Y-22056D01*
X66101Y-22059D01*
X66071Y-22057D01*
X66041Y-22048D01*
X66013Y-22033D01*
X65989Y-22014D01*
X65968Y-21990D01*
X65953Y-21963D01*
X65944Y-21933D01*
X65941Y-21902D01*
X65943Y-21872D01*
X65952Y-21842D01*
X65966Y-21814D01*
X65985Y-21789D01*
X66009Y-21769D01*
X66036Y-21754D01*
X66066Y-21744D01*
X66097Y-21741D01*
X66127Y-21743D01*
X66157Y-21751D01*
X66185Y-21765D01*
X66210Y-21785D01*
X66230Y-21808D01*
X66246Y-21835D01*
X66256Y-21865D01*
X66259Y-21896D01*
X66260Y-21900D01*
X66260Y-22900D02*
X66256Y-22931D01*
X66247Y-22960D01*
X66233Y-22988D01*
X66213Y-23012D01*
X66189Y-23032D01*
X66162Y-23047D01*
X66132Y-23056D01*
X66101Y-23059D01*
X66071Y-23057D01*
X66041Y-23048D01*
X66013Y-23033D01*
X65989Y-23014D01*
X65968Y-22990D01*
X65953Y-22963D01*
X65944Y-22933D01*
X65941Y-22902D01*
X65943Y-22872D01*
X65952Y-22842D01*
X65966Y-22814D01*
X65985Y-22789D01*
X66009Y-22769D01*
X66036Y-22754D01*
X66066Y-22744D01*
X66097Y-22741D01*
X66127Y-22743D01*
X66157Y-22751D01*
X66185Y-22765D01*
X66210Y-22785D01*
X66230Y-22808D01*
X66246Y-22835D01*
X66256Y-22865D01*
X66259Y-22896D01*
X66260Y-22900D01*
X66260Y-23900D02*
X66256Y-23931D01*
X66247Y-23960D01*
X66233Y-23988D01*
X66213Y-24012D01*
X66189Y-24032D01*
X66162Y-24047D01*
X66132Y-24056D01*
X66101Y-24059D01*
X66071Y-24057D01*
X66041Y-24048D01*
X66013Y-24033D01*
X65989Y-24014D01*
X65968Y-23990D01*
X65953Y-23963D01*
X65944Y-23933D01*
X65941Y-23902D01*
X65943Y-23872D01*
X65952Y-23842D01*
X65966Y-23814D01*
X65985Y-23789D01*
X66009Y-23769D01*
X66036Y-23754D01*
X66066Y-23744D01*
X66097Y-23741D01*
X66127Y-23743D01*
X66157Y-23751D01*
X66185Y-23765D01*
X66210Y-23785D01*
X66230Y-23808D01*
X66246Y-23835D01*
X66256Y-23865D01*
X66259Y-23896D01*
X66260Y-23900D01*
X66260Y-24900D02*
X66256Y-24931D01*
X66247Y-24960D01*
X66233Y-24988D01*
X66213Y-25012D01*
X66189Y-25032D01*
X66162Y-25047D01*
X66132Y-25056D01*
X66101Y-25059D01*
X66071Y-25057D01*
X66041Y-25048D01*
X66013Y-25033D01*
X65989Y-25014D01*
X65968Y-24990D01*
X65953Y-24963D01*
X65944Y-24933D01*
X65941Y-24902D01*
X65943Y-24872D01*
X65952Y-24842D01*
X65966Y-24814D01*
X65985Y-24789D01*
X66009Y-24769D01*
X66036Y-24754D01*
X66066Y-24744D01*
X66097Y-24741D01*
X66127Y-24743D01*
X66157Y-24751D01*
X66185Y-24765D01*
X66210Y-24785D01*
X66230Y-24808D01*
X66246Y-24835D01*
X66256Y-24865D01*
X66259Y-24896D01*
X66260Y-24900D01*
X66260Y-25900D02*
X66256Y-25931D01*
X66247Y-25960D01*
X66233Y-25988D01*
X66213Y-26012D01*
X66189Y-26032D01*
X66162Y-26047D01*
X66132Y-26056D01*
X66101Y-26059D01*
X66071Y-26057D01*
X66041Y-26048D01*
X66013Y-26033D01*
X65989Y-26014D01*
X65968Y-25990D01*
X65953Y-25963D01*
X65944Y-25933D01*
X65941Y-25902D01*
X65943Y-25872D01*
X65952Y-25842D01*
X65966Y-25814D01*
X65985Y-25789D01*
X66009Y-25769D01*
X66036Y-25754D01*
X66066Y-25744D01*
X66097Y-25741D01*
X66127Y-25743D01*
X66157Y-25751D01*
X66185Y-25765D01*
X66210Y-25785D01*
X66230Y-25808D01*
X66246Y-25835D01*
X66256Y-25865D01*
X66259Y-25896D01*
X66260Y-25900D01*
X66260Y-26900D02*
X66256Y-26931D01*
X66247Y-26960D01*
X66233Y-26988D01*
X66213Y-27012D01*
X66189Y-27032D01*
X66162Y-27047D01*
X66132Y-27056D01*
X66101Y-27059D01*
X66071Y-27057D01*
X66041Y-27048D01*
X66013Y-27033D01*
X65989Y-27014D01*
X65968Y-26990D01*
X65953Y-26963D01*
X65944Y-26933D01*
X65941Y-26902D01*
X65943Y-26872D01*
X65952Y-26842D01*
X65966Y-26814D01*
X65985Y-26789D01*
X66009Y-26769D01*
X66036Y-26754D01*
X66066Y-26744D01*
X66097Y-26741D01*
X66127Y-26743D01*
X66157Y-26751D01*
X66185Y-26765D01*
X66210Y-26785D01*
X66230Y-26808D01*
X66246Y-26835D01*
X66256Y-26865D01*
X66259Y-26896D01*
X66260Y-26900D01*
X66260Y-27900D02*
X66256Y-27931D01*
X66247Y-27960D01*
X66233Y-27988D01*
X66213Y-28012D01*
X66189Y-28032D01*
X66162Y-28047D01*
X66132Y-28056D01*
X66101Y-28059D01*
X66071Y-28057D01*
X66041Y-28048D01*
X66013Y-28033D01*
X65989Y-28014D01*
X65968Y-27990D01*
X65953Y-27963D01*
X65944Y-27933D01*
X65941Y-27902D01*
X65943Y-27872D01*
X65952Y-27842D01*
X65966Y-27814D01*
X65985Y-27789D01*
X66009Y-27769D01*
X66036Y-27754D01*
X66066Y-27744D01*
X66097Y-27741D01*
X66127Y-27743D01*
X66157Y-27751D01*
X66185Y-27765D01*
X66210Y-27785D01*
X66230Y-27808D01*
X66246Y-27835D01*
X66256Y-27865D01*
X66259Y-27896D01*
X66260Y-27900D01*
X66260Y-28900D02*
X66256Y-28931D01*
X66247Y-28960D01*
X66233Y-28988D01*
X66213Y-29012D01*
X66189Y-29032D01*
X66162Y-29047D01*
X66132Y-29056D01*
X66101Y-29059D01*
X66071Y-29057D01*
X66041Y-29048D01*
X66013Y-29033D01*
X65989Y-29014D01*
X65968Y-28990D01*
X65953Y-28963D01*
X65944Y-28933D01*
X65941Y-28902D01*
X65943Y-28872D01*
X65952Y-28842D01*
X65966Y-28814D01*
X65985Y-28789D01*
X66009Y-28769D01*
X66036Y-28754D01*
X66066Y-28744D01*
X66097Y-28741D01*
X66127Y-28743D01*
X66157Y-28751D01*
X66185Y-28765D01*
X66210Y-28785D01*
X66230Y-28808D01*
X66246Y-28835D01*
X66256Y-28865D01*
X66259Y-28896D01*
X66260Y-28900D01*
X66260Y-29900D02*
X66256Y-29931D01*
X66247Y-29960D01*
X66233Y-29988D01*
X66213Y-30012D01*
X66189Y-30032D01*
X66162Y-30047D01*
X66132Y-30056D01*
X66101Y-30059D01*
X66071Y-30057D01*
X66041Y-30048D01*
X66013Y-30033D01*
X65989Y-30014D01*
X65968Y-29990D01*
X65953Y-29963D01*
X65944Y-29933D01*
X65941Y-29902D01*
X65943Y-29872D01*
X65952Y-29842D01*
X65966Y-29814D01*
X65985Y-29789D01*
X66009Y-29769D01*
X66036Y-29754D01*
X66066Y-29744D01*
X66097Y-29741D01*
X66127Y-29743D01*
X66157Y-29751D01*
X66185Y-29765D01*
X66210Y-29785D01*
X66230Y-29808D01*
X66246Y-29835D01*
X66256Y-29865D01*
X66259Y-29896D01*
X66260Y-29900D01*
X66260Y-30900D02*
X66256Y-30931D01*
X66247Y-30960D01*
X66233Y-30988D01*
X66213Y-31012D01*
X66189Y-31032D01*
X66162Y-31047D01*
X66132Y-31056D01*
X66101Y-31059D01*
X66071Y-31057D01*
X66041Y-31048D01*
X66013Y-31033D01*
X65989Y-31014D01*
X65968Y-30990D01*
X65953Y-30963D01*
X65944Y-30933D01*
X65941Y-30902D01*
X65943Y-30872D01*
X65952Y-30842D01*
X65966Y-30814D01*
X65985Y-30789D01*
X66009Y-30769D01*
X66036Y-30754D01*
X66066Y-30744D01*
X66097Y-30741D01*
X66127Y-30743D01*
X66157Y-30751D01*
X66185Y-30765D01*
X66210Y-30785D01*
X66230Y-30808D01*
X66246Y-30835D01*
X66256Y-30865D01*
X66259Y-30896D01*
X66260Y-30900D01*
X66260Y-31900D02*
X66256Y-31931D01*
X66247Y-31960D01*
X66233Y-31988D01*
X66213Y-32012D01*
X66189Y-32032D01*
X66162Y-32047D01*
X66132Y-32056D01*
X66101Y-32059D01*
X66071Y-32057D01*
X66041Y-32048D01*
X66013Y-32033D01*
X65989Y-32014D01*
X65968Y-31990D01*
X65953Y-31963D01*
X65944Y-31933D01*
X65941Y-31902D01*
X65943Y-31872D01*
X65952Y-31842D01*
X65966Y-31814D01*
X65985Y-31789D01*
X66009Y-31769D01*
X66036Y-31754D01*
X66066Y-31744D01*
X66097Y-31741D01*
X66127Y-31743D01*
X66157Y-31751D01*
X66185Y-31765D01*
X66210Y-31785D01*
X66230Y-31808D01*
X66246Y-31835D01*
X66256Y-31865D01*
X66259Y-31896D01*
X66260Y-31900D01*
X67760Y-14900D02*
X67756Y-14931D01*
X67747Y-14960D01*
X67733Y-14988D01*
X67713Y-15012D01*
X67689Y-15032D01*
X67662Y-15047D01*
X67632Y-15056D01*
X67601Y-15059D01*
X67571Y-15057D01*
X67541Y-15048D01*
X67513Y-15033D01*
X67489Y-15014D01*
X67468Y-14990D01*
X67453Y-14963D01*
X67444Y-14933D01*
X67441Y-14902D01*
X67443Y-14872D01*
X67452Y-14842D01*
X67466Y-14814D01*
X67485Y-14789D01*
X67509Y-14769D01*
X67536Y-14754D01*
X67566Y-14744D01*
X67597Y-14741D01*
X67627Y-14743D01*
X67657Y-14751D01*
X67685Y-14765D01*
X67710Y-14785D01*
X67730Y-14808D01*
X67746Y-14835D01*
X67756Y-14865D01*
X67759Y-14896D01*
X67760Y-14900D01*
X67760Y-15900D02*
X67756Y-15931D01*
X67747Y-15960D01*
X67733Y-15988D01*
X67713Y-16012D01*
X67689Y-16032D01*
X67662Y-16047D01*
X67632Y-16056D01*
X67601Y-16059D01*
X67571Y-16057D01*
X67541Y-16048D01*
X67513Y-16033D01*
X67489Y-16014D01*
X67468Y-15990D01*
X67453Y-15963D01*
X67444Y-15933D01*
X67441Y-15902D01*
X67443Y-15872D01*
X67452Y-15842D01*
X67466Y-15814D01*
X67485Y-15789D01*
X67509Y-15769D01*
X67536Y-15754D01*
X67566Y-15744D01*
X67597Y-15741D01*
X67627Y-15743D01*
X67657Y-15751D01*
X67685Y-15765D01*
X67710Y-15785D01*
X67730Y-15808D01*
X67746Y-15835D01*
X67756Y-15865D01*
X67759Y-15896D01*
X67760Y-15900D01*
X67760Y-16900D02*
X67756Y-16931D01*
X67747Y-16960D01*
X67733Y-16988D01*
X67713Y-17012D01*
X67689Y-17032D01*
X67662Y-17047D01*
X67632Y-17056D01*
X67601Y-17059D01*
X67571Y-17057D01*
X67541Y-17048D01*
X67513Y-17033D01*
X67489Y-17014D01*
X67468Y-16990D01*
X67453Y-16963D01*
X67444Y-16933D01*
X67441Y-16902D01*
X67443Y-16872D01*
X67452Y-16842D01*
X67466Y-16814D01*
X67485Y-16789D01*
X67509Y-16769D01*
X67536Y-16754D01*
X67566Y-16744D01*
X67597Y-16741D01*
X67627Y-16743D01*
X67657Y-16751D01*
X67685Y-16765D01*
X67710Y-16785D01*
X67730Y-16808D01*
X67746Y-16835D01*
X67756Y-16865D01*
X67759Y-16896D01*
X67760Y-16900D01*
X67760Y-17900D02*
X67756Y-17931D01*
X67747Y-17960D01*
X67733Y-17988D01*
X67713Y-18012D01*
X67689Y-18032D01*
X67662Y-18047D01*
X67632Y-18056D01*
X67601Y-18059D01*
X67571Y-18057D01*
X67541Y-18048D01*
X67513Y-18033D01*
X67489Y-18014D01*
X67468Y-17990D01*
X67453Y-17963D01*
X67444Y-17933D01*
X67441Y-17902D01*
X67443Y-17872D01*
X67452Y-17842D01*
X67466Y-17814D01*
X67485Y-17789D01*
X67509Y-17769D01*
X67536Y-17754D01*
X67566Y-17744D01*
X67597Y-17741D01*
X67627Y-17743D01*
X67657Y-17751D01*
X67685Y-17765D01*
X67710Y-17785D01*
X67730Y-17808D01*
X67746Y-17835D01*
X67756Y-17865D01*
X67759Y-17896D01*
X67760Y-17900D01*
X67760Y-18900D02*
X67756Y-18931D01*
X67747Y-18960D01*
X67733Y-18988D01*
X67713Y-19012D01*
X67689Y-19032D01*
X67662Y-19047D01*
X67632Y-19056D01*
X67601Y-19059D01*
X67571Y-19057D01*
X67541Y-19048D01*
X67513Y-19033D01*
X67489Y-19014D01*
X67468Y-18990D01*
X67453Y-18963D01*
X67444Y-18933D01*
X67441Y-18902D01*
X67443Y-18872D01*
X67452Y-18842D01*
X67466Y-18814D01*
X67485Y-18789D01*
X67509Y-18769D01*
X67536Y-18754D01*
X67566Y-18744D01*
X67597Y-18741D01*
X67627Y-18743D01*
X67657Y-18751D01*
X67685Y-18765D01*
X67710Y-18785D01*
X67730Y-18808D01*
X67746Y-18835D01*
X67756Y-18865D01*
X67759Y-18896D01*
X67760Y-18900D01*
X67760Y-19900D02*
X67756Y-19931D01*
X67747Y-19960D01*
X67733Y-19988D01*
X67713Y-20012D01*
X67689Y-20032D01*
X67662Y-20047D01*
X67632Y-20056D01*
X67601Y-20059D01*
X67571Y-20057D01*
X67541Y-20048D01*
X67513Y-20033D01*
X67489Y-20014D01*
X67468Y-19990D01*
X67453Y-19963D01*
X67444Y-19933D01*
X67441Y-19902D01*
X67443Y-19872D01*
X67452Y-19842D01*
X67466Y-19814D01*
X67485Y-19789D01*
X67509Y-19769D01*
X67536Y-19754D01*
X67566Y-19744D01*
X67597Y-19741D01*
X67627Y-19743D01*
X67657Y-19751D01*
X67685Y-19765D01*
X67710Y-19785D01*
X67730Y-19808D01*
X67746Y-19835D01*
X67756Y-19865D01*
X67759Y-19896D01*
X67760Y-19900D01*
X67760Y-20900D02*
X67756Y-20931D01*
X67747Y-20960D01*
X67733Y-20988D01*
X67713Y-21012D01*
X67689Y-21032D01*
X67662Y-21047D01*
X67632Y-21056D01*
X67601Y-21059D01*
X67571Y-21057D01*
X67541Y-21048D01*
X67513Y-21033D01*
X67489Y-21014D01*
X67468Y-20990D01*
X67453Y-20963D01*
X67444Y-20933D01*
X67441Y-20902D01*
X67443Y-20872D01*
X67452Y-20842D01*
X67466Y-20814D01*
X67485Y-20789D01*
X67509Y-20769D01*
X67536Y-20754D01*
X67566Y-20744D01*
X67597Y-20741D01*
X67627Y-20743D01*
X67657Y-20751D01*
X67685Y-20765D01*
X67710Y-20785D01*
X67730Y-20808D01*
X67746Y-20835D01*
X67756Y-20865D01*
X67759Y-20896D01*
X67760Y-20900D01*
X67760Y-21900D02*
X67756Y-21931D01*
X67747Y-21960D01*
X67733Y-21988D01*
X67713Y-22012D01*
X67689Y-22032D01*
X67662Y-22047D01*
X67632Y-22056D01*
X67601Y-22059D01*
X67571Y-22057D01*
X67541Y-22048D01*
X67513Y-22033D01*
X67489Y-22014D01*
X67468Y-21990D01*
X67453Y-21963D01*
X67444Y-21933D01*
X67441Y-21902D01*
X67443Y-21872D01*
X67452Y-21842D01*
X67466Y-21814D01*
X67485Y-21789D01*
X67509Y-21769D01*
X67536Y-21754D01*
X67566Y-21744D01*
X67597Y-21741D01*
X67627Y-21743D01*
X67657Y-21751D01*
X67685Y-21765D01*
X67710Y-21785D01*
X67730Y-21808D01*
X67746Y-21835D01*
X67756Y-21865D01*
X67759Y-21896D01*
X67760Y-21900D01*
X67760Y-22900D02*
X67756Y-22931D01*
X67747Y-22960D01*
X67733Y-22988D01*
X67713Y-23012D01*
X67689Y-23032D01*
X67662Y-23047D01*
X67632Y-23056D01*
X67601Y-23059D01*
X67571Y-23057D01*
X67541Y-23048D01*
X67513Y-23033D01*
X67489Y-23014D01*
X67468Y-22990D01*
X67453Y-22963D01*
X67444Y-22933D01*
X67441Y-22902D01*
X67443Y-22872D01*
X67452Y-22842D01*
X67466Y-22814D01*
X67485Y-22789D01*
X67509Y-22769D01*
X67536Y-22754D01*
X67566Y-22744D01*
X67597Y-22741D01*
X67627Y-22743D01*
X67657Y-22751D01*
X67685Y-22765D01*
X67710Y-22785D01*
X67730Y-22808D01*
X67746Y-22835D01*
X67756Y-22865D01*
X67759Y-22896D01*
X67760Y-22900D01*
X67760Y-23900D02*
X67756Y-23931D01*
X67747Y-23960D01*
X67733Y-23988D01*
X67713Y-24012D01*
X67689Y-24032D01*
X67662Y-24047D01*
X67632Y-24056D01*
X67601Y-24059D01*
X67571Y-24057D01*
X67541Y-24048D01*
X67513Y-24033D01*
X67489Y-24014D01*
X67468Y-23990D01*
X67453Y-23963D01*
X67444Y-23933D01*
X67441Y-23902D01*
X67443Y-23872D01*
X67452Y-23842D01*
X67466Y-23814D01*
X67485Y-23789D01*
X67509Y-23769D01*
X67536Y-23754D01*
X67566Y-23744D01*
X67597Y-23741D01*
X67627Y-23743D01*
X67657Y-23751D01*
X67685Y-23765D01*
X67710Y-23785D01*
X67730Y-23808D01*
X67746Y-23835D01*
X67756Y-23865D01*
X67759Y-23896D01*
X67760Y-23900D01*
X67760Y-24900D02*
X67756Y-24931D01*
X67747Y-24960D01*
X67733Y-24988D01*
X67713Y-25012D01*
X67689Y-25032D01*
X67662Y-25047D01*
X67632Y-25056D01*
X67601Y-25059D01*
X67571Y-25057D01*
X67541Y-25048D01*
X67513Y-25033D01*
X67489Y-25014D01*
X67468Y-24990D01*
X67453Y-24963D01*
X67444Y-24933D01*
X67441Y-24902D01*
X67443Y-24872D01*
X67452Y-24842D01*
X67466Y-24814D01*
X67485Y-24789D01*
X67509Y-24769D01*
X67536Y-24754D01*
X67566Y-24744D01*
X67597Y-24741D01*
X67627Y-24743D01*
X67657Y-24751D01*
X67685Y-24765D01*
X67710Y-24785D01*
X67730Y-24808D01*
X67746Y-24835D01*
X67756Y-24865D01*
X67759Y-24896D01*
X67760Y-24900D01*
X67760Y-25900D02*
X67756Y-25931D01*
X67747Y-25960D01*
X67733Y-25988D01*
X67713Y-26012D01*
X67689Y-26032D01*
X67662Y-26047D01*
X67632Y-26056D01*
X67601Y-26059D01*
X67571Y-26057D01*
X67541Y-26048D01*
X67513Y-26033D01*
X67489Y-26014D01*
X67468Y-25990D01*
X67453Y-25963D01*
X67444Y-25933D01*
X67441Y-25902D01*
X67443Y-25872D01*
X67452Y-25842D01*
X67466Y-25814D01*
X67485Y-25789D01*
X67509Y-25769D01*
X67536Y-25754D01*
X67566Y-25744D01*
X67597Y-25741D01*
X67627Y-25743D01*
X67657Y-25751D01*
X67685Y-25765D01*
X67710Y-25785D01*
X67730Y-25808D01*
X67746Y-25835D01*
X67756Y-25865D01*
X67759Y-25896D01*
X67760Y-25900D01*
X67760Y-26900D02*
X67756Y-26931D01*
X67747Y-26960D01*
X67733Y-26988D01*
X67713Y-27012D01*
X67689Y-27032D01*
X67662Y-27047D01*
X67632Y-27056D01*
X67601Y-27059D01*
X67571Y-27057D01*
X67541Y-27048D01*
X67513Y-27033D01*
X67489Y-27014D01*
X67468Y-26990D01*
X67453Y-26963D01*
X67444Y-26933D01*
X67441Y-26902D01*
X67443Y-26872D01*
X67452Y-26842D01*
X67466Y-26814D01*
X67485Y-26789D01*
X67509Y-26769D01*
X67536Y-26754D01*
X67566Y-26744D01*
X67597Y-26741D01*
X67627Y-26743D01*
X67657Y-26751D01*
X67685Y-26765D01*
X67710Y-26785D01*
X67730Y-26808D01*
X67746Y-26835D01*
X67756Y-26865D01*
X67759Y-26896D01*
X67760Y-26900D01*
X67760Y-27900D02*
X67756Y-27931D01*
X67747Y-27960D01*
X67733Y-27988D01*
X67713Y-28012D01*
X67689Y-28032D01*
X67662Y-28047D01*
X67632Y-28056D01*
X67601Y-28059D01*
X67571Y-28057D01*
X67541Y-28048D01*
X67513Y-28033D01*
X67489Y-28014D01*
X67468Y-27990D01*
X67453Y-27963D01*
X67444Y-27933D01*
X67441Y-27902D01*
X67443Y-27872D01*
X67452Y-27842D01*
X67466Y-27814D01*
X67485Y-27789D01*
X67509Y-27769D01*
X67536Y-27754D01*
X67566Y-27744D01*
X67597Y-27741D01*
X67627Y-27743D01*
X67657Y-27751D01*
X67685Y-27765D01*
X67710Y-27785D01*
X67730Y-27808D01*
X67746Y-27835D01*
X67756Y-27865D01*
X67759Y-27896D01*
X67760Y-27900D01*
X67760Y-28900D02*
X67756Y-28931D01*
X67747Y-28960D01*
X67733Y-28988D01*
X67713Y-29012D01*
X67689Y-29032D01*
X67662Y-29047D01*
X67632Y-29056D01*
X67601Y-29059D01*
X67571Y-29057D01*
X67541Y-29048D01*
X67513Y-29033D01*
X67489Y-29014D01*
X67468Y-28990D01*
X67453Y-28963D01*
X67444Y-28933D01*
X67441Y-28902D01*
X67443Y-28872D01*
X67452Y-28842D01*
X67466Y-28814D01*
X67485Y-28789D01*
X67509Y-28769D01*
X67536Y-28754D01*
X67566Y-28744D01*
X67597Y-28741D01*
X67627Y-28743D01*
X67657Y-28751D01*
X67685Y-28765D01*
X67710Y-28785D01*
X67730Y-28808D01*
X67746Y-28835D01*
X67756Y-28865D01*
X67759Y-28896D01*
X67760Y-28900D01*
X67760Y-29900D02*
X67756Y-29931D01*
X67747Y-29960D01*
X67733Y-29988D01*
X67713Y-30012D01*
X67689Y-30032D01*
X67662Y-30047D01*
X67632Y-30056D01*
X67601Y-30059D01*
X67571Y-30057D01*
X67541Y-30048D01*
X67513Y-30033D01*
X67489Y-30014D01*
X67468Y-29990D01*
X67453Y-29963D01*
X67444Y-29933D01*
X67441Y-29902D01*
X67443Y-29872D01*
X67452Y-29842D01*
X67466Y-29814D01*
X67485Y-29789D01*
X67509Y-29769D01*
X67536Y-29754D01*
X67566Y-29744D01*
X67597Y-29741D01*
X67627Y-29743D01*
X67657Y-29751D01*
X67685Y-29765D01*
X67710Y-29785D01*
X67730Y-29808D01*
X67746Y-29835D01*
X67756Y-29865D01*
X67759Y-29896D01*
X67760Y-29900D01*
X67760Y-30900D02*
X67756Y-30931D01*
X67747Y-30960D01*
X67733Y-30988D01*
X67713Y-31012D01*
X67689Y-31032D01*
X67662Y-31047D01*
X67632Y-31056D01*
X67601Y-31059D01*
X67571Y-31057D01*
X67541Y-31048D01*
X67513Y-31033D01*
X67489Y-31014D01*
X67468Y-30990D01*
X67453Y-30963D01*
X67444Y-30933D01*
X67441Y-30902D01*
X67443Y-30872D01*
X67452Y-30842D01*
X67466Y-30814D01*
X67485Y-30789D01*
X67509Y-30769D01*
X67536Y-30754D01*
X67566Y-30744D01*
X67597Y-30741D01*
X67627Y-30743D01*
X67657Y-30751D01*
X67685Y-30765D01*
X67710Y-30785D01*
X67730Y-30808D01*
X67746Y-30835D01*
X67756Y-30865D01*
X67759Y-30896D01*
X67760Y-30900D01*
X67760Y-31900D02*
X67756Y-31931D01*
X67747Y-31960D01*
X67733Y-31988D01*
X67713Y-32012D01*
X67689Y-32032D01*
X67662Y-32047D01*
X67632Y-32056D01*
X67601Y-32059D01*
X67571Y-32057D01*
X67541Y-32048D01*
X67513Y-32033D01*
X67489Y-32014D01*
X67468Y-31990D01*
X67453Y-31963D01*
X67444Y-31933D01*
X67441Y-31902D01*
X67443Y-31872D01*
X67452Y-31842D01*
X67466Y-31814D01*
X67485Y-31789D01*
X67509Y-31769D01*
X67536Y-31754D01*
X67566Y-31744D01*
X67597Y-31741D01*
X67627Y-31743D01*
X67657Y-31751D01*
X67685Y-31765D01*
X67710Y-31785D01*
X67730Y-31808D01*
X67746Y-31835D01*
X67756Y-31865D01*
X67759Y-31896D01*
X67760Y-31900D01*
X75260Y-14900D02*
X75256Y-14931D01*
X75247Y-14960D01*
X75233Y-14988D01*
X75213Y-15012D01*
X75189Y-15032D01*
X75162Y-15047D01*
X75132Y-15056D01*
X75101Y-15059D01*
X75071Y-15057D01*
X75041Y-15048D01*
X75013Y-15033D01*
X74989Y-15014D01*
X74968Y-14990D01*
X74953Y-14963D01*
X74944Y-14933D01*
X74941Y-14902D01*
X74943Y-14872D01*
X74952Y-14842D01*
X74966Y-14814D01*
X74985Y-14789D01*
X75009Y-14769D01*
X75036Y-14754D01*
X75066Y-14744D01*
X75097Y-14741D01*
X75127Y-14743D01*
X75157Y-14751D01*
X75185Y-14765D01*
X75210Y-14785D01*
X75230Y-14808D01*
X75246Y-14835D01*
X75256Y-14865D01*
X75259Y-14896D01*
X75260Y-14900D01*
X75260Y-15900D02*
X75256Y-15931D01*
X75247Y-15960D01*
X75233Y-15988D01*
X75213Y-16012D01*
X75189Y-16032D01*
X75162Y-16047D01*
X75132Y-16056D01*
X75101Y-16059D01*
X75071Y-16057D01*
X75041Y-16048D01*
X75013Y-16033D01*
X74989Y-16014D01*
X74968Y-15990D01*
X74953Y-15963D01*
X74944Y-15933D01*
X74941Y-15902D01*
X74943Y-15872D01*
X74952Y-15842D01*
X74966Y-15814D01*
X74985Y-15789D01*
X75009Y-15769D01*
X75036Y-15754D01*
X75066Y-15744D01*
X75097Y-15741D01*
X75127Y-15743D01*
X75157Y-15751D01*
X75185Y-15765D01*
X75210Y-15785D01*
X75230Y-15808D01*
X75246Y-15835D01*
X75256Y-15865D01*
X75259Y-15896D01*
X75260Y-15900D01*
X75260Y-16900D02*
X75256Y-16931D01*
X75247Y-16960D01*
X75233Y-16988D01*
X75213Y-17012D01*
X75189Y-17032D01*
X75162Y-17047D01*
X75132Y-17056D01*
X75101Y-17059D01*
X75071Y-17057D01*
X75041Y-17048D01*
X75013Y-17033D01*
X74989Y-17014D01*
X74968Y-16990D01*
X74953Y-16963D01*
X74944Y-16933D01*
X74941Y-16902D01*
X74943Y-16872D01*
X74952Y-16842D01*
X74966Y-16814D01*
X74985Y-16789D01*
X75009Y-16769D01*
X75036Y-16754D01*
X75066Y-16744D01*
X75097Y-16741D01*
X75127Y-16743D01*
X75157Y-16751D01*
X75185Y-16765D01*
X75210Y-16785D01*
X75230Y-16808D01*
X75246Y-16835D01*
X75256Y-16865D01*
X75259Y-16896D01*
X75260Y-16900D01*
X75260Y-17900D02*
X75256Y-17931D01*
X75247Y-17960D01*
X75233Y-17988D01*
X75213Y-18012D01*
X75189Y-18032D01*
X75162Y-18047D01*
X75132Y-18056D01*
X75101Y-18059D01*
X75071Y-18057D01*
X75041Y-18048D01*
X75013Y-18033D01*
X74989Y-18014D01*
X74968Y-17990D01*
X74953Y-17963D01*
X74944Y-17933D01*
X74941Y-17902D01*
X74943Y-17872D01*
X74952Y-17842D01*
X74966Y-17814D01*
X74985Y-17789D01*
X75009Y-17769D01*
X75036Y-17754D01*
X75066Y-17744D01*
X75097Y-17741D01*
X75127Y-17743D01*
X75157Y-17751D01*
X75185Y-17765D01*
X75210Y-17785D01*
X75230Y-17808D01*
X75246Y-17835D01*
X75256Y-17865D01*
X75259Y-17896D01*
X75260Y-17900D01*
X75260Y-18900D02*
X75256Y-18931D01*
X75247Y-18960D01*
X75233Y-18988D01*
X75213Y-19012D01*
X75189Y-19032D01*
X75162Y-19047D01*
X75132Y-19056D01*
X75101Y-19059D01*
X75071Y-19057D01*
X75041Y-19048D01*
X75013Y-19033D01*
X74989Y-19014D01*
X74968Y-18990D01*
X74953Y-18963D01*
X74944Y-18933D01*
X74941Y-18902D01*
X74943Y-18872D01*
X74952Y-18842D01*
X74966Y-18814D01*
X74985Y-18789D01*
X75009Y-18769D01*
X75036Y-18754D01*
X75066Y-18744D01*
X75097Y-18741D01*
X75127Y-18743D01*
X75157Y-18751D01*
X75185Y-18765D01*
X75210Y-18785D01*
X75230Y-18808D01*
X75246Y-18835D01*
X75256Y-18865D01*
X75259Y-18896D01*
X75260Y-18900D01*
X75260Y-19900D02*
X75256Y-19931D01*
X75247Y-19960D01*
X75233Y-19988D01*
X75213Y-20012D01*
X75189Y-20032D01*
X75162Y-20047D01*
X75132Y-20056D01*
X75101Y-20059D01*
X75071Y-20057D01*
X75041Y-20048D01*
X75013Y-20033D01*
X74989Y-20014D01*
X74968Y-19990D01*
X74953Y-19963D01*
X74944Y-19933D01*
X74941Y-19902D01*
X74943Y-19872D01*
X74952Y-19842D01*
X74966Y-19814D01*
X74985Y-19789D01*
X75009Y-19769D01*
X75036Y-19754D01*
X75066Y-19744D01*
X75097Y-19741D01*
X75127Y-19743D01*
X75157Y-19751D01*
X75185Y-19765D01*
X75210Y-19785D01*
X75230Y-19808D01*
X75246Y-19835D01*
X75256Y-19865D01*
X75259Y-19896D01*
X75260Y-19900D01*
X75260Y-20900D02*
X75256Y-20931D01*
X75247Y-20960D01*
X75233Y-20988D01*
X75213Y-21012D01*
X75189Y-21032D01*
X75162Y-21047D01*
X75132Y-21056D01*
X75101Y-21059D01*
X75071Y-21057D01*
X75041Y-21048D01*
X75013Y-21033D01*
X74989Y-21014D01*
X74968Y-20990D01*
X74953Y-20963D01*
X74944Y-20933D01*
X74941Y-20902D01*
X74943Y-20872D01*
X74952Y-20842D01*
X74966Y-20814D01*
X74985Y-20789D01*
X75009Y-20769D01*
X75036Y-20754D01*
X75066Y-20744D01*
X75097Y-20741D01*
X75127Y-20743D01*
X75157Y-20751D01*
X75185Y-20765D01*
X75210Y-20785D01*
X75230Y-20808D01*
X75246Y-20835D01*
X75256Y-20865D01*
X75259Y-20896D01*
X75260Y-20900D01*
X75260Y-21900D02*
X75256Y-21931D01*
X75247Y-21960D01*
X75233Y-21988D01*
X75213Y-22012D01*
X75189Y-22032D01*
X75162Y-22047D01*
X75132Y-22056D01*
X75101Y-22059D01*
X75071Y-22057D01*
X75041Y-22048D01*
X75013Y-22033D01*
X74989Y-22014D01*
X74968Y-21990D01*
X74953Y-21963D01*
X74944Y-21933D01*
X74941Y-21902D01*
X74943Y-21872D01*
X74952Y-21842D01*
X74966Y-21814D01*
X74985Y-21789D01*
X75009Y-21769D01*
X75036Y-21754D01*
X75066Y-21744D01*
X75097Y-21741D01*
X75127Y-21743D01*
X75157Y-21751D01*
X75185Y-21765D01*
X75210Y-21785D01*
X75230Y-21808D01*
X75246Y-21835D01*
X75256Y-21865D01*
X75259Y-21896D01*
X75260Y-21900D01*
X75260Y-22900D02*
X75256Y-22931D01*
X75247Y-22960D01*
X75233Y-22988D01*
X75213Y-23012D01*
X75189Y-23032D01*
X75162Y-23047D01*
X75132Y-23056D01*
X75101Y-23059D01*
X75071Y-23057D01*
X75041Y-23048D01*
X75013Y-23033D01*
X74989Y-23014D01*
X74968Y-22990D01*
X74953Y-22963D01*
X74944Y-22933D01*
X74941Y-22902D01*
X74943Y-22872D01*
X74952Y-22842D01*
X74966Y-22814D01*
X74985Y-22789D01*
X75009Y-22769D01*
X75036Y-22754D01*
X75066Y-22744D01*
X75097Y-22741D01*
X75127Y-22743D01*
X75157Y-22751D01*
X75185Y-22765D01*
X75210Y-22785D01*
X75230Y-22808D01*
X75246Y-22835D01*
X75256Y-22865D01*
X75259Y-22896D01*
X75260Y-22900D01*
X75260Y-23900D02*
X75256Y-23931D01*
X75247Y-23960D01*
X75233Y-23988D01*
X75213Y-24012D01*
X75189Y-24032D01*
X75162Y-24047D01*
X75132Y-24056D01*
X75101Y-24059D01*
X75071Y-24057D01*
X75041Y-24048D01*
X75013Y-24033D01*
X74989Y-24014D01*
X74968Y-23990D01*
X74953Y-23963D01*
X74944Y-23933D01*
X74941Y-23902D01*
X74943Y-23872D01*
X74952Y-23842D01*
X74966Y-23814D01*
X74985Y-23789D01*
X75009Y-23769D01*
X75036Y-23754D01*
X75066Y-23744D01*
X75097Y-23741D01*
X75127Y-23743D01*
X75157Y-23751D01*
X75185Y-23765D01*
X75210Y-23785D01*
X75230Y-23808D01*
X75246Y-23835D01*
X75256Y-23865D01*
X75259Y-23896D01*
X75260Y-23900D01*
X75260Y-24900D02*
X75256Y-24931D01*
X75247Y-24960D01*
X75233Y-24988D01*
X75213Y-25012D01*
X75189Y-25032D01*
X75162Y-25047D01*
X75132Y-25056D01*
X75101Y-25059D01*
X75071Y-25057D01*
X75041Y-25048D01*
X75013Y-25033D01*
X74989Y-25014D01*
X74968Y-24990D01*
X74953Y-24963D01*
X74944Y-24933D01*
X74941Y-24902D01*
X74943Y-24872D01*
X74952Y-24842D01*
X74966Y-24814D01*
X74985Y-24789D01*
X75009Y-24769D01*
X75036Y-24754D01*
X75066Y-24744D01*
X75097Y-24741D01*
X75127Y-24743D01*
X75157Y-24751D01*
X75185Y-24765D01*
X75210Y-24785D01*
X75230Y-24808D01*
X75246Y-24835D01*
X75256Y-24865D01*
X75259Y-24896D01*
X75260Y-24900D01*
X75260Y-25900D02*
X75256Y-25931D01*
X75247Y-25960D01*
X75233Y-25988D01*
X75213Y-26012D01*
X75189Y-26032D01*
X75162Y-26047D01*
X75132Y-26056D01*
X75101Y-26059D01*
X75071Y-26057D01*
X75041Y-26048D01*
X75013Y-26033D01*
X74989Y-26014D01*
X74968Y-25990D01*
X74953Y-25963D01*
X74944Y-25933D01*
X74941Y-25902D01*
X74943Y-25872D01*
X74952Y-25842D01*
X74966Y-25814D01*
X74985Y-25789D01*
X75009Y-25769D01*
X75036Y-25754D01*
X75066Y-25744D01*
X75097Y-25741D01*
X75127Y-25743D01*
X75157Y-25751D01*
X75185Y-25765D01*
X75210Y-25785D01*
X75230Y-25808D01*
X75246Y-25835D01*
X75256Y-25865D01*
X75259Y-25896D01*
X75260Y-25900D01*
X75260Y-26900D02*
X75256Y-26931D01*
X75247Y-26960D01*
X75233Y-26988D01*
X75213Y-27012D01*
X75189Y-27032D01*
X75162Y-27047D01*
X75132Y-27056D01*
X75101Y-27059D01*
X75071Y-27057D01*
X75041Y-27048D01*
X75013Y-27033D01*
X74989Y-27014D01*
X74968Y-26990D01*
X74953Y-26963D01*
X74944Y-26933D01*
X74941Y-26902D01*
X74943Y-26872D01*
X74952Y-26842D01*
X74966Y-26814D01*
X74985Y-26789D01*
X75009Y-26769D01*
X75036Y-26754D01*
X75066Y-26744D01*
X75097Y-26741D01*
X75127Y-26743D01*
X75157Y-26751D01*
X75185Y-26765D01*
X75210Y-26785D01*
X75230Y-26808D01*
X75246Y-26835D01*
X75256Y-26865D01*
X75259Y-26896D01*
X75260Y-26900D01*
X75260Y-27900D02*
X75256Y-27931D01*
X75247Y-27960D01*
X75233Y-27988D01*
X75213Y-28012D01*
X75189Y-28032D01*
X75162Y-28047D01*
X75132Y-28056D01*
X75101Y-28059D01*
X75071Y-28057D01*
X75041Y-28048D01*
X75013Y-28033D01*
X74989Y-28014D01*
X74968Y-27990D01*
X74953Y-27963D01*
X74944Y-27933D01*
X74941Y-27902D01*
X74943Y-27872D01*
X74952Y-27842D01*
X74966Y-27814D01*
X74985Y-27789D01*
X75009Y-27769D01*
X75036Y-27754D01*
X75066Y-27744D01*
X75097Y-27741D01*
X75127Y-27743D01*
X75157Y-27751D01*
X75185Y-27765D01*
X75210Y-27785D01*
X75230Y-27808D01*
X75246Y-27835D01*
X75256Y-27865D01*
X75259Y-27896D01*
X75260Y-27900D01*
X75260Y-28900D02*
X75256Y-28931D01*
X75247Y-28960D01*
X75233Y-28988D01*
X75213Y-29012D01*
X75189Y-29032D01*
X75162Y-29047D01*
X75132Y-29056D01*
X75101Y-29059D01*
X75071Y-29057D01*
X75041Y-29048D01*
X75013Y-29033D01*
X74989Y-29014D01*
X74968Y-28990D01*
X74953Y-28963D01*
X74944Y-28933D01*
X74941Y-28902D01*
X74943Y-28872D01*
X74952Y-28842D01*
X74966Y-28814D01*
X74985Y-28789D01*
X75009Y-28769D01*
X75036Y-28754D01*
X75066Y-28744D01*
X75097Y-28741D01*
X75127Y-28743D01*
X75157Y-28751D01*
X75185Y-28765D01*
X75210Y-28785D01*
X75230Y-28808D01*
X75246Y-28835D01*
X75256Y-28865D01*
X75259Y-28896D01*
X75260Y-28900D01*
X75260Y-29900D02*
X75256Y-29931D01*
X75247Y-29960D01*
X75233Y-29988D01*
X75213Y-30012D01*
X75189Y-30032D01*
X75162Y-30047D01*
X75132Y-30056D01*
X75101Y-30059D01*
X75071Y-30057D01*
X75041Y-30048D01*
X75013Y-30033D01*
X74989Y-30014D01*
X74968Y-29990D01*
X74953Y-29963D01*
X74944Y-29933D01*
X74941Y-29902D01*
X74943Y-29872D01*
X74952Y-29842D01*
X74966Y-29814D01*
X74985Y-29789D01*
X75009Y-29769D01*
X75036Y-29754D01*
X75066Y-29744D01*
X75097Y-29741D01*
X75127Y-29743D01*
X75157Y-29751D01*
X75185Y-29765D01*
X75210Y-29785D01*
X75230Y-29808D01*
X75246Y-29835D01*
X75256Y-29865D01*
X75259Y-29896D01*
X75260Y-29900D01*
X75260Y-30900D02*
X75256Y-30931D01*
X75247Y-30960D01*
X75233Y-30988D01*
X75213Y-31012D01*
X75189Y-31032D01*
X75162Y-31047D01*
X75132Y-31056D01*
X75101Y-31059D01*
X75071Y-31057D01*
X75041Y-31048D01*
X75013Y-31033D01*
X74989Y-31014D01*
X74968Y-30990D01*
X74953Y-30963D01*
X74944Y-30933D01*
X74941Y-30902D01*
X74943Y-30872D01*
X74952Y-30842D01*
X74966Y-30814D01*
X74985Y-30789D01*
X75009Y-30769D01*
X75036Y-30754D01*
X75066Y-30744D01*
X75097Y-30741D01*
X75127Y-30743D01*
X75157Y-30751D01*
X75185Y-30765D01*
X75210Y-30785D01*
X75230Y-30808D01*
X75246Y-30835D01*
X75256Y-30865D01*
X75259Y-30896D01*
X75260Y-30900D01*
X75260Y-31900D02*
X75256Y-31931D01*
X75247Y-31960D01*
X75233Y-31988D01*
X75213Y-32012D01*
X75189Y-32032D01*
X75162Y-32047D01*
X75132Y-32056D01*
X75101Y-32059D01*
X75071Y-32057D01*
X75041Y-32048D01*
X75013Y-32033D01*
X74989Y-32014D01*
X74968Y-31990D01*
X74953Y-31963D01*
X74944Y-31933D01*
X74941Y-31902D01*
X74943Y-31872D01*
X74952Y-31842D01*
X74966Y-31814D01*
X74985Y-31789D01*
X75009Y-31769D01*
X75036Y-31754D01*
X75066Y-31744D01*
X75097Y-31741D01*
X75127Y-31743D01*
X75157Y-31751D01*
X75185Y-31765D01*
X75210Y-31785D01*
X75230Y-31808D01*
X75246Y-31835D01*
X75256Y-31865D01*
X75259Y-31896D01*
X75260Y-31900D01*
G54D12*
X64219Y-34330D02*
X64219Y-33530D01*
X64410Y-33530D01*
X64524Y-33568D01*
X64600Y-33644D01*
X64639Y-33720D01*
X64677Y-33873D01*
X64677Y-33987D01*
X64639Y-34139D01*
X64600Y-34216D01*
X64524Y-34292D01*
X64410Y-34330D01*
X64219Y-34330D01*
X65019Y-34330D02*
X65019Y-33796D01*
X65019Y-33949D02*
X65058Y-33873D01*
X65096Y-33835D01*
X65172Y-33796D01*
X65248Y-33796D01*
X65514Y-34330D02*
X65514Y-33796D01*
X65514Y-33530D02*
X65476Y-33568D01*
X65514Y-33606D01*
X65553Y-33568D01*
X65514Y-33530D01*
X65514Y-33606D01*
X66010Y-34330D02*
X65934Y-34292D01*
X65895Y-34216D01*
X65895Y-33530D01*
X66429Y-34330D02*
X66353Y-34292D01*
X66314Y-34216D01*
X66314Y-33530D01*
X67343Y-34330D02*
X67343Y-33530D01*
X67610Y-34101D01*
X67877Y-33530D01*
X67877Y-34330D01*
X68600Y-34330D02*
X68600Y-33911D01*
X68562Y-33835D01*
X68486Y-33796D01*
X68334Y-33796D01*
X68257Y-33835D01*
X68600Y-34292D02*
X68524Y-34330D01*
X68334Y-34330D01*
X68257Y-34292D01*
X68219Y-34216D01*
X68219Y-34139D01*
X68257Y-34063D01*
X68334Y-34025D01*
X68524Y-34025D01*
X68600Y-33987D01*
X68981Y-33796D02*
X68981Y-34596D01*
X68981Y-33835D02*
X69058Y-33796D01*
X69210Y-33796D01*
X69286Y-33835D01*
X69324Y-33873D01*
X69362Y-33949D01*
X69362Y-34177D01*
X69324Y-34254D01*
X69286Y-34292D01*
X69210Y-34330D01*
X69058Y-34330D01*
X68981Y-34292D01*
X69705Y-34254D02*
X69744Y-34292D01*
X69705Y-34330D01*
X69667Y-34292D01*
X69705Y-34254D01*
X69705Y-34330D01*
X69705Y-33835D02*
X69744Y-33873D01*
X69705Y-33911D01*
X69667Y-33873D01*
X69705Y-33835D01*
X69705Y-33911D01*
X63529Y-35536D02*
X63829Y-35836D01*
X63829Y-35536D02*
X63529Y-35836D01*
X64372Y-35210D02*
X64448Y-35210D01*
X64524Y-35248D01*
X64562Y-35286D01*
X64600Y-35362D01*
X64639Y-35515D01*
X64639Y-35705D01*
X64600Y-35857D01*
X64562Y-35934D01*
X64524Y-35972D01*
X64448Y-36010D01*
X64372Y-36010D01*
X64296Y-35972D01*
X64258Y-35934D01*
X64219Y-35857D01*
X64181Y-35705D01*
X64181Y-35515D01*
X64219Y-35362D01*
X64258Y-35286D01*
X64296Y-35248D01*
X64372Y-35210D01*
X64981Y-35934D02*
X65020Y-35972D01*
X64981Y-36010D01*
X64943Y-35972D01*
X64981Y-35934D01*
X64981Y-36010D01*
X65515Y-35210D02*
X65591Y-35210D01*
X65667Y-35248D01*
X65705Y-35286D01*
X65743Y-35362D01*
X65782Y-35515D01*
X65782Y-35705D01*
X65743Y-35857D01*
X65705Y-35934D01*
X65667Y-35972D01*
X65591Y-36010D01*
X65515Y-36010D01*
X65439Y-35972D01*
X65401Y-35934D01*
X65362Y-35857D01*
X65324Y-35705D01*
X65324Y-35515D01*
X65362Y-35362D01*
X65401Y-35286D01*
X65439Y-35248D01*
X65515Y-35210D01*
X66048Y-35210D02*
X66544Y-35210D01*
X66277Y-35515D01*
X66391Y-35515D01*
X66467Y-35553D01*
X66505Y-35591D01*
X66544Y-35667D01*
X66544Y-35857D01*
X66505Y-35934D01*
X66467Y-35972D01*
X66391Y-36010D01*
X66163Y-36010D01*
X66086Y-35972D01*
X66048Y-35934D01*
X67039Y-35210D02*
X67115Y-35210D01*
X67191Y-35248D01*
X67229Y-35286D01*
X67267Y-35362D01*
X67306Y-35515D01*
X67306Y-35705D01*
X67267Y-35857D01*
X67229Y-35934D01*
X67191Y-35972D01*
X67115Y-36010D01*
X67039Y-36010D01*
X66963Y-35972D01*
X66925Y-35934D01*
X66886Y-35857D01*
X66848Y-35705D01*
X66848Y-35515D01*
X66886Y-35362D01*
X66925Y-35286D01*
X66963Y-35248D01*
X67039Y-35210D01*
X67610Y-35210D02*
X67610Y-35362D01*
X67915Y-35210D02*
X67915Y-35362D01*
X69440Y-35172D02*
X68754Y-36200D01*
X70469Y-35210D02*
X70545Y-35210D01*
X70621Y-35248D01*
X70659Y-35286D01*
X70697Y-35362D01*
X70736Y-35515D01*
X70736Y-35705D01*
X70697Y-35857D01*
X70659Y-35934D01*
X70621Y-35972D01*
X70545Y-36010D01*
X70469Y-36010D01*
X70393Y-35972D01*
X70355Y-35934D01*
X70316Y-35857D01*
X70278Y-35705D01*
X70278Y-35515D01*
X70316Y-35362D01*
X70355Y-35286D01*
X70393Y-35248D01*
X70469Y-35210D01*
X71078Y-35934D02*
X71117Y-35972D01*
X71078Y-36010D01*
X71040Y-35972D01*
X71078Y-35934D01*
X71078Y-36010D01*
X71383Y-35210D02*
X71917Y-35210D01*
X71574Y-36010D01*
X72564Y-35210D02*
X72412Y-35210D01*
X72336Y-35248D01*
X72298Y-35286D01*
X72221Y-35400D01*
X72183Y-35553D01*
X72183Y-35857D01*
X72221Y-35934D01*
X72260Y-35972D01*
X72336Y-36010D01*
X72488Y-36010D01*
X72564Y-35972D01*
X72602Y-35934D01*
X72641Y-35857D01*
X72641Y-35667D01*
X72602Y-35591D01*
X72564Y-35553D01*
X72488Y-35515D01*
X72336Y-35515D01*
X72260Y-35553D01*
X72221Y-35591D01*
X72183Y-35667D01*
X72983Y-36010D02*
X72983Y-35476D01*
X72983Y-35553D02*
X73022Y-35515D01*
X73098Y-35476D01*
X73212Y-35476D01*
X73288Y-35515D01*
X73326Y-35591D01*
X73326Y-36010D01*
X73326Y-35591D02*
X73364Y-35515D01*
X73441Y-35476D01*
X73555Y-35476D01*
X73631Y-35515D01*
X73669Y-35591D01*
X73669Y-36010D01*
X74050Y-36010D02*
X74050Y-35476D01*
X74050Y-35553D02*
X74089Y-35515D01*
X74165Y-35476D01*
X74279Y-35476D01*
X74355Y-35515D01*
X74393Y-35591D01*
X74393Y-36010D01*
X74393Y-35591D02*
X74431Y-35515D01*
X74508Y-35476D01*
X74622Y-35476D01*
X74698Y-35515D01*
X74736Y-35591D01*
X74736Y-36010D01*
X75956Y-36315D02*
X75918Y-36276D01*
X75842Y-36162D01*
X75804Y-36086D01*
X75766Y-35972D01*
X75727Y-35781D01*
X75727Y-35629D01*
X75766Y-35438D01*
X75804Y-35324D01*
X75842Y-35248D01*
X75918Y-35134D01*
X75956Y-35096D01*
X76184Y-35210D02*
X76680Y-35210D01*
X76413Y-35515D01*
X76527Y-35515D01*
X76603Y-35553D01*
X76641Y-35591D01*
X76680Y-35667D01*
X76680Y-35857D01*
X76641Y-35934D01*
X76603Y-35972D01*
X76527Y-36010D01*
X76299Y-36010D01*
X76222Y-35972D01*
X76184Y-35934D01*
X76984Y-35286D02*
X77022Y-35248D01*
X77099Y-35210D01*
X77289Y-35210D01*
X77365Y-35248D01*
X77403Y-35286D01*
X77442Y-35362D01*
X77442Y-35438D01*
X77403Y-35553D01*
X76946Y-36010D01*
X77442Y-36010D01*
X78394Y-36010D02*
X78394Y-35210D01*
X78737Y-36010D02*
X78737Y-35591D01*
X78699Y-35515D01*
X78623Y-35476D01*
X78509Y-35476D01*
X78433Y-35515D01*
X78394Y-35553D01*
X79233Y-36010D02*
X79157Y-35972D01*
X79118Y-35934D01*
X79080Y-35857D01*
X79080Y-35629D01*
X79118Y-35553D01*
X79157Y-35515D01*
X79233Y-35476D01*
X79347Y-35476D01*
X79423Y-35515D01*
X79461Y-35553D01*
X79499Y-35629D01*
X79499Y-35857D01*
X79461Y-35934D01*
X79423Y-35972D01*
X79347Y-36010D01*
X79233Y-36010D01*
X79957Y-36010D02*
X79881Y-35972D01*
X79842Y-35896D01*
X79842Y-35210D01*
X80566Y-35972D02*
X80490Y-36010D01*
X80338Y-36010D01*
X80261Y-35972D01*
X80223Y-35896D01*
X80223Y-35591D01*
X80261Y-35515D01*
X80338Y-35476D01*
X80490Y-35476D01*
X80566Y-35515D01*
X80604Y-35591D01*
X80604Y-35667D01*
X80223Y-35743D01*
X80909Y-35972D02*
X80986Y-36010D01*
X81138Y-36010D01*
X81214Y-35972D01*
X81252Y-35896D01*
X81252Y-35857D01*
X81214Y-35781D01*
X81138Y-35743D01*
X81024Y-35743D01*
X80947Y-35705D01*
X80909Y-35629D01*
X80909Y-35591D01*
X80947Y-35515D01*
X81024Y-35476D01*
X81138Y-35476D01*
X81214Y-35515D01*
X81519Y-36315D02*
X81557Y-36276D01*
X81634Y-36162D01*
X81672Y-36086D01*
X81710Y-35972D01*
X81748Y-35781D01*
X81748Y-35629D01*
X81710Y-35438D01*
X81672Y-35324D01*
X81634Y-35248D01*
X81557Y-35134D01*
X81519Y-35096D01*
G54D10*
X63829Y-36741D02*
X63825Y-36772D01*
X63816Y-36801D01*
X63802Y-36829D01*
X63782Y-36853D01*
X63758Y-36873D01*
X63731Y-36888D01*
X63701Y-36897D01*
X63670Y-36900D01*
X63640Y-36898D01*
X63610Y-36889D01*
X63582Y-36874D01*
X63558Y-36855D01*
X63537Y-36831D01*
X63522Y-36804D01*
X63513Y-36774D01*
X63510Y-36743D01*
X63512Y-36713D01*
X63521Y-36683D01*
X63535Y-36655D01*
X63554Y-36630D01*
X63578Y-36610D01*
X63605Y-36595D01*
X63635Y-36585D01*
X63666Y-36582D01*
X63696Y-36584D01*
X63726Y-36592D01*
X63754Y-36606D01*
X63779Y-36626D01*
X63799Y-36649D01*
X63815Y-36676D01*
X63825Y-36706D01*
X63828Y-36737D01*
X63829Y-36741D01*
G54D12*
X64372Y-36265D02*
X64448Y-36265D01*
X64524Y-36303D01*
X64562Y-36341D01*
X64600Y-36417D01*
X64639Y-36570D01*
X64639Y-36760D01*
X64600Y-36912D01*
X64562Y-36989D01*
X64524Y-37027D01*
X64448Y-37065D01*
X64372Y-37065D01*
X64296Y-37027D01*
X64258Y-36989D01*
X64219Y-36912D01*
X64181Y-36760D01*
X64181Y-36570D01*
X64219Y-36417D01*
X64258Y-36341D01*
X64296Y-36303D01*
X64372Y-36265D01*
X64981Y-36989D02*
X65020Y-37027D01*
X64981Y-37065D01*
X64943Y-37027D01*
X64981Y-36989D01*
X64981Y-37065D01*
X65515Y-36265D02*
X65591Y-36265D01*
X65667Y-36303D01*
X65705Y-36341D01*
X65743Y-36417D01*
X65782Y-36570D01*
X65782Y-36760D01*
X65743Y-36912D01*
X65705Y-36989D01*
X65667Y-37027D01*
X65591Y-37065D01*
X65515Y-37065D01*
X65439Y-37027D01*
X65401Y-36989D01*
X65362Y-36912D01*
X65324Y-36760D01*
X65324Y-36570D01*
X65362Y-36417D01*
X65401Y-36341D01*
X65439Y-36303D01*
X65515Y-36265D01*
X66048Y-36265D02*
X66544Y-36265D01*
X66277Y-36570D01*
X66391Y-36570D01*
X66467Y-36608D01*
X66505Y-36646D01*
X66544Y-36722D01*
X66544Y-36912D01*
X66505Y-36989D01*
X66467Y-37027D01*
X66391Y-37065D01*
X66163Y-37065D01*
X66086Y-37027D01*
X66048Y-36989D01*
X66848Y-36341D02*
X66886Y-36303D01*
X66963Y-36265D01*
X67153Y-36265D01*
X67229Y-36303D01*
X67267Y-36341D01*
X67306Y-36417D01*
X67306Y-36493D01*
X67267Y-36608D01*
X66810Y-37065D01*
X67306Y-37065D01*
X67610Y-36265D02*
X67610Y-36417D01*
X67915Y-36265D02*
X67915Y-36417D01*
X69440Y-36227D02*
X68754Y-37255D01*
X70469Y-36265D02*
X70545Y-36265D01*
X70621Y-36303D01*
X70659Y-36341D01*
X70697Y-36417D01*
X70736Y-36570D01*
X70736Y-36760D01*
X70697Y-36912D01*
X70659Y-36989D01*
X70621Y-37027D01*
X70545Y-37065D01*
X70469Y-37065D01*
X70393Y-37027D01*
X70355Y-36989D01*
X70316Y-36912D01*
X70278Y-36760D01*
X70278Y-36570D01*
X70316Y-36417D01*
X70355Y-36341D01*
X70393Y-36303D01*
X70469Y-36265D01*
X71078Y-36989D02*
X71117Y-37027D01*
X71078Y-37065D01*
X71040Y-37027D01*
X71078Y-36989D01*
X71078Y-37065D01*
X71574Y-36608D02*
X71498Y-36570D01*
X71459Y-36531D01*
X71421Y-36455D01*
X71421Y-36417D01*
X71459Y-36341D01*
X71498Y-36303D01*
X71574Y-36265D01*
X71726Y-36265D01*
X71802Y-36303D01*
X71840Y-36341D01*
X71879Y-36417D01*
X71879Y-36455D01*
X71840Y-36531D01*
X71802Y-36570D01*
X71726Y-36608D01*
X71574Y-36608D01*
X71498Y-36646D01*
X71459Y-36684D01*
X71421Y-36760D01*
X71421Y-36912D01*
X71459Y-36989D01*
X71498Y-37027D01*
X71574Y-37065D01*
X71726Y-37065D01*
X71802Y-37027D01*
X71840Y-36989D01*
X71879Y-36912D01*
X71879Y-36760D01*
X71840Y-36684D01*
X71802Y-36646D01*
X71726Y-36608D01*
X72641Y-37065D02*
X72183Y-37065D01*
X72412Y-37065D02*
X72412Y-36265D01*
X72336Y-36379D01*
X72260Y-36455D01*
X72183Y-36493D01*
X72983Y-37065D02*
X72983Y-36531D01*
X72983Y-36608D02*
X73022Y-36570D01*
X73098Y-36531D01*
X73212Y-36531D01*
X73288Y-36570D01*
X73326Y-36646D01*
X73326Y-37065D01*
X73326Y-36646D02*
X73364Y-36570D01*
X73441Y-36531D01*
X73555Y-36531D01*
X73631Y-36570D01*
X73669Y-36646D01*
X73669Y-37065D01*
X74050Y-37065D02*
X74050Y-36531D01*
X74050Y-36608D02*
X74089Y-36570D01*
X74165Y-36531D01*
X74279Y-36531D01*
X74355Y-36570D01*
X74393Y-36646D01*
X74393Y-37065D01*
X74393Y-36646D02*
X74431Y-36570D01*
X74508Y-36531D01*
X74622Y-36531D01*
X74698Y-36570D01*
X74736Y-36646D01*
X74736Y-37065D01*
X75956Y-37370D02*
X75918Y-37331D01*
X75842Y-37217D01*
X75804Y-37141D01*
X75766Y-37027D01*
X75727Y-36836D01*
X75727Y-36684D01*
X75766Y-36493D01*
X75804Y-36379D01*
X75842Y-36303D01*
X75918Y-36189D01*
X75956Y-36151D01*
X76641Y-36265D02*
X76260Y-36265D01*
X76222Y-36646D01*
X76260Y-36608D01*
X76337Y-36570D01*
X76527Y-36570D01*
X76603Y-36608D01*
X76641Y-36646D01*
X76680Y-36722D01*
X76680Y-36912D01*
X76641Y-36989D01*
X76603Y-37027D01*
X76527Y-37065D01*
X76337Y-37065D01*
X76260Y-37027D01*
X76222Y-36989D01*
X77365Y-36531D02*
X77365Y-37065D01*
X77175Y-36227D02*
X76984Y-36798D01*
X77480Y-36798D01*
X78394Y-37065D02*
X78394Y-36265D01*
X78737Y-37065D02*
X78737Y-36646D01*
X78699Y-36570D01*
X78623Y-36531D01*
X78509Y-36531D01*
X78433Y-36570D01*
X78394Y-36608D01*
X79233Y-37065D02*
X79157Y-37027D01*
X79118Y-36989D01*
X79080Y-36912D01*
X79080Y-36684D01*
X79118Y-36608D01*
X79157Y-36570D01*
X79233Y-36531D01*
X79347Y-36531D01*
X79423Y-36570D01*
X79461Y-36608D01*
X79499Y-36684D01*
X79499Y-36912D01*
X79461Y-36989D01*
X79423Y-37027D01*
X79347Y-37065D01*
X79233Y-37065D01*
X79957Y-37065D02*
X79881Y-37027D01*
X79842Y-36951D01*
X79842Y-36265D01*
X80566Y-37027D02*
X80490Y-37065D01*
X80338Y-37065D01*
X80261Y-37027D01*
X80223Y-36951D01*
X80223Y-36646D01*
X80261Y-36570D01*
X80338Y-36531D01*
X80490Y-36531D01*
X80566Y-36570D01*
X80604Y-36646D01*
X80604Y-36722D01*
X80223Y-36798D01*
X80909Y-37027D02*
X80986Y-37065D01*
X81138Y-37065D01*
X81214Y-37027D01*
X81252Y-36951D01*
X81252Y-36912D01*
X81214Y-36836D01*
X81138Y-36798D01*
X81024Y-36798D01*
X80947Y-36760D01*
X80909Y-36684D01*
X80909Y-36646D01*
X80947Y-36570D01*
X81024Y-36531D01*
X81138Y-36531D01*
X81214Y-36570D01*
X81519Y-37370D02*
X81557Y-37331D01*
X81634Y-37217D01*
X81672Y-37141D01*
X81710Y-37027D01*
X81748Y-36836D01*
X81748Y-36684D01*
X81710Y-36493D01*
X81672Y-36379D01*
X81634Y-36303D01*
X81557Y-36189D01*
X81519Y-36151D01*
M02*
