G04 (created by PCBNEW-RS274X (2011-07-08)-stable) date Thu 27 Oct 2011 07:18:31 PM CEST*
G01*
G70*
G90*
%MOIN*%
G04 Gerber Fmt 3.4, Leading zero omitted, Abs format*
%FSLAX34Y34*%
G04 APERTURE LIST*
%ADD10C,0.006000*%
%ADD11C,0.015000*%
%ADD12C,0.010000*%
%ADD13C,0.000100*%
%ADD14R,0.055000X0.055000*%
%ADD15C,0.055000*%
%ADD16O,0.080000X0.050000*%
G04 APERTURE END LIST*
G54D10*
G54D11*
X64950Y-33050D02*
X64950Y-13750D01*
X76250Y-33050D02*
X76250Y-13750D01*
X64950Y-33050D02*
X76250Y-33050D01*
X64950Y-13750D02*
X76250Y-13750D01*
G54D12*
X70002Y-17250D02*
X70002Y-17327D01*
X70026Y-17365D01*
X70074Y-17403D01*
X70169Y-17422D01*
X70336Y-17422D01*
X70431Y-17403D01*
X70479Y-17365D01*
X70502Y-17327D01*
X70502Y-17250D01*
X70479Y-17212D01*
X70431Y-17174D01*
X70336Y-17155D01*
X70169Y-17155D01*
X70074Y-17174D01*
X70026Y-17212D01*
X70002Y-17250D01*
X70169Y-17593D02*
X70669Y-17593D01*
X70193Y-17593D02*
X70169Y-17631D01*
X70169Y-17708D01*
X70193Y-17746D01*
X70217Y-17765D01*
X70264Y-17784D01*
X70407Y-17784D01*
X70455Y-17765D01*
X70479Y-17746D01*
X70502Y-17708D01*
X70502Y-17631D01*
X70479Y-17593D01*
X70479Y-18108D02*
X70502Y-18070D01*
X70502Y-17993D01*
X70479Y-17955D01*
X70431Y-17936D01*
X70240Y-17936D01*
X70193Y-17955D01*
X70169Y-17993D01*
X70169Y-18070D01*
X70193Y-18108D01*
X70240Y-18127D01*
X70288Y-18127D01*
X70336Y-17936D01*
X70169Y-18298D02*
X70502Y-18298D01*
X70217Y-18298D02*
X70193Y-18317D01*
X70169Y-18355D01*
X70169Y-18413D01*
X70193Y-18451D01*
X70240Y-18470D01*
X70502Y-18470D01*
X70502Y-18660D02*
X70002Y-18660D01*
X70193Y-18660D02*
X70169Y-18698D01*
X70169Y-18775D01*
X70193Y-18813D01*
X70217Y-18832D01*
X70264Y-18851D01*
X70407Y-18851D01*
X70455Y-18832D01*
X70479Y-18813D01*
X70502Y-18775D01*
X70502Y-18698D01*
X70479Y-18660D01*
X70479Y-19175D02*
X70502Y-19137D01*
X70502Y-19060D01*
X70479Y-19022D01*
X70431Y-19003D01*
X70240Y-19003D01*
X70193Y-19022D01*
X70169Y-19060D01*
X70169Y-19137D01*
X70193Y-19175D01*
X70240Y-19194D01*
X70288Y-19194D01*
X70336Y-19003D01*
X70169Y-19365D02*
X70502Y-19365D01*
X70217Y-19365D02*
X70193Y-19384D01*
X70169Y-19422D01*
X70169Y-19480D01*
X70193Y-19518D01*
X70240Y-19537D01*
X70502Y-19537D01*
X70479Y-19899D02*
X70502Y-19861D01*
X70502Y-19784D01*
X70479Y-19746D01*
X70455Y-19727D01*
X70407Y-19708D01*
X70264Y-19708D01*
X70217Y-19727D01*
X70193Y-19746D01*
X70169Y-19784D01*
X70169Y-19861D01*
X70193Y-19899D01*
X70502Y-20070D02*
X70002Y-20070D01*
X70502Y-20242D02*
X70240Y-20242D01*
X70193Y-20223D01*
X70169Y-20185D01*
X70169Y-20127D01*
X70193Y-20089D01*
X70217Y-20070D01*
X70502Y-20794D02*
X70479Y-20756D01*
X70431Y-20737D01*
X70002Y-20737D01*
X70502Y-21004D02*
X70479Y-20966D01*
X70455Y-20947D01*
X70407Y-20928D01*
X70264Y-20928D01*
X70217Y-20947D01*
X70193Y-20966D01*
X70169Y-21004D01*
X70169Y-21062D01*
X70193Y-21100D01*
X70217Y-21119D01*
X70264Y-21138D01*
X70407Y-21138D01*
X70455Y-21119D01*
X70479Y-21100D01*
X70502Y-21062D01*
X70502Y-21004D01*
X70169Y-21481D02*
X70574Y-21481D01*
X70621Y-21462D01*
X70645Y-21443D01*
X70669Y-21404D01*
X70669Y-21347D01*
X70645Y-21309D01*
X70479Y-21481D02*
X70502Y-21443D01*
X70502Y-21366D01*
X70479Y-21328D01*
X70455Y-21309D01*
X70407Y-21290D01*
X70264Y-21290D01*
X70217Y-21309D01*
X70193Y-21328D01*
X70169Y-21366D01*
X70169Y-21443D01*
X70193Y-21481D01*
X70502Y-21671D02*
X70169Y-21671D01*
X70002Y-21671D02*
X70026Y-21652D01*
X70050Y-21671D01*
X70026Y-21690D01*
X70002Y-21671D01*
X70050Y-21671D01*
X70479Y-22033D02*
X70502Y-21995D01*
X70502Y-21918D01*
X70479Y-21880D01*
X70455Y-21861D01*
X70407Y-21842D01*
X70264Y-21842D01*
X70217Y-21861D01*
X70193Y-21880D01*
X70169Y-21918D01*
X70169Y-21995D01*
X70193Y-22033D01*
X70479Y-22490D02*
X70502Y-22528D01*
X70502Y-22604D01*
X70479Y-22643D01*
X70431Y-22662D01*
X70407Y-22662D01*
X70360Y-22643D01*
X70336Y-22604D01*
X70336Y-22547D01*
X70312Y-22509D01*
X70264Y-22490D01*
X70240Y-22490D01*
X70193Y-22509D01*
X70169Y-22547D01*
X70169Y-22604D01*
X70193Y-22643D01*
X70169Y-22833D02*
X70502Y-22833D01*
X70217Y-22833D02*
X70193Y-22852D01*
X70169Y-22890D01*
X70169Y-22948D01*
X70193Y-22986D01*
X70240Y-23005D01*
X70502Y-23005D01*
X70502Y-23195D02*
X70169Y-23195D01*
X70002Y-23195D02*
X70026Y-23176D01*
X70050Y-23195D01*
X70026Y-23214D01*
X70002Y-23195D01*
X70050Y-23195D01*
X70169Y-23328D02*
X70169Y-23480D01*
X70502Y-23385D02*
X70074Y-23385D01*
X70026Y-23404D01*
X70002Y-23442D01*
X70002Y-23480D01*
X70169Y-23557D02*
X70169Y-23709D01*
X70502Y-23614D02*
X70074Y-23614D01*
X70026Y-23633D01*
X70002Y-23671D01*
X70002Y-23709D01*
X70479Y-23996D02*
X70502Y-23958D01*
X70502Y-23881D01*
X70479Y-23843D01*
X70431Y-23824D01*
X70240Y-23824D01*
X70193Y-23843D01*
X70169Y-23881D01*
X70169Y-23958D01*
X70193Y-23996D01*
X70240Y-24015D01*
X70288Y-24015D01*
X70336Y-23824D01*
X70502Y-24186D02*
X70169Y-24186D01*
X70264Y-24186D02*
X70217Y-24205D01*
X70193Y-24224D01*
X70169Y-24262D01*
X70169Y-24301D01*
X70169Y-24739D02*
X70669Y-24739D01*
X70193Y-24739D02*
X70169Y-24777D01*
X70169Y-24854D01*
X70193Y-24892D01*
X70217Y-24911D01*
X70264Y-24930D01*
X70407Y-24930D01*
X70455Y-24911D01*
X70479Y-24892D01*
X70502Y-24854D01*
X70502Y-24777D01*
X70479Y-24739D01*
X70169Y-25273D02*
X70502Y-25273D01*
X70169Y-25101D02*
X70431Y-25101D01*
X70479Y-25120D01*
X70502Y-25158D01*
X70502Y-25216D01*
X70479Y-25254D01*
X70455Y-25273D01*
X70502Y-25520D02*
X70479Y-25482D01*
X70431Y-25463D01*
X70002Y-25463D01*
X70502Y-25730D02*
X70479Y-25692D01*
X70431Y-25673D01*
X70002Y-25673D01*
X70312Y-25883D02*
X70312Y-26188D01*
X70502Y-26378D02*
X70002Y-26378D01*
X70002Y-26473D01*
X70026Y-26531D01*
X70074Y-26569D01*
X70121Y-26588D01*
X70217Y-26607D01*
X70288Y-26607D01*
X70383Y-26588D01*
X70431Y-26569D01*
X70479Y-26531D01*
X70502Y-26473D01*
X70502Y-26378D01*
X70169Y-27045D02*
X70502Y-27121D01*
X70264Y-27198D01*
X70502Y-27274D01*
X70169Y-27350D01*
X70502Y-27502D02*
X70169Y-27502D01*
X70002Y-27502D02*
X70026Y-27483D01*
X70050Y-27502D01*
X70026Y-27521D01*
X70002Y-27502D01*
X70050Y-27502D01*
X70169Y-27692D02*
X70502Y-27692D01*
X70217Y-27692D02*
X70193Y-27711D01*
X70169Y-27749D01*
X70169Y-27807D01*
X70193Y-27845D01*
X70240Y-27864D01*
X70502Y-27864D01*
X70169Y-28226D02*
X70574Y-28226D01*
X70621Y-28207D01*
X70645Y-28188D01*
X70669Y-28149D01*
X70669Y-28092D01*
X70645Y-28054D01*
X70479Y-28226D02*
X70502Y-28188D01*
X70502Y-28111D01*
X70479Y-28073D01*
X70455Y-28054D01*
X70407Y-28035D01*
X70264Y-28035D01*
X70217Y-28054D01*
X70193Y-28073D01*
X70169Y-28111D01*
X70169Y-28188D01*
X70193Y-28226D01*
X70002Y-28664D02*
X70502Y-28797D01*
X70002Y-28931D01*
X70002Y-29140D02*
X70002Y-29179D01*
X70026Y-29217D01*
X70050Y-29236D01*
X70098Y-29255D01*
X70193Y-29274D01*
X70312Y-29274D01*
X70407Y-29255D01*
X70455Y-29236D01*
X70479Y-29217D01*
X70502Y-29179D01*
X70502Y-29140D01*
X70479Y-29102D01*
X70455Y-29083D01*
X70407Y-29064D01*
X70312Y-29045D01*
X70193Y-29045D01*
X70098Y-29064D01*
X70050Y-29083D01*
X70026Y-29102D01*
X70002Y-29140D01*
X70455Y-29445D02*
X70479Y-29464D01*
X70502Y-29445D01*
X70479Y-29426D01*
X70455Y-29445D01*
X70502Y-29445D01*
X70502Y-29845D02*
X70502Y-29616D01*
X70502Y-29730D02*
X70002Y-29730D01*
X70074Y-29692D01*
X70121Y-29654D01*
X70145Y-29616D01*
X70950Y-19554D02*
X70926Y-19573D01*
X70902Y-19611D01*
X70902Y-19707D01*
X70926Y-19745D01*
X70950Y-19764D01*
X70998Y-19783D01*
X71045Y-19783D01*
X71117Y-19764D01*
X71402Y-19535D01*
X71402Y-19783D01*
X70902Y-20030D02*
X70902Y-20069D01*
X70926Y-20107D01*
X70950Y-20126D01*
X70998Y-20145D01*
X71093Y-20164D01*
X71212Y-20164D01*
X71307Y-20145D01*
X71355Y-20126D01*
X71379Y-20107D01*
X71402Y-20069D01*
X71402Y-20030D01*
X71379Y-19992D01*
X71355Y-19973D01*
X71307Y-19954D01*
X71212Y-19935D01*
X71093Y-19935D01*
X70998Y-19954D01*
X70950Y-19973D01*
X70926Y-19992D01*
X70902Y-20030D01*
X71402Y-20545D02*
X71402Y-20316D01*
X71402Y-20430D02*
X70902Y-20430D01*
X70974Y-20392D01*
X71021Y-20354D01*
X71045Y-20316D01*
X71402Y-20926D02*
X71402Y-20697D01*
X71402Y-20811D02*
X70902Y-20811D01*
X70974Y-20773D01*
X71021Y-20735D01*
X71045Y-20697D01*
X71402Y-21402D02*
X70902Y-21402D01*
X71093Y-21402D02*
X71069Y-21440D01*
X71069Y-21517D01*
X71093Y-21555D01*
X71117Y-21574D01*
X71164Y-21593D01*
X71307Y-21593D01*
X71355Y-21574D01*
X71379Y-21555D01*
X71402Y-21517D01*
X71402Y-21440D01*
X71379Y-21402D01*
X71402Y-21821D02*
X71379Y-21783D01*
X71331Y-21764D01*
X70902Y-21764D01*
X71402Y-22031D02*
X71379Y-21993D01*
X71355Y-21974D01*
X71307Y-21955D01*
X71164Y-21955D01*
X71117Y-21974D01*
X71093Y-21993D01*
X71069Y-22031D01*
X71069Y-22089D01*
X71093Y-22127D01*
X71117Y-22146D01*
X71164Y-22165D01*
X71307Y-22165D01*
X71355Y-22146D01*
X71379Y-22127D01*
X71402Y-22089D01*
X71402Y-22031D01*
X71069Y-22508D02*
X71474Y-22508D01*
X71521Y-22489D01*
X71545Y-22470D01*
X71569Y-22431D01*
X71569Y-22374D01*
X71545Y-22336D01*
X71379Y-22508D02*
X71402Y-22470D01*
X71402Y-22393D01*
X71379Y-22355D01*
X71355Y-22336D01*
X71307Y-22317D01*
X71164Y-22317D01*
X71117Y-22336D01*
X71093Y-22355D01*
X71069Y-22393D01*
X71069Y-22470D01*
X71093Y-22508D01*
X71355Y-22698D02*
X71379Y-22717D01*
X71402Y-22698D01*
X71379Y-22679D01*
X71355Y-22698D01*
X71402Y-22698D01*
X71379Y-22869D02*
X71402Y-22907D01*
X71402Y-22983D01*
X71379Y-23022D01*
X71331Y-23041D01*
X71307Y-23041D01*
X71260Y-23022D01*
X71236Y-22983D01*
X71236Y-22926D01*
X71212Y-22888D01*
X71164Y-22869D01*
X71140Y-22869D01*
X71093Y-22888D01*
X71069Y-22926D01*
X71069Y-22983D01*
X71093Y-23022D01*
X71069Y-23212D02*
X71569Y-23212D01*
X71093Y-23212D02*
X71069Y-23250D01*
X71069Y-23327D01*
X71093Y-23365D01*
X71117Y-23384D01*
X71164Y-23403D01*
X71307Y-23403D01*
X71355Y-23384D01*
X71379Y-23365D01*
X71402Y-23327D01*
X71402Y-23250D01*
X71379Y-23212D01*
X71402Y-23574D02*
X71069Y-23574D01*
X70902Y-23574D02*
X70926Y-23555D01*
X70950Y-23574D01*
X70926Y-23593D01*
X70902Y-23574D01*
X70950Y-23574D01*
X71069Y-23707D02*
X71069Y-23859D01*
X70902Y-23764D02*
X71331Y-23764D01*
X71379Y-23783D01*
X71402Y-23821D01*
X71402Y-23859D01*
X71069Y-23955D02*
X71069Y-24165D01*
X71402Y-23955D01*
X71402Y-24165D01*
X71379Y-24470D02*
X71402Y-24432D01*
X71402Y-24355D01*
X71379Y-24317D01*
X71331Y-24298D01*
X71140Y-24298D01*
X71093Y-24317D01*
X71069Y-24355D01*
X71069Y-24432D01*
X71093Y-24470D01*
X71140Y-24489D01*
X71188Y-24489D01*
X71236Y-24298D01*
X71069Y-24660D02*
X71402Y-24660D01*
X71117Y-24660D02*
X71093Y-24679D01*
X71069Y-24717D01*
X71069Y-24775D01*
X71093Y-24813D01*
X71140Y-24832D01*
X71402Y-24832D01*
X71069Y-25022D02*
X71569Y-25022D01*
X71093Y-25022D02*
X71069Y-25060D01*
X71069Y-25137D01*
X71093Y-25175D01*
X71117Y-25194D01*
X71164Y-25213D01*
X71307Y-25213D01*
X71355Y-25194D01*
X71379Y-25175D01*
X71402Y-25137D01*
X71402Y-25060D01*
X71379Y-25022D01*
X71069Y-25327D02*
X71069Y-25479D01*
X71402Y-25384D02*
X70974Y-25384D01*
X70926Y-25403D01*
X70902Y-25441D01*
X70902Y-25479D01*
X71379Y-25766D02*
X71402Y-25728D01*
X71402Y-25651D01*
X71379Y-25613D01*
X71331Y-25594D01*
X71140Y-25594D01*
X71093Y-25613D01*
X71069Y-25651D01*
X71069Y-25728D01*
X71093Y-25766D01*
X71140Y-25785D01*
X71188Y-25785D01*
X71236Y-25594D01*
X71402Y-25956D02*
X71069Y-25956D01*
X70902Y-25956D02*
X70926Y-25937D01*
X70950Y-25956D01*
X70926Y-25975D01*
X70902Y-25956D01*
X70950Y-25956D01*
X71402Y-26203D02*
X71379Y-26165D01*
X71331Y-26146D01*
X70902Y-26146D01*
X71355Y-26356D02*
X71379Y-26375D01*
X71402Y-26356D01*
X71379Y-26337D01*
X71355Y-26356D01*
X71402Y-26356D01*
X71402Y-26603D02*
X71379Y-26565D01*
X71355Y-26546D01*
X71307Y-26527D01*
X71164Y-26527D01*
X71117Y-26546D01*
X71093Y-26565D01*
X71069Y-26603D01*
X71069Y-26661D01*
X71093Y-26699D01*
X71117Y-26718D01*
X71164Y-26737D01*
X71307Y-26737D01*
X71355Y-26718D01*
X71379Y-26699D01*
X71402Y-26661D01*
X71402Y-26603D01*
X71402Y-26908D02*
X71069Y-26908D01*
X71164Y-26908D02*
X71117Y-26927D01*
X71093Y-26946D01*
X71069Y-26984D01*
X71069Y-27023D01*
X71069Y-27328D02*
X71474Y-27328D01*
X71521Y-27309D01*
X71545Y-27290D01*
X71569Y-27251D01*
X71569Y-27194D01*
X71545Y-27156D01*
X71379Y-27328D02*
X71402Y-27290D01*
X71402Y-27213D01*
X71379Y-27175D01*
X71355Y-27156D01*
X71307Y-27137D01*
X71164Y-27137D01*
X71117Y-27156D01*
X71093Y-27175D01*
X71069Y-27213D01*
X71069Y-27290D01*
X71093Y-27328D01*
G54D13*
G36*
X71783Y-30926D02*
X71779Y-30898D01*
X71770Y-30871D01*
X71764Y-30860D01*
X71748Y-30836D01*
X71727Y-30817D01*
X71703Y-30803D01*
X71678Y-30793D01*
X71650Y-30789D01*
X71623Y-30790D01*
X71595Y-30797D01*
X71569Y-30809D01*
X71557Y-30817D01*
X71544Y-30829D01*
X71532Y-30842D01*
X71523Y-30854D01*
X71521Y-30858D01*
X71510Y-30882D01*
X71504Y-30907D01*
X71503Y-30935D01*
X71503Y-30944D01*
X71505Y-30960D01*
X71509Y-30974D01*
X71515Y-30988D01*
X71524Y-31004D01*
X71542Y-31027D01*
X71564Y-31046D01*
X71590Y-31060D01*
X71602Y-31064D01*
X71616Y-31067D01*
X71627Y-31069D01*
X71628Y-31069D01*
X71629Y-31070D01*
X71623Y-31071D01*
X71622Y-31071D01*
X71604Y-31075D01*
X71585Y-31082D01*
X71569Y-31090D01*
X71548Y-31106D01*
X71529Y-31127D01*
X71514Y-31152D01*
X71505Y-31180D01*
X71502Y-31209D01*
X71502Y-31217D01*
X71505Y-31239D01*
X71511Y-31260D01*
X71513Y-31265D01*
X71526Y-31288D01*
X71543Y-31309D01*
X71564Y-31327D01*
X71588Y-31340D01*
X71613Y-31347D01*
X71614Y-31348D01*
X71621Y-31349D01*
X71624Y-31350D01*
X71624Y-31350D01*
X71620Y-31351D01*
X71613Y-31353D01*
X71610Y-31353D01*
X71586Y-31361D01*
X71562Y-31375D01*
X71541Y-31393D01*
X71527Y-31410D01*
X71513Y-31434D01*
X71505Y-31461D01*
X71502Y-31491D01*
X71504Y-31512D01*
X71511Y-31540D01*
X71523Y-31565D01*
X71541Y-31588D01*
X71564Y-31606D01*
X71567Y-31608D01*
X71577Y-31615D01*
X71586Y-31619D01*
X71593Y-31621D01*
X71605Y-31625D01*
X71617Y-31628D01*
X71627Y-31630D01*
X71628Y-31630D01*
X71628Y-31630D01*
X71622Y-31631D01*
X71607Y-31635D01*
X71588Y-31642D01*
X71571Y-31650D01*
X71548Y-31667D01*
X71529Y-31688D01*
X71514Y-31713D01*
X71505Y-31741D01*
X71502Y-31770D01*
X71504Y-31796D01*
X71512Y-31824D01*
X71525Y-31849D01*
X71545Y-31871D01*
X71557Y-31882D01*
X71573Y-31893D01*
X71590Y-31901D01*
X71605Y-31906D01*
X71633Y-31911D01*
X71661Y-31910D01*
X71687Y-31904D01*
X71711Y-31893D01*
X71733Y-31878D01*
X71752Y-31859D01*
X71767Y-31836D01*
X71777Y-31810D01*
X71782Y-31782D01*
X71782Y-31779D01*
X71781Y-31750D01*
X71775Y-31724D01*
X71762Y-31698D01*
X71756Y-31689D01*
X71740Y-31670D01*
X71720Y-31654D01*
X71699Y-31642D01*
X71691Y-31639D01*
X71679Y-31635D01*
X71667Y-31632D01*
X71657Y-31631D01*
X71652Y-31631D01*
X71657Y-31630D01*
X71661Y-31629D01*
X71674Y-31627D01*
X71688Y-31623D01*
X71700Y-31618D01*
X71713Y-31612D01*
X71736Y-31594D01*
X71755Y-31573D01*
X71770Y-31548D01*
X71780Y-31520D01*
X71781Y-31515D01*
X71782Y-31496D01*
X71782Y-31476D01*
X71779Y-31457D01*
X71773Y-31439D01*
X71759Y-31412D01*
X71740Y-31389D01*
X71739Y-31388D01*
X71718Y-31372D01*
X71695Y-31360D01*
X71671Y-31352D01*
X71670Y-31352D01*
X71663Y-31351D01*
X71661Y-31350D01*
X71663Y-31349D01*
X71669Y-31348D01*
X71671Y-31348D01*
X71685Y-31344D01*
X71701Y-31338D01*
X71716Y-31330D01*
X71733Y-31317D01*
X71753Y-31296D01*
X71769Y-31271D01*
X71779Y-31243D01*
X71780Y-31238D01*
X71782Y-31219D01*
X71782Y-31199D01*
X71780Y-31181D01*
X71775Y-31165D01*
X71763Y-31139D01*
X71746Y-31116D01*
X71725Y-31096D01*
X71700Y-31082D01*
X71692Y-31079D01*
X71679Y-31075D01*
X71667Y-31072D01*
X71657Y-31070D01*
X71656Y-31070D01*
X71656Y-31070D01*
X71661Y-31069D01*
X71662Y-31069D01*
X71680Y-31064D01*
X71699Y-31057D01*
X71715Y-31049D01*
X71721Y-31045D01*
X71742Y-31027D01*
X71760Y-31005D01*
X71773Y-30981D01*
X71780Y-30954D01*
X71783Y-30926D01*
X71783Y-30926D01*
G37*
G36*
X71502Y-32061D02*
X71501Y-32044D01*
X71500Y-32027D01*
X71495Y-32009D01*
X71483Y-31982D01*
X71467Y-31959D01*
X71446Y-31939D01*
X71421Y-31925D01*
X71395Y-31915D01*
X71366Y-31911D01*
X71338Y-31913D01*
X71311Y-31921D01*
X71286Y-31933D01*
X71263Y-31951D01*
X71245Y-31974D01*
X71240Y-31981D01*
X71228Y-32008D01*
X71221Y-32036D01*
X71221Y-32065D01*
X71227Y-32094D01*
X71237Y-32117D01*
X71253Y-32141D01*
X71274Y-32162D01*
X71299Y-32178D01*
X71327Y-32188D01*
X71341Y-32191D01*
X71359Y-32192D01*
X71377Y-32191D01*
X71392Y-32189D01*
X71398Y-32188D01*
X71426Y-32177D01*
X71451Y-32160D01*
X71471Y-32139D01*
X71488Y-32113D01*
X71493Y-32101D01*
X71498Y-32085D01*
X71501Y-32070D01*
X71502Y-32061D01*
X71502Y-32061D01*
G37*
G36*
X71502Y-30645D02*
X71498Y-30616D01*
X71488Y-30588D01*
X71472Y-30562D01*
X71468Y-30557D01*
X71448Y-30537D01*
X71423Y-30522D01*
X71396Y-30512D01*
X71381Y-30509D01*
X71363Y-30508D01*
X71345Y-30509D01*
X71330Y-30511D01*
X71324Y-30513D01*
X71296Y-30524D01*
X71272Y-30540D01*
X71252Y-30560D01*
X71236Y-30584D01*
X71226Y-30611D01*
X71221Y-30641D01*
X71221Y-30651D01*
X71224Y-30680D01*
X71233Y-30706D01*
X71247Y-30730D01*
X71265Y-30750D01*
X71287Y-30767D01*
X71311Y-30779D01*
X71338Y-30787D01*
X71368Y-30788D01*
X71385Y-30787D01*
X71400Y-30783D01*
X71417Y-30777D01*
X71438Y-30766D01*
X71460Y-30748D01*
X71478Y-30726D01*
X71492Y-30701D01*
X71500Y-30674D01*
X71502Y-30645D01*
X71502Y-30645D01*
G37*
G36*
X71220Y-32340D02*
X71220Y-32321D01*
X71218Y-32303D01*
X71212Y-32283D01*
X71199Y-32257D01*
X71180Y-32234D01*
X71162Y-32219D01*
X71138Y-32204D01*
X71111Y-32195D01*
X71099Y-32193D01*
X71083Y-32192D01*
X71066Y-32193D01*
X71051Y-32195D01*
X71043Y-32197D01*
X71015Y-32208D01*
X70991Y-32224D01*
X70970Y-32245D01*
X70955Y-32271D01*
X70950Y-32280D01*
X70944Y-32298D01*
X70941Y-32316D01*
X70941Y-32338D01*
X70942Y-32351D01*
X70944Y-32366D01*
X70948Y-32380D01*
X70955Y-32395D01*
X70959Y-32404D01*
X70977Y-32428D01*
X70999Y-32447D01*
X71024Y-32462D01*
X71053Y-32471D01*
X71059Y-32472D01*
X71076Y-32473D01*
X71093Y-32472D01*
X71108Y-32471D01*
X71118Y-32468D01*
X71146Y-32457D01*
X71170Y-32441D01*
X71190Y-32421D01*
X71206Y-32396D01*
X71217Y-32367D01*
X71218Y-32359D01*
X71220Y-32340D01*
X71220Y-32340D01*
G37*
G36*
X71221Y-31214D02*
X71219Y-31185D01*
X71211Y-31159D01*
X71204Y-31143D01*
X71187Y-31119D01*
X71166Y-31099D01*
X71142Y-31084D01*
X71114Y-31074D01*
X71109Y-31073D01*
X71086Y-31069D01*
X71064Y-31070D01*
X71040Y-31076D01*
X71012Y-31087D01*
X70989Y-31104D01*
X70969Y-31125D01*
X70954Y-31150D01*
X70944Y-31178D01*
X70939Y-31196D01*
X70938Y-31187D01*
X70938Y-31184D01*
X70932Y-31164D01*
X70923Y-31143D01*
X70910Y-31124D01*
X70908Y-31121D01*
X70887Y-31100D01*
X70864Y-31085D01*
X70838Y-31075D01*
X70810Y-31070D01*
X70783Y-31071D01*
X70755Y-31077D01*
X70729Y-31089D01*
X70728Y-31090D01*
X70705Y-31107D01*
X70686Y-31128D01*
X70673Y-31152D01*
X70664Y-31178D01*
X70660Y-31205D01*
X70662Y-31232D01*
X70669Y-31258D01*
X70681Y-31284D01*
X70698Y-31307D01*
X70712Y-31319D01*
X70732Y-31333D01*
X70754Y-31343D01*
X70775Y-31348D01*
X70780Y-31349D01*
X70783Y-31350D01*
X70781Y-31351D01*
X70775Y-31352D01*
X70756Y-31356D01*
X70736Y-31365D01*
X70717Y-31377D01*
X70708Y-31384D01*
X70689Y-31405D01*
X70674Y-31429D01*
X70664Y-31456D01*
X70660Y-31485D01*
X70662Y-31514D01*
X70666Y-31531D01*
X70678Y-31558D01*
X70694Y-31581D01*
X70715Y-31601D01*
X70739Y-31616D01*
X70767Y-31626D01*
X70781Y-31629D01*
X70809Y-31630D01*
X70837Y-31625D01*
X70864Y-31615D01*
X70887Y-31599D01*
X70908Y-31579D01*
X70924Y-31554D01*
X70929Y-31543D01*
X70934Y-31530D01*
X70937Y-31518D01*
X70939Y-31509D01*
X70939Y-31508D01*
X70940Y-31508D01*
X70941Y-31514D01*
X70945Y-31528D01*
X70952Y-31547D01*
X70960Y-31563D01*
X70966Y-31572D01*
X70983Y-31590D01*
X71003Y-31607D01*
X71024Y-31619D01*
X71047Y-31626D01*
X71072Y-31630D01*
X71097Y-31630D01*
X71102Y-31629D01*
X71131Y-31621D01*
X71156Y-31608D01*
X71180Y-31589D01*
X71193Y-31573D01*
X71209Y-31548D01*
X71218Y-31520D01*
X71219Y-31509D01*
X71220Y-31494D01*
X71219Y-31478D01*
X71218Y-31463D01*
X71216Y-31452D01*
X71213Y-31443D01*
X71199Y-31415D01*
X71181Y-31392D01*
X71158Y-31373D01*
X71147Y-31366D01*
X71128Y-31358D01*
X71110Y-31352D01*
X71108Y-31352D01*
X71102Y-31351D01*
X71099Y-31350D01*
X71099Y-31350D01*
X71062Y-31350D01*
X71062Y-31350D01*
X71058Y-31351D01*
X71051Y-31352D01*
X71049Y-31353D01*
X71024Y-31361D01*
X71001Y-31375D01*
X70980Y-31393D01*
X70962Y-31414D01*
X70950Y-31438D01*
X70949Y-31439D01*
X70945Y-31452D01*
X70942Y-31463D01*
X70940Y-31476D01*
X70938Y-31464D01*
X70934Y-31447D01*
X70922Y-31422D01*
X70906Y-31399D01*
X70886Y-31380D01*
X70864Y-31365D01*
X70852Y-31359D01*
X70837Y-31354D01*
X70825Y-31352D01*
X70820Y-31351D01*
X70817Y-31350D01*
X70819Y-31349D01*
X70825Y-31348D01*
X70836Y-31346D01*
X70850Y-31341D01*
X70864Y-31335D01*
X70878Y-31327D01*
X70899Y-31309D01*
X70917Y-31287D01*
X70930Y-31262D01*
X70938Y-31236D01*
X70940Y-31223D01*
X70942Y-31236D01*
X70943Y-31238D01*
X70946Y-31250D01*
X70950Y-31262D01*
X70951Y-31265D01*
X70964Y-31288D01*
X70981Y-31309D01*
X71003Y-31327D01*
X71026Y-31340D01*
X71051Y-31347D01*
X71052Y-31348D01*
X71059Y-31349D01*
X71062Y-31350D01*
X71099Y-31350D01*
X71099Y-31350D01*
X71102Y-31349D01*
X71110Y-31348D01*
X71128Y-31343D01*
X71153Y-31331D01*
X71175Y-31314D01*
X71194Y-31293D01*
X71208Y-31268D01*
X71208Y-31268D01*
X71217Y-31242D01*
X71221Y-31214D01*
X71221Y-31214D01*
G37*
G36*
X71220Y-30378D02*
X71220Y-30355D01*
X71217Y-30334D01*
X71213Y-30321D01*
X71200Y-30294D01*
X71183Y-30271D01*
X71162Y-30253D01*
X71137Y-30239D01*
X71110Y-30230D01*
X71080Y-30227D01*
X71069Y-30227D01*
X71040Y-30233D01*
X71013Y-30244D01*
X70988Y-30261D01*
X70982Y-30266D01*
X70966Y-30286D01*
X70952Y-30310D01*
X70944Y-30335D01*
X70944Y-30335D01*
X70941Y-30356D01*
X70941Y-30379D01*
X70944Y-30400D01*
X70946Y-30408D01*
X70957Y-30434D01*
X70973Y-30458D01*
X70992Y-30477D01*
X71015Y-30492D01*
X71041Y-30502D01*
X71068Y-30507D01*
X71096Y-30507D01*
X71125Y-30501D01*
X71146Y-30491D01*
X71170Y-30475D01*
X71191Y-30454D01*
X71206Y-30430D01*
X71216Y-30403D01*
X71217Y-30399D01*
X71220Y-30378D01*
X71220Y-30378D01*
G37*
G36*
X70379Y-31766D02*
X70376Y-31739D01*
X70366Y-31712D01*
X70360Y-31699D01*
X70351Y-31686D01*
X70339Y-31673D01*
X70323Y-31659D01*
X70300Y-31644D01*
X70272Y-31634D01*
X70265Y-31633D01*
X70246Y-31631D01*
X70226Y-31631D01*
X70209Y-31633D01*
X70186Y-31641D01*
X70161Y-31654D01*
X70140Y-31671D01*
X70137Y-31674D01*
X70127Y-31687D01*
X70117Y-31702D01*
X70109Y-31716D01*
X70107Y-31721D01*
X70104Y-31732D01*
X70101Y-31744D01*
X70099Y-31752D01*
X70099Y-31757D01*
X70098Y-31752D01*
X70096Y-31745D01*
X70094Y-31736D01*
X70091Y-31726D01*
X70081Y-31705D01*
X70068Y-31684D01*
X70053Y-31667D01*
X70050Y-31665D01*
X70026Y-31648D01*
X69999Y-31636D01*
X69971Y-31631D01*
X69943Y-31631D01*
X69936Y-31632D01*
X69907Y-31640D01*
X69882Y-31653D01*
X69859Y-31672D01*
X69844Y-31689D01*
X69829Y-31713D01*
X69820Y-31741D01*
X69819Y-31746D01*
X69818Y-31765D01*
X69818Y-31785D01*
X69821Y-31803D01*
X69826Y-31819D01*
X69838Y-31845D01*
X69856Y-31867D01*
X69877Y-31886D01*
X69901Y-31900D01*
X69928Y-31908D01*
X69932Y-31909D01*
X69938Y-31911D01*
X69941Y-31912D01*
X69938Y-31913D01*
X69932Y-31913D01*
X69920Y-31916D01*
X69908Y-31921D01*
X69896Y-31926D01*
X69888Y-31930D01*
X69864Y-31947D01*
X69844Y-31969D01*
X69830Y-31993D01*
X69821Y-32021D01*
X69818Y-32051D01*
X69819Y-32074D01*
X69826Y-32101D01*
X69838Y-32126D01*
X69848Y-32140D01*
X69869Y-32160D01*
X69892Y-32176D01*
X69918Y-32187D01*
X69946Y-32192D01*
X69974Y-32191D01*
X70000Y-32185D01*
X70027Y-32174D01*
X70051Y-32157D01*
X70070Y-32136D01*
X70085Y-32110D01*
X70095Y-32081D01*
X70099Y-32066D01*
X70100Y-32075D01*
X70101Y-32081D01*
X70108Y-32103D01*
X70119Y-32125D01*
X70134Y-32146D01*
X70152Y-32162D01*
X70166Y-32172D01*
X70186Y-32182D01*
X70204Y-32188D01*
X70219Y-32191D01*
X70237Y-32192D01*
X70255Y-32191D01*
X70270Y-32189D01*
X70286Y-32184D01*
X70313Y-32171D01*
X70336Y-32153D01*
X70355Y-32131D01*
X70369Y-32105D01*
X70377Y-32075D01*
X70378Y-32068D01*
X70379Y-32051D01*
X70378Y-32033D01*
X70375Y-32017D01*
X70371Y-32005D01*
X70359Y-31979D01*
X70341Y-31956D01*
X70320Y-31937D01*
X70295Y-31923D01*
X70267Y-31914D01*
X70264Y-31913D01*
X70258Y-31912D01*
X70259Y-31911D01*
X70220Y-31911D01*
X70219Y-31912D01*
X70213Y-31914D01*
X70212Y-31914D01*
X70193Y-31919D01*
X70173Y-31928D01*
X70155Y-31939D01*
X70145Y-31948D01*
X70125Y-31969D01*
X70110Y-31995D01*
X70101Y-32023D01*
X70098Y-32037D01*
X70096Y-32027D01*
X70095Y-32019D01*
X70092Y-32010D01*
X70090Y-32004D01*
X70078Y-31979D01*
X70060Y-31956D01*
X70039Y-31937D01*
X70014Y-31923D01*
X69988Y-31914D01*
X69981Y-31913D01*
X69977Y-31911D01*
X69979Y-31910D01*
X69988Y-31908D01*
X69989Y-31908D01*
X70004Y-31904D01*
X70020Y-31897D01*
X70035Y-31888D01*
X70044Y-31881D01*
X70058Y-31868D01*
X70071Y-31854D01*
X70080Y-31841D01*
X70080Y-31840D01*
X70090Y-31818D01*
X70097Y-31795D01*
X70099Y-31786D01*
X70100Y-31797D01*
X70108Y-31822D01*
X70121Y-31847D01*
X70138Y-31869D01*
X70159Y-31887D01*
X70167Y-31892D01*
X70180Y-31898D01*
X70194Y-31904D01*
X70207Y-31908D01*
X70217Y-31910D01*
X70217Y-31910D01*
X70220Y-31911D01*
X70259Y-31911D01*
X70259Y-31910D01*
X70265Y-31909D01*
X70273Y-31907D01*
X70282Y-31905D01*
X70296Y-31899D01*
X70321Y-31885D01*
X70342Y-31867D01*
X70358Y-31845D01*
X70370Y-31820D01*
X70377Y-31794D01*
X70379Y-31766D01*
X70379Y-31766D01*
G37*
G36*
X70379Y-30922D02*
X70375Y-30894D01*
X70365Y-30868D01*
X70350Y-30844D01*
X70331Y-30824D01*
X70308Y-30807D01*
X70282Y-30795D01*
X70273Y-30793D01*
X70265Y-30791D01*
X70263Y-30791D01*
X70258Y-30789D01*
X70258Y-30789D01*
X70219Y-30789D01*
X70215Y-30790D01*
X70205Y-30793D01*
X70189Y-30798D01*
X70164Y-30810D01*
X70142Y-30827D01*
X70124Y-30849D01*
X70110Y-30874D01*
X70101Y-30901D01*
X70098Y-30914D01*
X70096Y-30905D01*
X70096Y-30904D01*
X70090Y-30881D01*
X70080Y-30859D01*
X70074Y-30850D01*
X70062Y-30836D01*
X70049Y-30823D01*
X70035Y-30812D01*
X70023Y-30805D01*
X70005Y-30797D01*
X69988Y-30792D01*
X69981Y-30790D01*
X69977Y-30789D01*
X69979Y-30788D01*
X69988Y-30786D01*
X70006Y-30780D01*
X70032Y-30768D01*
X70055Y-30749D01*
X70073Y-30728D01*
X70088Y-30702D01*
X70096Y-30673D01*
X70098Y-30663D01*
X70101Y-30677D01*
X70104Y-30690D01*
X70116Y-30717D01*
X70133Y-30741D01*
X70155Y-30761D01*
X70163Y-30767D01*
X70176Y-30774D01*
X70191Y-30780D01*
X70201Y-30784D01*
X70212Y-30786D01*
X70212Y-30786D01*
X70218Y-30788D01*
X70219Y-30789D01*
X70258Y-30789D01*
X70259Y-30788D01*
X70266Y-30786D01*
X70276Y-30784D01*
X70297Y-30776D01*
X70317Y-30765D01*
X70328Y-30757D01*
X70349Y-30736D01*
X70364Y-30711D01*
X70375Y-30683D01*
X70377Y-30670D01*
X70379Y-30651D01*
X70378Y-30631D01*
X70375Y-30614D01*
X70375Y-30612D01*
X70363Y-30584D01*
X70347Y-30559D01*
X70326Y-30538D01*
X70302Y-30523D01*
X70273Y-30512D01*
X70261Y-30509D01*
X70241Y-30508D01*
X70221Y-30509D01*
X70204Y-30512D01*
X70189Y-30517D01*
X70169Y-30527D01*
X70152Y-30538D01*
X70138Y-30551D01*
X70124Y-30568D01*
X70113Y-30586D01*
X70110Y-30593D01*
X70105Y-30606D01*
X70101Y-30619D01*
X70099Y-30629D01*
X70099Y-30630D01*
X70098Y-30627D01*
X70095Y-30619D01*
X70090Y-30602D01*
X70083Y-30584D01*
X70074Y-30569D01*
X70072Y-30566D01*
X70055Y-30547D01*
X70035Y-30531D01*
X70014Y-30519D01*
X70004Y-30515D01*
X69976Y-30509D01*
X69947Y-30508D01*
X69919Y-30513D01*
X69913Y-30515D01*
X69887Y-30527D01*
X69864Y-30544D01*
X69845Y-30566D01*
X69830Y-30591D01*
X69820Y-30618D01*
X69820Y-30622D01*
X69818Y-30642D01*
X69818Y-30662D01*
X69821Y-30681D01*
X69822Y-30685D01*
X69833Y-30713D01*
X69849Y-30738D01*
X69870Y-30758D01*
X69896Y-30774D01*
X69904Y-30778D01*
X69917Y-30783D01*
X69929Y-30786D01*
X69938Y-30787D01*
X69939Y-30787D01*
X69941Y-30788D01*
X69937Y-30790D01*
X69929Y-30792D01*
X69909Y-30797D01*
X69885Y-30809D01*
X69863Y-30826D01*
X69844Y-30847D01*
X69830Y-30871D01*
X69830Y-30872D01*
X69821Y-30898D01*
X69818Y-30926D01*
X69820Y-30954D01*
X69827Y-30981D01*
X69834Y-30996D01*
X69851Y-31020D01*
X69872Y-31040D01*
X69896Y-31056D01*
X69924Y-31065D01*
X69930Y-31067D01*
X69952Y-31070D01*
X69974Y-31069D01*
X70000Y-31063D01*
X70027Y-31051D01*
X70051Y-31035D01*
X70070Y-31013D01*
X70085Y-30988D01*
X70095Y-30959D01*
X70097Y-30953D01*
X70099Y-30948D01*
X70099Y-30948D01*
X70100Y-30957D01*
X70105Y-30973D01*
X70112Y-30990D01*
X70122Y-31006D01*
X70134Y-31022D01*
X70155Y-31042D01*
X70181Y-31057D01*
X70185Y-31059D01*
X70212Y-31067D01*
X70241Y-31070D01*
X70270Y-31066D01*
X70297Y-31057D01*
X70310Y-31051D01*
X70323Y-31042D01*
X70336Y-31030D01*
X70337Y-31029D01*
X70356Y-31006D01*
X70369Y-30981D01*
X70377Y-30953D01*
X70378Y-30950D01*
X70379Y-30922D01*
X70379Y-30922D01*
G37*
G36*
X71734Y-16064D02*
X71728Y-16052D01*
X71712Y-16027D01*
X71688Y-15990D01*
X71659Y-15947D01*
X71629Y-15903D01*
X71605Y-15868D01*
X71589Y-15843D01*
X71584Y-15832D01*
X71586Y-15827D01*
X71596Y-15806D01*
X71611Y-15776D01*
X71620Y-15759D01*
X71632Y-15731D01*
X71634Y-15718D01*
X71631Y-15715D01*
X71610Y-15705D01*
X71574Y-15690D01*
X71526Y-15669D01*
X71471Y-15645D01*
X71411Y-15620D01*
X71350Y-15594D01*
X71291Y-15570D01*
X71239Y-15549D01*
X71196Y-15532D01*
X71167Y-15520D01*
X71154Y-15516D01*
X71151Y-15517D01*
X71138Y-15531D01*
X71120Y-15555D01*
X71078Y-15607D01*
X71014Y-15658D01*
X70941Y-15689D01*
X70861Y-15700D01*
X70786Y-15691D01*
X70714Y-15661D01*
X70650Y-15611D01*
X70602Y-15551D01*
X70571Y-15480D01*
X70562Y-15400D01*
X70570Y-15324D01*
X70599Y-15251D01*
X70648Y-15186D01*
X70680Y-15159D01*
X70745Y-15121D01*
X70815Y-15100D01*
X70833Y-15097D01*
X70910Y-15101D01*
X70983Y-15123D01*
X71049Y-15164D01*
X71103Y-15220D01*
X71109Y-15227D01*
X71128Y-15254D01*
X71142Y-15271D01*
X71153Y-15285D01*
X71389Y-15187D01*
X71426Y-15171D01*
X71491Y-15144D01*
X71546Y-15121D01*
X71590Y-15102D01*
X71620Y-15089D01*
X71632Y-15083D01*
X71632Y-15082D01*
X71634Y-15074D01*
X71627Y-15056D01*
X71611Y-15023D01*
X71600Y-15001D01*
X71588Y-14976D01*
X71584Y-14965D01*
X71589Y-14955D01*
X71604Y-14931D01*
X71628Y-14896D01*
X71657Y-14854D01*
X71684Y-14814D01*
X71708Y-14777D01*
X71725Y-14750D01*
X71732Y-14737D01*
X71732Y-14735D01*
X71726Y-14723D01*
X71708Y-14702D01*
X71678Y-14670D01*
X71633Y-14624D01*
X71626Y-14617D01*
X71588Y-14580D01*
X71556Y-14550D01*
X71534Y-14529D01*
X71523Y-14522D01*
X71523Y-14522D01*
X71510Y-14529D01*
X71484Y-14546D01*
X71446Y-14570D01*
X71402Y-14600D01*
X71289Y-14678D01*
X71182Y-14635D01*
X71149Y-14622D01*
X71109Y-14605D01*
X71081Y-14593D01*
X71068Y-14587D01*
X71064Y-14575D01*
X71057Y-14546D01*
X71048Y-14503D01*
X71039Y-14452D01*
X71030Y-14404D01*
X71022Y-14361D01*
X71016Y-14329D01*
X71013Y-14315D01*
X71011Y-14311D01*
X71004Y-14309D01*
X70989Y-14307D01*
X70963Y-14306D01*
X70921Y-14305D01*
X70861Y-14305D01*
X70854Y-14305D01*
X70796Y-14306D01*
X70751Y-14307D01*
X70721Y-14308D01*
X70709Y-14310D01*
X70709Y-14310D01*
X70706Y-14324D01*
X70699Y-14355D01*
X70691Y-14398D01*
X70681Y-14450D01*
X70680Y-14454D01*
X70670Y-14505D01*
X70661Y-14549D01*
X70654Y-14579D01*
X70650Y-14592D01*
X70646Y-14595D01*
X70626Y-14605D01*
X70594Y-14620D01*
X70555Y-14637D01*
X70514Y-14654D01*
X70478Y-14669D01*
X70450Y-14679D01*
X70438Y-14682D01*
X70438Y-14681D01*
X70425Y-14674D01*
X70398Y-14656D01*
X70361Y-14631D01*
X70317Y-14600D01*
X70314Y-14598D01*
X70270Y-14568D01*
X70233Y-14544D01*
X70206Y-14528D01*
X70194Y-14522D01*
X70194Y-14522D01*
X70181Y-14532D01*
X70156Y-14554D01*
X70122Y-14586D01*
X70084Y-14625D01*
X70072Y-14637D01*
X70030Y-14679D01*
X70003Y-14709D01*
X69988Y-14727D01*
X69985Y-14736D01*
X69985Y-14737D01*
X69993Y-14750D01*
X70011Y-14777D01*
X70037Y-14815D01*
X70067Y-14859D01*
X70069Y-14862D01*
X70099Y-14906D01*
X70124Y-14943D01*
X70141Y-14969D01*
X70148Y-14980D01*
X70148Y-14982D01*
X70142Y-15000D01*
X70131Y-15031D01*
X70117Y-15069D01*
X70100Y-15110D01*
X70085Y-15146D01*
X70072Y-15174D01*
X70065Y-15187D01*
X70064Y-15187D01*
X70049Y-15192D01*
X70016Y-15200D01*
X69971Y-15209D01*
X69917Y-15219D01*
X69908Y-15221D01*
X69856Y-15231D01*
X69813Y-15239D01*
X69783Y-15245D01*
X69771Y-15248D01*
X69769Y-15256D01*
X69767Y-15281D01*
X69766Y-15320D01*
X69766Y-15367D01*
X69766Y-15416D01*
X69767Y-15465D01*
X69769Y-15506D01*
X69771Y-15536D01*
X69773Y-15548D01*
X69774Y-15548D01*
X69790Y-15553D01*
X69823Y-15560D01*
X69868Y-15569D01*
X69922Y-15580D01*
X69932Y-15582D01*
X69984Y-15591D01*
X70026Y-15600D01*
X70056Y-15606D01*
X70067Y-15610D01*
X70070Y-15614D01*
X70079Y-15636D01*
X70094Y-15671D01*
X70111Y-15714D01*
X70152Y-15814D01*
X70067Y-15937D01*
X70060Y-15949D01*
X70030Y-15993D01*
X70005Y-16029D01*
X69989Y-16054D01*
X69983Y-16065D01*
X69984Y-16066D01*
X69994Y-16078D01*
X70017Y-16102D01*
X70050Y-16136D01*
X70088Y-16174D01*
X70117Y-16203D01*
X70151Y-16237D01*
X70174Y-16258D01*
X70189Y-16270D01*
X70198Y-16274D01*
X70204Y-16273D01*
X70217Y-16265D01*
X70244Y-16247D01*
X70281Y-16222D01*
X70325Y-16192D01*
X70361Y-16167D01*
X70402Y-16141D01*
X70432Y-16123D01*
X70446Y-16117D01*
X70452Y-16119D01*
X70476Y-16127D01*
X70513Y-16142D01*
X70556Y-16160D01*
X70653Y-16203D01*
X70666Y-16267D01*
X70673Y-16306D01*
X70683Y-16360D01*
X70693Y-16411D01*
X70709Y-16492D01*
X71005Y-16495D01*
X71011Y-16483D01*
X71014Y-16471D01*
X71021Y-16441D01*
X71029Y-16398D01*
X71039Y-16348D01*
X71047Y-16305D01*
X71055Y-16261D01*
X71061Y-16230D01*
X71064Y-16216D01*
X71068Y-16213D01*
X71089Y-16202D01*
X71123Y-16187D01*
X71163Y-16170D01*
X71204Y-16152D01*
X71243Y-16137D01*
X71272Y-16126D01*
X71287Y-16122D01*
X71298Y-16128D01*
X71324Y-16145D01*
X71360Y-16169D01*
X71403Y-16198D01*
X71446Y-16227D01*
X71483Y-16252D01*
X71509Y-16269D01*
X71521Y-16277D01*
X71530Y-16273D01*
X71550Y-16256D01*
X71584Y-16223D01*
X71632Y-16175D01*
X71639Y-16167D01*
X71676Y-16129D01*
X71706Y-16096D01*
X71726Y-16074D01*
X71734Y-16064D01*
X71734Y-16064D01*
G37*
%LPC*%
G54D14*
X67600Y-22900D03*
G54D15*
X67600Y-21900D03*
X67600Y-20900D03*
X67600Y-19900D03*
X67600Y-18900D03*
X67600Y-17900D03*
X67600Y-16900D03*
X67600Y-15900D03*
X67600Y-14900D03*
G54D14*
X75100Y-14900D03*
G54D15*
X75100Y-15900D03*
X75100Y-16900D03*
X75100Y-17900D03*
X75100Y-18900D03*
X75100Y-19900D03*
X75100Y-20900D03*
X75100Y-21900D03*
X75100Y-22900D03*
G54D14*
X75100Y-31900D03*
G54D15*
X75100Y-30900D03*
X75100Y-29900D03*
X75100Y-28900D03*
X75100Y-27900D03*
X75100Y-26900D03*
X75100Y-25900D03*
X75100Y-24900D03*
X75100Y-23900D03*
G54D14*
X66100Y-31900D03*
G54D15*
X66100Y-30900D03*
X66100Y-29900D03*
X66100Y-28900D03*
X66100Y-27900D03*
X66100Y-26900D03*
X66100Y-25900D03*
X66100Y-24900D03*
X66100Y-23900D03*
G54D14*
X66100Y-14900D03*
G54D15*
X66100Y-15900D03*
X66100Y-16900D03*
X66100Y-17900D03*
X66100Y-18900D03*
X66100Y-19900D03*
X66100Y-20900D03*
X66100Y-21900D03*
X66100Y-22900D03*
G54D16*
X72300Y-31900D03*
X72300Y-30900D03*
X72300Y-29900D03*
X72300Y-28900D03*
X72300Y-27900D03*
X72300Y-26900D03*
X72300Y-25900D03*
X72300Y-24900D03*
X69300Y-24900D03*
X69300Y-25900D03*
X69300Y-26900D03*
X69300Y-27900D03*
X69300Y-28900D03*
X69300Y-29900D03*
X69300Y-30900D03*
X69300Y-31900D03*
X72300Y-21900D03*
X72300Y-20900D03*
X72300Y-19900D03*
X72300Y-18900D03*
X72300Y-17900D03*
X72300Y-16900D03*
X72300Y-15900D03*
X72300Y-14900D03*
X69300Y-14900D03*
X69300Y-15900D03*
X69300Y-16900D03*
X69300Y-17900D03*
X69300Y-18900D03*
X69300Y-19900D03*
X69300Y-20900D03*
X69300Y-21900D03*
G54D14*
X67600Y-31900D03*
G54D15*
X67600Y-30900D03*
X67600Y-29900D03*
X67600Y-28900D03*
X67600Y-27900D03*
X67600Y-26900D03*
X67600Y-25900D03*
X67600Y-24900D03*
X67600Y-23900D03*
M02*
